<svg width="210mm" height="150mm" viewBox="0 0 210 150" xmlns="http://www.w3.org/2000/svg">

<rect width="100%" height="100%" fill="#1E1E1E"/>

<path d="M73.778 57.987h6.164v8.818q-1.439.459-2.927.695-1.488.235-3.448.235-4.117 0-6.412-2.443-2.294-2.456-2.294-6.87 0-2.829 1.128-4.95 1.141-2.133 3.274-3.249 2.134-1.128 4.999-1.128 2.902 0 5.407 1.066l-.819 1.86q-2.455-1.041-4.725-1.041-3.311 0-5.172 1.972-1.86 1.972-1.86 5.47 0 3.67 1.786 5.568 1.798 1.897 5.27 1.897 1.886 0 3.684-.434v-5.58h-4.055zm10.517 9.5V49.355h2.108v18.132zm18.475 0-2.257-5.767h-7.268l-2.232 5.767h-2.134l7.169-18.207h1.774l7.13 18.207zm-2.914-7.665-2.109-5.618q-.41-1.067-.843-2.617-.273 1.19-.782 2.617l-2.133 5.618z" transform="translate(-115.18 -76.475) scale(2.5931)" fill="#ff6262" style="shape-inside:url(#rect859);white-space:pre" aria-label="GIA"/></svg>