<svg width="210mm" height="150mm" viewBox="0 0 210 150" xmlns="http://www.w3.org/2000/svg">
<rect width="100%" height="100%" fill="#1E1E1E"/>
<g stroke-width="2.856" aria-label="GIA?"><path d="M68.944 74.811h4.867v18.302q-3.359 2.948-7.952 4.524t-9.665 1.577q-7.198 0-12.956-3.153-5.758-3.154-9.048-8.706-3.29-5.621-3.29-12.544t3.29-12.476q3.29-5.621 9.048-8.774 5.758-3.153 13.024-3.153 5.484 0 10.077 1.782 4.593 1.714 7.746 5.14l-3.153 3.223q-5.69-5.621-14.464-5.621-5.827 0-10.556 2.605-4.661 2.536-7.335 7.129-2.673 4.524-2.673 10.145t2.673 10.145q2.674 4.524 7.335 7.129Q50.573 94.69 56.4 94.69q7.403 0 12.544-3.702zm19.193-23.992h5.073v47.984h-5.073zm50.793 35.165h-26.734l-5.758 12.819h-5.278l21.936-47.984h5.004l21.936 47.984h-5.347zm-1.85-4.113-11.517-25.774-11.516 25.774z" fill="#77ddc5"/><path d="M164.02 99.146q-1.508 0-2.536-1.028-1.029-1.097-1.029-2.536 0-1.509 1.029-2.468 1.028-1.028 2.536-1.028 1.577 0 2.605 1.028 1.028.96 1.028 2.468 0 1.439-1.097 2.536-1.028 1.028-2.536 1.028z" fill="#7ceb77"/>
</g>
</svg>