<svg width="210mm" height="150mm" viewBox="0 0 210 150" xmlns="http://www.w3.org/2000/svg"><rect width="100%" height="100%" fill="#1E1E1E"/><defs><marker id="b" overflow="visible" orient="auto"><path d="M5.231 2.42-1.324.01 5.23-2.401C4.184-.978 4.19.969 5.231 2.42z" fill="#888" fill-rule="evenodd" stroke="#888" stroke-linejoin="round" stroke-width=".375"/></marker><marker id="a" overflow="visible" orient="auto"><path d="M5.231 2.42-1.324.01 5.23-2.401C4.184-.978 4.19.969 5.231 2.42z" fill="#888" fill-rule="evenodd" stroke="#888" stroke-linejoin="round" stroke-width=".375"/></marker><filter id="c" x="-1.218" y="-1.218" width="3.437" height="3.437" color-interpolation-filters="sRGB"><feGaussianBlur stdDeviation="1.439"/></filter></defs><g transform="translate(-2.07 2.188)" fill="#888"><path d="M96.625 54.26c0 1.01-.622 1.447-1.186 1.447-.537 0-1.158-.437-1.158-1.414 0-.472.226-1.246 1.045-1.38-.621-.64-1.497-.708-1.779-.708-1.27 0-2.23.842-2.626 7.039l-.536 8.386c-.226 3.738-1.243 13.539-1.61 15.29-.621 3.031-1.976 5.961-4.659 5.961-1.694 0-3.105-1.179-3.105-2.795 0-1.01.62-1.448 1.185-1.448.537 0 1.158.437 1.158 1.414 0 .472-.226 1.246-1.045 1.38.593.607 1.44.708 1.807.708 1.61 0 2.626-1.515 2.993-7.039l.537-8.386c.254-4.075 1.27-13.572 1.61-15.425.48-2.56 1.58-5.826 4.263-5.826 1.694 0 3.106 1.179 3.106 2.795z"/><path d="M89.533 88.768q0-.866.465-1.641t1.207-1.226q.745-.45 1.542-.45.79 0 1.268.595.061.061.069.061l.072-.069.42-.485q.008-.007.027-.03.02-.027.027-.034.023-.039.072-.039.096 0 .092.088l-.359 2.12q-.03.022-.107.022-.11 0-.118-.08 0-.038.004-.1.004-.064.004-.095 0-.702-.367-1.206-.363-.504-1.027-.504-.53 0-1.016.278-.485.275-.79.684-.32.431-.497 1.042-.175.607-.194.875-.02.263-.02.466 0 .5.153.882.153.378.405.58.256.202.523.298.271.095.562.095.694 0 1.32-.534.539-.462.738-1.283.015-.069.099-.069.095 0 .095.088 0 .053-.046.229-.042.176-.24.538-.199.363-.512.646-.702.626-1.573.626-.97 0-1.634-.66-.664-.661-.664-1.708z" aria-label="C"/><path d="m31.279 64.964.105-.674q1.421.063 2.61.063 2.327 0 3.085-.063-.021.106-.063.348-.042.242-.042.326-1.937 0-1.948.726 0 .148.053.369l1.653 10.432 4.42-8.948q.127-.242.127-.357 0-.148-.137-.916-.137-.769-.2-.895-.126-.263-.432-.337-.305-.074-1.252-.074l.105-.673q1.421.063 2.61.063 2.327 0 3.085-.063-.021.105-.063.347-.042.242-.042.326-1.937 0-1.948.727 0 .084.042.326l1.663 10.474 4.916-9.979q.169-.305.169-.537 0-.39-.348-.62-.337-.243-.62-.306-.274-.063-.538-.084-.147-.021-.147-.116l.084-.558q1.169.063 2.537.063 1.168 0 1.99-.063-.022.105-.053.337-.032.221-.053.337-.779 0-1.315.305-.537.295-.716.537-.169.232-.369.621L44.016 79.06q-.21.432-.495.432-.19 0-.253-.095t-.105-.442l-1.726-10.842-5.39 10.947q-.21.431-.494.431-.19 0-.264-.105-.063-.105-.105-.39L33.11 65.935q-.105-.695-.41-.832t-1.421-.137zm28.337 10.779q0-.263.495-.263h13.147q.41 0 .494.042.148.084.158.2 0 .263-.61.253H60.195q-.58.01-.58-.232zm.716-4.21q0-.264.42-.253h13.2q.622 0 .622.253 0 .242-.537.242H60.753q-.421 0-.421-.243zm34.308 7.974.11-.693h.495q1.266 0 1.575-.188.319-.198.407-.814l2.003-11.987q.044-.198.044-.32 0-.363-.33-.495-.32-.132-1.376-.132h-.495l.11-.704h12.372l-.198 5.074h-.562q.022-.275.022-.99 0-1.894-.726-2.631-.716-.749-2.928-.749h-2.62q-.77 0-.98.143-.209.143-.297.716l-.946 5.746h1.893q1.508 0 2.047-.529.54-.528.815-2.113h.561l-.99 5.977h-.562q.132-.815.132-1.2 0-.836-.495-1.134-.495-.308-1.651-.308h-1.894l-.902 5.438q-.066.363-.066.517 0 .386.385.54.385.143 1.673.143h.716l-.11.693q-.859-.066-3.809-.066-2.63 0-3.423.066zm16.286-5.937q0-4.9 2.842-7.443h.923q-.836.894-1.206 1.52-1.403 2.354-1.396 5.922 0 4.477 2.122 6.934l.48.509h-.923q-2.842-2.573-2.842-7.442zm5.386 2.95q0-.313.196-.553.204-.24.516-.24.226 0 .364.146.138.138.138.349 0 .509-.574.697.327.19.632.19h.022q.24 0 .436-.102.203-.102.363-.342.168-.24.277-.465.116-.233.24-.669.123-.443.196-.741.08-.298.21-.872.138-.574.211-.901.182-.793.182-1.01 0-.43-.204-.691-.203-.262-.53-.262-.509 0-.974.487-.465.48-.734 1.236-.015.029-.03.094-.014.058-.036.08-.014.022-.036.073-.022.05-.05.08-.03.022-.066.036-.037.015-.095.015-.21 0-.21-.197 0-.24.247-.74.247-.51.8-1.004.559-.501 1.227-.501h.015q.996.014 1.432 1.024.567-1.024 1.46-1.024.458 0 .865.24.415.232.415.697 0 .342-.226.567-.225.218-.508.218-.211 0-.35-.13-.137-.139-.137-.342 0-.226.145-.422.153-.203.422-.276-.284-.21-.64-.21-.196 0-.392.08-.19.08-.48.5-.29.415-.473 1.127-.13.523-.261 1.061-.124.538-.19.8-.065.254-.145.538-.072.283-.094.407-.022.116-.044.254-.021.13-.029.196-.007.066-.007.167 0 .4.189.662.196.261.538.261.509 0 .981-.48.48-.486.734-1.242.015-.03.036-.087.022-.066.03-.095.007-.029.029-.073.021-.043.05-.065.03-.022.066-.036.043-.015.102-.015.21 0 .203.19 0 .239-.247.748-.24.501-.807 1.003t-1.22.501q-.415 0-.822-.232-.4-.233-.61-.785-.197.283-.335.458-.138.167-.458.363-.32.196-.676.196-.494 0-.886-.247t-.393-.69zm7.203 3.484q0-.073.218-.298l.523-.523q.298-.298.618-.872.32-.575.465-1.243-.327.225-.596.225-.298 0-.48-.167-.174-.174-.174-.458 0-.356.284-.654.283-.298.668-.298.684 0 .69.88 0 .595-.275 1.264t-.633 1.148q-.356.487-.697.814-.335.327-.466.327-.145 0-.145-.145zm10.261-.937q0-.458.225-.69.233-.233.516-.233.226 0 .364.13.145.139.145.342 0 .225-.174.465-.167.24-.589.255.254.683.938.683.668 0 1.264-.632.596-.633.952-1.738.073-.24.197-.74-.655.551-1.338.551-.668 0-1.17-.385-.501-.392-.501-1.33 0-.494.247-1.453.247-.96.494-1.737.247-.785.247-.843 0-.146-.203-.182-.204-.044-.458-.044-.247 0-.313-.043-.13-.088-.029-.284.073-.116.327-.145 1.49-.131 1.657-.138h.015q.225 0 .218.196 0 .13-.175.85-.101.327-.24.4-.879 2.95-.879 3.678 0 1.112.814 1.112h.007q.51 0 .938-.386.429-.385.567-.726.029-.088.065-.24l.051-.226.981-3.88.015-.073q.014-.073.029-.124.022-.058.05-.145.03-.095.08-.16.052-.066.11-.124.058-.058.145-.094.095-.044.196-.044.168 0 .284.116.123.11.123.291 0 .044-.021.131t-.022.102l-1.374 5.494q-.21.822-.567 1.454t-.727.974q-.37.342-.799.567-.422.225-.712.283-.291.058-.545.058-.625 0-1.025-.356-.4-.356-.4-.937zm6.577 1.947q.385-.414.618-.697.24-.284.661-.981.429-.69.676-1.403.247-.712.443-1.875.204-1.163.204-2.486 0-1.38-.226-2.587-.218-1.207-.465-1.905-.247-.705-.72-1.424-.464-.72-.639-.916-.167-.196-.552-.61h.908q2.857 2.558 2.857 7.427 0 4.9-2.857 7.457z"/><path d="M148.96 73.199a.65.7 0 0 1-.65.7.65.7 0 0 1-.65-.7.65.7 0 0 1 .65-.7.65.7 0 0 1 .65.7z" stroke="#888" stroke-width=".229"/><path d="m151.378 69.365 1.287-5.06h13.763l-.429 5.06h-.561q.11-.968.121-1.727 0-1.65-.704-2.145-.693-.495-2.75-.495-1.035 0-1.233.044-.22.044-.34.165-.11.11-.144.209-.022.099-.088.418l-2.002 11.98q-.044.253-.044.363 0 .385.44.54.44.142 1.837.142h.858l-.12.694q-.925-.066-4.258-.066l-2.156.022q-1.552 0-2.124.044l.11-.694h.858q1.167 0 1.706-.12.55-.133.67-.298.133-.176.199-.605l1.98-11.804q.066-.54.066-.561 0-.253-.11-.33-.11-.077-.473-.121-.132-.022-.99-.022-.561 0-.99.022-.43.022-.803.11l-.65.154q-.264.055-.528.264-.253.198-.418.308-.154.11-.352.473-.187.363-.275.55-.088.187-.264.715-.165.517-.253.803-.088.275-.264.968z" aria-label="T"/><path d="M97.094 61.533h12.853-.536" marker-end="url(#a)" stroke="#888" stroke-width=".723"/><path d="M154.22 61.533h12.853-.536" marker-end="url(#b)" stroke="#888" stroke-width=".723"/><path d="M168.36 76.312q0-2.342 1.565-4.37 1.575-2.037 3.361-2.037 1.208 0 1.807 1.25l1.25-5.042.02-.168q.042-.147.042-.189 0-.126-.042-.189-.042-.073-.294-.126-.241-.052-.735-.052-.514 0-.514-.242 0-.189.073-.283.074-.105.158-.126.084-.021.262-.042l2.122-.168q.126-.042.346-.042.305 0 .305.252 0 .084-.063.283L174.946 77.3q-.126.515-.126.998 0 .872.546.872h.01q.798 0 1.44-2.553.083-.346.146-.42.074-.073.263-.073.325 0 .325.21 0 .042-.084.378-.073.336-.23.85-.158.515-.337.883-.578 1.208-1.565 1.208-.62 0-1.124-.378-.493-.378-.661-1.135-1.23 1.502-2.584 1.513-1.187 0-1.901-.956-.704-.966-.704-2.384zm1.46.945q0 .715.263 1.313.262.599.924.599.798 0 1.66-.872.86-.882 1.008-1.512l1.029-4.128q.063-.19.063-.284 0-.693-.42-1.376-.41-.62-1.061-.62-.64 0-1.323.694-.673.683-1.082 1.69-.326.757-.693 2.249-.368 1.491-.368 2.247zm8.84.305q0-.662.326-.998.336-.336.766-.336.347 0 .536.2.2.189.2.483 0 .126-.032.294-.031.157-.305.441-.273.284-.766.326.388 1.197 2.037 1.197h.032q.62 0 1.134-.179.525-.178.809-.462.294-.283.494-.62.21-.346.283-.619.074-.284.074-.525 0-.41-.158-.693-.147-.295-.472-.463-.316-.178-.568-.252-.241-.073-.714-.178-.283-.063-.462-.105-.168-.053-.504-.21-.326-.168-.525-.368-.19-.2-.357-.567-.158-.368-.158-.84 0-1.072.861-2.122.862-1.06 2.542-1.06 1.03 0 1.66.524.64.525.64 1.303 0 .62-.294.903-.283.284-.63.284-.347 0-.494-.179-.147-.189-.147-.42 0-.242.2-.536.21-.294.662-.357-.305-1.05-1.618-1.05-1.113 0-1.649.693-.525.683-.525 1.281 0 .431.241.704.253.263.484.357.241.084.65.168.368.084.61.147.252.063.662.263.41.189.65.43.253.232.442.652.2.42.2.956 0 .346-.116.766-.105.42-.399.935-.284.515-.714.935t-1.166.704q-.725.283-1.65.283-1.186 0-1.984-.567-.788-.578-.788-1.523z" aria-label="ds"/><circle transform="matrix(29.03 0 0 20.46 -2096.8 -545.55)" cx="75.68" cy="30.223" r="1.417" filter="url(#c)" opacity=".223"/></g></svg>