<svg xmlns="http://www.w3.org/2000/svg" width="600" height="400" viewBox="0 0 2400 1600"><defs><clipPath id="a"><path d="M0 0h2400v1600H0z"/></clipPath></defs><path clip-path="url(#a)" d="M0 1600h2400V0H0z" fill="#1e1e1e" fill-rule="evenodd"/><defs><clipPath id="b"><path d="M202 47h2151v1405H202z"/></clipPath></defs><path clip-path="url(#a)" d="M202.876 1450.96H2352.76V47.244H202.876z" fill="#202020" fill-rule="evenodd"/><path clip-path="url(#b)" style="stroke:#adb2b7;stroke-linecap:butt;stroke-linejoin:round;stroke-width:2;stroke-opacity:.1;fill:none" d="M202.876 1450.96V47.244M561.19 1450.96V47.244M919.503 1450.96V47.244M1277.82 1450.96V47.244m358.31 1403.716V47.244m358.31 1403.716V47.244m358.32 1403.716V47.244"/><path clip-path="url(#a)" style="stroke:#adb2b7;stroke-linecap:butt;stroke-linejoin:round;stroke-width:4;stroke-opacity:1;fill:none" d="M202.876 1450.96H2352.76m-2149.884 0v-18.9m358.314 18.9v-18.9m358.313 18.9v-18.9m358.317 18.9v-18.9m358.31 18.9v-18.9m358.31 18.9v-18.9m358.32 18.9v-18.9"/><path clip-path="url(#a)" d="M171.777 1494.8h29.676v3.94h-29.676v-3.94zm52.615-13.65-11.805 18.45h11.805v-18.45m-1.226-4.08h5.879v22.53h4.931v3.88h-4.931v8.15h-4.653v-8.15h-15.601v-4.51l14.375-21.9zm307.966 17.73h29.676v3.94h-29.676v-3.94zm43.796 12.9h16.319v3.93h-21.944v-3.93q2.662-2.76 7.245-7.39 4.607-4.65 5.787-5.99 2.246-2.53 3.125-4.26.903-1.76.903-3.45 0-2.76-1.944-4.49-1.922-1.74-5.023-1.74-2.199 0-4.653.77-2.431.76-5.208 2.31v-4.72q2.824-1.14 5.277-1.71 2.454-.58 4.491-.58 5.37 0 8.565 2.68 3.194 2.69 3.194 7.18 0 2.13-.81 4.05-.787 1.9-2.894 4.49-.578.67-3.68 3.89-3.102 3.19-8.75 8.96zm344.575-27.55q-3.611 0-5.44 3.57-1.805 3.54-1.805 10.67 0 7.1 1.805 10.67 1.829 3.54 5.44 3.54 3.634 0 5.44-3.54 1.828-3.57 1.828-10.67 0-7.13-1.828-10.67-1.806-3.57-5.44-3.57m0-3.7q5.81 0 8.866 4.6 3.078 4.59 3.078 13.34 0 8.72-3.078 13.33-3.056 4.58-8.866 4.58t-8.889-4.58q-3.055-4.61-3.055-13.33 0-8.75 3.055-13.34 3.079-4.6 8.889-4.6zm352.967 31.25h16.32v3.93h-21.95v-3.93q2.67-2.76 7.25-7.39 4.61-4.65 5.79-5.99 2.24-2.53 3.12-4.26.9-1.76.9-3.45 0-2.76-1.94-4.49-1.92-1.74-5.02-1.74-2.2 0-4.66.77-2.43.76-5.2 2.31v-4.72q2.82-1.14 5.27-1.71 2.46-.58 4.49-.58 5.37 0 8.57 2.68 3.19 2.69 3.19 7.18 0 2.13-.81 4.05-.78 1.9-2.89 4.49-.58.67-3.68 3.89-3.1 3.19-8.75 8.96zm366.67-26.55-11.81 18.45h11.81v-18.45m-1.23-4.08h5.88v22.53h4.93v3.88h-4.93v8.15h-4.65v-8.15h-15.6v-4.51l14.37-21.9zm356.94 15.42q-3.15 0-5 2.15-1.83 2.15-1.83 5.9 0 3.73 1.83 5.91 1.85 2.15 5 2.15t4.97-2.15q1.86-2.18 1.86-5.91 0-3.75-1.86-5.9-1.82-2.15-4.97-2.15m9.28-14.65v4.26q-1.76-.84-3.56-1.28-1.79-.44-3.55-.44-4.63 0-7.08 3.13-2.43 3.12-2.78 9.44 1.37-2.01 3.43-3.08 2.06-1.08 4.54-1.08 5.2 0 8.21 3.17 3.04 3.14 3.04 8.58 0 5.33-3.15 8.55-3.15 3.21-8.38 3.21-6 0-9.17-4.58-3.17-4.61-3.17-13.33 0-8.2 3.89-13.06 3.89-4.88 10.44-4.88 1.76 0 3.54.34 1.81.35 3.75 1.05zm348.63 17.38q-3.34 0-5.26 1.78-1.9 1.79-1.9 4.91 0 3.13 1.9 4.91 1.92 1.78 5.26 1.78 3.33 0 5.25-1.78 1.92-1.81 1.92-4.91 0-3.12-1.92-4.91-1.9-1.78-5.25-1.78m-4.68-1.99q-3.01-.74-4.7-2.8-1.67-2.06-1.67-5.02 0-4.15 2.94-6.56 2.97-2.4 8.11-2.4 5.16 0 8.1 2.4 2.94 2.41 2.94 6.56 0 2.96-1.69 5.02-1.67 2.06-4.66 2.8 3.38.79 5.26 3.08 1.9 2.29 1.9 5.6 0 5.02-3.08 7.71-3.06 2.68-8.77 2.68-5.72 0-8.8-2.68-3.06-2.69-3.06-7.71 0-3.31 1.9-5.6 1.9-2.29 5.28-3.08m-1.71-7.38q0 2.68 1.66 4.19 1.69 1.5 4.73 1.5 3.01 0 4.69-1.5 1.72-1.51 1.72-4.19 0-2.69-1.72-4.19-1.68-1.51-4.69-1.51-3.04 0-4.73 1.51-1.66 1.5-1.66 4.19zm-1054.38 54.07q0 1.8-1.13 2.83-1.12 1-2.41 1-1.23 0-1.87-.71-.65-.71-.65-1.61 0-1.22.91-2.29.9-1.06 2.25-1.29-1.32-.83-3.28-.83-1.29 0-2.42.67-1.09.68-1.77 1.55-.64.87-1.22 2.13-.55 1.22-.78 1.96-.19.71-.35 1.48l-2.26 9.02q-1.09 4.28-1.09 5.8 0 1.86.9 3.12.9 1.22 2.71 1.22.7 0 1.51-.19.8-.23 1.84-.8 1.06-.62 1.99-1.52.97-.93 1.9-2.51.94-1.58 1.55-3.61.19-.71.84-.71.8 0 .8.65 0 .55-.45 1.7-.42 1.13-1.35 2.61-.9 1.45-2.1 2.77-1.19 1.29-2.96 2.19-1.77.91-3.7.91-2.77 0-4.61-1.49-1.83-1.48-2.51-3.54-.16.29-.39.68-.22.38-.9 1.25-.64.84-1.38 1.48-.74.62-1.9 1.1-1.13.52-2.35.52-1.55 0-2.94-.46-1.35-.45-2.31-1.48-.97-1.03-.97-2.44 0-1.58 1.06-2.68 1.1-1.13 2.58-1.13.93 0 1.67.55.78.55.78 1.74 0 1.32-.91 2.32-.9 1-2.19 1.26 1.33.83 3.29.83 2.13 0 3.8-1.86 1.67-1.87 2.48-5 2-7.5 2.77-10.85.77-3.38.77-4.83 0-1.35-.35-2.29-.36-.93-.97-1.35-.58-.45-1.13-.61-.51-.16-1.09-.16-.97 0-2.06.38-1.06.39-2.35 1.29-1.26.87-2.45 2.68-1.19 1.8-2 4.28-.16.74-.87.74-.77-.03-.77-.68 0-.54.42-1.67.45-1.16 1.35-2.61.94-1.45 2.13-2.74 1.22-1.32 2.99-2.22 1.81-.9 3.74-.9.87 0 1.71.19.87.16 1.9.65 1.06.48 1.99 1.54.94 1.06 1.52 2.61.38-.74.9-1.45.55-.71 1.38-1.58.87-.9 2.06-1.41 1.23-.55 2.58-.55 1.32 0 2.61.35 1.29.32 2.38 1.39 1.13 1.03 1.13 2.61z" fill="#fff" fill-rule="evenodd"/><path clip-path="url(#b)" style="stroke:#adb2b7;stroke-linecap:butt;stroke-linejoin:round;stroke-width:2;stroke-opacity:.1;fill:none" d="M202.876 1450.96H2352.76M202.876 1250.43H2352.76M202.876 1049.9H2352.76M202.876 849.368H2352.76M202.876 648.837H2352.76M202.876 448.306H2352.76M202.876 247.775H2352.76M202.876 47.244H2352.76"/><path clip-path="url(#a)" style="stroke:#adb2b7;stroke-linecap:butt;stroke-linejoin:round;stroke-width:4;stroke-opacity:1;fill:none" d="M202.876 1450.96V47.244m0 1403.716h18.898m-18.898-200.53h18.898m-18.898-200.53h18.898m-18.898-200.532h18.898m-18.898-200.531h18.898m-18.898-200.531h18.898m-18.898-200.531h18.898M202.876 47.244h18.898"/><path clip-path="url(#a)" d="M105.002 1451.41h29.675v3.94h-29.675v-3.94zm50.347-2.31q-3.148 0-5 2.15-1.829 2.15-1.829 5.9 0 3.73 1.829 5.91 1.852 2.15 5 2.15 3.148 0 4.977-2.15 1.851-2.18 1.851-5.91 0-3.75-1.851-5.9-1.829-2.15-4.977-2.15m9.282-14.66v4.26q-1.759-.83-3.565-1.27-1.782-.44-3.541-.44-4.63 0-7.084 3.13-2.43 3.12-2.777 9.44 1.365-2.01 3.425-3.08 2.061-1.09 4.537-1.09 5.209 0 8.218 3.17 3.032 3.15 3.032 8.59 0 5.33-3.148 8.54-3.148 3.22-8.379 3.22-5.996 0-9.167-4.58-3.171-4.61-3.171-13.34 0-8.19 3.889-13.05 3.889-4.88 10.439-4.88 1.76 0 3.542.34 1.806.35 3.75 1.04zm-59.953-183.56h29.675v3.94h-29.675v-3.94zm52.615-13.66-11.805 18.45h11.805v-18.45m-1.227-4.07h5.88v22.52h4.93v3.89h-4.93v8.15h-4.653v-8.15h-15.602v-4.51l14.375-21.9zm-49.305-182.8h29.676v3.94h-29.676v-3.94zm43.796 12.89h16.319v3.94h-21.944v-3.94q2.662-2.75 7.245-7.38 4.607-4.65 5.787-6 2.246-2.52 3.125-4.26.903-1.75.903-3.44 0-2.76-1.944-4.5-1.922-1.73-5.023-1.73-2.199 0-4.653.76-2.431.77-5.208 2.32v-4.72q2.824-1.14 5.277-1.72 2.454-.58 4.491-.58 5.37 0 8.565 2.69 3.194 2.68 3.194 7.17 0 2.13-.81 4.06-.787 1.89-2.893 4.49-.579.67-3.681 3.89-3.102 3.19-8.75 8.95zm4.375-228.074q-3.611 0-5.44 3.565-1.805 3.542-1.805 10.671 0 7.107 1.805 10.672 1.829 3.541 5.44 3.541 3.634 0 5.44-3.541 1.828-3.565 1.828-10.672 0-7.129-1.828-10.671-1.806-3.565-5.44-3.565m0-3.703q5.81 0 8.866 4.606 3.078 4.583 3.078 13.333 0 8.727-3.078 13.334-3.056 4.583-8.866 4.583t-8.889-4.583q-3.055-4.607-3.055-13.334 0-8.75 3.055-13.333 3.079-4.606 8.889-4.606zm-4.375-169.281h16.319v3.935h-21.944v-3.935q2.662-2.755 7.245-7.385 4.607-4.652 5.787-5.995 2.246-2.523 3.125-4.259.903-1.759.903-3.449 0-2.755-1.944-4.491-1.922-1.736-5.023-1.736-2.199 0-4.653.764-2.431.764-5.208 2.315v-4.723q2.824-1.134 5.277-1.713 2.454-.578 4.491-.578 5.37 0 8.565 2.685 3.194 2.685 3.194 7.176 0 2.129-.81 4.051-.787 1.898-2.893 4.49-.579.672-3.681 3.889-3.102 3.195-8.75 8.959zm6.736-227.082-11.805 18.449h11.805V435.1m-1.227-4.074h5.88v22.523h4.93v3.889h-4.93v8.148h-4.653v-8.148h-15.602v-4.514l14.375-21.898zm-.717-185.114q-3.148 0-5 2.152-1.829 2.153-1.829 5.903 0 3.727 1.829 5.903 1.852 2.153 5 2.153 3.148 0 4.977-2.153 1.851-2.176 1.851-5.903 0-3.75-1.851-5.903-1.829-2.152-4.977-2.152m9.282-14.653v4.259q-1.759-.833-3.565-1.273-1.782-.44-3.541-.44-4.63 0-7.084 3.125-2.43 3.125-2.777 9.445 1.365-2.014 3.425-3.079 2.061-1.088 4.537-1.088 5.209 0 8.218 3.171 3.032 3.148 3.032 8.588 0 5.324-3.148 8.542-3.148 3.217-8.379 3.217-5.996 0-9.167-4.583-3.171-4.606-3.171-13.333 0-8.195 3.889-13.056 3.889-4.884 10.439-4.884 1.76 0 3.542.347 1.806.347 3.75 1.042zm-9.606-183.147q-3.334 0-5.255 1.782-1.898 1.783-1.898 4.908 0 3.125 1.898 4.907 1.921 1.783 5.255 1.783 3.333 0 5.254-1.783 1.921-1.805 1.921-4.907 0-3.125-1.921-4.907-1.898-1.783-5.254-1.783m-4.676-1.99q-3.01-.741-4.699-2.801-1.667-2.06-1.667-5.024 0-4.143 2.94-6.55 2.963-2.408 8.102-2.408 5.162 0 8.101 2.408 2.94 2.407 2.94 6.55 0 2.963-1.69 5.024-1.666 2.06-4.652 2.8 3.379.787 5.254 3.08 1.898 2.29 1.898 5.6 0 5.024-3.078 7.71-3.056 2.684-8.773 2.684-5.718 0-8.797-2.685-3.055-2.685-3.055-7.708 0-3.31 1.898-5.602 1.898-2.292 5.278-3.079m-1.713-7.384q0 2.685 1.666 4.19 1.69 1.505 4.723 1.505 3.009 0 4.699-1.505 1.713-1.505 1.713-4.19 0-2.685-1.713-4.19-1.69-1.504-4.699-1.504-3.033 0-4.723 1.504-1.666 1.505-1.666 4.19zM34.343 857.093q.451 0 1.514.29l25.185 6.312q5.604 1.385 9.533 5.894 3.93 4.476 3.93 9.565 0 3.059-1.643 5.024-1.61 1.965-4.09 1.965-2.19 0-3.253-1.16-1.03-1.159-1.03-2.544 0-.451.128-.934.129-.483.676-.998.548-.516 1.482-.516 1.513 0 2.705 1.321.547.644.676 1.256.13.579.13 1.578.9-.387 1.513-1.095.612-.709.837-1.514.258-.805.322-1.32.097-.548.097-1.063 0-4.122-4.155-7.279-1.256-.934-2.512-1.61-1.224-.708-2.737-1.224-1.482-.515-2.287-.741-.805-.257-2.64-.708 2.994 2.995 2.994 6.667 0 1.545-.418 2.93-.419 1.353-1.288 2.545-.902 1.191-2.48 1.9-1.578.676-3.672.676-2.222 0-5.25-.87-3.027-.869-8.598-2.962-3.124-1.128-4.638-1.128-.74 0-1.192.161-.483.161-.644.483-.193.323-.225.516-.032.161-.032.483 0 1.9 1.932 3.671 1.932 1.772 6.248 2.995.805.258.998.419.194.161.194.644-.033.805-.677.805-.257 0-1.256-.289-1.03-.29-2.544-.967-1.546-.708-2.93-1.674-1.418-.967-2.416-2.48-.999-1.546-.999-3.317 0-2.416 1.578-3.897 1.546-1.514 3.833-1.514.934 0 1.771.258.805.225 2.963 1.062 8.696 3.382 12.947 3.382 1.03 0 1.9-.161.837-.193 1.675-.612.805-.419 1.288-1.256.45-.869.45-2.061 0-1.514-.708-2.931-.74-1.449-1.739-2.351-.998-.934-1.836-1.481-.869-.58-1.32-.709l-11.852-2.963-5.281-1.32q-2.867-.612-3.575-.902-.677-.386-1.03-1.063-.355-.676-.355-1.256 0-.805.483-1.352.483-.58 1.32-.58zm16.619-19.862q-.806-.065-.806-1.321v-40.418q0-1.9.741-1.933.805 0 .773 1.804v40.096q.032 1.772-.708 1.772m-12.883 0q-.805 0-.773-1.385v-40.29q0-1.964.773-1.997.741 0 .741 1.675v40.676q0 1.321-.74 1.321zM36.18 735.264q1.803 0 2.833 1.127.999 1.127.999 2.415 0 1.224-.709 1.868-.708.644-1.61.644-1.224 0-2.287-.901-1.063-.902-1.288-2.255-.837 1.321-.837 3.285 0 1.288.676 2.416.676 1.095 1.546 1.771.87.644 2.125 1.224 1.224.547 1.965.773.708.193 1.481.354l9.018 2.254q4.284 1.095 5.797 1.095 1.868 0 3.124-.901 1.224-.902 1.224-2.706 0-.708-.193-1.513-.226-.805-.805-1.836-.612-1.063-1.514-1.997-.934-.966-2.512-1.9-1.578-.934-3.607-1.546-.709-.193-.709-.837 0-.805.644-.805.548 0 1.707.451 1.128.418 2.609 1.352 1.45.902 2.77 2.094 1.288 1.191 2.19 2.963.901 1.771.901 3.703 0 2.77-1.481 4.606-1.482 1.835-3.543 2.512.29.161.677.386.386.226 1.256.902.837.644 1.481 1.385.612.741 1.095 1.9.515 1.127.515 2.351 0 1.546-.45 2.931-.451 1.352-1.482 2.319-1.03.966-2.448.966-1.578 0-2.673-1.063-1.127-1.095-1.127-2.577 0-.934.548-1.674.547-.773 1.739-.773 1.32 0 2.319.902.998.901 1.256 2.19.837-1.321.837-3.285 0-2.126-1.868-3.801-1.868-1.674-4.992-2.48-7.504-1.996-10.853-2.769-3.382-.773-4.831-.773-1.353 0-2.287.354-.934.354-1.352.966-.451.58-.612 1.127-.161.516-.161 1.095 0 .967.386 2.062.387 1.062 1.288 2.351.87 1.256 2.673 2.447 1.804 1.192 4.284 1.997.74.161.74.87-.032.773-.676.773-.547 0-1.675-.419-1.159-.451-2.608-1.353-1.45-.934-2.738-2.125-1.32-1.224-2.222-2.996-.902-1.803-.902-3.735 0-.87.194-1.707.16-.87.644-1.9.483-1.063 1.546-1.997 1.062-.934 2.608-1.514-.74-.386-1.449-.902-.709-.547-1.578-1.385-.902-.869-1.417-2.061-.548-1.224-.548-2.576 0-1.321.355-2.609.322-1.288 1.385-2.383 1.03-1.127 2.608-1.127zm7.374-66.348q.387-.387.934-.387.548 0 .934.387.387.386.387.934v41.287q0 .548-.387.934-.386.387-.934.387-.547 0-.934-.387-.386-.386-.386-.934V669.85q0-.548.386-.934zm17.424-25.575q-1.192 0-1.546-.097-.355-.128-.902-.644l-14.106-12.657q-7.794-6.924-14.59-6.924-4.412 0-7.568 2.319-3.156 2.287-3.156 6.506 0 2.898 1.771 5.346 1.772 2.447 4.928 3.575-.065-.194-.065-.87 0-1.643 1.031-2.544 1.03-.934 2.416-.934 1.77 0 2.64 1.159.838 1.127.838 2.255 0 .45-.097 1.062-.097.58-.998 1.514-.934.934-2.577.934-4.605 0-8.277-3.478-3.671-3.511-3.671-8.857 0-6.055 3.607-10.016 3.575-3.993 9.179-3.993 1.964 0 3.768.612 1.771.579 3.156 1.384 1.385.773 3.607 2.899 2.222 2.126 3.8 3.832 1.578 1.707 4.928 5.54l6.795 6.988v-11.883q0-5.798-.515-6.248-.934-.645-5.862-1.45v-1.674l11.466 1.868v24.476z" fill="#fff" fill-rule="evenodd"/><path clip-path="url(#b)" style="stroke:#ff6859;stroke-linecap:butt;stroke-linejoin:round;stroke-width:4;stroke-opacity:1;fill:none" d="m561.19 1250.43 72.118-40.36 107.15-59.97 98.783-55.28 105.905-59.27 122.704-68.673 109.04-61.026 95.62-53.514 104.25-58.345 104.88-58.692 115.94-64.891 110.33-61.743 114.71-64.197 96.56-54.041 75.26-42.122"/><path clip-path="url(#a)" d="M519.277 1230.25v5.7q-3.327-1.59-6.279-2.38-2.951-.78-5.7-.78-4.774 0-7.378 1.86-2.575 1.85-2.575 5.26 0 2.87 1.707 4.34 1.736 1.45 6.539 2.35l3.53.72q6.539 1.24 9.635 4.4 3.125 3.12 3.125 8.39 0 6.28-4.224 9.52-4.196 3.24-12.326 3.24-3.068 0-6.54-.7-3.443-.69-7.147-2.05v-6.02q3.559 2 6.974 3.01 3.414 1.01 6.713 1.01 5.005 0 7.725-1.96 2.72-1.97 2.72-5.62 0-3.18-1.967-4.97-1.939-1.8-6.395-2.7l-3.559-.69q-6.539-1.3-9.462-4.08-2.922-2.78-2.922-7.73 0-5.72 4.022-9.02 4.051-3.3 11.14-3.3 3.038 0 6.192.55 3.154.55 6.452 1.65zm16.754.17v9.2h10.966v4.14h-10.966v17.59q0 3.97 1.07 5.09 1.1 1.13 4.427 1.13h5.469v4.46h-5.469q-6.163 0-8.507-2.29-2.343-2.31-2.343-8.39v-17.59h-3.907v-4.14h3.907v-9.2h5.353zm32.696 25.32q-6.452 0-8.941 1.47-2.488 1.48-2.488 5.04 0 2.83 1.852 4.51 1.881 1.65 5.092 1.65 4.427 0 7.089-3.12 2.691-3.16 2.691-8.36v-1.19h-5.295m10.619-2.2v18.49h-5.324v-4.92q-1.823 2.95-4.542 4.37-2.72 1.39-6.656 1.39-4.976 0-7.928-2.78-2.922-2.81-2.922-7.49 0-5.47 3.646-8.25 3.674-2.78 10.937-2.78h7.465v-.52q0-3.67-2.43-5.67-2.402-2.03-6.771-2.03-2.778 0-5.411.67-2.633.67-5.063 2v-4.92q2.922-1.13 5.671-1.68 2.749-.58 5.353-.58 7.031 0 10.503 3.65 3.472 3.64 3.472 11.05zm29.746-8.94q-.897-.52-1.968-.75-1.042-.26-2.315-.26-4.514 0-6.944 2.95-2.402 2.92-2.402 8.42v17.07h-5.353v-32.41h5.353v5.04q1.678-2.95 4.369-4.37 2.691-1.45 6.54-1.45.549 0 1.215.09.665.06 1.476.2l.029 5.47zm10.85-14.18v9.2h10.967v4.14h-10.967v17.59q0 3.97 1.071 5.09 1.099 1.13 4.427 1.13h5.469v4.46h-5.469q-6.163 0-8.507-2.29-2.344-2.31-2.344-8.39v-17.59h-3.906v-4.14h3.906v-9.2h5.353zM1943.73 426.706h27.32v4.919h-21.47v12.789h20.57v4.919h-20.57v15.654h21.99v4.919h-27.84v-43.2zm64.15 23.64v19.56h-5.32v-19.387q0-4.6-1.8-6.886-1.79-2.286-5.38-2.286-4.31 0-6.8 2.749t-2.49 7.494v18.316h-5.35v-32.407h5.35v5.034q1.91-2.922 4.49-4.369 2.6-1.447 5.99-1.447 5.58 0 8.45 3.473 2.86 3.443 2.86 10.156zm31.95-7.928v-17.535h5.32v45.023h-5.32v-4.861q-1.68 2.893-4.26 4.311-2.54 1.389-6.13 1.389-5.87 0-9.58-4.688-3.67-4.687-3.67-12.326t3.67-12.326q3.71-4.688 9.58-4.688 3.59 0 6.13 1.418 2.58 1.389 4.26 4.283m-18.15 11.313q0 5.874 2.41 9.23 2.43 3.328 6.65 3.328 4.23 0 6.66-3.328 2.43-3.356 2.43-9.23 0-5.874-2.43-9.201-2.43-3.357-6.66-3.357-4.22 0-6.65 3.357-2.41 3.327-2.41 9.201z" fill="#85e89d" fill-rule="evenodd"/></svg>