<svg xmlns="http://www.w3.org/2000/svg" width="600" height="400" viewBox="0 0 2400 1600"><defs><clipPath id="a"><path d="M0 0h2400v1600H0z"/></clipPath></defs><path clip-path="url(#a)" d="M0 1600h2400V0H0z" fill="#1E1E1E" fill-rule="evenodd"/><path clip-path="url(#a)" d="M178.867 1486.45H2352.76V47.244H178.867z" fill="#202020" fill-rule="evenodd"/><defs><clipPath id="b"><path d="M178 47h2175v1440H178z"/></clipPath></defs><path clip-path="url(#b)" style="stroke:#adb2b7;stroke-linecap:butt;stroke-linejoin:round;stroke-width:2;stroke-opacity:.1;fill:none" d="M240.392 1486.45V47.244M735.594 1486.45V47.244M1230.8 1486.45V47.244M1726 1486.45V47.244m495.2 1439.206V47.244"/><path clip-path="url(#a)" style="stroke:#adb2b7;stroke-linecap:butt;stroke-linejoin:round;stroke-width:4;stroke-opacity:1;fill:none" d="M178.867 1486.45H2352.76m-2112.368 0v-18.9m495.202 18.9v-18.9m495.206 18.9v-18.9m495.2 18.9v-18.9m495.2 18.9v-18.9"/><path clip-path="url(#a)" d="M194.455 1530.29h29.675v3.94h-29.675v-3.94zm40.578 12.89h7.639v-26.36l-8.31 1.67v-4.26l8.264-1.67h4.675v30.62h7.639v3.94h-19.907v-3.94zm39.352-27.54q-3.611 0-5.44 3.56-1.806 3.55-1.806 10.67 0 7.11 1.806 10.68 1.829 3.54 5.44 3.54 3.634 0 5.439-3.54 1.829-3.57 1.829-10.68 0-7.12-1.829-10.67-1.805-3.56-5.439-3.56m0-3.71q5.81 0 8.865 4.61 3.079 4.58 3.079 13.33 0 8.73-3.079 13.34-3.055 4.58-8.865 4.58-5.81 0-8.889-4.58-3.056-4.61-3.056-13.34 0-8.75 3.056-13.33 3.079-4.61 8.889-4.61zm430.85 18.36h29.676v3.94h-29.676v-3.94zm39.814-17.73h18.357v3.94h-14.074v8.47q1.018-.35 2.037-.51 1.018-.19 2.037-.19 5.787 0 9.167 3.17 3.379 3.18 3.379 8.59 0 5.58-3.472 8.68-3.472 3.08-9.792 3.08-2.176 0-4.444-.37-2.245-.37-4.653-1.11v-4.7q2.083 1.13 4.306 1.69 2.222.56 4.699.56 4.004 0 6.342-2.11t2.338-5.72q0-3.61-2.338-5.72-2.338-2.1-6.342-2.1-1.875 0-3.75.41-1.852.42-3.797 1.3v-17.36zm485.751 3.08q-3.62 0-5.44 3.56-1.81 3.55-1.81 10.67 0 7.11 1.81 10.68 1.82 3.54 5.44 3.54 3.63 0 5.44-3.54 1.82-3.57 1.82-10.68 0-7.12-1.82-10.67-1.81-3.56-5.44-3.56m0-3.71q5.81 0 8.86 4.61 3.08 4.58 3.08 13.33 0 8.73-3.08 13.34-3.05 4.58-8.86 4.58t-8.89-4.58q-3.06-4.61-3.06-13.34 0-8.75 3.06-13.33 3.08-4.61 8.89-4.61zm485.47.63h18.36v3.94h-14.07v8.47q1.02-.35 2.03-.51 1.02-.19 2.04-.19 5.79 0 9.17 3.17 3.38 3.18 3.38 8.59 0 5.58-3.47 8.68-3.48 3.08-9.8 3.08-2.17 0-4.44-.37-2.25-.37-4.65-1.11v-4.7q2.08 1.13 4.3 1.69 2.22.56 4.7.56 4.01 0 6.34-2.11 2.34-2.11 2.34-5.72t-2.34-5.72q-2.33-2.1-6.34-2.1-1.87 0-3.75.41-1.85.42-3.8 1.3v-17.36zm479.62 30.62h7.64v-26.36l-8.32 1.67v-4.26l8.27-1.67h4.67v30.62h7.64v3.94h-19.9v-3.94zm39.35-27.54q-3.61 0-5.44 3.56-1.81 3.55-1.81 10.67 0 7.11 1.81 10.68 1.83 3.54 5.44 3.54 3.63 0 5.44-3.54 1.83-3.57 1.83-10.68 0-7.12-1.83-10.67-1.81-3.56-5.44-3.56m0-3.71q5.81 0 8.86 4.61 3.08 4.58 3.08 13.33 0 8.73-3.08 13.34-3.05 4.58-8.86 4.58t-8.89-4.58q-3.06-4.61-3.06-13.34 0-8.75 3.06-13.33 3.08-4.61 8.89-4.61z" fill="#fff" fill-rule="evenodd"/><path clip-path="url(#b)" style="stroke:#adb2b7;stroke-linecap:butt;stroke-linejoin:round;stroke-width:2;stroke-opacity:.1;fill:none" d="M178.867 1445.72H2352.76M178.867 1117.87H2352.76M178.867 790.028H2352.76M178.867 462.184H2352.76M178.867 134.34H2352.76"/><path clip-path="url(#a)" style="stroke:#adb2b7;stroke-linecap:butt;stroke-linejoin:round;stroke-width:4;stroke-opacity:1;fill:none" d="M178.867 1486.45V47.244m0 1398.476h18.897m-18.897-327.85h18.897m-18.897-327.842h18.897m-18.897-327.844h18.897M178.867 134.34h18.897"/><path clip-path="url(#a)" d="M50.992 1446.17h29.676v3.93H50.992v-3.93zm40.578 12.89h7.64v-26.37l-8.31 1.67v-4.26l8.263-1.66h4.676v30.62h7.639v3.94H91.571v-3.94zm39.352-27.55q-3.611 0-5.44 3.57-1.805 3.54-1.805 10.67 0 7.11 1.805 10.67 1.829 3.54 5.44 3.54 3.634 0 5.44-3.54 1.829-3.56 1.829-10.67 0-7.13-1.829-10.67-1.806-3.57-5.44-3.57m0-3.7q5.81 0 8.866 4.61 3.079 4.58 3.079 13.33 0 8.73-3.079 13.33-3.056 4.59-8.866 4.59t-8.889-4.59q-3.055-4.6-3.055-13.33 0-8.75 3.055-13.33 3.079-4.61 8.889-4.61zM82.15 1118.32h29.675v3.94H82.149v-3.94zm39.814-17.73h18.356v3.94h-14.074v8.47q1.019-.35 2.037-.51 1.019-.19 2.037-.19 5.787 0 9.167 3.18 3.38 3.17 3.38 8.58 0 5.58-3.473 8.68-3.472 3.08-9.791 3.08-2.176 0-4.445-.37-2.245-.37-4.652-1.11v-4.7q2.083 1.14 4.305 1.69 2.222.56 4.699.56 4.005 0 6.343-2.11 2.338-2.1 2.338-5.72 0-3.61-2.338-5.71-2.338-2.11-6.343-2.11-1.875 0-3.75.42-1.852.41-3.796 1.29v-17.36zm8.958-324.763q-3.611 0-5.44 3.565-1.805 3.541-1.805 10.671 0 7.106 1.805 10.671 1.829 3.542 5.44 3.542 3.634 0 5.44-3.542 1.829-3.565 1.829-10.671 0-7.13-1.829-10.671-1.806-3.565-5.44-3.565m0-3.704q5.81 0 8.866 4.607 3.079 4.583 3.079 13.333 0 8.727-3.079 13.333-3.056 4.583-8.866 4.583t-8.889-4.583q-3.055-4.606-3.055-13.333 0-8.75 3.055-13.333 3.079-4.607 8.889-4.607zm-8.958-327.219h18.356v3.935h-14.074v8.473q1.019-.348 2.037-.51 1.019-.185 2.037-.185 5.787 0 9.167 3.171 3.38 3.172 3.38 8.588 0 5.579-3.473 8.681-3.472 3.079-9.791 3.079-2.176 0-4.445-.371-2.245-.37-4.652-1.111v-4.699q2.083 1.134 4.305 1.69 2.222.555 4.699.555 4.005 0 6.343-2.106 2.338-2.107 2.338-5.718 0-3.611-2.338-5.717-2.338-2.107-6.343-2.107-1.875 0-3.75.417-1.852.417-3.796 1.296v-17.361zM91.57 147.685h7.64V121.32l-8.31 1.666v-4.259l8.263-1.667h4.676v30.625h7.639v3.935H91.571v-3.935zm39.352-27.546q-3.611 0-5.44 3.565-1.805 3.542-1.805 10.671 0 7.107 1.805 10.671 1.829 3.542 5.44 3.542 3.634 0 5.44-3.542 1.829-3.564 1.829-10.671 0-7.129-1.829-10.671-1.806-3.565-5.44-3.565m0-3.704q5.81 0 8.866 4.607 3.079 4.583 3.079 13.333 0 8.727-3.079 13.333-3.056 4.584-8.866 4.584t-8.889-4.584q-3.055-4.606-3.055-13.333 0-8.75 3.055-13.333 3.079-4.607 8.889-4.607z" fill="#fff" fill-rule="evenodd"/><path clip-path="url(#b)" style="stroke:#fe4365;stroke-linecap:butt;stroke-linejoin:round;stroke-width:4;stroke-opacity:1;fill:none" d="m240.392 1445.72 70.032-46.37m-39.954 4.87 39.954-4.87-20.081 34.88m20.081-34.88-70.032 46.37m0-65.57 70.032-46.37m-39.954 4.87 39.954-4.87-20.081 34.88m20.081-34.88-70.032 46.37m0-65.57 70.032-46.37m-39.954 4.87 39.954-4.87-20.081 34.89m20.081-34.89-70.032 46.37m0-65.57 70.032-46.36m-39.954 4.86 39.954-4.86-20.081 34.88m20.081-34.88-70.032 46.36m0-65.57 70.032-46.36m-39.954 4.86 39.954-4.86-20.081 34.88m20.081-34.88-70.032 46.36m0-65.57 70.032-46.36m-39.954 4.86 39.954-4.86-20.081 34.88m20.081-34.88-70.032 46.36m0-65.57 70.032-46.36m-39.954 4.86 39.954-4.86-20.081 34.88m20.081-34.88-70.032 46.36m0-65.566 70.032-46.364m-39.954 4.864 39.954-4.864-20.081 34.882m20.081-34.882-70.032 46.364m0-65.568 70.032-46.365m-39.954 4.865 39.954-4.865-20.081 34.882m20.081-34.882-70.032 46.365m0-65.569 70.032-46.364m-39.954 4.864 39.954-4.864-20.081 34.882m20.081-34.882-70.032 46.364m0-65.569 70.032-46.364m-39.954 4.864 39.954-4.864-20.081 34.882m20.081-34.882-70.032 46.364m0-65.569 70.032-46.364m-39.954 4.864 39.954-4.864-20.081 34.882m20.081-34.882-70.032 46.364m0-65.568 70.032-46.365m-39.954 4.864 39.954-4.864-20.081 34.882m20.081-34.882-70.032 46.365m0-65.569 70.032-46.364m-39.954 4.864 39.954-4.864-20.081 34.881m20.081-34.881-70.032 46.364m0-65.569 70.032-46.364m-39.954 4.864 39.954-4.864-20.081 34.882m20.081-34.882-70.032 46.364m0-65.569 70.032-46.364m-39.954 4.864 39.954-4.864-20.081 34.882m20.081-34.882-70.032 46.364m0-65.569 70.032-46.364m-39.954 4.864 39.954-4.864-20.081 34.882m20.081-34.882-70.032 46.364m0-65.568 70.032-46.364m-39.954 4.864 39.954-4.864-20.081 34.881m20.081-34.881-70.032 46.364m0-65.569 70.032-46.364m-39.954 4.864 39.954-4.864-20.081 34.882m20.081-34.882-70.032 46.364m0-65.569 70.032-46.364m-39.954 4.864 39.954-4.864-20.081 34.882m20.081-34.882-70.032 46.364m0-65.569 70.032-46.364M270.47 92.84l39.954-4.864-20.081 34.882m20.081-34.882-70.032 46.364m99.04 1311.38 70.032-46.37m-39.954 4.87 39.954-4.87-20.081 34.88m20.081-34.88-70.032 46.37m0-65.57 70.032-46.37m-39.954 4.87 39.954-4.87-20.081 34.88m20.081-34.88-70.032 46.37m0-65.57 70.032-46.37m-39.954 4.87 39.954-4.87-20.081 34.89m20.081-34.89-70.032 46.37m0-65.57 70.032-46.36m-39.954 4.86 39.954-4.86-20.081 34.88m20.081-34.88-70.032 46.36m0-65.57 70.032-46.36m-39.954 4.86 39.954-4.86-20.081 34.88m20.081-34.88-70.032 46.36m0-65.57 70.032-46.36m-39.954 4.86 39.954-4.86-20.081 34.88m20.081-34.88-70.032 46.36m0-65.57 70.032-46.36m-39.954 4.86 39.954-4.86-20.081 34.88m20.081-34.88-70.032 46.36m0-65.566 70.032-46.364m-39.954 4.864 39.954-4.864-20.081 34.882m20.081-34.882-70.032 46.364m0-65.568 70.032-46.365m-39.954 4.865 39.954-4.865-20.081 34.882m20.081-34.882-70.032 46.365m0-65.569 70.032-46.364m-39.954 4.864 39.954-4.864-20.081 34.882m20.081-34.882-70.032 46.364m0-65.569 70.032-46.364m-39.954 4.864 39.954-4.864-20.081 34.882m20.081-34.882-70.032 46.364m0-65.569 70.032-46.364m-39.954 4.864 39.954-4.864-20.081 34.882m20.081-34.882-70.032 46.364m0-65.568 70.032-46.365m-39.954 4.864 39.954-4.864-20.081 34.882m20.081-34.882-70.032 46.365m0-65.569 70.032-46.364m-39.954 4.864 39.954-4.864-20.081 34.881m20.081-34.881-70.032 46.364m0-65.569 70.032-46.364m-39.954 4.864 39.954-4.864-20.081 34.882m20.081-34.882-70.032 46.364m0-65.569 70.032-46.364m-39.954 4.864 39.954-4.864-20.081 34.882m20.081-34.882-70.032 46.364m0-65.569 70.032-46.364m-39.954 4.864 39.954-4.864-20.081 34.882m20.081-34.882-70.032 46.364m0-65.568 70.032-46.364m-39.954 4.864 39.954-4.864-20.081 34.881m20.081-34.881-70.032 46.364m0-65.569 70.032-46.364m-39.954 4.864 39.954-4.864-20.081 34.882m20.081-34.882-70.032 46.364m0-65.569 70.032-46.364m-39.954 4.864 39.954-4.864-20.081 34.882m20.081-34.882-70.032 46.364m0-65.569 70.032-46.364M369.51 92.84l39.954-4.864-20.081 34.882m20.081-34.882-70.032 46.364m99.04 1311.38 70.033-46.37m-39.955 4.87 39.955-4.87-20.082 34.88m20.082-34.88-70.033 46.37m0-65.57 70.033-46.37m-39.955 4.87 39.955-4.87-20.082 34.88m20.082-34.88-70.033 46.37m0-65.57 70.033-46.37m-39.955 4.87 39.955-4.87-20.082 34.89m20.082-34.89-70.033 46.37m0-65.57 70.033-46.36m-39.955 4.86 39.955-4.86-20.082 34.88m20.082-34.88-70.033 46.36m0-65.57 70.033-46.36m-39.955 4.86 39.955-4.86-20.082 34.88m20.082-34.88-70.033 46.36m0-65.57 70.033-46.36m-39.955 4.86 39.955-4.86-20.082 34.88m20.082-34.88-70.033 46.36m0-65.57 70.033-46.36m-39.955 4.86 39.955-4.86-20.082 34.88m20.082-34.88-70.033 46.36m0-65.566 70.033-46.364m-39.955 4.864 39.955-4.864-20.082 34.882m20.082-34.882-70.033 46.364m0-65.568 70.033-46.365m-39.955 4.865 39.955-4.865-20.082 34.882m20.082-34.882-70.033 46.365m0-65.569 70.033-46.364m-39.955 4.864 39.955-4.864-20.082 34.882m20.082-34.882-70.033 46.364m0-65.569 70.033-46.364m-39.955 4.864 39.955-4.864-20.082 34.882m20.082-34.882-70.033 46.364m0-65.569 70.033-46.364m-39.955 4.864 39.955-4.864-20.082 34.882m20.082-34.882-70.033 46.364m0-65.568 70.033-46.365m-39.955 4.864 39.955-4.864-20.082 34.882m20.082-34.882-70.033 46.365m0-65.569 70.033-46.364m-39.955 4.864 39.955-4.864-20.082 34.881m20.082-34.881-70.033 46.364m0-65.569 70.033-46.364m-39.955 4.864 39.955-4.864-20.082 34.882m20.082-34.882-70.033 46.364m0-65.569 70.033-46.364m-39.955 4.864 39.955-4.864-20.082 34.882m20.082-34.882-70.033 46.364m0-65.569 70.033-46.364m-39.955 4.864 39.955-4.864-20.082 34.882m20.082-34.882-70.033 46.364m0-65.568 70.033-46.364m-39.955 4.864 39.955-4.864-20.082 34.881m20.082-34.881-70.033 46.364m0-65.569 70.033-46.364m-39.955 4.864 39.955-4.864-20.082 34.882m20.082-34.882-70.033 46.364m0-65.569 70.033-46.364m-39.955 4.864 39.955-4.864-20.082 34.882m20.082-34.882-70.033 46.364m0-65.569 70.033-46.364M468.55 92.84l39.955-4.864-20.082 34.882m20.082-34.882-70.033 46.364m99.041 1311.38 70.032-46.37m-39.954 4.87 39.954-4.87-20.081 34.88m20.081-34.88-70.032 46.37m0-65.57 70.032-46.37m-39.954 4.87 39.954-4.87-20.081 34.88m20.081-34.88-70.032 46.37m0-65.57 70.032-46.37m-39.954 4.87 39.954-4.87-20.081 34.89m20.081-34.89-70.032 46.37m0-65.57 70.032-46.36m-39.954 4.86 39.954-4.86-20.081 34.88m20.081-34.88-70.032 46.36m0-65.57 70.032-46.36m-39.954 4.86 39.954-4.86-20.081 34.88m20.081-34.88-70.032 46.36m0-65.57 70.032-46.36m-39.954 4.86 39.954-4.86-20.081 34.88m20.081-34.88-70.032 46.36m0-65.57 70.032-46.36m-39.954 4.86 39.954-4.86-20.081 34.88m20.081-34.88-70.032 46.36m0-65.566 70.032-46.364m-39.954 4.864 39.954-4.864-20.081 34.882m20.081-34.882-70.032 46.364m0-65.568 70.032-46.365m-39.954 4.865 39.954-4.865-20.081 34.882m20.081-34.882-70.032 46.365m0-65.569 70.032-46.364m-39.954 4.864 39.954-4.864-20.081 34.882m20.081-34.882-70.032 46.364m0-65.569 70.032-46.364m-39.954 4.864 39.954-4.864-20.081 34.882m20.081-34.882-70.032 46.364m0-65.569 70.032-46.364m-39.954 4.864 39.954-4.864-20.081 34.882m20.081-34.882-70.032 46.364m0-65.568 70.032-46.365m-39.954 4.864 39.954-4.864-20.081 34.882m20.081-34.882-70.032 46.365m0-65.569 70.032-46.364m-39.954 4.864 39.954-4.864-20.081 34.881m20.081-34.881-70.032 46.364m0-65.569 70.032-46.364m-39.954 4.864 39.954-4.864-20.081 34.882m20.081-34.882-70.032 46.364m0-65.569 70.032-46.364m-39.954 4.864 39.954-4.864-20.081 34.882m20.081-34.882-70.032 46.364m0-65.569 70.032-46.364m-39.954 4.864 39.954-4.864-20.081 34.882m20.081-34.882-70.032 46.364m0-65.568 70.032-46.364m-39.954 4.864 39.954-4.864-20.081 34.881m20.081-34.881-70.032 46.364m0-65.569 70.032-46.364m-39.954 4.864 39.954-4.864-20.081 34.882m20.081-34.882-70.032 46.364m0-65.569 70.032-46.364m-39.954 4.864 39.954-4.864-20.081 34.882m20.081-34.882-70.032 46.364m0-65.569 70.032-46.364m-39.954 4.864 39.954-4.864-20.081 34.882m20.081-34.882-70.032 46.364m99.04 1311.38 70.032-46.37m-39.954 4.87 39.954-4.87-20.081 34.88m20.081-34.88-70.032 46.37m0-65.57 70.032-46.37m-39.954 4.87 39.954-4.87-20.081 34.88m20.081-34.88-70.032 46.37m0-65.57 70.032-46.37m-39.954 4.87 39.954-4.87-20.081 34.89m20.081-34.89-70.032 46.37m0-65.57 70.032-46.36m-39.954 4.86 39.954-4.86-20.081 34.88m20.081-34.88-70.032 46.36m0-65.57 70.032-46.36m-39.954 4.86 39.954-4.86-20.081 34.88m20.081-34.88-70.032 46.36m0-65.57 70.032-46.36m-39.954 4.86 39.954-4.86-20.081 34.88m20.081-34.88-70.032 46.36m0-65.57 70.032-46.36m-39.954 4.86 39.954-4.86-20.081 34.88m20.081-34.88-70.032 46.36m0-65.566 70.032-46.364m-39.954 4.864 39.954-4.864-20.081 34.882m20.081-34.882-70.032 46.364m0-65.568 70.032-46.365m-39.954 4.865 39.954-4.865-20.081 34.882m20.081-34.882-70.032 46.365m0-65.569 70.032-46.364m-39.954 4.864 39.954-4.864-20.081 34.882m20.081-34.882-70.032 46.364m0-65.569 70.032-46.364m-39.954 4.864 39.954-4.864-20.081 34.882m20.081-34.882-70.032 46.364m0-65.569 70.032-46.364m-39.954 4.864 39.954-4.864-20.081 34.882m20.081-34.882-70.032 46.364m0-65.568 70.032-46.365m-39.954 4.864 39.954-4.864-20.081 34.882m20.081-34.882-70.032 46.365m0-65.569 70.032-46.364m-39.954 4.864 39.954-4.864-20.081 34.881m20.081-34.881-70.032 46.364m0-65.569 70.032-46.364m-39.954 4.864 39.954-4.864-20.081 34.882m20.081-34.882-70.032 46.364m0-65.569 70.032-46.364m-39.954 4.864 39.954-4.864-20.081 34.882m20.081-34.882-70.032 46.364m0-65.569 70.032-46.364m-39.954 4.864 39.954-4.864-20.081 34.882m20.081-34.882-70.032 46.364m0-65.568 70.032-46.364m-39.954 4.864 39.954-4.864-20.081 34.881m20.081-34.881-70.032 46.364m0-65.569 70.032-46.364m-39.954 4.864 39.954-4.864-20.081 34.882m20.081-34.882-70.032 46.364m0-65.569 70.032-46.364m-39.954 4.864 39.954-4.864-20.081 34.882m20.081-34.882-70.032 46.364m0-65.569 70.032-46.364m-39.954 4.864 39.954-4.864-20.081 34.882m20.081-34.882-70.032 46.364m99.041 1311.38 70.032-46.37m-39.955 4.87 39.955-4.87-20.082 34.88m20.082-34.88-70.032 46.37m0-65.57 70.032-46.37m-39.955 4.87 39.955-4.87-20.082 34.88m20.082-34.88-70.032 46.37m0-65.57 70.032-46.37m-39.955 4.87 39.955-4.87-20.082 34.89m20.082-34.89-70.032 46.37m0-65.57 70.032-46.36m-39.955 4.86 39.955-4.86-20.082 34.88m20.082-34.88-70.032 46.36m0-65.57 70.032-46.36m-39.955 4.86 39.955-4.86-20.082 34.88m20.082-34.88-70.032 46.36m0-65.57 70.032-46.36m-39.955 4.86 39.955-4.86-20.082 34.88m20.082-34.88-70.032 46.36m0-65.57 70.032-46.36m-39.955 4.86 39.955-4.86-20.082 34.88m20.082-34.88-70.032 46.36m0-65.566 70.032-46.364m-39.955 4.864 39.955-4.864-20.082 34.882m20.082-34.882-70.032 46.364m0-65.568 70.032-46.365m-39.955 4.865 39.955-4.865-20.082 34.882m20.082-34.882-70.032 46.365m0-65.569 70.032-46.364m-39.955 4.864 39.955-4.864-20.082 34.882m20.082-34.882-70.032 46.364m0-65.569 70.032-46.364m-39.955 4.864 39.955-4.864-20.082 34.882m20.082-34.882-70.032 46.364m0-65.569 70.032-46.364m-39.955 4.864 39.955-4.864-20.082 34.882m20.082-34.882-70.032 46.364m0-65.568 70.032-46.365m-39.955 4.864 39.955-4.864-20.082 34.882m20.082-34.882-70.032 46.365m0-65.569 70.032-46.364m-39.955 4.864 39.955-4.864-20.082 34.881m20.082-34.881-70.032 46.364m0-65.569 70.032-46.364m-39.955 4.864 39.955-4.864-20.082 34.882m20.082-34.882-70.032 46.364m0-65.569 70.032-46.364m-39.955 4.864 39.955-4.864-20.082 34.882m20.082-34.882-70.032 46.364m0-65.569 70.032-46.364m-39.955 4.864 39.955-4.864-20.082 34.882m20.082-34.882-70.032 46.364m0-65.568 70.032-46.364m-39.955 4.864 39.955-4.864-20.082 34.881m20.082-34.881-70.032 46.364m0-65.569 70.032-46.364m-39.955 4.864 39.955-4.864-20.082 34.882m20.082-34.882-70.032 46.364m0-65.569 70.032-46.364m-39.955 4.864 39.955-4.864-20.082 34.882m20.082-34.882-70.032 46.364m0-65.569 70.032-46.364m-39.955 4.864 39.955-4.864-20.082 34.882m20.082-34.882-70.032 46.364m99.04 1311.38 70.032-46.37m-39.954 4.87 39.954-4.87-20.081 34.88m20.081-34.88-70.032 46.37m0-65.57 70.032-46.37m-39.954 4.87 39.954-4.87-20.081 34.88m20.081-34.88-70.032 46.37m0-65.57 70.032-46.37m-39.954 4.87 39.954-4.87-20.081 34.89m20.081-34.89-70.032 46.37m0-65.57 70.032-46.36m-39.954 4.86 39.954-4.86-20.081 34.88m20.081-34.88-70.032 46.36m0-65.57 70.032-46.36m-39.954 4.86 39.954-4.86-20.081 34.88m20.081-34.88-70.032 46.36m0-65.57 70.032-46.36m-39.954 4.86 39.954-4.86-20.081 34.88m20.081-34.88-70.032 46.36m0-65.57 70.032-46.36m-39.954 4.86 39.954-4.86-20.081 34.88m20.081-34.88-70.032 46.36m0-65.566 70.032-46.364m-39.954 4.864 39.954-4.864-20.081 34.882m20.081-34.882-70.032 46.364m0-65.568 70.032-46.365m-39.954 4.865 39.954-4.865-20.081 34.882m20.081-34.882-70.032 46.365m0-65.569 70.032-46.364m-39.954 4.864 39.954-4.864-20.081 34.882m20.081-34.882-70.032 46.364m0-65.569 70.032-46.364m-39.954 4.864 39.954-4.864-20.081 34.882m20.081-34.882-70.032 46.364m0-65.569 70.032-46.364m-39.954 4.864 39.954-4.864-20.081 34.882m20.081-34.882-70.032 46.364m0-65.568 70.032-46.365m-39.954 4.864 39.954-4.864-20.081 34.882m20.081-34.882-70.032 46.365m0-65.569 70.032-46.364m-39.954 4.864 39.954-4.864-20.081 34.881m20.081-34.881-70.032 46.364m0-65.569 70.032-46.364m-39.954 4.864 39.954-4.864-20.081 34.882m20.081-34.882-70.032 46.364m0-65.569 70.032-46.364m-39.954 4.864 39.954-4.864-20.081 34.882m20.081-34.882-70.032 46.364m0-65.569 70.032-46.364m-39.954 4.864 39.954-4.864-20.081 34.882m20.081-34.882-70.032 46.364m0-65.568 70.032-46.364m-39.954 4.864 39.954-4.864-20.081 34.881m20.081-34.881-70.032 46.364m0-65.569 70.032-46.364m-39.954 4.864 39.954-4.864-20.081 34.882m20.081-34.882-70.032 46.364m0-65.569 70.032-46.364m-39.954 4.864 39.954-4.864-20.081 34.882m20.081-34.882-70.032 46.364m0-65.569 70.032-46.364m-39.954 4.864 39.954-4.864-20.081 34.882m20.081-34.882-70.032 46.364m99.04 1311.38 70.036-46.37m-39.958 4.87 39.958-4.87-20.085 34.88m20.085-34.88-70.036 46.37m0-65.57 70.036-46.37m-39.958 4.87 39.958-4.87-20.085 34.88m20.085-34.88-70.036 46.37m0-65.57 70.036-46.37m-39.958 4.87 39.958-4.87-20.085 34.89m20.085-34.89-70.036 46.37m0-65.57 70.036-46.36m-39.958 4.86 39.958-4.86-20.085 34.88m20.085-34.88-70.036 46.36m0-65.57 70.036-46.36m-39.958 4.86 39.958-4.86-20.085 34.88m20.085-34.88-70.036 46.36m0-65.57 70.036-46.36m-39.958 4.86 39.958-4.86-20.085 34.88m20.085-34.88-70.036 46.36m0-65.57 70.036-46.36m-39.958 4.86 39.958-4.86-20.085 34.88m20.085-34.88-70.036 46.36m0-65.566 70.036-46.364m-39.958 4.864 39.958-4.864-20.085 34.882m20.085-34.882-70.036 46.364m0-65.568 70.036-46.365m-39.958 4.865 39.958-4.865-20.085 34.882m20.085-34.882-70.036 46.365m0-65.569 70.036-46.364m-39.958 4.864 39.958-4.864-20.085 34.882m20.085-34.882-70.036 46.364m0-65.569 70.036-46.364m-39.958 4.864 39.958-4.864-20.085 34.882m20.085-34.882-70.036 46.364m0-65.569 70.036-46.364m-39.958 4.864 39.958-4.864-20.085 34.882m20.085-34.882-70.036 46.364m0-65.568 70.036-46.365m-39.958 4.864 39.958-4.864-20.085 34.882m20.085-34.882-70.036 46.365m0-65.569 70.036-46.364m-39.958 4.864 39.958-4.864-20.085 34.881m20.085-34.881-70.036 46.364m0-65.569 70.036-46.364m-39.958 4.864 39.958-4.864-20.085 34.882m20.085-34.882-70.036 46.364m0-65.569 70.036-46.364m-39.958 4.864 39.958-4.864-20.085 34.882m20.085-34.882-70.036 46.364m0-65.569 70.036-46.364m-39.958 4.864 39.958-4.864-20.085 34.882m20.085-34.882-70.036 46.364m0-65.568 70.036-46.364m-39.958 4.864 39.958-4.864-20.085 34.881m20.085-34.881-70.036 46.364m0-65.569 70.036-46.364m-39.958 4.864 39.958-4.864-20.085 34.882m20.085-34.882-70.036 46.364m0-65.569 70.036-46.364m-39.958 4.864 39.958-4.864-20.085 34.882m20.085-34.882-70.036 46.364m0-65.569 70.036-46.364m-39.958 4.864 39.958-4.864-20.085 34.882m20.085-34.882-70.036 46.364m99.036 1311.38 70.04-46.37m-39.96 4.87 39.96-4.87-20.08 34.88m20.08-34.88-70.04 46.37m0-65.57 70.04-46.37m-39.96 4.87 39.96-4.87-20.08 34.88m20.08-34.88-70.04 46.37m0-65.57 70.04-46.37m-39.96 4.87 39.96-4.87-20.08 34.89m20.08-34.89-70.04 46.37m0-65.57 70.04-46.36m-39.96 4.86 39.96-4.86-20.08 34.88m20.08-34.88-70.04 46.36m0-65.57 70.04-46.36m-39.96 4.86 39.96-4.86-20.08 34.88m20.08-34.88-70.04 46.36m0-65.57 70.04-46.36m-39.96 4.86 39.96-4.86-20.08 34.88m20.08-34.88-70.04 46.36m0-65.57 70.04-46.36m-39.96 4.86 39.96-4.86-20.08 34.88m20.08-34.88-70.04 46.36m0-65.566 70.04-46.364m-39.96 4.864 39.96-4.864-20.08 34.882m20.08-34.882-70.04 46.364m0-65.568 70.04-46.365m-39.96 4.865 39.96-4.865-20.08 34.882m20.08-34.882-70.04 46.365m0-65.569 70.04-46.364m-39.96 4.864 39.96-4.864-20.08 34.882m20.08-34.882-70.04 46.364m0-65.569 70.04-46.364m-39.96 4.864 39.96-4.864-20.08 34.882m20.08-34.882-70.04 46.364m0-65.569 70.04-46.364m-39.96 4.864 39.96-4.864-20.08 34.882m20.08-34.882-70.04 46.364m0-65.568 70.04-46.365m-39.96 4.864 39.96-4.864-20.08 34.882m20.08-34.882-70.04 46.365m0-65.569 70.04-46.364m-39.96 4.864 39.96-4.864-20.08 34.881m20.08-34.881-70.04 46.364m0-65.569 70.04-46.364m-39.96 4.864 39.96-4.864-20.08 34.882m20.08-34.882-70.04 46.364m0-65.569 70.04-46.364m-39.96 4.864 39.96-4.864-20.08 34.882m20.08-34.882-70.04 46.364m0-65.569 70.04-46.364m-39.96 4.864 39.96-4.864-20.08 34.882m20.08-34.882-70.04 46.364m0-65.568 70.04-46.364m-39.96 4.864 39.96-4.864-20.08 34.881m20.08-34.881-70.04 46.364m0-65.569 70.04-46.364m-39.96 4.864 39.96-4.864-20.08 34.882m20.08-34.882-70.04 46.364m0-65.569 70.04-46.364m-39.96 4.864 39.96-4.864-20.08 34.882m20.08-34.882-70.04 46.364m0-65.569 70.04-46.364m-39.96 4.864 39.96-4.864-20.08 34.882m20.08-34.882-70.04 46.364m99.04 1311.38 70.04-46.37m-39.96 4.87 39.96-4.87-20.08 34.88m20.08-34.88-70.04 46.37m0-65.57 70.04-46.37m-39.96 4.87 39.96-4.87-20.08 34.88m20.08-34.88-70.04 46.37m0-65.57 70.04-46.37m-39.96 4.87 39.96-4.87-20.08 34.89m20.08-34.89-70.04 46.37m0-65.57 70.04-46.36m-39.96 4.86 39.96-4.86-20.08 34.88m20.08-34.88-70.04 46.36m0-65.57 70.04-46.36m-39.96 4.86 39.96-4.86-20.08 34.88m20.08-34.88-70.04 46.36m0-65.57 70.04-46.36m-39.96 4.86 39.96-4.86-20.08 34.88m20.08-34.88-70.04 46.36m0-65.57 70.04-46.36m-39.96 4.86 39.96-4.86-20.08 34.88m20.08-34.88-70.04 46.36m0-65.566 70.04-46.364m-39.96 4.864 39.96-4.864-20.08 34.882m20.08-34.882-70.04 46.364m0-65.568 70.04-46.365m-39.96 4.865 39.96-4.865-20.08 34.882m20.08-34.882-70.04 46.365m0-65.569 70.04-46.364m-39.96 4.864 39.96-4.864-20.08 34.882m20.08-34.882-70.04 46.364m0-65.569 70.04-46.364m-39.96 4.864 39.96-4.864-20.08 34.882m20.08-34.882-70.04 46.364m0-65.569 70.04-46.364m-39.96 4.864 39.96-4.864-20.08 34.882m20.08-34.882-70.04 46.364m0-65.568 70.04-46.365m-39.96 4.864 39.96-4.864-20.08 34.882m20.08-34.882-70.04 46.365m0-65.569 70.04-46.364m-39.96 4.864 39.96-4.864-20.08 34.881m20.08-34.881-70.04 46.364m0-65.569 70.04-46.364m-39.96 4.864 39.96-4.864-20.08 34.882m20.08-34.882-70.04 46.364m0-65.569 70.04-46.364m-39.96 4.864 39.96-4.864-20.08 34.882m20.08-34.882-70.04 46.364m0-65.569 70.04-46.364m-39.96 4.864 39.96-4.864-20.08 34.882m20.08-34.882-70.04 46.364m0-65.568 70.04-46.364m-39.96 4.864 39.96-4.864-20.08 34.881m20.08-34.881-70.04 46.364m0-65.569 70.04-46.364m-39.96 4.864 39.96-4.864-20.08 34.882m20.08-34.882-70.04 46.364m0-65.569 70.04-46.364m-39.96 4.864 39.96-4.864-20.08 34.882m20.08-34.882-70.04 46.364m0-65.569 70.04-46.364m-39.96 4.864 39.96-4.864-20.08 34.882m20.08-34.882-70.04 46.364m99.05 1311.38 70.03-46.37m-39.96 4.87 39.96-4.87-20.08 34.88m20.08-34.88-70.03 46.37m0-65.57 70.03-46.37m-39.96 4.87 39.96-4.87-20.08 34.88m20.08-34.88-70.03 46.37m0-65.57 70.03-46.37m-39.96 4.87 39.96-4.87-20.08 34.89m20.08-34.89-70.03 46.37m0-65.57 70.03-46.36m-39.96 4.86 39.96-4.86-20.08 34.88m20.08-34.88-70.03 46.36m0-65.57 70.03-46.36m-39.96 4.86 39.96-4.86-20.08 34.88m20.08-34.88-70.03 46.36m0-65.57 70.03-46.36m-39.96 4.86 39.96-4.86-20.08 34.88m20.08-34.88-70.03 46.36m0-65.57 70.03-46.36m-39.96 4.86 39.96-4.86-20.08 34.88m20.08-34.88-70.03 46.36m0-65.566 70.03-46.364m-39.96 4.864 39.96-4.864-20.08 34.882m20.08-34.882-70.03 46.364m0-65.568 70.03-46.365m-39.96 4.865 39.96-4.865-20.08 34.882m20.08-34.882-70.03 46.365m0-65.569 70.03-46.364m-39.96 4.864 39.96-4.864-20.08 34.882m20.08-34.882-70.03 46.364m0-65.569 70.03-46.364m-39.96 4.864 39.96-4.864-20.08 34.882m20.08-34.882-70.03 46.364m0-65.569 70.03-46.364m-39.96 4.864 39.96-4.864-20.08 34.882m20.08-34.882-70.03 46.364m0-65.568 70.03-46.365m-39.96 4.864 39.96-4.864-20.08 34.882m20.08-34.882-70.03 46.365m0-65.569 70.03-46.364m-39.96 4.864 39.96-4.864-20.08 34.881m20.08-34.881-70.03 46.364m0-65.569 70.03-46.364m-39.96 4.864 39.96-4.864-20.08 34.882m20.08-34.882-70.03 46.364m0-65.569 70.03-46.364m-39.96 4.864 39.96-4.864-20.08 34.882m20.08-34.882-70.03 46.364m0-65.569 70.03-46.364m-39.96 4.864 39.96-4.864-20.08 34.882m20.08-34.882-70.03 46.364m0-65.568 70.03-46.364m-39.96 4.864 39.96-4.864-20.08 34.881m20.08-34.881-70.03 46.364m0-65.569 70.03-46.364m-39.96 4.864 39.96-4.864-20.08 34.882m20.08-34.882-70.03 46.364m0-65.569 70.03-46.364m-39.96 4.864 39.96-4.864-20.08 34.882m20.08-34.882-70.03 46.364m0-65.569 70.03-46.364m-39.96 4.864 39.96-4.864-20.08 34.882m20.08-34.882-70.03 46.364m99.04 1311.38 70.03-46.37m-39.96 4.87 39.96-4.87-20.08 34.88m20.08-34.88-70.03 46.37m0-65.57 70.03-46.37m-39.96 4.87 39.96-4.87-20.08 34.88m20.08-34.88-70.03 46.37m0-65.57 70.03-46.37m-39.96 4.87 39.96-4.87-20.08 34.89m20.08-34.89-70.03 46.37m0-65.57 70.03-46.36m-39.96 4.86 39.96-4.86-20.08 34.88m20.08-34.88-70.03 46.36m0-65.57 70.03-46.36m-39.96 4.86 39.96-4.86-20.08 34.88m20.08-34.88-70.03 46.36m0-65.57 70.03-46.36m-39.96 4.86 39.96-4.86-20.08 34.88m20.08-34.88-70.03 46.36m0-65.57 70.03-46.36m-39.96 4.86 39.96-4.86-20.08 34.88m20.08-34.88-70.03 46.36m0-65.566 70.03-46.364m-39.96 4.864 39.96-4.864-20.08 34.882m20.08-34.882-70.03 46.364m0-65.568 70.03-46.365m-39.96 4.865 39.96-4.865-20.08 34.882m20.08-34.882-70.03 46.365m0-65.569 70.03-46.364m-39.96 4.864 39.96-4.864-20.08 34.882m20.08-34.882-70.03 46.364m0-65.569 70.03-46.364m-39.96 4.864 39.96-4.864-20.08 34.882m20.08-34.882-70.03 46.364m0-65.569 70.03-46.364m-39.96 4.864 39.96-4.864-20.08 34.882m20.08-34.882-70.03 46.364m0-65.568 70.03-46.365m-39.96 4.864 39.96-4.864-20.08 34.882m20.08-34.882-70.03 46.365m0-65.569 70.03-46.364m-39.96 4.864 39.96-4.864-20.08 34.881m20.08-34.881-70.03 46.364m0-65.569 70.03-46.364m-39.96 4.864 39.96-4.864-20.08 34.882m20.08-34.882-70.03 46.364m0-65.569 70.03-46.364m-39.96 4.864 39.96-4.864-20.08 34.882m20.08-34.882-70.03 46.364m0-65.569 70.03-46.364m-39.96 4.864 39.96-4.864-20.08 34.882m20.08-34.882-70.03 46.364m0-65.568 70.03-46.364m-39.96 4.864 39.96-4.864-20.08 34.881m20.08-34.881-70.03 46.364m0-65.569 70.03-46.364m-39.96 4.864 39.96-4.864-20.08 34.882m20.08-34.882-70.03 46.364m0-65.569 70.03-46.364m-39.96 4.864 39.96-4.864-20.08 34.882m20.08-34.882-70.03 46.364m0-65.569 70.03-46.364m-39.96 4.864 39.96-4.864-20.08 34.882m20.08-34.882-70.03 46.364m99.04 1311.38 70.03-46.37m-39.96 4.87 39.96-4.87-20.08 34.88m20.08-34.88-70.03 46.37m0-65.57 70.03-46.37m-39.96 4.87 39.96-4.87-20.08 34.88m20.08-34.88-70.03 46.37m0-65.57 70.03-46.37m-39.96 4.87 39.96-4.87-20.08 34.89m20.08-34.89-70.03 46.37m0-65.57 70.03-46.36m-39.96 4.86 39.96-4.86-20.08 34.88m20.08-34.88-70.03 46.36m0-65.57 70.03-46.36m-39.96 4.86 39.96-4.86-20.08 34.88m20.08-34.88-70.03 46.36m0-65.57 70.03-46.36m-39.96 4.86 39.96-4.86-20.08 34.88m20.08-34.88-70.03 46.36m0-65.57 70.03-46.36m-39.96 4.86 39.96-4.86-20.08 34.88m20.08-34.88-70.03 46.36m0-65.566 70.03-46.364m-39.96 4.864 39.96-4.864-20.08 34.882m20.08-34.882-70.03 46.364m0-65.568 70.03-46.365m-39.96 4.865 39.96-4.865-20.08 34.882m20.08-34.882-70.03 46.365m0-65.569 70.03-46.364m-39.96 4.864 39.96-4.864-20.08 34.882m20.08-34.882-70.03 46.364m0-65.569 70.03-46.364m-39.96 4.864 39.96-4.864-20.08 34.882m20.08-34.882-70.03 46.364m0-65.569 70.03-46.364m-39.96 4.864 39.96-4.864-20.08 34.882m20.08-34.882-70.03 46.364m0-65.568 70.03-46.365m-39.96 4.864 39.96-4.864-20.08 34.882m20.08-34.882-70.03 46.365m0-65.569 70.03-46.364m-39.96 4.864 39.96-4.864-20.08 34.881m20.08-34.881-70.03 46.364m0-65.569 70.03-46.364m-39.96 4.864 39.96-4.864-20.08 34.882m20.08-34.882-70.03 46.364m0-65.569 70.03-46.364m-39.96 4.864 39.96-4.864-20.08 34.882m20.08-34.882-70.03 46.364m0-65.569 70.03-46.364m-39.96 4.864 39.96-4.864-20.08 34.882m20.08-34.882-70.03 46.364m0-65.568 70.03-46.364m-39.96 4.864 39.96-4.864-20.08 34.881m20.08-34.881-70.03 46.364m0-65.569 70.03-46.364m-39.96 4.864 39.96-4.864-20.08 34.882m20.08-34.882-70.03 46.364m0-65.569 70.03-46.364m-39.96 4.864 39.96-4.864-20.08 34.882m20.08-34.882-70.03 46.364m0-65.569 70.03-46.364m-39.96 4.864 39.96-4.864-20.08 34.882m20.08-34.882-70.03 46.364m99.04 1311.38 70.03-46.37m-39.96 4.87 39.96-4.87-20.08 34.88m20.08-34.88-70.03 46.37m0-65.57 70.03-46.37m-39.96 4.87 39.96-4.87-20.08 34.88m20.08-34.88-70.03 46.37m0-65.57 70.03-46.37m-39.96 4.87 39.96-4.87-20.08 34.89m20.08-34.89-70.03 46.37m0-65.57 70.03-46.36m-39.96 4.86 39.96-4.86-20.08 34.88m20.08-34.88-70.03 46.36m0-65.57 70.03-46.36m-39.96 4.86 39.96-4.86-20.08 34.88m20.08-34.88-70.03 46.36m0-65.57 70.03-46.36m-39.96 4.86 39.96-4.86-20.08 34.88m20.08-34.88-70.03 46.36m0-65.57 70.03-46.36m-39.96 4.86 39.96-4.86-20.08 34.88m20.08-34.88-70.03 46.36m0-65.566 70.03-46.364m-39.96 4.864 39.96-4.864-20.08 34.882m20.08-34.882-70.03 46.364m0-65.568 70.03-46.365m-39.96 4.865 39.96-4.865-20.08 34.882m20.08-34.882-70.03 46.365m0-65.569 70.03-46.364m-39.96 4.864 39.96-4.864-20.08 34.882m20.08-34.882-70.03 46.364m0-65.569 70.03-46.364m-39.96 4.864 39.96-4.864-20.08 34.882m20.08-34.882-70.03 46.364m0-65.569 70.03-46.364m-39.96 4.864 39.96-4.864-20.08 34.882m20.08-34.882-70.03 46.364m0-65.568 70.03-46.365m-39.96 4.864 39.96-4.864-20.08 34.882m20.08-34.882-70.03 46.365m0-65.569 70.03-46.364m-39.96 4.864 39.96-4.864-20.08 34.881m20.08-34.881-70.03 46.364m0-65.569 70.03-46.364m-39.96 4.864 39.96-4.864-20.08 34.882m20.08-34.882-70.03 46.364m0-65.569 70.03-46.364m-39.96 4.864 39.96-4.864-20.08 34.882m20.08-34.882-70.03 46.364m0-65.569 70.03-46.364m-39.96 4.864 39.96-4.864-20.08 34.882m20.08-34.882-70.03 46.364m0-65.568 70.03-46.364m-39.96 4.864 39.96-4.864-20.08 34.881m20.08-34.881-70.03 46.364m0-65.569 70.03-46.364m-39.96 4.864 39.96-4.864-20.08 34.882m20.08-34.882-70.03 46.364m0-65.569 70.03-46.364m-39.96 4.864 39.96-4.864-20.08 34.882m20.08-34.882-70.03 46.364m0-65.569 70.03-46.364m-39.96 4.864 39.96-4.864-20.08 34.882m20.08-34.882-70.03 46.364m99.04 1311.38 70.03-46.37m-39.96 4.87 39.96-4.87-20.08 34.88m20.08-34.88-70.03 46.37m0-65.57 70.03-46.37m-39.96 4.87 39.96-4.87-20.08 34.88m20.08-34.88-70.03 46.37m0-65.57 70.03-46.37m-39.96 4.87 39.96-4.87-20.08 34.89m20.08-34.89-70.03 46.37m0-65.57 70.03-46.36m-39.96 4.86 39.96-4.86-20.08 34.88m20.08-34.88-70.03 46.36m0-65.57 70.03-46.36m-39.96 4.86 39.96-4.86-20.08 34.88m20.08-34.88-70.03 46.36m0-65.57 70.03-46.36m-39.96 4.86 39.96-4.86-20.08 34.88m20.08-34.88-70.03 46.36m0-65.57 70.03-46.36m-39.96 4.86 39.96-4.86-20.08 34.88m20.08-34.88-70.03 46.36m0-65.566 70.03-46.364m-39.96 4.864 39.96-4.864-20.08 34.882m20.08-34.882-70.03 46.364m0-65.568 70.03-46.365m-39.96 4.865 39.96-4.865-20.08 34.882m20.08-34.882-70.03 46.365m0-65.569 70.03-46.364m-39.96 4.864 39.96-4.864-20.08 34.882m20.08-34.882-70.03 46.364m0-65.569 70.03-46.364m-39.96 4.864 39.96-4.864-20.08 34.882m20.08-34.882-70.03 46.364m0-65.569 70.03-46.364m-39.96 4.864 39.96-4.864-20.08 34.882m20.08-34.882-70.03 46.364m0-65.568 70.03-46.365m-39.96 4.864 39.96-4.864-20.08 34.882m20.08-34.882-70.03 46.365m0-65.569 70.03-46.364m-39.96 4.864 39.96-4.864-20.08 34.881m20.08-34.881-70.03 46.364m0-65.569 70.03-46.364m-39.96 4.864 39.96-4.864-20.08 34.882m20.08-34.882-70.03 46.364m0-65.569 70.03-46.364m-39.96 4.864 39.96-4.864-20.08 34.882m20.08-34.882-70.03 46.364m0-65.569 70.03-46.364m-39.96 4.864 39.96-4.864-20.08 34.882m20.08-34.882-70.03 46.364m0-65.568 70.03-46.364m-39.96 4.864 39.96-4.864-20.08 34.881m20.08-34.881-70.03 46.364m0-65.569 70.03-46.364m-39.96 4.864 39.96-4.864-20.08 34.882m20.08-34.882-70.03 46.364m0-65.569 70.03-46.364m-39.96 4.864 39.96-4.864-20.08 34.882m20.08-34.882-70.03 46.364m0-65.569 70.03-46.364m-39.96 4.864 39.96-4.864-20.08 34.882m20.08-34.882-70.03 46.364M1726 1445.72l70.03-46.37m-39.96 4.87 39.96-4.87-20.08 34.88m20.08-34.88-70.03 46.37m0-65.57 70.03-46.37m-39.96 4.87 39.96-4.87-20.08 34.88m20.08-34.88-70.03 46.37m0-65.57 70.03-46.37m-39.96 4.87 39.96-4.87-20.08 34.89m20.08-34.89-70.03 46.37m0-65.57 70.03-46.36m-39.96 4.86 39.96-4.86-20.08 34.88m20.08-34.88-70.03 46.36m0-65.57 70.03-46.36m-39.96 4.86 39.96-4.86-20.08 34.88m20.08-34.88-70.03 46.36m0-65.57 70.03-46.36m-39.96 4.86 39.96-4.86-20.08 34.88m20.08-34.88-70.03 46.36m0-65.57 70.03-46.36m-39.96 4.86 39.96-4.86-20.08 34.88m20.08-34.88L1726 1052.3m0-65.566 70.03-46.364m-39.96 4.864 39.96-4.864-20.08 34.882m20.08-34.882L1726 986.734m0-65.568 70.03-46.365m-39.96 4.865 39.96-4.865-20.08 34.882m20.08-34.882L1726 921.166m0-65.569 70.03-46.364m-39.96 4.864 39.96-4.864-20.08 34.882m20.08-34.882L1726 855.597m0-65.569 70.03-46.364m-39.96 4.864 39.96-4.864-20.08 34.882m20.08-34.882L1726 790.028m0-65.569 70.03-46.364m-39.96 4.864 39.96-4.864-20.08 34.882m20.08-34.882L1726 724.459m0-65.568 70.03-46.365m-39.96 4.864 39.96-4.864-20.08 34.882m20.08-34.882L1726 658.891m0-65.569 70.03-46.364m-39.96 4.864 39.96-4.864-20.08 34.881m20.08-34.881L1726 593.322m0-65.569 70.03-46.364m-39.96 4.864 39.96-4.864-20.08 34.882m20.08-34.882L1726 527.753m0-65.569 70.03-46.364m-39.96 4.864 39.96-4.864-20.08 34.882m20.08-34.882L1726 462.184m0-65.569 70.03-46.364m-39.96 4.864 39.96-4.864-20.08 34.882m20.08-34.882L1726 396.615m0-65.568 70.03-46.364m-39.96 4.864 39.96-4.864-20.08 34.881m20.08-34.881L1726 331.047m0-65.569 70.03-46.364m-39.96 4.864 39.96-4.864-20.08 34.882m20.08-34.882L1726 265.478m0-65.569 70.03-46.364m-39.96 4.864 39.96-4.864-20.08 34.882m20.08-34.882L1726 199.909m0-65.569 70.03-46.364m-39.96 4.864 39.96-4.864-20.08 34.882m20.08-34.882L1726 134.34m99.04 1311.38 70.03-46.37m-39.95 4.87 39.95-4.87-20.08 34.88m20.08-34.88-70.03 46.37m0-65.57 70.03-46.37m-39.95 4.87 39.95-4.87-20.08 34.88m20.08-34.88-70.03 46.37m0-65.57 70.03-46.37m-39.95 4.87 39.95-4.87-20.08 34.89m20.08-34.89-70.03 46.37m0-65.57 70.03-46.36m-39.95 4.86 39.95-4.86-20.08 34.88m20.08-34.88-70.03 46.36m0-65.57 70.03-46.36m-39.95 4.86 39.95-4.86-20.08 34.88m20.08-34.88-70.03 46.36m0-65.57 70.03-46.36m-39.95 4.86 39.95-4.86-20.08 34.88m20.08-34.88-70.03 46.36m0-65.57 70.03-46.36m-39.95 4.86 39.95-4.86-20.08 34.88m20.08-34.88-70.03 46.36m0-65.566 70.03-46.364m-39.95 4.864 39.95-4.864-20.08 34.882m20.08-34.882-70.03 46.364m0-65.568 70.03-46.365m-39.95 4.865 39.95-4.865-20.08 34.882m20.08-34.882-70.03 46.365m0-65.569 70.03-46.364m-39.95 4.864 39.95-4.864-20.08 34.882m20.08-34.882-70.03 46.364m0-65.569 70.03-46.364m-39.95 4.864 39.95-4.864-20.08 34.882m20.08-34.882-70.03 46.364m0-65.569 70.03-46.364m-39.95 4.864 39.95-4.864-20.08 34.882m20.08-34.882-70.03 46.364m0-65.568 70.03-46.365m-39.95 4.864 39.95-4.864-20.08 34.882m20.08-34.882-70.03 46.365m0-65.569 70.03-46.364m-39.95 4.864 39.95-4.864-20.08 34.881m20.08-34.881-70.03 46.364m0-65.569 70.03-46.364m-39.95 4.864 39.95-4.864-20.08 34.882m20.08-34.882-70.03 46.364m0-65.569 70.03-46.364m-39.95 4.864 39.95-4.864-20.08 34.882m20.08-34.882-70.03 46.364m0-65.569 70.03-46.364m-39.95 4.864 39.95-4.864-20.08 34.882m20.08-34.882-70.03 46.364m0-65.568 70.03-46.364m-39.95 4.864 39.95-4.864-20.08 34.881m20.08-34.881-70.03 46.364m0-65.569 70.03-46.364m-39.95 4.864 39.95-4.864-20.08 34.882m20.08-34.882-70.03 46.364m0-65.569 70.03-46.364m-39.95 4.864 39.95-4.864-20.08 34.882m20.08-34.882-70.03 46.364m0-65.569 70.03-46.364m-39.95 4.864 39.95-4.864-20.08 34.882m20.08-34.882-70.03 46.364m99.04 1311.38 70.03-46.37m-39.95 4.87 39.95-4.87-20.08 34.88m20.08-34.88-70.03 46.37m0-65.57 70.03-46.37m-39.95 4.87 39.95-4.87-20.08 34.88m20.08-34.88-70.03 46.37m0-65.57 70.03-46.37m-39.95 4.87 39.95-4.87-20.08 34.89m20.08-34.89-70.03 46.37m0-65.57 70.03-46.36m-39.95 4.86 39.95-4.86-20.08 34.88m20.08-34.88-70.03 46.36m0-65.57 70.03-46.36m-39.95 4.86 39.95-4.86-20.08 34.88m20.08-34.88-70.03 46.36m0-65.57 70.03-46.36m-39.95 4.86 39.95-4.86-20.08 34.88m20.08-34.88-70.03 46.36m0-65.57 70.03-46.36m-39.95 4.86 39.95-4.86-20.08 34.88m20.08-34.88-70.03 46.36m0-65.566 70.03-46.364m-39.95 4.864 39.95-4.864-20.08 34.882m20.08-34.882-70.03 46.364m0-65.568 70.03-46.365m-39.95 4.865 39.95-4.865-20.08 34.882m20.08-34.882-70.03 46.365m0-65.569 70.03-46.364m-39.95 4.864 39.95-4.864-20.08 34.882m20.08-34.882-70.03 46.364m0-65.569 70.03-46.364m-39.95 4.864 39.95-4.864-20.08 34.882m20.08-34.882-70.03 46.364m0-65.569 70.03-46.364m-39.95 4.864 39.95-4.864-20.08 34.882m20.08-34.882-70.03 46.364m0-65.568 70.03-46.365m-39.95 4.864 39.95-4.864-20.08 34.882m20.08-34.882-70.03 46.365m0-65.569 70.03-46.364m-39.95 4.864 39.95-4.864-20.08 34.881m20.08-34.881-70.03 46.364m0-65.569 70.03-46.364m-39.95 4.864 39.95-4.864-20.08 34.882m20.08-34.882-70.03 46.364m0-65.569 70.03-46.364m-39.95 4.864 39.95-4.864-20.08 34.882m20.08-34.882-70.03 46.364m0-65.569 70.03-46.364m-39.95 4.864 39.95-4.864-20.08 34.882m20.08-34.882-70.03 46.364m0-65.568 70.03-46.364m-39.95 4.864 39.95-4.864-20.08 34.881m20.08-34.881-70.03 46.364m0-65.569 70.03-46.364m-39.95 4.864 39.95-4.864-20.08 34.882m20.08-34.882-70.03 46.364m0-65.569 70.03-46.364m-39.95 4.864 39.95-4.864-20.08 34.882m20.08-34.882-70.03 46.364m0-65.569 70.03-46.364m-39.95 4.864 39.95-4.864-20.08 34.882m20.08-34.882-70.03 46.364m99.04 1311.38 70.03-46.37m-39.95 4.87 39.95-4.87-20.08 34.88m20.08-34.88-70.03 46.37m0-65.57 70.03-46.37m-39.95 4.87 39.95-4.87-20.08 34.88m20.08-34.88-70.03 46.37m0-65.57 70.03-46.37m-39.95 4.87 39.95-4.87-20.08 34.89m20.08-34.89-70.03 46.37m0-65.57 70.03-46.36m-39.95 4.86 39.95-4.86-20.08 34.88m20.08-34.88-70.03 46.36m0-65.57 70.03-46.36m-39.95 4.86 39.95-4.86-20.08 34.88m20.08-34.88-70.03 46.36m0-65.57 70.03-46.36m-39.95 4.86 39.95-4.86-20.08 34.88m20.08-34.88-70.03 46.36m0-65.57 70.03-46.36m-39.95 4.86 39.95-4.86-20.08 34.88m20.08-34.88-70.03 46.36m0-65.566 70.03-46.364m-39.95 4.864 39.95-4.864-20.08 34.882m20.08-34.882-70.03 46.364m0-65.568 70.03-46.365m-39.95 4.865 39.95-4.865-20.08 34.882m20.08-34.882-70.03 46.365m0-65.569 70.03-46.364m-39.95 4.864 39.95-4.864-20.08 34.882m20.08-34.882-70.03 46.364m0-65.569 70.03-46.364m-39.95 4.864 39.95-4.864-20.08 34.882m20.08-34.882-70.03 46.364m0-65.569 70.03-46.364m-39.95 4.864 39.95-4.864-20.08 34.882m20.08-34.882-70.03 46.364m0-65.568 70.03-46.365m-39.95 4.864 39.95-4.864-20.08 34.882m20.08-34.882-70.03 46.365m0-65.569 70.03-46.364m-39.95 4.864 39.95-4.864-20.08 34.881m20.08-34.881-70.03 46.364m0-65.569 70.03-46.364m-39.95 4.864 39.95-4.864-20.08 34.882m20.08-34.882-70.03 46.364m0-65.569 70.03-46.364m-39.95 4.864 39.95-4.864-20.08 34.882m20.08-34.882-70.03 46.364m0-65.569 70.03-46.364m-39.95 4.864 39.95-4.864-20.08 34.882m20.08-34.882-70.03 46.364m0-65.568 70.03-46.364m-39.95 4.864 39.95-4.864-20.08 34.881m20.08-34.881-70.03 46.364m0-65.569 70.03-46.364m-39.95 4.864 39.95-4.864-20.08 34.882m20.08-34.882-70.03 46.364m0-65.569 70.03-46.364m-39.95 4.864 39.95-4.864-20.08 34.882m20.08-34.882-70.03 46.364m0-65.569 70.03-46.364m-39.95 4.864 39.95-4.864-20.08 34.882m20.08-34.882-70.03 46.364m99.04 1311.38 70.03-46.37m-39.95 4.87 39.95-4.87-20.08 34.88m20.08-34.88-70.03 46.37m0-65.57 70.03-46.37m-39.95 4.87 39.95-4.87-20.08 34.88m20.08-34.88-70.03 46.37m0-65.57 70.03-46.37m-39.95 4.87 39.95-4.87-20.08 34.89m20.08-34.89-70.03 46.37m0-65.57 70.03-46.36m-39.95 4.86 39.95-4.86-20.08 34.88m20.08-34.88-70.03 46.36m0-65.57 70.03-46.36m-39.95 4.86 39.95-4.86-20.08 34.88m20.08-34.88-70.03 46.36m0-65.57 70.03-46.36m-39.95 4.86 39.95-4.86-20.08 34.88m20.08-34.88-70.03 46.36m0-65.57 70.03-46.36m-39.95 4.86 39.95-4.86-20.08 34.88m20.08-34.88-70.03 46.36m0-65.566 70.03-46.364m-39.95 4.864 39.95-4.864-20.08 34.882m20.08-34.882-70.03 46.364m0-65.568 70.03-46.365m-39.95 4.865 39.95-4.865-20.08 34.882m20.08-34.882-70.03 46.365m0-65.569 70.03-46.364m-39.95 4.864 39.95-4.864-20.08 34.882m20.08-34.882-70.03 46.364m0-65.569 70.03-46.364m-39.95 4.864 39.95-4.864-20.08 34.882m20.08-34.882-70.03 46.364m0-65.569 70.03-46.364m-39.95 4.864 39.95-4.864-20.08 34.882m20.08-34.882-70.03 46.364m0-65.568 70.03-46.365m-39.95 4.864 39.95-4.864-20.08 34.882m20.08-34.882-70.03 46.365m0-65.569 70.03-46.364m-39.95 4.864 39.95-4.864-20.08 34.881m20.08-34.881-70.03 46.364m0-65.569 70.03-46.364m-39.95 4.864 39.95-4.864-20.08 34.882m20.08-34.882-70.03 46.364m0-65.569 70.03-46.364m-39.95 4.864 39.95-4.864-20.08 34.882m20.08-34.882-70.03 46.364m0-65.569 70.03-46.364m-39.95 4.864 39.95-4.864-20.08 34.882m20.08-34.882-70.03 46.364m0-65.568 70.03-46.364m-39.95 4.864 39.95-4.864-20.08 34.881m20.08-34.881-70.03 46.364m0-65.569 70.03-46.364m-39.95 4.864 39.95-4.864-20.08 34.882m20.08-34.882-70.03 46.364m0-65.569 70.03-46.364m-39.95 4.864 39.95-4.864-20.08 34.882m20.08-34.882-70.03 46.364m0-65.569 70.03-46.364m-39.95 4.864 39.95-4.864-20.08 34.882m20.08-34.882-70.03 46.364m99.04 1311.38 70.03-46.37m-39.95 4.87 39.95-4.87-20.08 34.88m20.08-34.88-70.03 46.37m0-65.57 70.03-46.37m-39.95 4.87 39.95-4.87-20.08 34.88m20.08-34.88-70.03 46.37m0-65.57 70.03-46.37m-39.95 4.87 39.95-4.87-20.08 34.89m20.08-34.89-70.03 46.37m0-65.57 70.03-46.36m-39.95 4.86 39.95-4.86-20.08 34.88m20.08-34.88-70.03 46.36m0-65.57 70.03-46.36m-39.95 4.86 39.95-4.86-20.08 34.88m20.08-34.88-70.03 46.36m0-65.57 70.03-46.36m-39.95 4.86 39.95-4.86-20.08 34.88m20.08-34.88-70.03 46.36m0-65.57 70.03-46.36m-39.95 4.86 39.95-4.86-20.08 34.88m20.08-34.88-70.03 46.36m0-65.566 70.03-46.364m-39.95 4.864 39.95-4.864-20.08 34.882m20.08-34.882-70.03 46.364m0-65.568 70.03-46.365m-39.95 4.865 39.95-4.865-20.08 34.882m20.08-34.882-70.03 46.365m0-65.569 70.03-46.364m-39.95 4.864 39.95-4.864-20.08 34.882m20.08-34.882-70.03 46.364m0-65.569 70.03-46.364m-39.95 4.864 39.95-4.864-20.08 34.882m20.08-34.882-70.03 46.364m0-65.569 70.03-46.364m-39.95 4.864 39.95-4.864-20.08 34.882m20.08-34.882-70.03 46.364m0-65.568 70.03-46.365m-39.95 4.864 39.95-4.864-20.08 34.882m20.08-34.882-70.03 46.365m0-65.569 70.03-46.364m-39.95 4.864 39.95-4.864-20.08 34.881m20.08-34.881-70.03 46.364m0-65.569 70.03-46.364m-39.95 4.864 39.95-4.864-20.08 34.882m20.08-34.882-70.03 46.364m0-65.569 70.03-46.364m-39.95 4.864 39.95-4.864-20.08 34.882m20.08-34.882-70.03 46.364m0-65.569 70.03-46.364m-39.95 4.864 39.95-4.864-20.08 34.882m20.08-34.882-70.03 46.364m0-65.568 70.03-46.364m-39.95 4.864 39.95-4.864-20.08 34.881m20.08-34.881-70.03 46.364m0-65.569 70.03-46.364m-39.95 4.864 39.95-4.864-20.08 34.882m20.08-34.882-70.03 46.364m0-65.569 70.03-46.364m-39.95 4.864 39.95-4.864-20.08 34.882m20.08-34.882-70.03 46.364m0-65.569 70.03-46.364m-39.95 4.864 39.95-4.864-20.08 34.882m20.08-34.882-70.03 46.364"/></svg>