<?xml version="1.0" encoding="UTF-8"?>
<svg width="200mm" height="140mm" version="1.1" viewBox="0 0 200 140" xmlns="http://www.w3.org/2000/svg">
 <rect width="100%" height="100%" fill="#1e1e1e"/>
 <defs>
  <marker id="marker2364" overflow="visible" orient="auto">
   <path transform="scale(.8) rotate(180) translate(12.5)" d="m0 0 5-5-17.5 5 17.5 5-5-5z" fill="#fcff5c" fill-rule="evenodd" stroke="#fcff5c" stroke-width="1pt"/>
  </marker>
  <marker id="marker1617" overflow="visible" orient="auto">
   <path transform="scale(.8) rotate(180) translate(12.5)" d="m0 0 5-5-17.5 5 17.5 5-5-5z" fill="#ff7676" fill-rule="evenodd" stroke="#ff7676" stroke-width="1pt"/>
  </marker>
  <marker id="Arrow1Lend" overflow="visible" orient="auto">
   <path transform="scale(.8) rotate(180) translate(12.5)" d="m0 0 5-5-17.5 5 17.5 5-5-5z" fill="#ff7676" fill-rule="evenodd" stroke="#ff7676" stroke-width="1pt"/>
  </marker>
  <marker id="d" overflow="visible" orient="auto">
   <path d="M-5.231-2.42 1.324-.01-5.23 2.401c1.047-1.423 1.041-3.37 0-4.821z" fill="#50ff7f" fill-rule="evenodd" stroke="#50ff7f" stroke-linejoin="round" stroke-width=".375"/>
  </marker>
  <marker id="e" overflow="visible" orient="auto">
   <path d="m-10 0-4 4 14-4-14-4z" fill="#fff" fill-rule="evenodd" stroke="#fff" stroke-width=".8pt"/>
  </marker>
  <clipPath id="a">
   <path d="M77.067-57.944h95.445v90.323H77.067z" fill="#fff" stroke="#fff" stroke-linecap="round" stroke-width=".165"/>
  </clipPath>
  <marker id="marker5780-6" overflow="visible" orient="auto">
   <path transform="matrix(-.8 0 0 -.8 -10 0)" d="m0 0 5-5-17.5 5 17.5 5z" fill="#fff" fill-rule="evenodd" stroke="#fff" stroke-width="1pt"/>
  </marker>
  <clipPath id="clipPath5852">
   <rect x="51.557" y="30.487" width="89.479" height="84.541" fill="#0ff" stroke="#fcff5c" stroke-linecap="round" stroke-width=".33289"/>
  </clipPath>
 </defs>
 <path d="m28.869 128.07h141.23" fill="none" marker-end="url(#e)" stroke="#fff" stroke-width=".52917"/>
 <g stroke-width=".26458" aria-label="t">
  <path d="m172.86 126.22q0-0.13952 0.0672-0.17053 0.0724-0.031 0.23254-0.031h0.89917l0.41341-1.6795q0.10335-0.38241 0.41341-0.38241 0.28422 0 0.28422 0.27388 0 0.0724-0.0413 0.22221l-0.39274 1.5658h0.84749q0.10335 0 0.14469 5e-3 0.0465 5e-3 0.0827 0.0362 0.0362 0.0258 0.0362 0.0879 0 0.13953-0.0724 0.17054-0.0672 0.031-0.22221 0.031h-0.90433l-0.78031 3.1419q-0.0724 0.29455-0.0724 0.5426 0 0.42891 0.27905 0.42891 0 0 5e-3 0 0.40308 0 0.71313-0.3979 0.31523-0.40308 0.50126-0.89917 0.062-0.14986 0.0878-0.1757 0.031-0.0258 0.12403-0.0258 0.16019 0 0.16019 0.10335 0 0.031-0.062 0.19121-0.062 0.16019-0.20154 0.40824-0.13952 0.24804-0.32039 0.47542-0.1757 0.22738-0.45475 0.39274-0.27388 0.16536-0.56844 0.16536-0.40307 0-0.65112-0.27388-0.24805-0.27905-0.24805-0.68213 0-0.14986 0.0517-0.35656l0.75964-3.0386h-0.84232q-0.10335 0-0.14986-5e-3 -0.0413-5e-3 -0.0827-0.031-0.0362-0.031-0.0362-0.093z" fill="#fff" stroke-width=".26458"/>
 </g>
 <g transform="translate(-2.963 51.193)" fill="#fff">
  <path transform="matrix(1.8853 0 0 1.8853 -117.45 -64.749)" d="m92.908 58.921h2.0653" marker-end="url(#marker5780-6)" stroke="#fff" stroke-width=".079718"/>
  <g transform="translate(-34.138 -24.665)" stroke-width=".26458">
   <path d="m91.219 74.165q0-0.02067 0.04134-0.18087 0.04134-0.16536 0.12402-0.42891 0.08785-0.26872 0.1757-0.45992 0.28939-0.5581 0.74931-0.5581 0.0052 0 0.01033 0 0.29456 0 0.5426 0.18603 0.25321 0.18087 0.3359 0.57361 0.54777-0.75964 1.2816-0.75964 0.37207 0 0.7028 0.15503 0.33073 0.14986 0.33073 0.5116 0 0.27388-0.17053 0.41858-0.16536 0.13953-0.34623 0.13953-0.1912 0-0.28422-0.10335-0.08785-0.10852-0.08785-0.23254 0-0.05168 0.02067-0.12919 0.02584-0.08268 0.11886-0.20154 0.09302-0.12402 0.26355-0.1757-0.21187-0.14986-0.5581-0.14986-0.25321 0-0.49609 0.14986-0.23771 0.14469-0.39274 0.33073-0.14986 0.18604-0.27905 0.41858-0.12402 0.23254-0.17053 0.34106-0.04134 0.10335-0.06201 0.15503l-0.68729 2.775q-0.09302 0.39274-0.41341 0.39274-0.14986 0-0.22221-0.08785-0.07235-0.08268-0.07235-0.1912 0-0.05168 0.03101-0.14469l0.79581-3.1781q0.07235-0.29455 0.07235-0.53743 0-0.42374-0.27388-0.42374-0.23254 0-0.39791 0.32039-0.16536 0.31522-0.32039 0.94051-0.04134 0.17053-0.07235 0.2067-0.03101 0.03617-0.12919 0.03617-0.1602-0.0052-0.1602-0.10852z" stroke-width=".26458"/>
   <path d="m96.374 74.568q0-1.788 0.66662-3.2298 0.28422-0.60461 0.68213-1.111 0.39791-0.50643 0.66146-0.72864t0.3359-0.22221q0.10335 0 0.10852 0.10335 0 0.05168-0.13953 0.18087-1.7053 1.7363-1.7002 5.0074 0 3.2814 1.6588 4.9506 0.18087 0.18087 0.18087 0.23771 0 0.10335-0.10852 0.10335-0.07235 0-0.32556-0.21187-0.25321-0.21187-0.64595-0.69763-0.39274-0.48576-0.67696-1.08-0.69763-1.4418-0.69763-3.3021z"/>
   <path d="m99.33 72.852q0-0.13953 0.06718-0.17053 0.07235-0.03101 0.23254-0.03101h0.89917l0.41341-1.6795q0.10335-0.3824 0.41341-0.3824 0.28422 0 0.28422 0.27388 0 0.07235-0.0413 0.22221l-0.39274 1.5658h0.84749q0.10335 0 0.1447 0.0052 0.0465 0.0052 0.0827 0.03617 0.0362 0.02584 0.0362 0.08785 0 0.13953-0.0724 0.17053-0.0672 0.03101-0.2222 0.03101h-0.90434l-0.78031 3.1419q-0.0724 0.29455-0.0724 0.5426 0 0.42891 0.27905 0.42891 0 0 5e-3 0 0.40308 0 0.71313-0.39791 0.31523-0.40308 0.50126-0.89917 0.062-0.14986 0.0879-0.1757 0.031-0.02584 0.12403-0.02584 0.16019 0 0.16019 0.10335 0 0.03101-0.062 0.1912-0.062 0.1602-0.20154 0.40824-0.13952 0.24805-0.32039 0.47542-0.1757 0.22738-0.45475 0.39274-0.27388 0.16536-0.56844 0.16536-0.40307 0-0.65112-0.27388-0.24805-0.27905-0.24805-0.68213 0-0.14986 0.0517-0.35657l0.75964-3.0386h-0.84232q-0.10335 0-0.14986-0.0052-0.04134-0.0052-0.08268-0.03101-0.03617-0.03101-0.03617-0.09302z" stroke-width=".26458"/>
   <path d="m103.01 79.756q0-0.05168 0.13436-0.18087 1.7053-1.7363 1.7053-5.0074 0-3.2814-1.6381-4.9403-0.20154-0.1912-0.20154-0.24805 0-0.10335 0.10336-0.10335 0.0723 0 0.32556 0.21187 0.25838 0.21187 0.64595 0.69763 0.39274 0.48576 0.68213 1.08 0.69763 1.4418 0.69763 3.3021 0 1.788-0.66663 3.2298-0.28422 0.60461-0.68212 1.111-0.39791 0.50643-0.66146 0.72864t-0.34106 0.22221q-0.10336 0-0.10336-0.10335z"/>
  </g>
 </g>
 <g transform="translate(-44.774 34.568)">
  <path transform="matrix(1.8853 0 0 1.8853 -117.45 -64.749)" d="m144.58 47.781h2.0653" fill="#fff" marker-end="url(#marker5780-6)" stroke="#fff" stroke-width=".079718"/>
  <g transform="translate(4.6558 5.9362)" stroke-width=".26458">
   <g transform="translate(38.93 -51.77)">
    <g transform="matrix(.80875 0 0 .80875 22.484 11.923)" stroke-width=".070004" aria-label="+">
     <path d="m126.44 77.098q-0.24288 0-0.24288-0.12919 0-0.12919 0.25321-0.12919 0.031 0 0.0827 0.0052 0.0568 0.0052 0.0672 0.0052h2.9817v-2.9921q0-0.01033-5e-3 -0.05684-5e-3 -0.05168-5e-3 -0.08268 0-0.25321 0.12402-0.25321 0.12919 0 0.12919 0.25321v3.1316h2.9869q0.0103 0 0.062-0.0052t0.0827-0.0052q0.24288 0 0.24288 0.12919 5e-3 0.12919-0.25321 0.12919-0.031 0-0.0775-0.0052t-0.0568-0.0052h-2.9869v3.1419q0 0.24288-0.12919 0.24288-0.12402 0-0.12402-0.25321 0-0.03101 5e-3 -0.08268 5e-3 -0.04651 5e-3 -0.05684v-2.9921h-2.9817q-0.0103 0-0.0723 0.0052-0.0568 0.0052-0.0879 0.0052z" fill="#fff" stroke-width=".070004"/>
    </g>
    <g fill="#fff">
     <path d="m111.18 74.165q0-0.02067 0.0413-0.18087 0.0413-0.16536 0.12402-0.42891 0.0879-0.26872 0.1757-0.45992 0.28938-0.5581 0.7493-0.5581 5e-3 0 0.0103 0 0.29455 0 0.5426 0.18603 0.25321 0.18087 0.3359 0.57361 0.54776-0.75964 1.2816-0.75964 0.37207 0 0.70279 0.15503 0.33073 0.14986 0.33073 0.5116 0 0.27388-0.17053 0.41858-0.16536 0.13953-0.34623 0.13953-0.1912 0-0.28422-0.10335-0.0879-0.10852-0.0879-0.23254 0-0.05168 0.0207-0.12919 0.0258-0.08268 0.11886-0.20154 0.093-0.12402 0.26355-0.1757-0.21188-0.14986-0.55811-0.14986-0.25321 0-0.49609 0.14986-0.23771 0.14469-0.39274 0.33073-0.14986 0.18604-0.27905 0.41858-0.12403 0.23254-0.17053 0.34106-0.0413 0.10335-0.062 0.15503l-0.68729 2.775q-0.093 0.39274-0.41341 0.39274-0.14986 0-0.22221-0.08785-0.0723-0.08268-0.0723-0.1912 0-0.05168 0.031-0.14469l0.79582-3.1781q0.0723-0.29455 0.0723-0.53743 0-0.42374-0.27388-0.42374-0.23254 0-0.39791 0.32039-0.16536 0.31522-0.32039 0.94051-0.0413 0.17053-0.0724 0.2067-0.031 0.03617-0.12919 0.03617-0.1602-0.0052-0.1602-0.10852z" stroke-width=".26458"/>
     <path d="m116.33 74.568q0-1.788 0.66662-3.2298 0.28422-0.60461 0.68213-1.111 0.39791-0.50643 0.66146-0.72864t0.33589-0.22221q0.10336 0 0.10852 0.10335 0 0.05168-0.13952 0.18087-1.7053 1.7363-1.7002 5.0074 0 3.2814 1.6588 4.9506 0.18086 0.18087 0.18086 0.23771 0 0.10335-0.10852 0.10335-0.0723 0-0.32556-0.21187-0.25321-0.21187-0.64595-0.69763-0.39274-0.48576-0.67696-1.08-0.69763-1.4418-0.69763-3.3021z"/>
     <g stroke-width=".26458">
      <path d="m119.82 72.852q0-0.13953 0.0672-0.17053 0.0723-0.03101 0.23254-0.03101h0.89917l0.41341-1.6795q0.10335-0.3824 0.41341-0.3824 0.28422 0 0.28422 0.27388 0 0.07235-0.0413 0.22221l-0.39273 1.5658h0.84749q0.10335 0 0.14469 0.0052 0.0465 0.0052 0.0827 0.03617 0.0362 0.02584 0.0362 0.08785 0 0.13953-0.0724 0.17053-0.0672 0.03101-0.22221 0.03101h-0.90433l-0.78032 3.1419q-0.0723 0.29455-0.0723 0.5426 0 0.42891 0.27905 0.42891 0 0 5e-3 0 0.40307 0 0.71313-0.39791 0.31522-0.40308 0.50126-0.89917 0.062-0.14986 0.0879-0.1757 0.031-0.02584 0.12402-0.02584 0.1602 0 0.1602 0.10335 0 0.03101-0.062 0.1912-0.062 0.1602-0.20154 0.40824-0.13953 0.24805-0.32039 0.47542-0.1757 0.22738-0.45475 0.39274-0.27389 0.16536-0.56844 0.16536-0.40308 0-0.65112-0.27388-0.24805-0.27905-0.24805-0.68213 0-0.14986 0.0517-0.35657l0.75964-3.0386h-0.84233q-0.10335 0-0.14986-0.0052-0.0413-0.0052-0.0827-0.03101-0.0362-0.03101-0.0362-0.09302z"/>
      <path d="m130.99 77.131q0-0.06201 0.26872-0.41341l5.1521-6.8781q0.1602-0.20154 0.34107-0.20154 0.21187 0 0.26355 0.27388l1.7363 7.0176q0.031 0.12919 0.031 0.14469 0 0.13953-0.2222 0.13953h-7.3122q-0.25838 0-0.25838-0.08268zm0.86816-0.72347h5.7154l-1.4263-5.7154z"/>
      <path d="m140.24 72.852q0-0.13953 0.0672-0.17053 0.0724-0.03101 0.23255-0.03101h0.89916l0.41342-1.6795q0.10335-0.3824 0.41341-0.3824 0.28421 0 0.28421 0.27388 0 0.07235-0.0413 0.22221l-0.39274 1.5658h0.84749q0.10336 0 0.1447 0.0052 0.0465 0.0052 0.0827 0.03617 0.0362 0.02584 0.0362 0.08785 0 0.13953-0.0723 0.17053-0.0672 0.03101-0.22221 0.03101h-0.90434l-0.78031 3.1419q-0.0723 0.29455-0.0723 0.5426 0 0.42891 0.27905 0.42891 0 0 5e-3 0 0.40307 0 0.71313-0.39791 0.31522-0.40308 0.50126-0.89917 0.062-0.14986 0.0879-0.1757 0.031-0.02584 0.12402-0.02584 0.1602 0 0.1602 0.10335 0 0.03101-0.062 0.1912-0.062 0.1602-0.20154 0.40824-0.13953 0.24805-0.32039 0.47542-0.1757 0.22738-0.45476 0.39274-0.27388 0.16536-0.56844 0.16536-0.40307 0-0.65112-0.27388-0.24804-0.27905-0.24804-0.68213 0-0.14986 0.0517-0.35657l0.75965-3.0386h-0.84233q-0.10335 0-0.14986-0.0052-0.0413-0.0052-0.0827-0.03101-0.0362-0.03101-0.0362-0.09302z"/>
     </g>
     <path d="m143.92 79.756q0-0.05168 0.13436-0.18087 1.7053-1.7363 1.7053-5.0074 0-3.2814-1.6381-4.9403-0.20154-0.1912-0.20154-0.24805 0-0.10335 0.10335-0.10335 0.0724 0 0.32556 0.21187 0.25838 0.21187 0.64596 0.69763 0.39273 0.48576 0.68212 1.08 0.69763 1.4418 0.69763 3.3021 0 1.788-0.66662 3.2298-0.28422 0.60461-0.68213 1.111-0.39791 0.50643-0.66146 0.72864-0.26354 0.22221-0.34106 0.22221-0.10335 0-0.10335-0.10335z"/>
    </g>
   </g>
  </g>
 </g>
 <g transform="matrix(1.3583 0 0 1.3583 -30.796 -28.824)" clip-path="url(#clipPath5852)">
  <g transform="matrix(1.8853 0 0 1.8853 -117.45 -64.749)" clip-path="none" fill="#c3c3c3" stroke-width=".265" aria-label="Force as a vector field">
   <g transform="matrix(1.3641,0,0,1.3641,-69.231,81.364)" clip-path="url(#a)">
    <path transform="translate(-23.919,-57.941)" d="m27.403 82.399c4.4-10.851 12.758-20.046 23.141-25.46s22.706-7.003 34.123-4.4c21.365 7.605 46.32 10.33 64.832 0.265 13.673-7.708 24.142-20.913 28.528-35.983" fill="none" marker-mid="url(#d)" stroke="#50ff7f" stroke-linecap="round" stroke-width="1.165" style="paint-order:normal"/>
   </g>
  </g>
  <g fill="none">
   <path d="m65.298 112.91 51.363-69.465" marker-end="url(#marker1617)" stroke="#ff7676" stroke-dasharray="0.265467, 0.530934" stroke-width=".26547"/>
   <path d="m65.407 112.78 34.969-53.161" marker-end="url(#Arrow1Lend)" stroke="#ff7676" stroke-dasharray="0.264583, 0.529166" stroke-width=".26458"/>
   <path d="m98.495 57.055 16.285-16.175" marker-end="url(#marker2364)" stroke="#fcff5c" stroke-width=".26458"/>
  </g>
 </g>
 <g transform="translate(-113.57 2.8179)">
  <path transform="matrix(1.8853 0 0 1.8853 -117.45 -64.749)" d="m144.58 47.781h2.0653" fill="#fff" marker-end="url(#marker5780-6)" stroke="#fff" stroke-width=".079718"/>
  <g transform="translate(4.6558 5.9362)" stroke-width=".26458">
   <g transform="translate(38.93 -51.77)">
    <g transform="matrix(.80875 0 0 .80875 22.484 11.923)" stroke-width=".070004" aria-label="+">
     <path d="m126.44 77.098q-0.24288 0-0.24288-0.12919 0-0.12919 0.25321-0.12919 0.031 0 0.0827 0.0052 0.0568 0.0052 0.0672 0.0052h2.9817v-2.9921q0-0.01033-5e-3 -0.05684-5e-3 -0.05168-5e-3 -0.08268 0-0.25321 0.12402-0.25321 0.12919 0 0.12919 0.25321v3.1316h2.9869q0.0103 0 0.062-0.0052t0.0827-0.0052q0.24288 0 0.24288 0.12919 5e-3 0.12919-0.25321 0.12919-0.031 0-0.0775-0.0052t-0.0568-0.0052h-2.9869v3.1419q0 0.24288-0.12919 0.24288-0.12402 0-0.12402-0.25321 0-0.03101 5e-3 -0.08268 5e-3 -0.04651 5e-3 -0.05684v-2.9921h-2.9817q-0.0103 0-0.0723 0.0052-0.0568 0.0052-0.0879 0.0052z" fill="#fff" stroke-width=".070004"/>
    </g>
    <g fill="#fff">
     <path d="m111.18 74.165q0-0.02067 0.0413-0.18087 0.0413-0.16536 0.12402-0.42891 0.0879-0.26872 0.1757-0.45992 0.28938-0.5581 0.7493-0.5581 5e-3 0 0.0103 0 0.29455 0 0.5426 0.18603 0.25321 0.18087 0.3359 0.57361 0.54776-0.75964 1.2816-0.75964 0.37207 0 0.70279 0.15503 0.33073 0.14986 0.33073 0.5116 0 0.27388-0.17053 0.41858-0.16536 0.13953-0.34623 0.13953-0.1912 0-0.28422-0.10335-0.0879-0.10852-0.0879-0.23254 0-0.05168 0.0207-0.12919 0.0258-0.08268 0.11886-0.20154 0.093-0.12402 0.26355-0.1757-0.21188-0.14986-0.55811-0.14986-0.25321 0-0.49609 0.14986-0.23771 0.14469-0.39274 0.33073-0.14986 0.18604-0.27905 0.41858-0.12403 0.23254-0.17053 0.34106-0.0413 0.10335-0.062 0.15503l-0.68729 2.775q-0.093 0.39274-0.41341 0.39274-0.14986 0-0.22221-0.08785-0.0723-0.08268-0.0723-0.1912 0-0.05168 0.031-0.14469l0.79582-3.1781q0.0723-0.29455 0.0723-0.53743 0-0.42374-0.27388-0.42374-0.23254 0-0.39791 0.32039-0.16536 0.31522-0.32039 0.94051-0.0413 0.17053-0.0724 0.2067-0.031 0.03617-0.12919 0.03617-0.1602-0.0052-0.1602-0.10852z" stroke-width=".26458"/>
     <path d="m116.33 74.568q0-1.788 0.66662-3.2298 0.28422-0.60461 0.68213-1.111 0.39791-0.50643 0.66146-0.72864t0.33589-0.22221q0.10336 0 0.10852 0.10335 0 0.05168-0.13952 0.18087-1.7053 1.7363-1.7002 5.0074 0 3.2814 1.6588 4.9506 0.18086 0.18087 0.18086 0.23771 0 0.10335-0.10852 0.10335-0.0723 0-0.32556-0.21187-0.25321-0.21187-0.64595-0.69763-0.39274-0.48576-0.67696-1.08-0.69763-1.4418-0.69763-3.3021z"/>
     <g stroke-width=".26458">
      <path d="m119.82 72.852q0-0.13953 0.0672-0.17053 0.0723-0.03101 0.23254-0.03101h0.89917l0.41341-1.6795q0.10335-0.3824 0.41341-0.3824 0.28422 0 0.28422 0.27388 0 0.07235-0.0413 0.22221l-0.39273 1.5658h0.84749q0.10335 0 0.14469 0.0052 0.0465 0.0052 0.0827 0.03617 0.0362 0.02584 0.0362 0.08785 0 0.13953-0.0724 0.17053-0.0672 0.03101-0.22221 0.03101h-0.90433l-0.78032 3.1419q-0.0723 0.29455-0.0723 0.5426 0 0.42891 0.27905 0.42891 0 0 5e-3 0 0.40307 0 0.71313-0.39791 0.31522-0.40308 0.50126-0.89917 0.062-0.14986 0.0879-0.1757 0.031-0.02584 0.12402-0.02584 0.1602 0 0.1602 0.10335 0 0.03101-0.062 0.1912-0.062 0.1602-0.20154 0.40824-0.13953 0.24805-0.32039 0.47542-0.1757 0.22738-0.45475 0.39274-0.27389 0.16536-0.56844 0.16536-0.40308 0-0.65112-0.27388-0.24805-0.27905-0.24805-0.68213 0-0.14986 0.0517-0.35657l0.75964-3.0386h-0.84233q-0.10335 0-0.14986-0.0052-0.0413-0.0052-0.0827-0.03101-0.0362-0.03101-0.0362-0.09302z"/>
      <path d="m130.99 77.131q0-0.06201 0.26872-0.41341l5.1521-6.8781q0.1602-0.20154 0.34107-0.20154 0.21187 0 0.26355 0.27388l1.7363 7.0176q0.031 0.12919 0.031 0.14469 0 0.13953-0.2222 0.13953h-7.3122q-0.25838 0-0.25838-0.08268zm0.86816-0.72347h5.7154l-1.4263-5.7154z"/>
      <path d="m140.24 72.852q0-0.13953 0.0672-0.17053 0.0724-0.03101 0.23255-0.03101h0.89916l0.41342-1.6795q0.10335-0.3824 0.41341-0.3824 0.28421 0 0.28421 0.27388 0 0.07235-0.0413 0.22221l-0.39274 1.5658h0.84749q0.10336 0 0.1447 0.0052 0.0465 0.0052 0.0827 0.03617 0.0362 0.02584 0.0362 0.08785 0 0.13953-0.0723 0.17053-0.0672 0.03101-0.22221 0.03101h-0.90434l-0.78031 3.1419q-0.0723 0.29455-0.0723 0.5426 0 0.42891 0.27905 0.42891 0 0 5e-3 0 0.40307 0 0.71313-0.39791 0.31522-0.40308 0.50126-0.89917 0.062-0.14986 0.0879-0.1757 0.031-0.02584 0.12402-0.02584 0.1602 0 0.1602 0.10335 0 0.03101-0.062 0.1912-0.062 0.1602-0.20154 0.40824-0.13953 0.24805-0.32039 0.47542-0.1757 0.22738-0.45476 0.39274-0.27388 0.16536-0.56844 0.16536-0.40307 0-0.65112-0.27388-0.24804-0.27905-0.24804-0.68213 0-0.14986 0.0517-0.35657l0.75965-3.0386h-0.84233q-0.10335 0-0.14986-0.0052-0.0413-0.0052-0.0827-0.03101-0.0362-0.03101-0.0362-0.09302z"/>
     </g>
     <path d="m143.92 79.756q0-0.05168 0.13436-0.18087 1.7053-1.7363 1.7053-5.0074 0-3.2814-1.6381-4.9403-0.20154-0.1912-0.20154-0.24805 0-0.10335 0.10335-0.10335 0.0724 0 0.32556 0.21187 0.25838 0.21187 0.64596 0.69763 0.39273 0.48576 0.68212 1.08 0.69763 1.4418 0.69763 3.3021 0 1.788-0.66662 3.2298-0.28422 0.60461-0.68213 1.111-0.39791 0.50643-0.66146 0.72864-0.26354 0.22221-0.34106 0.22221-0.10335 0-0.10335-0.10335z"/>
    </g>
   </g>
  </g>
 </g>
 <g transform="translate(31.962 -18.351)" fill="#fff">
  <path transform="matrix(1.8853 0 0 1.8853 -117.45 -64.749)" d="m92.908 58.921h2.0653" marker-end="url(#marker5780-6)" stroke="#fff" stroke-width=".079718"/>
  <g transform="translate(-34.138 -24.665)" stroke-width=".26458">
   <path d="m91.219 74.165q0-0.02067 0.04134-0.18087 0.04134-0.16536 0.12402-0.42891 0.08785-0.26872 0.1757-0.45992 0.28939-0.5581 0.74931-0.5581 0.0052 0 0.01033 0 0.29456 0 0.5426 0.18603 0.25321 0.18087 0.3359 0.57361 0.54777-0.75964 1.2816-0.75964 0.37207 0 0.7028 0.15503 0.33073 0.14986 0.33073 0.5116 0 0.27388-0.17053 0.41858-0.16536 0.13953-0.34623 0.13953-0.1912 0-0.28422-0.10335-0.08785-0.10852-0.08785-0.23254 0-0.05168 0.02067-0.12919 0.02584-0.08268 0.11886-0.20154 0.09302-0.12402 0.26355-0.1757-0.21187-0.14986-0.5581-0.14986-0.25321 0-0.49609 0.14986-0.23771 0.14469-0.39274 0.33073-0.14986 0.18604-0.27905 0.41858-0.12402 0.23254-0.17053 0.34106-0.04134 0.10335-0.06201 0.15503l-0.68729 2.775q-0.09302 0.39274-0.41341 0.39274-0.14986 0-0.22221-0.08785-0.07235-0.08268-0.07235-0.1912 0-0.05168 0.03101-0.14469l0.79581-3.1781q0.07235-0.29455 0.07235-0.53743 0-0.42374-0.27388-0.42374-0.23254 0-0.39791 0.32039-0.16536 0.31522-0.32039 0.94051-0.04134 0.17053-0.07235 0.2067-0.03101 0.03617-0.12919 0.03617-0.1602-0.0052-0.1602-0.10852z" stroke-width=".26458"/>
   <path d="m96.374 74.568q0-1.788 0.66662-3.2298 0.28422-0.60461 0.68213-1.111 0.39791-0.50643 0.66146-0.72864t0.3359-0.22221q0.10335 0 0.10852 0.10335 0 0.05168-0.13953 0.18087-1.7053 1.7363-1.7002 5.0074 0 3.2814 1.6588 4.9506 0.18087 0.18087 0.18087 0.23771 0 0.10335-0.10852 0.10335-0.07235 0-0.32556-0.21187-0.25321-0.21187-0.64595-0.69763-0.39274-0.48576-0.67696-1.08-0.69763-1.4418-0.69763-3.3021z"/>
   <path d="m99.33 72.852q0-0.13953 0.06718-0.17053 0.07235-0.03101 0.23254-0.03101h0.89917l0.41341-1.6795q0.10335-0.3824 0.41341-0.3824 0.28422 0 0.28422 0.27388 0 0.07235-0.0413 0.22221l-0.39274 1.5658h0.84749q0.10335 0 0.1447 0.0052 0.0465 0.0052 0.0827 0.03617 0.0362 0.02584 0.0362 0.08785 0 0.13953-0.0724 0.17053-0.0672 0.03101-0.2222 0.03101h-0.90434l-0.78031 3.1419q-0.0724 0.29455-0.0724 0.5426 0 0.42891 0.27905 0.42891 0 0 5e-3 0 0.40308 0 0.71313-0.39791 0.31523-0.40308 0.50126-0.89917 0.062-0.14986 0.0879-0.1757 0.031-0.02584 0.12403-0.02584 0.16019 0 0.16019 0.10335 0 0.03101-0.062 0.1912-0.062 0.1602-0.20154 0.40824-0.13952 0.24805-0.32039 0.47542-0.1757 0.22738-0.45475 0.39274-0.27388 0.16536-0.56844 0.16536-0.40307 0-0.65112-0.27388-0.24805-0.27905-0.24805-0.68213 0-0.14986 0.0517-0.35657l0.75964-3.0386h-0.84232q-0.10335 0-0.14986-0.0052-0.04134-0.0052-0.08268-0.03101-0.03617-0.03101-0.03617-0.09302z" stroke-width=".26458"/>
   <path d="m103.01 79.756q0-0.05168 0.13436-0.18087 1.7053-1.7363 1.7053-5.0074 0-3.2814-1.6381-4.9403-0.20154-0.1912-0.20154-0.24805 0-0.10335 0.10336-0.10335 0.0723 0 0.32556 0.21187 0.25838 0.21187 0.64595 0.69763 0.39274 0.48576 0.68213 1.08 0.69763 1.4418 0.69763 3.3021 0 1.788-0.66663 3.2298-0.28422 0.60461-0.68212 1.111-0.39791 0.50643-0.66146 0.72864t-0.34106 0.22221q-0.10336 0-0.10336-0.10335z"/>
  </g>
 </g>
 <g transform="matrix(.80091 0 0 .32 61.408 17.6)" stroke-width=".26458" aria-label="−">
  <path d="m29.582 43.628h-6.3872v-0.82682h6.3872z" fill="#fff"/>
 </g>
</svg>
