<svg xmlns="http://www.w3.org/2000/svg" width="725" height="450" viewBox="0 0 191.823 119.063"><rect width="191.823" height="100%" fill="#1e1e1e" style="stroke-width:.999999"/><defs><marker id="b" overflow="visible" orient="auto"><path d="m-.184 0-6.92 4v-8z" fill="#ff8a60" fill-rule="evenodd" stroke="#ff8a60" stroke-width=".8pt"/></marker><marker id="d" overflow="visible" orient="auto"><path d="m-.184 0-6.92 4v-8z" fill="#ff8a60" fill-rule="evenodd" stroke="#ff8a60" stroke-width=".8pt"/></marker><marker id="h" overflow="visible" orient="auto"><path d="m-.184 0-6.92 4v-8z" fill="#ff8a60" fill-rule="evenodd" stroke="#ff8a60" stroke-width=".8pt"/></marker><marker id="a" overflow="visible" orient="auto"><path d="m-.184 0-6.92 4v-8z" fill="#ff8a60" fill-rule="evenodd" stroke="#ff8a60" stroke-width=".8pt"/></marker><marker id="g" overflow="visible" orient="auto"><path d="m-.184 0-6.92 4v-8z" fill="#ff8a60" fill-rule="evenodd" stroke="#ff8a60" stroke-width=".8pt"/></marker><marker id="f" overflow="visible" orient="auto"><path d="m-.184 0-6.92 4v-8z" fill="#ff8a60" fill-rule="evenodd" stroke="#ff8a60" stroke-width=".8pt"/></marker><marker id="c" overflow="visible" orient="auto"><path d="M-5.231-2.42 1.324-.01-5.23 2.401c1.047-1.423 1.041-3.37 0-4.821z" fill="#c3c3c3" fill-rule="evenodd" stroke="#c3c3c3" stroke-linejoin="round" stroke-width=".375"/></marker><marker id="e" overflow="visible" orient="auto"><path d="M-5.231-2.42 1.324-.01-5.23 2.401c1.047-1.423 1.041-3.37 0-4.821z" fill="#50ff7f" fill-rule="evenodd" stroke="#50ff7f" stroke-linejoin="round" stroke-width=".375"/></marker></defs><g fill="#c3c3c3" stroke-width=".265" aria-label="Force as a vector field"><path transform="translate(-14.985 12.348)" d="m36.741 66.713 35.001-6.804" fill="#ff8a60" marker-end="url(#a)" stroke="#ff8a60" stroke-width=".534"/><path transform="translate(-14.985 12.348)" d="m159.51 45.546 35.001-6.804" fill="#ff8a60" marker-end="url(#b)" stroke="#ff8a60" stroke-width=".534"/><path transform="translate(-14.985 12.348)" d="M46.765 24.601a44.445 44.445 0 0 0 20.538-11.112" fill="none" marker-end="url(#c)" stroke="#c3c3c3" stroke-width=".399"/><path transform="translate(-14.985 12.348)" d="m94.949 55.071 35.001-6.804" fill="#ff8a60" marker-end="url(#d)" stroke="#ff8a60" stroke-width=".534"/><path d="m135.591-38.853 35.001-6.804" fill="#ff8a60" marker-end="url(#b)" stroke="#ff8a60" stroke-width=".534" transform="translate(8.934 70.289)"/><path d="m135.591 14.063 35.001-6.803" fill="#ff8a60" marker-end="url(#b)" stroke="#ff8a60" stroke-width=".534" transform="translate(8.934 70.289)"/><path transform="translate(-14.985 12.348)" d="M27.403 82.399c4.4-10.851 12.758-20.046 23.141-25.46 10.383-5.414 22.706-7.003 34.123-4.4 6.569 1.498 12.767 4.31 19.277 6.048 15.165 4.047 31.882 1.925 45.555-5.783 13.673-7.708 24.142-20.913 28.528-35.983" fill="none" marker-mid="url(#e)" stroke="#50ff7f" stroke-linecap="round" stroke-width="1.165" style="paint-order:normal"/><path d="M181.25 36.865q0-1.173.63-2.222.63-1.05 1.633-1.659 1.008-.61 2.088-.61 1.07 0 1.716.806.082.083.093.083l.098-.093.568-.656.037-.041q.025-.037.036-.047.03-.052.098-.052.13 0 .124.12l-.486 2.867q-.041.031-.144.031-.15 0-.16-.108 0-.052.004-.135.005-.088.005-.129 0-.95-.496-1.633-.49-.682-1.39-.682-.718 0-1.374.377-.657.372-1.07.925-.434.584-.672 1.411-.238.822-.263 1.183-.026.357-.026.63 0 .678.206 1.195.207.511.548.785.346.274.708.403.367.13.76.13.94 0 1.788-.724.728-.625.997-1.736.02-.093.135-.093.129 0 .129.118 0 .073-.062.31-.057.238-.326.73-.269.49-.692.872-.951.848-2.13.848-1.312 0-2.211-.894-.9-.894-.9-2.31z" transform="translate(-162.396 60.54)" fill="#fff" style="white-space:pre;shape-inside:url(#rect873)" aria-label="C"/><g fill="#ff8a60" stroke="#ff8a60" stroke-width=".534"><path transform="translate(-14.985 12.348)" d="m36.741 26.496 35.001-6.804" marker-end="url(#f)"/><path transform="translate(-14.985 12.348)" d="m36.741 45.546 35.001-6.804" marker-end="url(#g)"/><path transform="translate(-14.985 12.348)" d="m94.949 29.671 35.001-6.804" marker-end="url(#h)"/><path d="m71.03 19.355 35.001-6.804" marker-end="url(#h)" transform="translate(8.934 70.289)"/><path d="m71.03 19.355 35.001-6.804" marker-end="url(#h)" transform="translate(8.934 70.289)"/></g><path d="M50.666 19.238H48.33v1.302h2.006v.546H48.33v2.223h-.614v-4.617h2.949zm3.451 2.342q0 .846-.435 1.336-.434.49-1.162.49-.735 0-1.17-.49-.43-.49-.43-1.337 0-.846.43-1.336.435-.493 1.17-.493.728 0 1.162.493.435.49.435 1.336zm-.602 0q0-.674-.264-1-.263-.328-.731-.328-.475 0-.738.329-.26.325-.26.998 0 .651.263.99.263.334.735.334.465 0 .728-.332.267-.335.267-.992zm3.665-1.098h-.03q-.13-.031-.255-.044-.12-.015-.288-.015-.27 0-.521.12-.251.118-.484.308v2.458h-.583v-3.463h.583v.512q.348-.28.611-.394.267-.118.543-.118.152 0 .22.01.068.005.205.027zm3.11 2.61q-.29.14-.554.217-.26.078-.555.078-.376 0-.689-.109-.313-.112-.536-.335-.227-.223-.35-.564-.125-.341-.125-.797 0-.85.465-1.333.469-.484 1.234-.484.298 0 .583.084.289.083.528.204v.648h-.032q-.266-.207-.551-.319-.283-.112-.552-.112-.496 0-.785.335-.285.332-.285.977 0 .626.279.964.282.335.79.335.177 0 .36-.046.183-.047.329-.121.127-.065.239-.137.111-.074.176-.127h.032zm3.647-1.454h-2.552q0 .32.096.558.096.236.263.388.162.149.382.223.223.074.49.074.353 0 .71-.14.36-.142.511-.278h.031v.635q-.294.124-.601.208-.307.084-.645.084-.862 0-1.346-.465-.484-.468-.484-1.327 0-.85.462-1.35.466-.498 1.222-.498.7 0 1.08.409.38.41.38 1.163zm-.568-.446q-.003-.46-.232-.71-.227-.252-.692-.252-.468 0-.747.276-.276.276-.313.686zm6.375 2.117h-.58v-.369q-.078.053-.211.149-.13.093-.254.149-.146.071-.335.117-.19.05-.444.05-.468 0-.793-.31-.326-.31-.326-.79 0-.394.168-.636.17-.245.483-.385.316-.14.76-.189.443-.05.952-.074v-.09q0-.199-.072-.329-.068-.13-.198-.204-.124-.072-.298-.097-.173-.024-.362-.024-.23 0-.512.062-.282.059-.583.173h-.031v-.592q.17-.046.493-.102.322-.056.636-.056.365 0 .635.062.273.059.472.205.195.142.297.369.103.226.103.56zm-.58-.853v-.964q-.267.016-.63.047-.36.03-.57.09-.251.07-.406.223-.155.149-.155.412 0 .298.18.45.18.148.548.148.307 0 .561-.117.255-.121.472-.289zm4.176-.146q0 .475-.393.78-.39.303-1.07.303-.384 0-.707-.09-.32-.093-.536-.201v-.655h.03q.277.208.615.332.338.121.648.121.384 0 .601-.124.217-.124.217-.39 0-.205-.118-.31-.117-.106-.452-.18-.124-.029-.326-.066-.198-.037-.363-.08-.455-.121-.648-.354-.189-.235-.189-.577 0-.213.087-.403.09-.189.27-.338.173-.145.44-.229.27-.087.602-.087.31 0 .626.078.32.074.53.183v.623h-.03q-.224-.164-.544-.276-.319-.115-.626-.115-.32 0-.54.124-.22.121-.22.363 0 .214.134.322.13.109.422.177.16.037.36.075.2.037.334.068.406.093.626.32.22.229.22.607zm5.759.999h-.58v-.369q-.078.053-.211.149-.13.093-.254.149-.146.071-.335.117-.19.05-.444.05-.468 0-.793-.31-.326-.31-.326-.79 0-.394.168-.636.17-.245.483-.385.316-.14.76-.189.443-.05.952-.074v-.09q0-.199-.072-.329-.068-.13-.198-.204-.124-.072-.298-.097-.173-.024-.362-.024-.23 0-.512.062-.282.059-.583.173h-.031v-.592q.17-.046.493-.102.322-.056.636-.056.365 0 .635.062.273.059.472.205.195.142.297.369.103.226.103.56zm-.58-.853v-.964q-.267.016-.63.047-.36.03-.57.09-.251.07-.406.223-.155.149-.155.412 0 .298.18.45.18.148.548.148.307 0 .561-.117.255-.121.472-.289zm6.926-2.61-1.402 3.463h-.586l-1.392-3.463h.632l1.073 2.756 1.064-2.756zm3.61 1.792h-2.552q0 .32.096.558.096.236.263.388.162.149.382.223.223.074.49.074.353 0 .71-.14.36-.142.511-.278h.031v.635q-.294.124-.601.208-.307.084-.645.084-.862 0-1.346-.465-.484-.468-.484-1.327 0-.85.462-1.35.466-.498 1.222-.498.7 0 1.079.409.381.41.381 1.163zm-.568-.446q-.003-.46-.232-.71-.227-.252-.692-.252-.468 0-.747.276-.276.276-.313.686zm4.008 1.9q-.292.14-.555.217-.26.078-.555.078-.376 0-.689-.109-.313-.112-.536-.335-.227-.223-.35-.564-.125-.341-.125-.797 0-.85.465-1.333.469-.484 1.234-.484.298 0 .583.084.289.083.527.204v.648h-.03q-.267-.207-.552-.319-.283-.112-.552-.112-.496 0-.785.335-.285.332-.285.977 0 .626.279.964.282.335.79.335.177 0 .36-.046.183-.047.329-.121.127-.065.239-.137.111-.074.176-.127h.031zm2.55.186q-.165.043-.36.071-.192.028-.344.028-.53 0-.806-.285t-.276-.915v-1.841h-.394v-.49h.394v-.996h.582v.996h1.203v.49h-1.203v1.578q0 .273.013.428.012.152.087.285.068.124.186.183.12.056.366.056.142 0 .297-.04.155-.044.223-.072h.031zm3.66-1.698q0 .846-.435 1.336-.434.49-1.162.49-.735 0-1.17-.49-.43-.49-.43-1.337 0-.846.43-1.336.435-.493 1.17-.493.728 0 1.162.493.435.49.435 1.336zm-.602 0q0-.674-.264-1-.263-.328-.731-.328-.475 0-.738.329-.26.325-.26.998 0 .651.263.99.263.334.735.334.465 0 .728-.332.267-.335.267-.992zm3.662-1.098h-.031q-.13-.031-.255-.044-.12-.015-.288-.015-.27 0-.521.12-.251.118-.484.308v2.458h-.583v-3.463h.583v.512q.348-.28.611-.394.267-.118.543-.118.152 0 .22.01.068.005.205.027zm4.64-1.432h-.031q-.097-.029-.252-.057-.155-.03-.272-.03-.376 0-.546.167-.168.164-.168.598v.118h1.051v.49h-1.032v2.973h-.583v-2.973h-.394v-.49h.394v-.115q0-.617.307-.946.307-.331.887-.331.195 0 .35.018.158.019.289.044zm1 .216h-.658v-.605h.658zm-.038 4.043h-.583v-3.463h.583zm4.048-1.671h-2.552q0 .32.096.558.096.236.263.388.162.149.382.223.223.074.49.074.353 0 .71-.14.36-.142.511-.278h.031v.635q-.294.124-.601.208-.307.084-.645.084-.862 0-1.346-.465-.483-.468-.483-1.327 0-.85.462-1.35.465-.498 1.221-.498.7 0 1.08.409.38.41.38 1.163zm-.568-.446q-.003-.46-.232-.71-.227-.252-.692-.252-.468 0-.747.276-.276.276-.313.686zm2.048 2.117h-.583v-4.825h.583zm3.96 0h-.583v-.363q-.252.217-.524.338-.273.121-.593.121-.62 0-.986-.477-.362-.478-.362-1.324 0-.44.124-.785.127-.344.34-.586.212-.235.49-.36.283-.123.584-.123.272 0 .483.058.211.056.444.177v-1.5h.583zm-.583-.853V20.47q-.236-.106-.422-.146-.186-.04-.406-.04-.49 0-.763.34-.273.342-.273.968 0 .617.211.94.21.319.676.319.248 0 .502-.108.254-.112.475-.286z" aria-label="Force as a vector field"/></g></svg>