<?xml version="1.0" encoding="UTF-8"?>
<svg width="200mm" height="130mm" version="1.1" viewBox="0 0 200 130" xmlns="http://www.w3.org/2000/svg">
 <rect width="100%" height="100%" fill="#1E1E1E"/>
 <defs>
  <marker id="marker1043" overflow="visible" orient="auto">
   <path transform="scale(-.6)" d="m8.7186 4.0337-10.926-4.0177 10.926-4.0177c-1.7455 2.3721-1.7354 5.6175-6e-7 8.0354z" fill="#50ff7f" fill-rule="evenodd" stroke="#50ff7f" stroke-linejoin="round" stroke-width=".625"/>
  </marker>
  <marker id="marker2138" overflow="visible" orient="auto">
   <path transform="scale(-.6)" d="m8.7186 4.0337-10.926-4.0177 10.926-4.0177c-1.7455 2.3721-1.7354 5.6175-6e-7 8.0354z" fill="#50ff7f" fill-rule="evenodd" stroke="#50ff7f" stroke-linejoin="round" stroke-width=".625"/>
  </marker>
  <marker id="marker1850" overflow="visible" orient="auto">
   <path transform="scale(-.6)" d="m8.7186 4.0337-10.926-4.0177 10.926-4.0177c-1.7455 2.3721-1.7354 5.6175-6e-7 8.0354z" fill="#50ff7f" fill-rule="evenodd" stroke="#50ff7f" stroke-linejoin="round" stroke-width=".625"/>
  </marker>
  <marker id="marker5780-6" overflow="visible" orient="auto">
   <path transform="matrix(-.8 0 0 -.8 -10 0)" d="m0 0 5-5-17.5 5 17.5 5z" fill="#fff" fill-rule="evenodd" stroke="#fff" stroke-width="1pt"/>
  </marker>
 </defs>
 <g transform="translate(-15.425 -9.1901)">
  <g fill="none" stroke="#50ff7f">
   <path d="m39.882 113.81 55.741-64.34" marker-end="url(#marker1850)" stroke-width=".87192"/>
   <path d="m39.884 113.81 141.59-67.362" marker-end="url(#marker2138)" stroke-width=".87496"/>
   <path d="m96.399 48.701 84.533-5.1887" marker-end="url(#marker1043)" stroke-width=".85977"/>
  </g>
  <g stroke-width=".26458" aria-label="A">
   <path d="m90.393 44.893q0.01033-0.05168 0.02584-0.1602 0.0155-0.11369 0.02584-0.16536 0.93017 0 1.3126-0.72347l3.2349-6.3148q0.06201-0.12919 0.11369-0.17053 0.05684-0.04134 0.17053-0.04134 0.11886 0 0.15503 0.04134 0.04134 0.04134 0.06201 0.20154l1.1834 6.537q0.05168 0.29456 0.1757 0.3824 0.12919 0.08785 0.67179 0.08785h0.17053q0 0.04134-0.02584 0.1602-0.02067 0.11369-0.031 0.16536-0.66662-0.03101-1.3849-0.03101-1.1524 0-1.5244 0.03101 0.01033-0.05168 0.03101-0.16536 0.02067-0.11886 0.02067-0.1602 0.94051 0 0.94568-0.3514 0-0.09302-0.02067-0.1602l-0.2894-1.5761h-2.6148q-0.05168 0.09302-0.63045 1.2299-0.13953 0.27388-0.13953 0.37724 0 0.20154 0.17053 0.32556 0.17053 0.11886 0.30489 0.14469 0.13953 0.02067 0.23254 0.02067l-0.06201 0.31523q-0.88883-0.03101-1.2092-0.03101-0.40824 0-1.0749 0.03101zm2.5786-2.7388h2.3823l-0.61495-3.4416z" fill="#fff" stroke-width=".26458"/>
  </g>
  <g stroke-width=".26458" aria-label="B">
   <path d="m184.16 44.877 0.0517-0.32556q0.5736 0 0.76997-0.03617 0.22221-0.03101 0.28939-0.11886 0.0724-0.09302 0.10335-0.31522l0.93018-5.5552 0.0362-0.25321q0-0.1602-0.093-0.2067-0.0879-0.04651-0.31006-0.07751-0.17053-0.01033-0.62528-0.01033l0.0517-0.33073h3.8447q0.94051 0 1.5141 0.45475 0.57877 0.45475 0.57877 1.1214 0 0.67696-0.60461 1.1989-0.59945 0.51676-1.4469 0.67696 0.72864 0.07235 1.2402 0.50126 0.51677 0.42891 0.51677 1.1059 0 0.82682-0.79582 1.4986-0.79065 0.67179-1.9172 0.67179zm2.0619-0.54777q0 0.10335 0.0724 0.15503 0.0775 0.05168 0.15503 0.06201 0.0775 0.0052 0.26872 0.0052h1.2816q0.85782 0 1.4056-0.59428 0.55294-0.59428 0.55294-1.3539 0-0.1912-0.0465-0.39791t-0.17053-0.43925-0.39274-0.3824q-0.26872-0.14986-0.65112-0.14986h-1.9585l-0.48576 2.8835q-0.031 0.1602-0.031 0.21187zm0.55294-3.328h1.509q0.87849 0 1.4314-0.56327 0.5581-0.56844 0.5581-1.2661 0-0.17053-0.0465-0.34623-0.0465-0.18087-0.16536-0.38757-0.11369-0.2067-0.3669-0.33073-0.25322-0.12919-0.61495-0.12919h-1.2712q-0.37206 0-0.45991 0.06718-0.0879 0.06718-0.12919 0.32039z" fill="#fff" stroke-width=".26458"/>
  </g>
  <g transform="rotate(-1.5639 204.49 92.479)">
   <g transform="translate(79.602 -36.512)" stroke-width=".26458" aria-label="a">
    <path d="m57.838 76.15q0-1.1524 0.76998-2.1497 0.77514-1.0025 1.6536-1.0025 0.60461 0 0.8785 0.62528 0.08268-0.41341 0.42375-0.41341 0.28422 0 0.28422 0.27388 0 0.07235-0.04134 0.22221l-0.7183 2.8784q-0.07235 0.29455-0.07235 0.5426 0 0.42891 0.26872 0.42891 0 0 0.0052 0 0.39274 0 0.70796-1.2557 0.04134-0.17053 0.07235-0.2067 0.03617-0.03617 0.12919-0.03617 0.1602 0 0.1602 0.10335 0 0.02067-0.04134 0.18604-0.03617 0.16536-0.11369 0.41858-0.07751 0.25321-0.16536 0.43408-0.28422 0.59428-0.76998 0.59428-0.30489 0-0.55294-0.18603-0.24288-0.18604-0.32556-0.5581-0.60461 0.73897-1.2712 0.74414-0.58394 0-0.93534-0.47025-0.34623-0.47542-0.34623-1.1731zm0.7183 0.46509q0 0.3514 0.12919 0.64595t0.45475 0.29455q0.39274 0 0.82165-0.43925t0.50126-0.75447l0.49609-1.9999q0.03101-0.09302 0.03101-0.13953 0-0.37207-0.20154-0.68213-0.19637-0.31006-0.5271-0.31006-0.31522 0-0.65112 0.34106-0.33073 0.3359-0.53227 0.83199-0.1602 0.37207-0.34106 1.1059t-0.18087 1.1059z" fill="#fff" stroke-width=".26458"/>
   </g>
   <path transform="translate(79.602 -36.512)" d="m58.518 71.499h4.1575" fill="#fff" marker-end="url(#marker5780-6)" stroke="#fff" stroke-width=".1553"/>
   <g transform="translate(2.6458 -52.388)">
    <g stroke-width=".26458" aria-label="b">
     <path d="m123.87 92.245q0-0.51676 0.11368-0.86816l1.049-4.1806t0.0103-0.08268q0.0207-0.07235 0.0207-0.09302 0-0.06201-0.0207-0.09302-0.0207-0.03617-0.1447-0.06201-0.11885-0.02584-0.36173-0.02584-0.25321 0-0.25838-0.11886 0-0.09302 0.0362-0.13953 0.0413-0.05168 0.0827-0.06201t0.12403-0.02067l1.049-0.08268q0.062-0.02067 0.17053-0.02067 0.14986 0 0.14986 0.12402 0 0.04134-0.031 0.13953l-0.74414 2.961q0.58911-0.5581 1.111-0.5581 5e-3 0 0.0103 0 0.51676 0 0.894 0.42891t0.37724 1.2196q0 1.1627-0.76998 2.1549-0.76481 0.99218-1.6536 0.99218-0.56327 0-0.88883-0.45992-0.32556-0.46509-0.32556-1.1524zm0.59944 0.36173q0 0.53743 0.18604 0.77514 0.18603 0.23771 0.42891 0.23771 0.3514 0 0.65629-0.3359 0.30489-0.34106 0.46508-0.66662 0.22221-0.48576 0.40825-1.2557 0.18603-0.77514 0.18603-1.1214 0-0.3514-0.13436-0.64595-0.12919-0.29972-0.44958-0.29972-0.53743 0-1.111 0.78031-0.14986 0.20154-0.23254 0.49092-0.40308 1.5761-0.40308 2.0412z" fill="#fff" stroke-width=".26458"/>
    </g>
    <path d="m124.13 85.257h4.1575" fill="#fff" marker-end="url(#marker5780-6)" stroke="#fff" stroke-width=".1553"/>
   </g>
   <g transform="scale(1.4353 .69673)" fill="#fff" stroke-width=".30366" aria-label="-">
    <path d="m91.552 56.236 0.11862-0.71767h3.2325l-0.11862 0.71767z" fill="#fff" stroke-width=".30366"/>
   </g>
  </g>
  <g stroke-width=".26458" aria-label="a">
   <path d="m57.838 76.15q0-1.1524 0.76998-2.1497 0.77514-1.0025 1.6536-1.0025 0.60461 0 0.8785 0.62528 0.08268-0.41341 0.42375-0.41341 0.28422 0 0.28422 0.27388 0 0.07235-0.04134 0.22221l-0.7183 2.8784q-0.07235 0.29455-0.07235 0.5426 0 0.42891 0.26872 0.42891 0 0 0.0052 0 0.39274 0 0.70796-1.2557 0.04134-0.17053 0.07235-0.2067 0.03617-0.03617 0.12919-0.03617 0.1602 0 0.1602 0.10335 0 0.02067-0.04134 0.18604-0.03617 0.16536-0.11369 0.41858-0.07751 0.25321-0.16536 0.43408-0.28422 0.59428-0.76998 0.59428-0.30489 0-0.55294-0.18603-0.24288-0.18604-0.32556-0.5581-0.60461 0.73897-1.2712 0.74414-0.58394 0-0.93534-0.47025-0.34623-0.47542-0.34623-1.1731zm0.7183 0.46509q0 0.3514 0.12919 0.64595t0.45475 0.29455q0.39274 0 0.82165-0.43925t0.50126-0.75447l0.49609-1.9999q0.03101-0.09302 0.03101-0.13953 0-0.37207-0.20154-0.68213-0.19637-0.31006-0.5271-0.31006-0.31522 0-0.65112 0.34106-0.33073 0.3359-0.53227 0.83199-0.1602 0.37207-0.34106 1.1059t-0.18087 1.1059z" fill="#fff" stroke-width=".26458"/>
  </g>
  <path d="m58.518 71.499h4.1575" fill="#fff" marker-end="url(#marker5780-6)" stroke="#fff" stroke-width=".1553"/>
  <g transform="translate(-6.9926 -.37798)">
   <g stroke-width=".26458" aria-label="b">
    <path d="m123.87 92.245q0-0.51676 0.11368-0.86816l1.049-4.1806t0.0103-0.08268q0.0207-0.07235 0.0207-0.09302 0-0.06201-0.0207-0.09302-0.0207-0.03617-0.1447-0.06201-0.11885-0.02584-0.36173-0.02584-0.25321 0-0.25838-0.11886 0-0.09302 0.0362-0.13953 0.0413-0.05168 0.0827-0.06201t0.12403-0.02067l1.049-0.08268q0.062-0.02067 0.17053-0.02067 0.14986 0 0.14986 0.12402 0 0.04134-0.031 0.13953l-0.74414 2.961q0.58911-0.5581 1.111-0.5581 5e-3 0 0.0103 0 0.51676 0 0.894 0.42891t0.37724 1.2196q0 1.1627-0.76998 2.1549-0.76481 0.99218-1.6536 0.99218-0.56327 0-0.88883-0.45992-0.32556-0.46509-0.32556-1.1524zm0.59944 0.36173q0 0.53743 0.18604 0.77514 0.18603 0.23771 0.42891 0.23771 0.3514 0 0.65629-0.3359 0.30489-0.34106 0.46508-0.66662 0.22221-0.48576 0.40825-1.2557 0.18603-0.77514 0.18603-1.1214 0-0.3514-0.13436-0.64595-0.12919-0.29972-0.44958-0.29972-0.53743 0-1.111 0.78031-0.14986 0.20154-0.23254 0.49092-0.40308 1.5761-0.40308 2.0412z" fill="#fff" stroke-width=".26458"/>
   </g>
   <path d="m124.13 85.257h4.1575" fill="#fff" marker-end="url(#marker5780-6)" stroke="#fff" stroke-width=".1553"/>
  </g>
 </g>
</svg>
