<?xml version="1.0" encoding="UTF-8"?>
<svg width="200mm" height="140mm" version="1.1" viewBox="0 0 200 140" xmlns="http://www.w3.org/2000/svg">
 <rect width="100%" height="100%" fill="#1e1e1e"/>
 <defs>
  <marker id="Arrow2Mend" overflow="visible" orient="auto">
   <path transform="scale(.6) rotate(180) translate(0)" d="m8.7186 4.0337-10.926-4.0177 10.926-4.0177c-1.7455 2.3721-1.7354 5.6175-6e-7 8.0354z" fill="#c6c6c6" fill-rule="evenodd" stroke="#c6c6c6" stroke-linejoin="round" stroke-width=".625"/>
  </marker>
  <marker id="StopL" overflow="visible" orient="auto">
   <path transform="scale(.8)" d="m0 5.65v-11.3" fill="none" stroke="#d65a5a" stroke-width="1pt"/>
  </marker>
  <marker id="d" overflow="visible" orient="auto">
   <path d="M-5.231-2.42 1.324-.01-5.23 2.401c1.047-1.423 1.041-3.37 0-4.821z" fill="#50ff7f" fill-rule="evenodd" stroke="#50ff7f" stroke-linejoin="round" stroke-width=".375"/>
  </marker>
  <marker id="e" overflow="visible" orient="auto">
   <path d="m-10 0-4 4 14-4-14-4z" fill="#fff" fill-rule="evenodd" stroke="#fff" stroke-width=".8pt"/>
  </marker>
  <clipPath id="a">
   <path d="M77.067-57.944h95.445v90.323H77.067z" fill="#fff" stroke="#fff" stroke-linecap="round" stroke-width=".165"/>
  </clipPath>
  <clipPath id="clipPath5852">
   <rect x="51.557" y="30.487" width="89.479" height="84.541" fill="#0ff" stroke="#fcff5c" stroke-linecap="round" stroke-width=".33289"/>
  </clipPath>
 </defs>
 <g transform="translate(0 -.52917)">
  <g transform="translate(-18.833)">
   <g transform="translate(0 -1.6693)">
    <g fill="none" stroke="#fff">
     <path transform="translate(18.833 .52917)" d="m127.79 27.845v24.016" stroke-width=".28548"/>
     <path transform="translate(18.833 .52917)" d="m104.75 51.716h23.182" stroke-width=".28548"/>
     <path d="m47.702 128.6h141.23" marker-end="url(#e)" stroke-width=".52917"/>
    </g>
    <g transform="translate(18.833 .52917)" stroke-width=".26458" aria-label="t">
     <path d="m172.86 126.22q0-0.13952 0.0672-0.17053 0.0724-0.031 0.23254-0.031h0.89917l0.41341-1.6795q0.10335-0.38241 0.41341-0.38241 0.28422 0 0.28422 0.27388 0 0.0724-0.0413 0.22221l-0.39274 1.5658h0.84749q0.10335 0 0.14469 5e-3 0.0465 5e-3 0.0827 0.0362 0.0362 0.0258 0.0362 0.0879 0 0.13953-0.0724 0.17054-0.0672 0.031-0.22221 0.031h-0.90433l-0.78031 3.1419q-0.0724 0.29455-0.0724 0.5426 0 0.42891 0.27905 0.42891 0 0 5e-3 0 0.40308 0 0.71313-0.3979 0.31523-0.40308 0.50126-0.89917 0.062-0.14986 0.0878-0.1757 0.031-0.0258 0.12403-0.0258 0.16019 0 0.16019 0.10335 0 0.031-0.062 0.19121-0.062 0.16019-0.20154 0.40824-0.13952 0.24804-0.32039 0.47542-0.1757 0.22738-0.45475 0.39274-0.27388 0.16536-0.56844 0.16536-0.40307 0-0.65112-0.27388-0.24805-0.27905-0.24805-0.68213 0-0.14986 0.0517-0.35656l0.75964-3.0386h-0.84232q-0.10335 0-0.14986-5e-3 -0.0413-5e-3 -0.0827-0.031-0.0362-0.031-0.0362-0.093z" fill="#fff" stroke-width=".26458"/>
    </g>
    <g transform="translate(18.833 .52917)" fill="#fff" stroke-width=".15544" aria-label="Δx = x(t+Δt) - x(t)">
     <path d="m137.62 42.591q0-0.03643 0.15787-0.24288l3.0269-4.0409q0.0941-0.1184 0.20037-0.1184 0.12448 0 0.15484 0.16091l1.0201 4.1228q0.0182 0.0759 0.0182 0.08501 0 0.08197-0.13055 0.08197h-4.2959q-0.15179 0-0.15179-0.04857zm0.51004-0.42504h3.3578l-0.83792-3.3578z"/>
     <path d="m142.82 42.324q0-0.14876 0.0911-0.24288 0.0941-0.09412 0.21859-0.09412 0.21252 0 0.21252 0.19734 0 0.08804-0.0607 0.17912-0.0577 0.09108-0.18216 0.12144 0.10322 0.08501 0.26109 0.08501 6e-3 0 0.0121 0 0.13054 0 0.23073-0.07286 0.10322-0.0759 0.17609-0.23073 0.0729-0.15484 0.10929-0.27627 0.0364-0.12144 0.085-0.31878 0.0759-0.3036 0.14573-0.56773 0.13054-0.53433 0.13054-0.68309 0-0.18519-0.082-0.28842t-0.21859-0.10322q-0.20645 0-0.41593 0.20037-0.20644 0.19734-0.32181 0.57684-0.0243 0.0759-0.0395 0.09108-0.0121 0.01518-0.0729 0.01518-0.0941 0-0.0941-0.06072 0-0.06376 0.0638-0.21252 0.0668-0.1518 0.17912-0.32181 0.11233-0.17001 0.3036-0.29752 0.1943-0.12751 0.40985-0.12751 0.44022 0 0.59809 0.422 0.0759-0.14269 0.23073-0.28234 0.15484-0.13966 0.3795-0.13966 0.1852 0 0.36128 0.09108 0.17912 0.08804 0.17912 0.30056 0 0.16091-0.10018 0.24591-0.10019 0.08197-0.20341 0.08197-0.11233 0-0.16698-0.06072-0.0516-0.06376-0.0516-0.13662 0-0.03036 6e-3 -0.06983 6e-3 -0.0425 0.0668-0.12144 0.0638-0.08197 0.17609-0.10626-0.10019-0.08804-0.27324-0.08804-0.36735 0-0.54951 0.66488-0.14269 0.60416-0.20948 0.85311-0.11841 0.50397-0.11841 0.62541 0 0.21859 0.085 0.30967 0.088 0.08804 0.20645 0.08804 0.21251 0 0.41592-0.19734 0.20645-0.20037 0.32485-0.57987 0.0243-0.0759 0.0395-0.08804 0.0152-0.01518 0.0729-0.01518 0.0941 0 0.0911 0.06072 0 0.05465-0.0637 0.20341-0.0607 0.14573-0.17305 0.32181-0.1093 0.17305-0.3036 0.3036-0.19127 0.13055-0.41593 0.13055-0.16698 0-0.34003-0.09411-0.17001-0.09412-0.25198-0.33092-0.24288 0.422-0.6072 0.42504-0.22466 0-0.38556-0.10626-0.16091-0.10626-0.16091-0.27931z"/>
     <path d="m148.45 41.757q-0.13662 0-0.13662-0.06679 0-0.06983 0.15483-0.06983h3.4701q0.10019 0 0.12447 0.01214 0.0304 0.01214 0.0364 0.04554 6e-3 0.03036-0.0213 0.05465-0.0243 0.02429-0.15483 0.02429zm0.16698-1.2751q0-0.06983 0.12447-0.06679h3.5369q0.1184 0 0.1184 0.06983 0 0.06679-0.15483 0.06679h-3.3214q-0.0243 0-0.0698 3e-3 -0.0425 3e-3 -0.0668 3e-3h-0.0182q-0.14876 0-0.14876-0.0759z"/>
     <path d="m154.91 42.324q0-0.14876 0.0911-0.24288 0.0941-0.09412 0.21859-0.09412 0.21252 0 0.21252 0.19734 0 0.08804-0.0607 0.17912-0.0577 0.09108-0.18216 0.12144 0.10322 0.08501 0.26109 0.08501 6e-3 0 0.0121 0 0.13054 0 0.23073-0.07286 0.10322-0.0759 0.17609-0.23073 0.0729-0.15484 0.10929-0.27627 0.0364-0.12144 0.085-0.31878 0.0759-0.3036 0.14573-0.56773 0.13054-0.53433 0.13054-0.68309 0-0.18519-0.082-0.28842t-0.21859-0.10322q-0.20645 0-0.41593 0.20037-0.20644 0.19734-0.32181 0.57684-0.0243 0.0759-0.0395 0.09108-0.0121 0.01518-0.0729 0.01518-0.0941 0-0.0941-0.06072 0-0.06376 0.0638-0.21252 0.0668-0.1518 0.17912-0.32181 0.11233-0.17001 0.3036-0.29752 0.1943-0.12751 0.40985-0.12751 0.44022 0 0.59809 0.422 0.0759-0.14269 0.23073-0.28234 0.15484-0.13966 0.3795-0.13966 0.1852 0 0.36128 0.09108 0.17912 0.08804 0.17912 0.30056 0 0.16091-0.10018 0.24591-0.10019 0.08197-0.20341 0.08197-0.11233 0-0.16698-0.06072-0.0516-0.06376-0.0516-0.13662 0-0.03036 6e-3 -0.06983 6e-3 -0.0425 0.0668-0.12144 0.0638-0.08197 0.17609-0.10626-0.10019-0.08804-0.27324-0.08804-0.36735 0-0.54951 0.66488-0.14269 0.60416-0.20948 0.85311-0.11841 0.50397-0.11841 0.62541 0 0.21859 0.085 0.30967 0.088 0.08804 0.20645 0.08804 0.21251 0 0.41592-0.19734 0.20645-0.20037 0.32485-0.57987 0.0243-0.0759 0.0395-0.08804 0.0152-0.01518 0.0729-0.01518 0.0941 0 0.0911 0.06072 0 0.05465-0.0637 0.20341-0.0607 0.14573-0.17305 0.32181-0.1093 0.17305-0.3036 0.3036-0.19127 0.13055-0.41593 0.13055-0.16698 0-0.34003-0.09411-0.17001-0.09412-0.25198-0.33092-0.24288 0.422-0.6072 0.42504-0.22466 0-0.38556-0.10626-0.16091-0.10626-0.16091-0.27931z"/>
     <path d="m183.6 42.324q0-0.14876 0.0911-0.24288 0.0941-0.09412 0.21859-0.09412 0.21252 0 0.21252 0.19734 0 0.08804-0.0607 0.17912-0.0577 0.09108-0.18216 0.12144 0.10322 0.08501 0.26109 0.08501 6e-3 0 0.0121 0 0.13054 0 0.23073-0.07286 0.10322-0.0759 0.17609-0.23073 0.0729-0.15484 0.10929-0.27627 0.0364-0.12144 0.085-0.31878 0.0759-0.3036 0.14573-0.56773 0.13054-0.53433 0.13054-0.68309 0-0.18519-0.082-0.28842t-0.21859-0.10322q-0.20644 0-0.41593 0.20037-0.20644 0.19734-0.32181 0.57684-0.0243 0.0759-0.0395 0.09108-0.0121 0.01518-0.0729 0.01518-0.0941 0-0.0941-0.06072 0-0.06376 0.0638-0.21252 0.0668-0.1518 0.17912-0.32181 0.11233-0.17001 0.3036-0.29752 0.1943-0.12751 0.40986-0.12751 0.44021 0 0.59808 0.422 0.0759-0.14269 0.23074-0.28234 0.15483-0.13966 0.37949-0.13966 0.1852 0 0.36128 0.09108 0.17913 0.08804 0.17913 0.30056 0 0.16091-0.10019 0.24591-0.10019 0.08197-0.20341 0.08197-0.11233 0-0.16698-0.06072-0.0516-0.06376-0.0516-0.13662 0-0.03036 6e-3 -0.06983 6e-3 -0.0425 0.0668-0.12144 0.0638-0.08197 0.17609-0.10626-0.10019-0.08804-0.27324-0.08804-0.36735 0-0.54951 0.66488-0.14269 0.60416-0.20948 0.85311-0.11841 0.50397-0.11841 0.62541 0 0.21859 0.085 0.30967 0.088 0.08804 0.20645 0.08804 0.21252 0 0.41593-0.19734 0.20644-0.20037 0.32484-0.57987 0.0243-0.0759 0.0395-0.08804 0.0152-0.01518 0.0729-0.01518 0.0941 0 0.0911 0.06072 0 0.05465-0.0637 0.20341-0.0607 0.14573-0.17305 0.32181-0.1093 0.17305-0.3036 0.3036-0.19126 0.13055-0.41593 0.13055-0.16697 0-0.34003-0.09411-0.17001-0.09412-0.25198-0.33092-0.24288 0.422-0.6072 0.42504-0.22466 0-0.38556-0.10626-0.16091-0.10626-0.16091-0.27931z"/>
    </g>
    <path transform="translate(18.833 .52917)" d="m110.46 36.38c-6.104-0.4345-12.327 0.96142-17.66 3.9617-5.3334 3.0003-9.7574 7.5935-12.556 13.036s-3.9596 11.713-3.2964 17.796c0.66319 6.0834 3.1485 11.956 7.0535 16.668 0.97607 1.1777 2.0382 2.284 3.175 3.3073" fill="none" marker-end="url(#Arrow2Mend)" stroke="#c6c6c6" stroke-dasharray="0.79375, 1.5875" stroke-width=".39688"/>
    <g fill="#fff">
     <path transform="translate(18.833 .52917)" d="m104.91 66.659q0-0.03643 0.13662-0.24288l2.6868-4.0287q0.0941-0.13055 0.18823-0.13055 0.0881 0 0.12448 0.06983 0.0364 0.06679 0.14269 0.38253 0.0607 0.19127 0.10626 0.32485l1.1597 3.4944q0.0243 0.10019 0.0273 0.1093 0 0.06983-0.12447 0.06983h-4.2959q-0.1518 0-0.1518-0.04857zm0.47969-0.42504h3.3456l-1.1142-3.3578z" stroke-width=".15544"/>
     <path transform="translate(18.833 .52917)" d="m115.63 66.293q0-0.0759 0.14269-0.0759h3.7919q0.11841 0 0.14269 0.01214 0.0425 0.02429 0.0455 0.05768 0 0.0759-0.17608 0.07286h-3.7798q-0.16698 3e-3 -0.16698-0.06679zm0.20644-1.2144q0-0.0759 0.12144-0.07286h3.8071q0.17912 0 0.17912 0.07286 0 0.06983-0.15484 0.06983h-3.8314q-0.12144 0-0.12144-0.06983z" stroke-width=".15544"/>
     <g transform="matrix(.46504 0 0 .4745 123.67 4.5654)" stroke-width=".070004" aria-label="+">
      <path d="m126.44 77.098q-0.24288 0-0.24288-0.12919t0.25321-0.12919q0.031 0 0.0827 0.0052 0.0568 0.0052 0.0672 0.0052h2.9817v-2.9921q0-0.01033-5e-3 -0.05684-5e-3 -0.05168-5e-3 -0.08268 0-0.25321 0.12402-0.25321 0.12919 0 0.12919 0.25321v3.1316h2.9869q0.0103 0 0.062-0.0052t0.0827-0.0052q0.24288 0 0.24288 0.12919 5e-3 0.12919-0.25321 0.12919-0.031 0-0.0775-0.0052t-0.0568-0.0052h-2.9869v3.1419q0 0.24288-0.12919 0.24288-0.12402 0-0.12402-0.25321 0-0.03101 5e-3 -0.08268 5e-3 -0.04651 5e-3 -0.05684v-2.9921h-2.9817q-0.0103 0-0.0723 0.0052-0.0568 0.0052-0.0879 0.0052z" fill="#fff" stroke-width=".070004"/>
     </g>
     <g transform="matrix(.57501 0 0 .58671 110.74 -2.4299)" stroke-width=".15544">
      <path d="m116.33 74.568q0-1.788 0.66662-3.2298 0.28422-0.60461 0.68213-1.111 0.39791-0.50643 0.66146-0.72864t0.33589-0.22221q0.10336 0 0.10852 0.10335 0 0.05168-0.13952 0.18087-1.7053 1.7363-1.7002 5.0074 0 3.2814 1.6588 4.9506 0.18086 0.18087 0.18086 0.23771 0 0.10335-0.10852 0.10335-0.0723 0-0.32556-0.21187-0.25321-0.21187-0.64595-0.69763t-0.67696-1.08q-0.69763-1.4418-0.69763-3.3021z"/>
      <g stroke-width=".26458">
       <path d="m119.82 72.852q0-0.13953 0.0672-0.17053 0.0723-0.03101 0.23254-0.03101h0.89917l0.41341-1.6795q0.10335-0.3824 0.41341-0.3824 0.28422 0 0.28422 0.27388 0 0.07235-0.0413 0.22221l-0.39273 1.5658h0.84749q0.10335 0 0.14469 0.0052 0.0465 0.0052 0.0827 0.03617 0.0362 0.02584 0.0362 0.08785 0 0.13953-0.0724 0.17053-0.0672 0.03101-0.22221 0.03101h-0.90433l-0.78032 3.1419q-0.0723 0.29455-0.0723 0.5426 0 0.42891 0.27905 0.42891 0 0 5e-3 0 0.40307 0 0.71313-0.39791 0.31522-0.40308 0.50126-0.89917 0.062-0.14986 0.0879-0.1757 0.031-0.02584 0.12402-0.02584 0.1602 0 0.1602 0.10335 0 0.03101-0.062 0.1912-0.062 0.1602-0.20154 0.40824-0.13953 0.24805-0.32039 0.47542-0.1757 0.22738-0.45475 0.39274-0.27389 0.16536-0.56844 0.16536-0.40308 0-0.65112-0.27388-0.24805-0.27905-0.24805-0.68213 0-0.14986 0.0517-0.35657l0.75964-3.0386h-0.84233q-0.10335 0-0.14986-0.0052-0.0413-0.0052-0.0827-0.03101-0.0362-0.03101-0.0362-0.09302z"/>
       <path d="m130.99 77.131q0-0.06201 0.26872-0.41341l5.1521-6.8781q0.1602-0.20154 0.34107-0.20154 0.21187 0 0.26355 0.27388l1.7363 7.0176q0.031 0.12919 0.031 0.14469 0 0.13953-0.2222 0.13953h-7.3122q-0.25838 0-0.25838-0.08268zm0.86816-0.72347h5.7154l-1.4263-5.7154z"/>
       <path d="m140.24 72.852q0-0.13953 0.0672-0.17053 0.0724-0.03101 0.23255-0.03101h0.89916l0.41342-1.6795q0.10335-0.3824 0.41341-0.3824 0.28421 0 0.28421 0.27388 0 0.07235-0.0413 0.22221l-0.39274 1.5658h0.84749q0.10336 0 0.1447 0.0052 0.0465 0.0052 0.0827 0.03617 0.0362 0.02584 0.0362 0.08785 0 0.13953-0.0723 0.17053-0.0672 0.03101-0.22221 0.03101h-0.90434l-0.78031 3.1419q-0.0723 0.29455-0.0723 0.5426 0 0.42891 0.27905 0.42891 0 0 5e-3 0 0.40307 0 0.71313-0.39791 0.31522-0.40308 0.50126-0.89917 0.062-0.14986 0.0879-0.1757 0.031-0.02584 0.12402-0.02584 0.1602 0 0.1602 0.10335 0 0.03101-0.062 0.1912-0.062 0.1602-0.20154 0.40824-0.13953 0.24805-0.32039 0.47542-0.1757 0.22738-0.45476 0.39274-0.27388 0.16536-0.56844 0.16536-0.40307 0-0.65112-0.27388-0.24804-0.27905-0.24804-0.68213 0-0.14986 0.0517-0.35657l0.75965-3.0386h-0.84233q-0.10335 0-0.14986-0.0052-0.0413-0.0052-0.0827-0.03101-0.0362-0.03101-0.0362-0.09302z"/>
      </g>
      <path d="m143.92 79.756q0-0.05168 0.13436-0.18087 1.7053-1.7363 1.7053-5.0074 0-3.2814-1.6381-4.9403-0.20154-0.1912-0.20154-0.24805 0-0.10335 0.10335-0.10335 0.0724 0 0.32556 0.21187 0.25838 0.21187 0.64596 0.69763 0.39273 0.48576 0.68212 1.08 0.69763 1.4418 0.69763 3.3021 0 1.788-0.66662 3.2298-0.28422 0.60461-0.68213 1.111-0.39791 0.50643-0.66146 0.72864-0.26354 0.22221-0.34106 0.22221-0.10335 0-0.10335-0.10335z"/>
     </g>
     <g transform="matrix(.4591 0 0 .18343 186.44 33.616)" stroke-width=".26458" aria-label="−">
      <path d="m29.582 43.628h-6.3872v-0.82682h6.3872z" fill="#fff"/>
     </g>
     <g transform="matrix(.60896 0 0 .60362 149.02 -13.499)" stroke-width=".26458">
      <path d="m93.658 90.786q0-1.788 0.66662-3.2298 0.28422-0.60461 0.68213-1.111 0.39791-0.50643 0.66146-0.72864t0.3359-0.22221q0.10335 0 0.10852 0.10335 0 0.05168-0.13953 0.18087-1.7053 1.7363-1.7002 5.0074 0 3.2814 1.6588 4.9506 0.18087 0.18087 0.18087 0.23771 0 0.10335-0.10852 0.10335-0.07235 0-0.32556-0.21187t-0.64595-0.69763-0.67696-1.08q-0.69763-1.4418-0.69763-3.3021z"/>
      <path d="m96.614 89.07q0-0.13953 0.06718-0.17053 0.07235-0.03101 0.23254-0.03101h0.89917l0.41341-1.6795q0.10335-0.3824 0.41341-0.3824 0.28422 0 0.28422 0.27388 0 0.07235-0.0413 0.22221l-0.39274 1.5658h0.84749q0.10335 0 0.1447 0.0052 0.0465 0.0052 0.0827 0.03617 0.0362 0.02584 0.0362 0.08785 0 0.13953-0.0724 0.17053-0.0672 0.03101-0.2222 0.03101h-0.90434l-0.78031 3.1419q-0.0724 0.29455-0.0724 0.5426 0 0.42891 0.27905 0.42891 0 0 5e-3 0 0.40308 0 0.71313-0.39791 0.31523-0.40308 0.50126-0.89917 0.062-0.14986 0.0879-0.1757 0.031-0.02584 0.12403-0.02584 0.16019 0 0.16019 0.10335 0 0.03101-0.062 0.1912-0.062 0.1602-0.20154 0.40824-0.13952 0.24805-0.32039 0.47542-0.1757 0.22738-0.45475 0.39274-0.27388 0.16536-0.56844 0.16536-0.40307 0-0.65112-0.27388-0.24805-0.27905-0.24805-0.68213 0-0.14986 0.0517-0.35657l0.75964-3.0386h-0.84232q-0.10335 0-0.14986-0.0052-0.04134-0.0052-0.08268-0.03101-0.03617-0.03101-0.03617-0.09302z" stroke-width=".26458"/>
      <path d="m100.29 95.974q0-0.05168 0.13436-0.18087 1.7053-1.7363 1.7053-5.0074 0-3.2814-1.6381-4.9403-0.20154-0.1912-0.20154-0.24805 0-0.10335 0.10336-0.10335 0.0723 0 0.32556 0.21187 0.25838 0.21187 0.64595 0.69763 0.39274 0.48576 0.68213 1.08 0.69763 1.4418 0.69763 3.3021 0 1.788-0.66663 3.2298-0.28422 0.60461-0.68212 1.111-0.39791 0.50643-0.66146 0.72864t-0.34106 0.22221q-0.10336 0-0.10336-0.10335z"/>
     </g>
     <g transform="translate(6.8639 17.529)" stroke-width=".15544">
      <g transform="matrix(.46504 0 0 .4745 84.201 11.378)" stroke-width=".070004" aria-label="+">
       <path d="m126.44 77.098q-0.24288 0-0.24288-0.12919t0.25321-0.12919q0.031 0 0.0827 0.0052 0.0568 0.0052 0.0672 0.0052h2.9817v-2.9921q0-0.01033-5e-3 -0.05684-5e-3 -0.05168-5e-3 -0.08268 0-0.25321 0.12402-0.25321 0.12919 0 0.12919 0.25321v3.1316h2.9869q0.0103 0 0.062-0.0052t0.0827-0.0052q0.24288 0 0.24288 0.12919 5e-3 0.12919-0.25321 0.12919-0.031 0-0.0775-0.0052t-0.0568-0.0052h-2.9869v3.1419q0 0.24288-0.12919 0.24288-0.12402 0-0.12402-0.25321 0-0.03101 5e-3 -0.08268 5e-3 -0.04651 5e-3 -0.05684v-2.9921h-2.9817q-0.0103 0-0.0723 0.0052-0.0568 0.0052-0.0879 0.0052z" fill="#fff" stroke-width=".070004"/>
      </g>
      <g transform="matrix(.57501 0 0 .58671 71.273 4.3831)">
       <path d="m116.33 74.568q0-1.788 0.66662-3.2298 0.28422-0.60461 0.68213-1.111 0.39791-0.50643 0.66146-0.72864t0.33589-0.22221q0.10336 0 0.10852 0.10335 0 0.05168-0.13952 0.18087-1.7053 1.7363-1.7002 5.0074 0 3.2814 1.6588 4.9506 0.18086 0.18087 0.18086 0.23771 0 0.10335-0.10852 0.10335-0.0723 0-0.32556-0.21187-0.25321-0.21187-0.64595-0.69763t-0.67696-1.08q-0.69763-1.4418-0.69763-3.3021z"/>
       <g stroke-width=".26458">
        <path d="m119.82 72.852q0-0.13953 0.0672-0.17053 0.0723-0.03101 0.23254-0.03101h0.89917l0.41341-1.6795q0.10335-0.3824 0.41341-0.3824 0.28422 0 0.28422 0.27388 0 0.07235-0.0413 0.22221l-0.39273 1.5658h0.84749q0.10335 0 0.14469 0.0052 0.0465 0.0052 0.0827 0.03617 0.0362 0.02584 0.0362 0.08785 0 0.13953-0.0724 0.17053-0.0672 0.03101-0.22221 0.03101h-0.90433l-0.78032 3.1419q-0.0723 0.29455-0.0723 0.5426 0 0.42891 0.27905 0.42891 0 0 5e-3 0 0.40307 0 0.71313-0.39791 0.31522-0.40308 0.50126-0.89917 0.062-0.14986 0.0879-0.1757 0.031-0.02584 0.12402-0.02584 0.1602 0 0.1602 0.10335 0 0.03101-0.062 0.1912-0.062 0.1602-0.20154 0.40824-0.13953 0.24805-0.32039 0.47542-0.1757 0.22738-0.45475 0.39274-0.27389 0.16536-0.56844 0.16536-0.40308 0-0.65112-0.27388-0.24805-0.27905-0.24805-0.68213 0-0.14986 0.0517-0.35657l0.75964-3.0386h-0.84233q-0.10335 0-0.14986-0.0052-0.0413-0.0052-0.0827-0.03101-0.0362-0.03101-0.0362-0.09302z"/>
        <path d="m130.99 77.131q0-0.06201 0.26872-0.41341l5.1521-6.8781q0.1602-0.20154 0.34107-0.20154 0.21187 0 0.26355 0.27388l1.7363 7.0176q0.031 0.12919 0.031 0.14469 0 0.13953-0.2222 0.13953h-7.3122q-0.25838 0-0.25838-0.08268zm0.86816-0.72347h5.7154l-1.4263-5.7154z"/>
        <path d="m140.24 72.852q0-0.13953 0.0672-0.17053 0.0724-0.03101 0.23255-0.03101h0.89916l0.41342-1.6795q0.10335-0.3824 0.41341-0.3824 0.28421 0 0.28421 0.27388 0 0.07235-0.0413 0.22221l-0.39274 1.5658h0.84749q0.10336 0 0.1447 0.0052 0.0465 0.0052 0.0827 0.03617 0.0362 0.02584 0.0362 0.08785 0 0.13953-0.0723 0.17053-0.0672 0.03101-0.22221 0.03101h-0.90434l-0.78031 3.1419q-0.0723 0.29455-0.0723 0.5426 0 0.42891 0.27905 0.42891 0 0 5e-3 0 0.40307 0 0.71313-0.39791 0.31522-0.40308 0.50126-0.89917 0.062-0.14986 0.0879-0.1757 0.031-0.02584 0.12402-0.02584 0.1602 0 0.1602 0.10335 0 0.03101-0.062 0.1912-0.062 0.1602-0.20154 0.40824-0.13953 0.24805-0.32039 0.47542-0.1757 0.22738-0.45476 0.39274-0.27388 0.16536-0.56844 0.16536-0.40307 0-0.65112-0.27388-0.24804-0.27905-0.24804-0.68213 0-0.14986 0.0517-0.35657l0.75965-3.0386h-0.84233q-0.10335 0-0.14986-0.0052-0.0413-0.0052-0.0827-0.03101-0.0362-0.03101-0.0362-0.09302z"/>
       </g>
       <path d="m143.92 79.756q0-0.05168 0.13436-0.18087 1.7053-1.7363 1.7053-5.0074 0-3.2814-1.6381-4.9403-0.20154-0.1912-0.20154-0.24805 0-0.10335 0.10335-0.10335 0.0724 0 0.32556 0.21187 0.25838 0.21187 0.64596 0.69763 0.39273 0.48576 0.68212 1.08 0.69763 1.4418 0.69763 3.3021 0 1.788-0.66662 3.2298-0.28422 0.60461-0.68213 1.111-0.39791 0.50643-0.66146 0.72864-0.26354 0.22221-0.34106 0.22221-0.10335 0-0.10335-0.10335z"/>
      </g>
     </g>
     <g transform="matrix(.4591 0 0 .18343 153.63 57.958)" stroke-width=".26458" aria-label="−">
      <path d="m30.021 43.628h-6.3872v-0.82682h6.3872z" fill="#fff"/>
     </g>
     <g stroke-width=".16041">
      <path transform="translate(18.833 .52917)" d="m154.61 65.114q0-1.0793 0.40594-1.9496 0.17308-0.36496 0.41539-0.67063 0.24231-0.30569 0.4028-0.43982t0.20455-0.13413q0.0629 0 0.0661 0.06238 0 0.0312-0.085 0.10918-1.0385 1.0481-1.0354 3.0226 0 1.9807 1.0101 2.9883 0.11014 0.10918 0.11014 0.14349 0 0.06238-0.0661 0.06238-0.044 0-0.19825-0.12789-0.15419-0.12789-0.39335-0.42111-0.23917-0.29322-0.41224-0.65191-0.42483-0.8703-0.42483-1.9932z"/>
      <path transform="translate(18.833 .52917)" d="m156.41 64.078q0-0.08422 0.0409-0.10294 0.0441-0.01872 0.1416-0.01872h0.54756l0.25175-1.0138q0.0629-0.23083 0.25175-0.23083 0.17308 0 0.17308 0.16532 0 0.04367-0.0251 0.13413l-0.23917 0.94515h0.51609q0.0629 0 0.0881 0.0031 0.0283 0.0031 0.0504 0.02183 0.022 0.0156 0.022 0.05303 0 0.08422-0.0441 0.10294-0.0409 0.01872-0.13531 0.01872h-0.5507l-0.47518 1.8965q-0.0441 0.1778-0.0441 0.32753 0 0.2589 0.16993 0.2589 0 0 3e-3 0 0.24546 0 0.43426-0.24019 0.19197-0.24331 0.30525-0.54276 0.0378-0.09046 0.0535-0.10606 0.0189-0.0156 0.0755-0.0156 0.0975 0 0.0975 0.06238 0 0.01872-0.0378 0.11541-0.0378 0.0967-0.12273 0.24642-0.085 0.14973-0.1951 0.28698-0.107 0.13725-0.27693 0.23707-0.16678 0.09982-0.34615 0.09982-0.24545 0-0.39651-0.16532-0.15105-0.16844-0.15105-0.41175 0-0.09046 0.0315-0.21523l0.46259-1.8342h-0.51293q-0.0629 0-0.0913-0.0031-0.0252-0.0031-0.0504-0.01872-0.022-0.01872-0.022-0.05615z"/>
      <path transform="translate(18.833 .52917)" d="m158.65 68.246q0-0.0312 0.0818-0.10918 1.0384-1.0481 1.0384-3.0226 0-1.9807-0.99753-2.9821-0.12273-0.11541-0.12273-0.14973 0-0.06238 0.0629-0.06238 0.044 0 0.19825 0.12789 0.15735 0.12789 0.39336 0.42111 0.23916 0.29322 0.41539 0.65191 0.42483 0.8703 0.42483 1.9932 0 1.0793-0.40595 1.9496-0.17308 0.36496-0.41539 0.67063-0.24231 0.30569-0.4028 0.43982-0.16049 0.13413-0.20769 0.13413-0.0629 0-0.0629-0.06238z"/>
     </g>
    </g>
    <path transform="translate(18.833 .52917)" d="m101.45 45.945 21.857-21.443" fill="none" marker-end="url(#StopL)" marker-start="url(#StopL)" stroke="#d65a5a" stroke-width=".51273"/>
    <g fill="#fff">
     <g stroke-width=".024131">
      <path transform="translate(18.833 .52917)" d="m110.14 64.972q0-0.01819 0.0242-0.10915 0.0243-0.09399 0.0879-0.23953 0.0667-0.14857 0.1516-0.28197 0.0849-0.13341 0.2274-0.2274 0.1425-0.09702 0.3032-0.09702 0.20617 0 0.33958 0.13644 0.13341 0.13644 0.13341 0.36688 0 0.12431-0.0819 0.33352-0.36081 0.98237-0.36081 1.3614 0 0.47602 0.33352 0.47602 0 0 3e-3 0 0.24863 0 0.43055-0.18799 0.18494-0.18798 0.2274-0.36384l0.45479-1.8253q0.0546-0.23043 0.23954-0.23043 0.0879 0 0.13037 0.05158 0.0455 0.04852 0.0455 0.11218 0 0.01215-9e-3 0.03943t-9e-3 0.04547l-0.60943 2.4468q-0.12431 0.49118-0.51544 0.87321-0.39112 0.38203-0.85199 0.38203-0.26075 0-0.42751-0.14553-0.16677-0.14554-0.16677-0.3881 0-0.15463 0.0668-0.25166 0.0698-0.09702 0.13037-0.11522 0.0636-0.01818 0.11825-0.01818 0.0879 0 0.14856 0.05158 0.0636 0.05457 0.0636 0.14554 0 0.094-0.0698 0.18495-0.0667 0.09399-0.19709 0.11522-0.0485 0.0061-0.0515 0.01818 0 0.02423 0.0303 0.08187 0.0333 0.06064 0.1243 0.12128 0.094 0.06367 0.23043 0.06367 0.28502 0 0.56396-0.3032 0.28197-0.30017 0.44267-0.99449-0.23043 0.23043-0.55789 0.23043-0.29106 0-0.49421-0.17283-0.20315-0.17585-0.20315-0.54879 0-0.34868 0.32443-1.2158 0.14856-0.41538 0.14856-0.56092 0-0.17889-0.13644-0.17889-0.37293 0-0.57608 0.78226-0.0181 0.06974-0.0394 0.08489-0.0181 0.01514-0.0727 0.01514-0.094-0.0029-0.094-0.06367z"/>
      <path transform="translate(18.833 .52917)" d="m122.31 64.972q0-0.01819 0.0242-0.10915 0.0243-0.09399 0.0879-0.23953 0.0667-0.14857 0.1516-0.28197 0.0849-0.13341 0.2274-0.2274 0.1425-0.09702 0.3032-0.09702 0.20617 0 0.33958 0.13644 0.13341 0.13644 0.13341 0.36688 0 0.12431-0.0819 0.33352-0.36081 0.98237-0.36081 1.3614 0 0.47602 0.33352 0.47602 0 0 3e-3 0 0.24863 0 0.43055-0.18799 0.18494-0.18798 0.2274-0.36384l0.45479-1.8253q0.0546-0.23043 0.23954-0.23043 0.0879 0 0.13037 0.05158 0.0455 0.04852 0.0455 0.11218 0 0.01215-9e-3 0.03943t-9e-3 0.04547l-0.60943 2.4468q-0.12431 0.49118-0.51544 0.87321-0.39112 0.38203-0.85199 0.38203-0.26075 0-0.42751-0.14553-0.16677-0.14554-0.16677-0.3881 0-0.15463 0.0668-0.25166 0.0698-0.09702 0.13037-0.11522 0.0636-0.01818 0.11825-0.01818 0.0879 0 0.14856 0.05158 0.0636 0.05457 0.0636 0.14554 0 0.094-0.0698 0.18495-0.0667 0.09399-0.19709 0.11522-0.0485 0.0061-0.0515 0.01818 0 0.02423 0.0303 0.08187 0.0333 0.06064 0.1243 0.12128 0.094 0.06367 0.23043 0.06367 0.28502 0 0.56396-0.3032 0.28197-0.30017 0.44267-0.99449-0.23043 0.23043-0.55789 0.23043-0.29106 0-0.49421-0.17283-0.20315-0.17585-0.20315-0.54879 0-0.34868 0.32443-1.2158 0.14856-0.41538 0.14856-0.56092 0-0.17889-0.13644-0.17889-0.37293 0-0.57608 0.78226-0.0181 0.06974-0.0394 0.08489-0.0181 0.01514-0.0727 0.01514-0.094-0.0029-0.094-0.06367z"/>
      <path transform="translate(18.833 .52917)" d="m150.88 64.972q0-0.01819 0.0242-0.10915 0.0243-0.09399 0.0879-0.23953 0.0667-0.14857 0.1516-0.28197 0.0849-0.13341 0.2274-0.2274 0.1425-0.09702 0.3032-0.09702 0.20617 0 0.33958 0.13644 0.13341 0.13644 0.13341 0.36688 0 0.12431-0.0819 0.33352-0.36081 0.98237-0.36081 1.3614 0 0.47602 0.33352 0.47602 0 0 3e-3 0 0.24863 0 0.43055-0.18799 0.18494-0.18798 0.2274-0.36384l0.45479-1.8253q0.0546-0.23043 0.23954-0.23043 0.0879 0 0.13037 0.05158 0.0455 0.04852 0.0455 0.11218 0 0.01215-9e-3 0.03943t-9e-3 0.04547l-0.60943 2.4468q-0.12431 0.49118-0.51544 0.87321-0.39112 0.38203-0.85199 0.38203-0.26075 0-0.42751-0.14553-0.16677-0.14554-0.16677-0.3881 0-0.15463 0.0668-0.25166 0.0698-0.09702 0.13037-0.11522 0.0636-0.01818 0.11825-0.01818 0.0879 0 0.14856 0.05158 0.0636 0.05457 0.0636 0.14554 0 0.094-0.0698 0.18495-0.0667 0.09399-0.19709 0.11522-0.0485 0.0061-0.0515 0.01818 0 0.02423 0.0303 0.08187 0.0333 0.06064 0.1243 0.12128 0.094 0.06367 0.23043 0.06367 0.28502 0 0.56396-0.3032 0.28197-0.30017 0.44267-0.99449-0.23043 0.23043-0.55789 0.23043-0.29106 0-0.49421-0.17283-0.20315-0.17585-0.20315-0.54879 0-0.34868 0.32443-1.2158 0.14856-0.41538 0.14856-0.56092 0-0.17889-0.13644-0.17889-0.37293 0-0.57608 0.78226-0.0181 0.06974-0.0394 0.08489-0.0181 0.01514-0.0727 0.01514-0.094-0.0029-0.094-0.06367z"/>
     </g>
     <g transform="matrix(.68398 0 0 1.462 18.833 .52917)" stroke-width=".38683" aria-label="}">
      <path d="m188.94 35.283q0-0.10577 0.0982-0.13599 0.0982-0.03022 0.33999-0.06044 0.24176-0.03022 0.42309-0.09066 1.3146-0.43064 1.3146-1.7075v-3.4829q0-1.6244 1.8435-2.0852-1.8435-0.46087-1.8435-1.9795v-3.4527q0-0.3702-0.0302-0.55908-0.10578-0.52886-0.58931-0.91418-0.47597-0.38531-1.1862-0.46086-0.0151 0-0.0907-0.0076-0.068-0.0076-0.0982-0.01511-0.0302-0.0076-0.0831-0.02266-0.0529-0.01511-0.0756-0.05289t-0.0227-0.08311q0-0.18888 0.25687-0.18888 1.0955 0 1.987 0.47598 0.89151 0.46842 1.0048 1.3675 0.0151 0.1511 0.0151 0.44576v3.3923q0 0.51375 0.19644 0.89907 0.20399 0.38531 0.5213 0.57419 0.31732 0.18132 0.52887 0.26443 0.2191 0.08311 0.4382 0.11333 0.0453 0 0.12844 0.0076 0.0907 0.0076 0.14354 0.03022 0.0529 0.01511 0.10578 0.03022 0.0529 0.01511 0.0831 0.05289t0.0302 0.08311q0 0.06044-0.0227 0.09822t-0.0831 0.06044q-0.0604 0.01511-0.12844 0.02266-0.0604 0.0076-0.16621 0.02267-0.10577 0.01511-0.19644 0.03022-0.55908 0.10577-1.0124 0.47598-0.44575 0.3702-0.53642 0.9444-0.0302 0.1511-0.0302 0.45331v3.3696q0 0.30976-0.0302 0.49109-0.0227 0.18888-0.20399 0.52131-0.17377 0.33243-0.51375 0.59686-0.88396 0.64974-2.2439 0.64974-0.27198 0-0.27198-0.17377z" fill="#fff" stroke-width=".38683"/>
     </g>
     <g transform="matrix(0 .68398 -1.462 0 18.833 .52917)" stroke-width=".38683" aria-label="}">
      <path d="m78.678-72.331q0-0.10577 0.09822-0.13599 0.09822-0.03022 0.33998-0.06044 0.24177-0.03022 0.42309-0.09066 1.3146-0.43064 1.3146-1.7075v-3.4829q0-1.6244 1.8435-2.0852-1.8435-0.46087-1.8435-1.9795v-3.4527q0-0.3702-0.03022-0.55908-0.10577-0.52886-0.5893-0.91418-0.47598-0.38531-1.1862-0.46086-0.01511 0-0.09066-0.0076-0.068-0.0076-0.09822-0.01511-0.03022-0.0076-0.08311-0.02267-0.05289-0.01511-0.07555-0.05289-0.02267-0.03778-0.02267-0.08311 0-0.18888 0.25688-0.18888 1.0955 0 1.987 0.47598 0.89151 0.46842 1.0048 1.3675 0.01511 0.1511 0.01511 0.44576v3.3923q0 0.51375 0.19644 0.89907 0.20399 0.38531 0.52131 0.57419 0.31732 0.18132 0.52886 0.26443 0.2191 0.08311 0.4382 0.11333 0.04533 0 0.12844 0.0076 0.09066 0.0076 0.14355 0.03022 0.05289 0.01511 0.10577 0.03022 0.05289 0.01511 0.08311 0.05289t0.03022 0.08311q0 0.06044-0.02267 0.09822t-0.08311 0.06044q-0.06044 0.01511-0.12844 0.02267-0.06044 0.0076-0.16621 0.02266-0.10577 0.01511-0.19643 0.03022-0.55908 0.10577-1.0124 0.47598-0.44576 0.3702-0.53642 0.9444-0.03022 0.1511-0.03022 0.45331v3.3696q0 0.30976-0.03022 0.49109-0.02267 0.18888-0.20399 0.52131-0.17377 0.33243-0.51375 0.59686-0.88396 0.64974-2.2439 0.64974-0.27199 0-0.27199-0.17377z" fill="#fff" stroke-width=".38683"/>
     </g>
    </g>
    <g transform="matrix(1.3583 0 0 1.3583 -11.963 -28.294)" clip-path="url(#clipPath5852)">
     <g transform="matrix(1.8853 0 0 1.8853 -117.45 -64.749)" clip-path="none" fill="#c3c3c3" stroke-width=".265" aria-label="Force as a vector field">
      <g transform="matrix(1.3641,0,0,1.3641,-69.231,81.364)" clip-path="url(#a)">
       <path transform="translate(-23.919,-57.941)" d="m27.403 82.399c4.4-10.851 12.758-20.046 23.141-25.46s22.706-7.003 34.123-4.4c21.365 7.605 46.32 10.33 64.832 0.265 13.673-7.708 24.142-20.913 28.528-35.983" fill="none" marker-mid="url(#d)" stroke="#50ff7f" stroke-linecap="round" stroke-width="1.165" style="paint-order:normal"/>
      </g>
     </g>
    </g>
    <g fill="#fff">
     <g transform="matrix(.72408 0 0 .73881 40.067 45.87)" stroke-width=".070004" aria-label="+">
      <path d="m126.44 77.098q-0.24288 0-0.24288-0.12919t0.25321-0.12919q0.031 0 0.0827 0.0052 0.0568 0.0052 0.0672 0.0052h2.9817v-2.9921q0-0.01033-5e-3 -0.05684-5e-3 -0.05168-5e-3 -0.08268 0-0.25321 0.12402-0.25321 0.12919 0 0.12919 0.25321v3.1316h2.9869q0.0103 0 0.062-0.0052t0.0827-0.0052q0.24288 0 0.24288 0.12919 5e-3 0.12919-0.25321 0.12919-0.031 0-0.0775-0.0052t-0.0568-0.0052h-2.9869v3.1419q0 0.24288-0.12919 0.24288-0.12402 0-0.12402-0.25321 0-0.03101 5e-3 -0.08268 5e-3 -0.04651 5e-3 -0.05684v-2.9921h-2.9817q-0.0103 0-0.0723 0.0052-0.0568 0.0052-0.0879 0.0052z" fill="#fff" stroke-width=".070004"/>
     </g>
     <g stroke-width=".29899">
      <path transform="translate(0 .52917)" d="m110.69 102.49q0-2.0117 0.75664-3.6338 0.3226-0.68025 0.77425-1.25 0.45164-0.56979 0.75079-0.8198 0.29914-0.25 0.38126-0.25 0.1173 0 0.12317 0.11628 0 0.05819-0.15837 0.2035-1.9356 1.9535-1.9298 5.6338 0 3.6919 1.8828 5.5699 0.20529 0.20349 0.20529 0.26744 0 0.11629-0.12317 0.11629-0.0821 0-0.36953-0.23838-0.2874-0.23838-0.73318-0.78491-0.44577-0.54653-0.76838-1.2151-0.79184-1.6222-0.79184-3.7152z"/>
      <path transform="translate(0 .52917)" d="m126.41 108.32q0-0.0582 0.1525-0.2035 1.9356-1.9535 1.9356-5.6338 0-3.6919-1.8593-5.5583-0.22876-0.21512-0.22876-0.27908 0-0.11628 0.11732-0.11628 0.0821 0 0.36952 0.23838 0.29328 0.23837 0.73318 0.7849 0.44578 0.54654 0.77425 1.2151 0.79184 1.6222 0.79184 3.7152 0 2.0117-0.75665 3.6338-0.3226 0.68025-0.77424 1.25-0.45164 0.56979-0.75078 0.8198-0.29914 0.25-0.38712 0.25-0.11732 0-0.11732-0.11627z"/>
      <path transform="translate(0 .52917)" d="m139.26 102.49q0-2.0117 0.75664-3.6338 0.3226-0.68025 0.77425-1.25 0.45164-0.56979 0.75078-0.8198 0.29914-0.25 0.38126-0.25 0.11731 0 0.12318 0.11628 0 0.05819-0.15837 0.2035-1.9356 1.9535-1.9298 5.6338 0 3.6919 1.8828 5.5699 0.20529 0.20349 0.20529 0.26744 0 0.11629-0.12317 0.11629-0.0821 0-0.36953-0.23838-0.2874-0.23838-0.73318-0.78491t-0.76838-1.2151q-0.79184-1.6222-0.79184-3.7152z"/>
      <path transform="translate(0 .52917)" d="m154.99 108.32q0-0.0582 0.15251-0.2035 1.9356-1.9535 1.9356-5.6338 0-3.6919-1.8593-5.5583-0.22875-0.21512-0.22875-0.27908 0-0.11628 0.11732-0.11628 0.0821 0 0.36952 0.23838 0.29327 0.23837 0.73318 0.7849 0.44578 0.54654 0.77425 1.2151 0.79184 1.6222 0.79184 3.7152 0 2.0117-0.75665 3.6338-0.32261 0.68025-0.77424 1.25-0.45164 0.56979-0.75079 0.8198-0.29914 0.25-0.38711 0.25-0.11732 0-0.11732-0.11627z"/>
     </g>
     <g transform="translate(0 .52917)" stroke-width=".028125" aria-label="2">
      <path d="m129.2 98.15q0-0.09343 0.0644-0.15779l0.90937-0.84916q0.38201-0.36126 0.53358-0.63531 0.15156-0.27613 0.15156-0.5315 0-0.23046-0.11419-0.37787-0.11419-0.14741-0.34465-0.14741-0.19101 0-0.36956 0.11419-0.17855 0.11419-0.28029 0.31766 0.0166-0.0042 0.0457-0.0042 0.0893 0 0.14118 0.0519 0.054 0.05191 0.054 0.13495 0 0.11419-0.0768 0.18686-0.0747 0.07267-0.17855 0.07267-0.0332 0-0.0727-0.01038-0.0374-0.01038-0.081-0.05606-0.0415-0.04775-0.0415-0.12457 0-0.25122 0.26368-0.53358 0.26367-0.28236 0.66022-0.28236 0.32389 0 0.55019 0.17855 0.22631 0.17855 0.22631 0.5149 0 0.44223-0.48376 0.86369-0.0477 0.03737-0.44638 0.35295-0.39655 0.3135-0.71836 0.59379h0.74743q0.0768 0 0.16402-0.0021 0.0872-0.0021 0.14326-0.0062l0.0581-0.0042q0.0374-0.0083 0.0561-0.02491 0.0727-0.08512 0.15363-0.37371h0.10589l-0.24291 0.73912z"/>
      <path d="m157.78 98.15q0-0.09343 0.0644-0.15779l0.90937-0.84916q0.38202-0.36126 0.53358-0.63531 0.15156-0.27613 0.15156-0.5315 0-0.23046-0.11419-0.37787-0.11419-0.14741-0.34464-0.14741-0.19101 0-0.36956 0.11419-0.17856 0.11419-0.28029 0.31766 0.0166-0.0042 0.0457-0.0042 0.0893 0 0.14118 0.0519 0.054 0.05191 0.054 0.13495 0 0.11419-0.0768 0.18686-0.0747 0.07267-0.17855 0.07267-0.0332 0-0.0727-0.01038-0.0374-0.01038-0.081-0.05606-0.0415-0.04775-0.0415-0.12457 0-0.25122 0.26367-0.53358 0.26368-0.28236 0.66023-0.28236 0.32388 0 0.55019 0.17855 0.2263 0.17855 0.2263 0.5149 0 0.44223-0.48375 0.86369-0.0478 0.03737-0.44638 0.35295-0.39655 0.3135-0.71836 0.59379h0.74743q0.0768 0 0.16402-0.0021 0.0872-0.0021 0.14325-0.0062l0.0581-0.0042q0.0374-0.0083 0.056-0.02491 0.0727-0.08512 0.15364-0.37371h0.10589l-0.24292 0.73912z"/>
     </g>
     <g stroke-width=".041127">
      <path transform="translate(0 .52917)" d="m76.463 104.96q0-0.062 0.26872-0.41341l5.1521-6.8781q0.1602-0.20154 0.34106-0.20154 0.21187 0 0.26355 0.27388l1.7363 7.0176q0.03101 0.12919 0.03101 0.1447 0 0.13952-0.22221 0.13952h-7.3122q-0.25838 0-0.25838-0.0827zm0.86816-0.72347h5.7154l-1.4263-5.7154z"/>
      <path transform="translate(0 .52917)" d="m85.552 104.13q0-0.32556 0.1602-0.49093 0.16536-0.16536 0.37724-0.16536 0.17053 0 0.26355 0.0982 0.09818 0.093 0.09818 0.23771 0 0.062-0.0155 0.14469-0.0155 0.0775-0.14986 0.21704-0.13436 0.13953-0.37724 0.1602 0.1912 0.58911 1.0025 0.58911 0.0052 0 0.0155 0 0.30489 0 0.5581-0.0879 0.25838-0.0879 0.39791-0.22738 0.14469-0.13953 0.24288-0.30489 0.10335-0.17053 0.13952-0.30489 0.03617-0.13953 0.03617-0.25838 0-0.20154-0.07751-0.34106-0.07235-0.1447-0.23254-0.22738-0.15503-0.0878-0.27905-0.12402-0.11886-0.0362-0.3514-0.0879-0.13953-0.031-0.22738-0.0517-0.08268-0.0258-0.24805-0.10335-0.1602-0.0827-0.25838-0.18087-0.09302-0.0982-0.1757-0.27905-0.07751-0.18087-0.07751-0.41341 0-0.5271 0.42374-1.0439 0.42375-0.52193 1.2506-0.52193 0.50643 0 0.81648 0.25838 0.31522 0.25838 0.31522 0.64079 0 0.30489-0.14469 0.44441-0.13953 0.13953-0.31006 0.13953-0.17053 0-0.24288-0.0879-0.07235-0.093-0.07235-0.20671 0-0.11885 0.09819-0.26355 0.10335-0.14469 0.32556-0.1757-0.14986-0.51676-0.79581-0.51676-0.54777 0-0.81132 0.34107-0.25838 0.33589-0.25838 0.63045 0 0.21187 0.11886 0.34623 0.12402 0.12919 0.23771 0.1757 0.11886 0.0413 0.32039 0.0827 0.18087 0.0413 0.29972 0.0724 0.12402 0.031 0.32556 0.12919 0.20154 0.093 0.32039 0.21187 0.12402 0.11369 0.21704 0.32039 0.09819 0.20671 0.09819 0.47026 0 0.17053-0.05684 0.37723-0.05168 0.20671-0.19637 0.45992-0.13952 0.25321-0.3514 0.45992-0.21187 0.2067-0.57361 0.34623-0.35657 0.13953-0.81132 0.13953-0.58394 0-0.97668-0.27906-0.38757-0.28421-0.38757-0.7493z"/>
      <path transform="translate(0 .52917)" d="m94.311 103.54q-0.23254 0-0.23254-0.11369 0-0.11885 0.26355-0.11885h5.9066q0.17053 0 0.21187 0.0207 0.0517 0.0207 0.062 0.0775 0.0103 0.0517-0.0362 0.093-0.0413 0.0413-0.26355 0.0413zm0.28422-2.1704q0-0.11886 0.21187-0.11369h6.0203q0.20153 0 0.20153 0.11886 0 0.11368-0.26355 0.11368h-5.6534q-0.04134 0-0.11886 5e-3 -0.07235 5e-3 -0.11369 5e-3h-0.031q-0.25321 0-0.25321-0.12919z"/>
      <g transform="translate(7.4083 .52917)">
       <path d="m105.27 104.96q0-0.062 0.26871-0.41341l5.1521-6.8781q0.16019-0.20154 0.34106-0.20154 0.21187 0 0.26355 0.27388l1.7363 7.0176q0.031 0.12919 0.031 0.1447 0 0.13952-0.22221 0.13952h-7.3122q-0.25838 0-0.25838-0.0827zm0.86816-0.72347h5.7154l-1.4263-5.7154z"/>
       <path d="m114.11 104.5q0-0.25322 0.15503-0.41341 0.1602-0.1602 0.37207-0.1602 0.36173 0 0.36173 0.3359 0 0.14986-0.10335 0.30489-0.0982 0.15503-0.31006 0.2067 0.1757 0.1447 0.44442 0.1447 0.0103 0 0.0207 0 0.22221 0 0.39274-0.12403 0.1757-0.12919 0.29972-0.39274 0.12403-0.26355 0.18604-0.47025 0.062-0.20671 0.14469-0.5426 0.12919-0.51676 0.24805-0.96635 0.2222-0.9095 0.2222-1.1627 0-0.31523-0.13952-0.49093-0.13953-0.1757-0.37207-0.1757-0.3514 0-0.70796 0.34107-0.3514 0.33589-0.54777 0.98184-0.0413 0.1292-0.0672 0.15503-0.0207 0.0258-0.12403 0.0258-0.16019 0-0.16019-0.10335 0-0.10852 0.10852-0.36173 0.11369-0.25839 0.30489-0.54777 0.1912-0.28939 0.51676-0.50643 0.33073-0.21704 0.69763-0.21704 0.74931 0 1.018 0.7183 0.12919-0.24288 0.39274-0.48059t0.64596-0.23771q0.31522 0 0.61494 0.15503 0.30489 0.14986 0.30489 0.51159 0 0.27389-0.17053 0.41858-0.17053 0.13953-0.34623 0.13953-0.1912 0-0.28422-0.10336-0.0879-0.10852-0.0879-0.23254 0-0.0517 0.0103-0.11885 0.0103-0.0724 0.11368-0.20671 0.10852-0.13953 0.29973-0.18087-0.17053-0.14986-0.46509-0.14986-0.62528 0-0.93534 1.1317-0.24288 1.0284-0.35657 1.4521-0.20153 0.85782-0.20153 1.0645 0 0.37207 0.14469 0.52709 0.14986 0.14987 0.3514 0.14987 0.36173 0 0.70796-0.3359 0.3514-0.34106 0.55294-0.98702 0.0413-0.12919 0.0672-0.14986 0.0258-0.0258 0.12402-0.0258 0.1602 0 0.15503 0.10336 0 0.093-0.10852 0.34623-0.10335 0.24804-0.29455 0.54777-0.18604 0.29455-0.51677 0.51676-0.32556 0.22221-0.70796 0.22221-0.28422 0-0.57878-0.1602-0.28938-0.1602-0.42891-0.56327-0.41341 0.7183-1.0335 0.72347-0.38241 0-0.65629-0.18087-0.27389-0.18087-0.27389-0.47542z"/>
      </g>
      <g transform="translate(18.521 .52917)">
       <path d="m122.76 104.96q0-0.062 0.26871-0.41341l5.1521-6.8781q0.1602-0.20154 0.34106-0.20154 0.21187 0 0.26355 0.27388l1.7363 7.0176q0.031 0.12919 0.031 0.1447 0 0.13952-0.22221 0.13952h-7.3122q-0.25838 0-0.25838-0.0827zm0.86816-0.72347h5.7154l-1.4263-5.7154z"/>
       <path d="m131.93 101.99q0-0.031 0.0413-0.18603 0.0414-0.1602 0.14987-0.40825 0.11368-0.25321 0.25838-0.48058 0.14469-0.22738 0.38757-0.38758 0.24288-0.16536 0.51676-0.16536 0.3514 0 0.57878 0.23254 0.22737 0.23255 0.22737 0.62529 0 0.21187-0.13952 0.56843-0.61495 1.6743-0.61495 2.3203 0 0.81132 0.56844 0.81132 0 0 5e-3 0 0.42375 0 0.73381-0.3204 0.31522-0.32039 0.38757-0.62011l0.77514-3.1109q0.093-0.39274 0.40825-0.39274 0.14986 0 0.2222 0.0879 0.0775 0.0827 0.0775 0.1912 0 0.0207-0.0155 0.0672t-0.0155 0.0775l-1.0387 4.1703q-0.21187 0.83715-0.8785 1.4883-0.66662 0.65112-1.4521 0.65112-0.44442 0-0.72864-0.24804-0.28422-0.24805-0.28422-0.66146 0-0.26355 0.11369-0.42891 0.11886-0.16536 0.22221-0.19637 0.10852-0.031 0.20154-0.031 0.14986 0 0.25321 0.0879 0.10852 0.093 0.10852 0.24805 0 0.1602-0.11885 0.31522-0.11369 0.1602-0.3359 0.19637-0.0827 0.0103-0.0878 0.031 0 0.0413 0.0517 0.13953 0.0568 0.10335 0.21187 0.2067 0.1602 0.10852 0.39274 0.10852 0.48576 0 0.96118-0.51676 0.48059-0.5116 0.75447-1.695-0.39274 0.39274-0.95084 0.39274-0.49609 0-0.84232-0.29456-0.34624-0.29972-0.34624-0.93534 0-0.59428 0.55294-2.0722 0.25321-0.70796 0.25321-0.95601 0-0.30489-0.23254-0.30489-0.63562 0-0.98185 1.3332-0.031 0.11886-0.0672 0.14469-0.031 0.0258-0.12402 0.0258-0.1602-5e-3 -0.1602-0.10852z"/>
      </g>
     </g>
     <g transform="matrix(.95163 0 0 .95163 9.3938 5.1524)" stroke-width=".073914" aria-label="√">
      <path d="m98.427 104.47 2.7398-3.3992 0.1486 4.3743 0.0464 0.92873t0.62225-1.4767l4.848-11.321q0.0743-0.18575 0.13002-0.26004 0.065-0.08359 0.17646-0.1486 0.11145-0.06501 0.32506-0.06501h1.6903q0.61296 0 0.61296 0.38078 0 0.38078-0.57582 0.38078h-1.6346l-6.3154 14.683q-0.13002 0.30648-0.25075 0.39936-0.11145 0.0929-0.39007 0.11144h-0.26933l-0.21361-6.0646-1.421 1.7832z" stroke-width=".073914"/>
     </g>
    </g>
    <path d="m111.61 94.125h49.228" fill="none" stroke="#fff" stroke-linecap="round" stroke-width=".72787"/>
   </g>
  </g>
 </g>
</svg>
