<svg width="200mm" height="140mm" viewBox="0 0 200 140" xmlns="http://www.w3.org/2000/svg"><rect width="100%" height="100%" fill="#1e1e1e"/><defs><marker id="b" overflow="visible" orient="auto"><path d="M-5.231-2.42 1.324-.01-5.23 2.401c1.047-1.423 1.041-3.37 0-4.821z" fill="#c3c3c3" fill-rule="evenodd" stroke="#c3c3c3" stroke-linejoin="round" stroke-width=".375"/></marker><marker id="c" overflow="visible" orient="auto"><path d="m-.184 0-6.92 4v-8z" fill="#ff8a60" fill-rule="evenodd" stroke="#ff8a60" stroke-width=".8pt"/></marker><marker id="d" overflow="visible" orient="auto"><path d="M-5.231-2.42 1.324-.01-5.23 2.401c1.047-1.423 1.041-3.37 0-4.821z" fill="#50ff7f" fill-rule="evenodd" stroke="#50ff7f" stroke-linejoin="round" stroke-width=".375"/></marker><marker id="e" overflow="visible" orient="auto"><path d="m-10 0-4 4L0 0l-14-4z" fill="#fff" fill-rule="evenodd" stroke="#fff" stroke-width=".8pt"/></marker><marker id="f" overflow="visible" orient="auto"><path d="m-10 0-4 4L0 0l-14-4z" fill="#fff" fill-rule="evenodd" stroke="#fff" stroke-width=".8pt"/></marker><clipPath id="a"><path fill="#fff" stroke="#fff" stroke-linecap="round" stroke-width=".165" d="M77.067-57.944h95.445v90.323H77.067z"/></clipPath></defs><g fill="#c3c3c3" stroke-width=".265" aria-label="Force as a vector field"><g transform="translate(-69.231 81.364) scale(1.3641)" clip-path="url(#a)"><path d="M157.77-25.206c.717 7.808-1.061 15.826-5.013 22.598-3.95 6.772-10.055 12.266-17.206 15.483a37.965 37.965 0 0 1-4.823 1.788" fill="none" marker-end="url(#b)" stroke="#c3c3c3" stroke-width=".348"/><path transform="translate(-23.919 -57.941)" d="m159.51 45.546 35.001-6.804" fill="#ff8a60" marker-end="url(#c)" stroke="#ff8a60" stroke-width=".534"/><path transform="translate(-23.919 -57.941)" d="M27.403 82.399c4.4-10.851 12.758-20.046 23.141-25.46s22.706-7.003 34.123-4.4c21.365 7.605 46.32 10.33 64.832.265 13.673-7.708 24.142-20.913 28.528-35.983" fill="none" marker-mid="url(#d)" stroke="#50ff7f" stroke-linecap="round" stroke-width="1.165" style="paint-order:normal"/></g><path transform="translate(-101.86 2.327) scale(1.3641)" d="m150.81 54.523 25.925-23.854" fill="#fff" marker-end="url(#e)" stroke="#fff"/><path d="m142.001 39.002.825-3.242h8.818l-.275 3.242h-.36q.071-.62.078-1.106 0-1.058-.45-1.375-.445-.317-1.763-.317-.663 0-.79.028-.14.028-.218.106-.07.07-.092.134l-.056.268-1.283 7.676q-.028.162-.028.233 0 .246.282.345.282.092 1.177.092h.55l-.078.444q-.592-.043-2.728-.043l-1.382.015q-.993 0-1.36.028l.07-.444h.55q.748 0 1.093-.078.352-.084.43-.19.085-.113.127-.388l1.269-7.564q.042-.345.042-.36 0-.161-.07-.21t-.304-.078q-.084-.014-.634-.014-.36 0-.635.014t-.514.07-.416.099q-.17.035-.338.17-.163.126-.268.197-.099.07-.226.303-.12.232-.176.352-.056.12-.17.458-.105.332-.161.515-.057.176-.17.62z" fill="#fff" aria-label="T"/><path d="M52.487 112.084h-.719v-5.545H49.81v-.639h4.636v.64h-1.959zm5.634 0-.14-.66h-.033q-.347.436-.694.592-.343.153-.859.153-.689 0-1.082-.356-.39-.355-.39-1.01 0-1.405 2.246-1.472l.787-.026v-.287q0-.546-.237-.804-.232-.262-.748-.262-.58 0-1.311.355l-.216-.537q.342-.186.748-.292.41-.106.821-.106.829 0 1.227.368.401.368.401 1.18v3.164zm-1.586-.495q.656 0 1.028-.36.376-.359.376-1.006v-.419l-.702.03q-.837.03-1.21.262-.367.229-.367.715 0 .38.228.58.233.198.647.198zm6.725.495v-2.999q0-.566-.258-.846t-.808-.279q-.728 0-1.066.394t-.338 1.298v2.432h-.702v-4.636h.57l.115.635h.034q.215-.343.604-.529.39-.19.867-.19.838 0 1.26.406.424.402.424 1.29v3.024zm5.938-4.636v.444l-.859.102q.118.148.212.389.093.237.093.537 0 .681-.466 1.087-.465.406-1.277.406-.207 0-.39-.034-.447.237-.447.597 0 .19.156.283.157.089.537.089h.82q.754 0 1.155.317.406.317.406.922 0 .77-.617 1.172-.618.406-1.802.406-.91 0-1.404-.339-.49-.338-.49-.956 0-.422.27-.731t.761-.419q-.177-.08-.3-.25-.118-.169-.118-.393 0-.254.135-.444t.427-.368q-.36-.148-.588-.503-.224-.356-.224-.812 0-.762.457-1.172.457-.414 1.294-.414.364 0 .656.084zm-3.697 5.414q0 .376.317.57.317.195.91.195.884 0 1.307-.266.427-.262.427-.715 0-.376-.233-.524-.233-.144-.875-.144h-.842q-.478 0-.744.228-.267.229-.267.656zm.38-3.93q0 .487.276.737t.765.25q1.028 0 1.028-.999 0-1.045-1.04-1.045-.495 0-.762.267t-.266.79zm6.222 3.237q-1.028 0-1.624-.626-.592-.626-.592-1.739 0-1.12.55-1.78.554-.66 1.484-.66.872 0 1.38.575.507.571.507 1.51v.444h-3.194q.022.816.41 1.24.394.422 1.105.422.748 0 1.48-.313v.626q-.372.161-.706.229-.33.072-.8.072zm-.19-4.217q-.558 0-.893.363-.33.364-.389 1.007h2.424q0-.664-.296-1.015-.296-.355-.846-.355zm6.274 4.132v-2.999q0-.566-.258-.846-.258-.279-.808-.279-.727 0-1.066.394-.338.393-.338 1.298v2.432h-.702v-4.636h.57l.115.635h.034q.216-.343.605-.529.389-.19.867-.19.837 0 1.26.406.423.402.423 1.29v3.024zm3.643-.495q.185 0 .359-.026.173-.03.275-.059v.537q-.115.055-.339.09-.22.037-.397.037-1.345 0-1.345-1.417v-2.757h-.664v-.339l.664-.291.296-.99h.406v1.074h1.345v.546h-1.345v2.728q0 .419.199.643.198.224.545.224zm7.447-5.689h.774l-2.229 6.184h-.71l-2.217-6.184h.762l1.42 4.001q.246.69.39 1.341.152-.685.398-1.366zm3.465 6.269q-1.028 0-1.624-.626-.592-.626-.592-1.739 0-1.12.55-1.78.554-.66 1.484-.66.871 0 1.379.575.508.571.508 1.51v.444h-3.194q.021.816.41 1.24.394.422 1.104.422.75 0 1.48-.313v.626q-.371.161-.706.229-.33.072-.799.072zm-.19-4.217q-.559 0-.893.363-.33.364-.389 1.007h2.424q0-.664-.296-1.015-.297-.355-.846-.355zm4.951 4.217q-1.007 0-1.561-.618-.55-.622-.55-1.755 0-1.163.559-1.798.562-.634 1.598-.634.334 0 .668.072.335.072.525.17l-.216.595q-.232-.093-.507-.152-.275-.063-.487-.063-1.412 0-1.412 1.801 0 .855.342 1.312.347.456 1.024.456.58 0 1.188-.25v.623q-.465.24-1.171.24zm3.765-.58q.186 0 .36-.026.173-.03.274-.059v.537q-.114.055-.338.09-.22.037-.398.037-1.345 0-1.345-1.417v-2.757h-.664v-.339l.664-.291.296-.99h.406v1.074h1.345v.546h-1.345v2.728q0 .419.199.643t.546.224zm5.565-1.827q0 1.133-.57 1.772-.572.634-1.578.634-.622 0-1.104-.292-.482-.291-.745-.837t-.262-1.277q0-1.134.567-1.764.567-.634 1.573-.634.973 0 1.544.647.575.647.575 1.75zm-3.532 0q0 .888.356 1.353.355.465 1.044.465t1.045-.46q.36-.466.36-1.358 0-.884-.36-1.341-.355-.461-1.053-.461-.69 0-1.04.453-.352.452-.352 1.349zm6.874-2.398q.309 0 .554.05l-.097.652q-.288-.064-.508-.064-.562 0-.964.457-.397.457-.397 1.138v2.487h-.703v-4.636h.58l.08.859h.034q.258-.453.622-.698t.8-.245z" aria-label="Tangent Vector"/><path d="M144.84-11.592h6.402" fill="#fff" marker-end="url(#f)" stroke="#fff" stroke-width=".165" transform="translate(-54.368 50.24) scale(1.3641)"/><path d="M164.24-1.661h6.402" fill="#fff" marker-end="url(#f)" stroke="#fff" stroke-width=".165" transform="translate(-54.368 50.24) scale(1.3641)"/><path d="m167.509 60.185.078-.49h.35q.892 0 1.11-.131.225-.14.287-.575l1.414-8.459q.031-.14.031-.225 0-.256-.233-.35-.225-.093-.97-.093h-.35l.077-.497h8.73l-.139 3.58h-.396q.015-.193.015-.698 0-1.336-.512-1.857-.505-.528-2.066-.528h-1.849q-.544 0-.691.101-.148.101-.21.505l-.668 4.055h1.336q1.064 0 1.445-.373t.575-1.491h.396l-.7 4.217h-.396q.094-.575.094-.846 0-.59-.35-.8-.35-.218-1.165-.218h-1.336l-.637 3.837q-.046.256-.046.365 0 .272.271.38.272.102 1.181.102h.505l-.078.49q-.606-.047-2.687-.047-1.857 0-2.416.046z" fill="#fff" aria-label="F"/></g></svg>