<?xml version="1.0" encoding="UTF-8"?>
<svg width="160mm" height="72mm" version="1.1" viewBox="0 0 160 72" xmlns="http://www.w3.org/2000/svg">
<rect width="100%" height="100%" fill="#1E1E1E"/>
 <defs>
  <marker id="marker2138" overflow="visible" orient="auto">
   <path transform="scale(-.6)" d="m8.7186 4.0337-10.926-4.0177 10.926-4.0177c-1.7455 2.3721-1.7354 5.6175-6e-7 8.0354z" fill="#fff" fill-rule="evenodd" stroke="#fff" stroke-linejoin="round" stroke-width=".625"/>
  </marker>
 </defs>
 <g transform="translate(-12.756 -43.897)">
  <g fill="#212121" stroke="#212121" stroke-linejoin="round" stroke-width=".87">
   <rect x="122.65" y="63.689" width="8.5045" height="11.906" style="paint-order:markers fill stroke"/>
   <rect x="112.07" y="63.689" width="8.5045" height="11.906" style="paint-order:markers fill stroke"/>
   <rect x="101.49" y="63.689" width="8.5045" height="11.906" style="paint-order:markers fill stroke"/>
   <rect x="90.903" y="63.689" width="8.5045" height="11.906" style="paint-order:markers fill stroke"/>
   <rect x="80.32" y="63.689" width="8.5045" height="11.906" style="paint-order:markers fill stroke"/>
   <rect x="69.737" y="63.689" width="8.5045" height="11.906" style="paint-order:markers fill stroke"/>
   <rect x="59.153" y="63.689" width="8.5045" height="11.906" style="paint-order:markers fill stroke"/>
   <rect x="48.57" y="63.689" width="8.5045" height="11.906" style="paint-order:markers fill stroke"/>
  </g>
  <path d="m42.144 82.966h104.16" fill="none" marker-end="url(#marker2138)" stroke="#fff" stroke-width=".9891"/>
  <g transform="matrix(1.5911 0 0 1.5911 -21.023 -55.204)" fill="#fff" stroke-width=".26458" aria-label="x">
   <path d="m101.29 94.702q0-0.22221 0.13953-0.39274 0.14469-0.17053 0.3669-0.17053 0.16019 0 0.25838 0.10335 0.0982 0.09819 0.0982 0.24805 0 0.36173-0.40824 0.49609 0.23255 0.13436 0.44959 0.13436 0.0103 0 0.0155 0 0.17053 0 0.31006-0.07235 0.14469-0.07235 0.25838-0.24288 0.11885-0.17053 0.19637-0.33073 0.0827-0.16536 0.17053-0.47542 0.0879-0.31522 0.13952-0.5271 0.0568-0.21187 0.14987-0.62012 0.0982-0.40824 0.14986-0.64079 0.12919-0.56327 0.12919-0.7183 0-0.30489-0.1447-0.49092-0.14469-0.18604-0.37723-0.18604-0.36174 0-0.69246 0.34623-0.33073 0.34106-0.52193 0.8785-0.0103 0.02067-0.0207 0.06718-0.0103 0.04134-0.0258 0.05684-0.0103 0.0155-0.0258 0.05168-0.0155 0.03617-0.0362 0.05684-0.0207 0.0155-0.0465 0.02584-0.0258 0.01033-0.0672 0.01033-0.14986 0-0.14986-0.13953 0-0.17053 0.1757-0.5271 0.17569-0.36173 0.56843-0.71313 0.39791-0.35657 0.87333-0.35657h0.0103q0.70796 0.01034 1.018 0.72864 0.40308-0.72864 1.0387-0.72864 0.32556 0 0.61495 0.17053 0.29456 0.16536 0.29456 0.49609 0 0.24288-0.1602 0.40308-0.1602 0.15503-0.36173 0.15503-0.14987 0-0.24805-0.09302-0.0982-0.09819-0.0982-0.24288 0-0.1602 0.10336-0.29972 0.10852-0.14469 0.29972-0.19637-0.20154-0.14986-0.45475-0.14986-0.13953 0-0.27905 0.05684-0.13436 0.05684-0.34107 0.35657-0.2067 0.29456-0.33589 0.80098-0.093 0.37207-0.18604 0.75447-0.0879 0.3824-0.13436 0.56844-0.0465 0.18087-0.10335 0.3824-0.0517 0.20154-0.0672 0.28939-0.0155 0.08268-0.031 0.18087-0.0155 0.09302-0.0207 0.13953-5e-3 0.04651-5e-3 0.11886 0 0.28422 0.13436 0.47025 0.13952 0.18603 0.3824 0.18603 0.36174 0 0.69763-0.34106 0.34106-0.34623 0.52193-0.88366 0.0103-0.02067 0.0258-0.06201 0.0155-0.04651 0.0207-0.06718 5e-3 -0.02067 0.0207-0.05168 0.0155-0.03101 0.0362-0.04651t0.0465-0.02584q0.031-0.01034 0.0724-0.01034 0.14986 0 0.14469 0.13436 0 0.17053-0.1757 0.53227-0.17053 0.35657-0.5736 0.71313-0.40308 0.35657-0.86816 0.35657-0.29456 0-0.58395-0.16536-0.28422-0.16536-0.43408-0.5581-0.13952 0.20154-0.23771 0.32556-0.0982 0.11886-0.32556 0.25838-0.22737 0.13953-0.48059 0.13953-0.3514 0-0.63045-0.1757t-0.27905-0.49092z" fill="#fff" stroke-width=".26458"/>
  </g>
  <g fill="none" stroke="#fff" stroke-width=".87">
   <path d="m42.522 78.959v8.1265"/>
   <path d="m42.522 78.959v8.1265"/>
   <path d="m53.106 78.959v8.1265"/>
   <path d="m63.689 78.959v8.1265"/>
   <path d="m74.272 78.959v8.1265"/>
   <path d="m84.856 78.959v8.1265"/>
   <path d="m95.439 78.959v8.1265"/>
   <path d="m106.02 78.959v8.1265"/>
   <path d="m116.61 78.959v8.1265"/>
   <path d="m127.19 78.959v8.1265"/>
  </g>
  <g stroke-width=".22145">
   <g aria-label="1">
    <path d="m41.168 90.33v-0.27681q1.064 0 1.6133-0.5666 0.15138 0 0.17733 0.0346 0.02595 0.0346 0.02595 0.19463v4.9696q0 0.26384 0.12976 0.34602 0.12976 0.08218 0.69636 0.08218h0.28114v0.27249q-0.31141-0.02595-1.436-0.02595t-1.4316 0.02595v-0.27249h0.28114q0.55795 0 0.69203-0.07785 0.13408-0.08218 0.13408-0.35034v-4.589q-0.4628 0.23356-1.1635 0.23356z" fill="#fff" stroke-width=".22145"/>
   </g>
   <g aria-label="2">
    <path d="m51.405 95.386q0-0.16003 0.01298-0.20761 0.0173-0.04758 0.0865-0.12111l1.6998-1.8944q0.92992-1.0467 0.92992-1.9593 0-0.59255-0.31141-1.0164-0.30709-0.42387-0.87369-0.42387-0.38927 0-0.71798 0.23789-0.32872 0.23788-0.4801 0.66175 0.02595-0.0086 0.11678-0.0086 0.22058 0 0.34169 0.13841 0.12543 0.1384 0.12543 0.32439 0 0.23789-0.15571 0.35467-0.15138 0.11245-0.30276 0.11245-0.06055 0-0.14273-0.01297-0.07785-0.01298-0.20328-0.13408-0.12543-0.12543-0.12543-0.34602 0-0.6185 0.46712-1.1116 0.47144-0.49307 1.1894-0.49307 0.81314 0 1.3451 0.48442 0.53632 0.4801 0.53632 1.2327 0 0.26384-0.08218 0.50605-0.07785 0.23788-0.18598 0.42387-0.1038 0.18598-0.38927 0.48442-0.28546 0.29844-0.5147 0.51037-0.22924 0.21193-0.74393 0.66175l-0.93857 0.91261h1.596q0.77853 0 0.83909-0.0692 0.0865-0.12543 0.19463-0.78718h0.22491l-0.25086 1.5398z" fill="#fff" stroke-width=".22145"/>
   </g>
   <g aria-label="3">
    <path d="m61.92 94.192q0-0.26384 0.15138-0.38927 0.15138-0.12543 0.34602-0.12543 0.20328 0 0.34602 0.13408 0.14706 0.12976 0.14706 0.35899 0 0.24654-0.17301 0.38494-0.16868 0.13841-0.41089 0.1038 0.21194 0.35467 0.6012 0.5147 0.39359 0.16003 0.75691 0.16003 0.38062 0 0.6877-0.32871 0.31141-0.32871 0.31141-1.1332 0-0.68338-0.26816-1.077-0.26384-0.39359-0.78718-0.39359h-0.38927q-0.13408 0-0.17301-0.01298-0.03893-0.01298-0.03893-0.0865 0-0.0865 0.13408-0.1038 0.13408 0 0.34602-0.02595 0.5147-0.0173 0.78718-0.4628 0.24654-0.41522 0.24654-1.0078 0-0.54065-0.25951-0.76556-0.25519-0.22924-0.58822-0.22924-0.31141 0-0.6531 0.12976-0.34169 0.12976-0.52767 0.41954 0.5493 0 0.5493 0.44549 0 0.19463-0.12543 0.32439-0.12111 0.12543-0.32439 0.12543-0.19463 0-0.32439-0.1211-0.12976-0.12543-0.12976-0.33736 0-0.50605 0.44982-0.85639 0.45414-0.35034 1.1202-0.35034 0.65743 0 1.1418 0.34601 0.48875 0.34602 0.48875 0.87801 0 0.52335-0.34601 0.95154-0.34602 0.42819-0.89531 0.60553 0.67473 0.13408 1.077 0.59255 0.40224 0.45414 0.40224 1.0121 0 0.69203-0.54497 1.2024-0.54497 0.50605-1.3408 0.50605-0.73528 0-1.263-0.39792-0.52767-0.39792-0.52767-0.99047z" fill="#fff" stroke-width=".22145"/>
   </g>
   <g aria-label="4">
    <path d="m72.377 93.924v-0.27249l2.7205-4.1565q0.0692-0.10813 0.17733-0.1038 0.09948 0 0.1211 0.03893 0.02163 0.03893 0.02163 0.19031v4.0311h0.88666v0.27249h-0.88666v0.76988q0 0.25519 0.1038 0.33736 0.10813 0.08218 0.5666 0.08218h0.18598v0.27249q-0.36332-0.02595-1.2024-0.02595-0.83476 0-1.1981 0.02595v-0.27249h0.18598q0.45847 0 0.5666-0.07785 0.10813-0.08218 0.10813-0.34169v-0.76988zm0.25086-0.27249h2.1583v-3.3044z" fill="#fff" stroke-width=".22145"/>
   </g>
   <g aria-label="5">
    <path d="m83.155 93.959q0-0.26384 0.14273-0.36332 0.14273-0.1038 0.29411-0.1038 0.20328 0 0.32006 0.12976 0.1211 0.12543 0.1211 0.30276 0 0.17733-0.1211 0.30709-0.11678 0.12543-0.32006 0.12543-0.09948 0-0.15138-0.0173 0.11678 0.40657 0.47144 0.70068 0.35899 0.29411 0.83044 0.29411 0.59255 0 0.94722-0.57525 0.21193-0.37197 0.21193-1.2154 0-0.74393-0.16003-1.1159-0.24654-0.5666-0.75258-0.5666-0.71798 0-1.1418 0.6185-0.0519 0.07785-0.11246 0.08218-0.0865 0-0.10813-0.04758-0.0173-0.0519-0.0173-0.18598v-2.6211q0-0.21193 0.0865-0.21193 0.0346 0 0.10813 0.02595 0.55795 0.24654 1.1765 0.25086 0.6358 0 1.2067-0.25951 0.04325-0.02595 0.0692-0.02595 0.0865 0 0.09083 0.09948 0 0.0346-0.07353 0.13841-0.0692 0.09948-0.22058 0.23356-0.15138 0.12976-0.34602 0.25519-0.19463 0.12543-0.4801 0.21193-0.28114 0.08218-0.59255 0.08218-0.37197 0-0.75258-0.11678v1.7257q0.45847-0.44982 1.1245-0.44982 0.70933 0 1.1981 0.57092 0.48875 0.57092 0.48875 1.3668 0 0.83476-0.57958 1.4057-0.57525 0.57092-1.3538 0.57092-0.70933 0-1.1591-0.50605-0.4455-0.50605-0.4455-1.1159z" fill="#fff" stroke-width=".22145"/>
   </g>
   <g aria-label="6">
    <path d="m93.67 92.588q0-1.3927 0.70933-2.2448 0.70933-0.85639 1.6219-0.85639 0.532 0 0.82611 0.27249 0.29844 0.26816 0.29844 0.68338 0 0.22923-0.13408 0.32871t-0.27249 0.09948q-0.16003 0-0.28546-0.10813-0.12543-0.10813-0.12543-0.30276 0-0.39792 0.48875-0.39792-0.22924-0.35466-0.77853-0.35466-0.16868 0-0.34169 0.0519-0.17301 0.04758-0.39792 0.21193-0.22491 0.16436-0.39792 0.42387-0.17301 0.25951-0.29411 0.74826-0.1211 0.48875-0.1211 1.1245v0.21193q0.36332-0.87801 1.1072-0.87369 0.74393 0 1.2586 0.5666 0.5147 0.5666 0.5147 1.4057 0 0.86071-0.53632 1.4316-0.53632 0.57092-1.2889 0.57092-0.33736 0-0.64445-0.14273-0.30276-0.13841-0.58822-0.45847-0.28114-0.32006-0.44982-0.93424t-0.16868-1.4576zm0.81314 0.79584q0 0.86936 0.16003 1.2846 0.02595 0.0692 0.08218 0.16436 0.06055 0.09515 0.16003 0.22058 0.1038 0.1211 0.27249 0.20328 0.16868 0.07785 0.36332 0.07785 0.59255 0 0.87801-0.57525 0.15138-0.32006 0.15138-1.1894 0-0.88666-0.16003-1.2111-0.27249-0.5493-0.82611-0.5493-0.37197 0-0.63148 0.25519-0.25519 0.25519-0.35466 0.59688-0.09515 0.34169-0.09515 0.72231z" fill="#fff" stroke-width=".22145"/>
   </g>
   <g aria-label="7">
    <path d="m104.38 91.221 0.28979-1.8209h0.22059q0.0259 0.10813 0.0692 0.15571 0.0476 0.04758 0.29844 0.0865 0.25518 0.03893 0.76988 0.03893h2.1496q0 0.20328-0.0779 0.31141l-1.1981 1.6825q-0.38062 0.532-0.5493 1.5138-0.0995 0.65743-0.0952 1.4533v0.44982q0 0.48875-0.41089 0.48875-0.40657 0-0.40657-0.48875 0-1.6911 1.09-3.3304 0.11678-0.16868 0.54497-0.76988 0.43252-0.6012 0.44982-0.62715h-1.8339q-0.80449 0-0.86937 0.0519-0.0865 0.07785-0.22058 0.80448z" fill="#fff" stroke-width=".22145"/>
   </g>
   <g aria-label="8">
    <path d="m114.84 94.05q0-0.99047 1.2759-1.6306-0.5493-0.37197-0.64878-0.4801-0.38926-0.43252-0.38926-0.97317 0-0.6185 0.46712-1.0467 0.47144-0.43252 1.1375-0.43252 0.6358 0 1.1159 0.36764 0.48009 0.36764 0.48009 0.95154 0 0.82178-1.0726 1.3754 0.70933 0.44117 0.87801 0.62715 0.43252 0.4801 0.43252 1.0899 0 0.70933-0.54497 1.1981-0.54498 0.48442-1.2976 0.48442-0.73528 0-1.2846-0.42819-0.5493-0.42819-0.5493-1.1029zm0.44117 0q0 0.5493 0.41089 0.91694 0.41522 0.36764 0.99047 0.36764 0.55795 0 0.97317-0.32006 0.41954-0.32006 0.41954-0.79584 0-0.18598-0.0649-0.34601-0.0606-0.16003-0.18598-0.28546-0.12111-0.12976-0.19896-0.18598-0.0735-0.06055-0.21626-0.16003l-1.0899-0.6877q-1.038 0.57525-1.038 1.4965zm0.18598-3.4299q0 0.42387 0.4455 0.71798l1.0986 0.70933q0.87801-0.5147 0.87801-1.2413 0-0.47144-0.35899-0.78286-0.35899-0.31574-0.85639-0.31574-0.48875 0-0.84774 0.25951-0.35899 0.25519-0.35899 0.6531z" fill="#fff" stroke-width=".22145"/>
   </g>
   <g aria-label="9">
    <path d="m125.42 91.48q0-0.47144 0.13841-0.79151 0.1384-0.32439 0.42819-0.64445 0.532-0.55795 1.3019-0.55795 0.32872 0 0.6185 0.1384 0.29412 0.13841 0.57093 0.45414 0.28114 0.31141 0.44982 0.92992 0.16868 0.61418 0.16868 1.4619 0 1.3711-0.66608 2.2404-0.66175 0.86936-1.5571 0.86936-0.5666 0-0.89964-0.25519-0.33304-0.25951-0.33304-0.70068 0-0.22924 0.12975-0.32439 0.12976-0.09948 0.27681-0.09948 0.16004 0 0.28547 0.10813 0.12543 0.1038 0.12543 0.29844 0 0.16003-0.10381 0.28546-0.0995 0.12111-0.35899 0.12111 0.25519 0.32006 0.86936 0.32006 0.22059 0 0.44117-0.09948 0.22059-0.1038 0.45847-0.35034 0.24221-0.25086 0.38927-0.77421 0.14706-0.52335 0.14706-1.2586v-0.28114q-0.35467 0.88666-1.1072 0.88666-0.74393 0-1.2586-0.57092-0.5147-0.57092-0.5147-1.4057zm0.79584 0.0086q0 0.87801 0.16003 1.2024 0.27249 0.55795 0.82611 0.55795 0.54065 0 0.80881-0.4801 0.27249-0.48442 0.27249-1.1116 0-0.86936-0.14274-1.25-0.26383-0.70068-0.85206-0.70068-0.5839 0-0.88666 0.55795-0.18598 0.32871-0.18598 1.224z" fill="#fff" stroke-width=".22145"/>
   </g>
  </g>
  <rect x="37.987" y="63.689" width="8.5045" height="11.906" fill="#212121" stroke="#212121" stroke-linejoin="round" stroke-width=".87" style="paint-order:markers fill stroke"/>
  <g fill="#fff" stroke-width=".22145">
   <g aria-label="1">
    <path d="m41.074 67.964v-0.22049q0.8475 0 1.285-0.45131 0.12058 0 0.14125 0.02756 0.02067 0.02756 0.02067 0.15503v3.9584q0 0.21015 0.10335 0.27561 0.10335 0.06546 0.55466 0.06546h0.22393v0.21704q-0.24805-0.02067-1.1438-0.02067t-1.1403 0.02067v-0.21704h0.22393q0.44442 0 0.55122-0.06201 0.1068-0.06546 0.1068-0.27905v-3.6552q-0.36863 0.18604-0.92673 0.18604z" fill="#fff" stroke-width=".22145"/>
   </g>
   <g aria-label="4">
    <path d="m51.258 70.865v-0.21704l2.167-3.3107q0.05512-0.08613 0.14125-0.08268 0.07924 0 0.09646 0.031 0.01723 0.03101 0.01723 0.15158v3.2108h0.70624v0.21704h-0.70624v0.61323q0 0.20326 0.08268 0.26872 0.08613 0.06546 0.45131 0.06546h0.14814v0.21704q-0.28939-0.02067-0.95774-0.02067-0.6649 0-0.95429 0.02067v-0.21704h0.14814q0.36518 0 0.45131-0.06201 0.08613-0.06546 0.08613-0.27216v-0.61323zm0.19982-0.21704h1.7191v-2.6321z" fill="#fff" stroke-width=".22145"/>
   </g>
   <g aria-label="9">
    <path d="m61.941 68.803q0-0.37552 0.11024-0.63045 0.11024-0.25838 0.34106-0.51332 0.42375-0.44442 1.037-0.44442 0.26183 0 0.49265 0.11024 0.23427 0.11024 0.45475 0.36174 0.22393 0.24805 0.35829 0.7407 0.13436 0.4892 0.13436 1.1644 0 1.0921-0.53054 1.7846-0.5271 0.69246-1.2402 0.69246-0.45131 0-0.71658-0.20326-0.26527-0.20671-0.26527-0.55811 0-0.18259 0.10335-0.25838 0.10335-0.07924 0.22049-0.07924 0.12747 0 0.22738 0.08613 0.09991 0.08268 0.09991 0.23771 0 0.12747-0.08268 0.22738-0.07924 0.09646-0.28594 0.09646 0.20326 0.25494 0.69246 0.25494 0.1757 0 0.3514-0.07924 0.1757-0.08268 0.36518-0.27905 0.19292-0.19982 0.31006-0.61667 0.11713-0.41686 0.11713-1.0025v-0.22393q-0.2825 0.70624-0.88194 0.70624-0.59256 0-1.0025-0.45475-0.40997-0.45475-0.40997-1.1197zm0.6339 0.0069q0 0.69936 0.12747 0.95774 0.21704 0.44442 0.65801 0.44442 0.43064 0 0.64423-0.38241 0.21704-0.38585 0.21704-0.88539 0-0.69246-0.11369-0.99563-0.21015-0.55811-0.67868-0.55811-0.46509 0-0.70624 0.44442-0.14814 0.26183-0.14814 0.97496z" fill="#fff" stroke-width=".22145"/>
   </g>
   <g aria-label="16">
    <path d="m70.926 67.887v-0.22049q0.84749 0 1.285-0.45131 0.12058 0 0.14125 0.02756 0.02067 0.02756 0.02067 0.15503v3.9584q0 0.21015 0.10335 0.27561 0.10335 0.06546 0.55466 0.06546h0.22393v0.21704q-0.24805-0.02067-1.1438-0.02067t-1.1403 0.02067v-0.21704h0.22393q0.44442 0 0.55122-0.06201 0.1068-0.06546 0.1068-0.27905v-3.6553q-0.36863 0.18604-0.92673 0.18604z"/>
    <path d="m74.123 69.685q0-1.1093 0.565-1.788 0.565-0.68213 1.2919-0.68213 0.42375 0 0.65801 0.21704 0.23771 0.2136 0.23771 0.54432 0 0.18259-0.1068 0.26183-0.1068 0.07924-0.21704 0.07924-0.12747 0-0.22738-0.08613-0.09991-0.08613-0.09991-0.24116 0-0.31695 0.3893-0.31695-0.18259-0.2825-0.62012-0.2825-0.13436 0-0.27216 0.04134-0.1378 0.0379-0.31695 0.16881-0.17914 0.13091-0.31695 0.33762t-0.23427 0.596q-0.09646 0.3893-0.09646 0.89573v0.16881q0.28939-0.69935 0.88194-0.69591 0.59256 0 1.0025 0.45131 0.40997 0.45131 0.40997 1.1197 0 0.68558-0.42719 1.1403-0.42719 0.45475-1.0266 0.45475-0.26872 0-0.51332-0.11369-0.24116-0.11024-0.46853-0.36518-0.22393-0.25494-0.35829-0.74414t-0.13436-1.161zm0.64768 0.6339q0 0.69246 0.12747 1.0232 0.02067 0.05512 0.06546 0.13091 0.04823 0.07579 0.12747 0.1757 0.08268 0.09646 0.21704 0.16192 0.13436 0.06201 0.28939 0.06201 0.47198 0 0.69936-0.4582 0.12058-0.25494 0.12058-0.9474 0-0.70624-0.12747-0.96463-0.21704-0.43753-0.65801-0.43753-0.29628 0-0.50298 0.20326-0.20326 0.20326-0.2825 0.47542-0.07579 0.27216-0.07579 0.57533z"/>
   </g>
   <g aria-label="25">
    <path d="m81.399 71.914q0-0.12747 0.01034-0.16536 0.01378-0.0379 0.0689-0.09646l1.3539-1.509q0.7407-0.83371 0.7407-1.5606 0-0.47198-0.24805-0.8096-0.2446-0.33762-0.69591-0.33762-0.31006 0-0.57189 0.18948-0.26183 0.18948-0.38241 0.5271 0.02067-0.0069 0.09302-0.0069 0.1757 0 0.27216 0.11024 0.09991 0.11024 0.09991 0.25838 0 0.18948-0.12402 0.2825-0.12058 0.08957-0.24116 0.08957-0.04823 0-0.11369-0.01033-0.06201-0.01033-0.16192-0.1068-0.09991-0.09991-0.09991-0.27561 0-0.49265 0.37207-0.88539 0.37552-0.39274 0.9474-0.39274 0.64768 0 1.0714 0.38585 0.42719 0.38241 0.42719 0.98185 0 0.21015-0.06546 0.40308-0.06201 0.18948-0.14814 0.33762-0.08268 0.14814-0.31006 0.38585-0.22738 0.23771-0.40997 0.40652t-0.59256 0.5271l-0.74759 0.72692h1.2712q0.62012 0 0.66835-0.05512 0.0689-0.09991 0.15503-0.62701h0.17914l-0.19982 1.2265z"/>
    <path d="m84.927 70.777q0-0.21015 0.11369-0.28939 0.11369-0.08268 0.23427-0.08268 0.16192 0 0.25494 0.10335 0.09646 0.09991 0.09646 0.24116 0 0.14125-0.09646 0.2446-0.09302 0.09991-0.25494 0.09991-0.07924 0-0.12058-0.01378 0.09302 0.32384 0.37552 0.55811 0.28594 0.23427 0.66146 0.23427 0.47198 0 0.75448-0.4582 0.16881-0.29628 0.16881-0.96807 0-0.59256-0.12747-0.88884-0.19637-0.45131-0.59945-0.45131-0.57189 0-0.90951 0.49265-0.04134 0.06201-0.08957 0.06546-0.0689 0-0.08613-0.0379-0.01378-0.04134-0.01378-0.14814v-2.0877q0-0.16881 0.0689-0.16881 0.02756 0 0.08613 0.02067 0.44442 0.19637 0.93707 0.19982 0.50643 0 0.96118-0.20671 0.03445-0.02067 0.05512-0.02067 0.0689 0 0.07235 0.07924 0 0.02756-0.05857 0.11024-0.05512 0.07924-0.1757 0.18604-0.12058 0.10335-0.27561 0.20326-0.15503 0.09991-0.38241 0.16881-0.22393 0.06546-0.47198 0.06546-0.29628 0-0.59945-0.09302v1.3746q0.36518-0.35829 0.89572-0.35829 0.565 0 0.95429 0.45475t0.3893 1.0887q0 0.6649-0.46164 1.1197-0.4582 0.45475-1.0783 0.45475-0.565 0-0.92329-0.40308-0.35484-0.40308-0.35484-0.88884z"/>
   </g>
   <g aria-label="36">
    <path d="m91.927 70.963q0-0.21015 0.12058-0.31006 0.12058-0.09991 0.27561-0.09991 0.16192 0 0.27561 0.1068 0.11713 0.10335 0.11713 0.28594 0 0.19637-0.1378 0.30661-0.13436 0.11024-0.32728 0.08268 0.16881 0.2825 0.47887 0.40997 0.3135 0.12747 0.60289 0.12747 0.30317 0 0.54777-0.26183 0.24805-0.26183 0.24805-0.90262 0-0.54433-0.2136-0.85783-0.21015-0.3135-0.62701-0.3135h-0.31006q-0.1068 0-0.1378-0.01034-0.03101-0.01033-0.03101-0.0689 0-0.0689 0.1068-0.08268 0.1068 0 0.27561-0.02067 0.40997-0.01378 0.62701-0.36862 0.19637-0.33073 0.19637-0.80271 0-0.43064-0.20671-0.60978-0.20326-0.18259-0.46853-0.18259-0.24805 0-0.52021 0.10335-0.27216 0.10335-0.4203 0.33417 0.43753 0 0.43753 0.35484 0 0.15503-0.09991 0.25838-0.09646 0.09991-0.25838 0.09991-0.15503 0-0.25838-0.09646-0.10335-0.09991-0.10335-0.26872 0-0.40308 0.35829-0.68213 0.36174-0.27905 0.89228-0.27905 0.52366 0 0.90951 0.27561 0.3893 0.27561 0.3893 0.69935 0 0.41686-0.27561 0.75792t-0.71314 0.48231q0.53744 0.1068 0.85783 0.47198 0.32039 0.36174 0.32039 0.80615 0 0.55122-0.43408 0.95774-0.43408 0.40308-1.068 0.40308-0.58567 0-1.006-0.31695t-0.4203-0.78893z"/>
    <path d="m95.455 69.685q0-1.1093 0.565-1.788 0.565-0.68213 1.2919-0.68213 0.42375 0 0.65801 0.21704 0.23771 0.2136 0.23771 0.54432 0 0.18259-0.1068 0.26183-0.1068 0.07924-0.21704 0.07924-0.12747 0-0.22738-0.08613-0.09991-0.08613-0.09991-0.24116 0-0.31695 0.3893-0.31695-0.18259-0.2825-0.62012-0.2825-0.13436 0-0.27216 0.04134-0.1378 0.0379-0.31695 0.16881-0.17914 0.13091-0.31695 0.33762t-0.23427 0.596q-0.09646 0.3893-0.09646 0.89573v0.16881q0.28939-0.69935 0.88194-0.69591 0.59256 0 1.0025 0.45131 0.40997 0.45131 0.40997 1.1197 0 0.68558-0.42719 1.1403-0.42719 0.45475-1.0266 0.45475-0.26872 0-0.51332-0.11369-0.24116-0.11024-0.46853-0.36518-0.22393-0.25494-0.35829-0.74414t-0.13436-1.161zm0.64768 0.6339q0 0.69246 0.12747 1.0232 0.02067 0.05512 0.06546 0.13091 0.04823 0.07579 0.12747 0.1757 0.08268 0.09646 0.21704 0.16192 0.13436 0.06201 0.28939 0.06201 0.47198 0 0.69936-0.4582 0.12058-0.25494 0.12058-0.9474 0-0.70624-0.12747-0.96463-0.21704-0.43753-0.65801-0.43753-0.29628 0-0.50298 0.20326-0.20326 0.20326-0.2825 0.47542-0.07579 0.27216-0.07579 0.57533z"/>
   </g>
   <g aria-label="49">
    <path d="m102.46 70.788v-0.21704l2.167-3.3107q0.0551-0.08613 0.14125-0.08268 0.0792 0 0.0965 0.03101 0.0172 0.03101 0.0172 0.15158v3.2108h0.70625v0.21704h-0.70625v0.61323q0 0.20326 0.0827 0.26872 0.0861 0.06546 0.45131 0.06546h0.14814v0.21704q-0.28939-0.02067-0.95774-0.02067-0.6649 0-0.95429 0.02067v-0.21704h0.14814q0.36518 0 0.45131-0.06201 0.0861-0.06546 0.0861-0.27216v-0.61323zm0.19981-0.21704h1.7191v-2.6321z"/>
    <path d="m106.09 68.841q0-0.37552 0.11024-0.63045 0.11024-0.25838 0.34106-0.51332 0.42375-0.44442 1.037-0.44442 0.26183 0 0.49265 0.11024 0.23426 0.11024 0.45475 0.36174 0.22393 0.24805 0.35829 0.7407 0.13436 0.4892 0.13436 1.1644 0 1.0921-0.53055 1.7846-0.5271 0.69246-1.2402 0.69246-0.45131 0-0.71658-0.20326-0.26527-0.20671-0.26527-0.55811 0-0.18259 0.10335-0.25838 0.10335-0.07924 0.22049-0.07924 0.12746 0 0.22737 0.08613 0.0999 0.08268 0.0999 0.23771 0 0.12747-0.0827 0.22738-0.0792 0.09646-0.28595 0.09646 0.20326 0.25494 0.69247 0.25494 0.1757 0 0.3514-0.07924 0.1757-0.08268 0.36518-0.27905 0.19292-0.19982 0.31006-0.61667 0.11713-0.41686 0.11713-1.0025v-0.22393q-0.2825 0.70624-0.88194 0.70624-0.59256 0-1.0025-0.45475-0.40996-0.45475-0.40996-1.1197zm0.63389 0.0069q0 0.69936 0.12747 0.95774 0.21704 0.44442 0.65802 0.44442 0.43063 0 0.64423-0.38241 0.21704-0.38585 0.21704-0.88539 0-0.69246-0.11369-0.99563-0.21015-0.55811-0.67868-0.55811-0.46509 0-0.70625 0.44442-0.14814 0.26183-0.14814 0.97496z"/>
   </g>
   <g aria-label="64">
    <path d="m113.04 69.723q0-1.1093 0.56499-1.788 0.565-0.68213 1.2919-0.68213 0.42374 0 0.65801 0.21704 0.23771 0.2136 0.23771 0.54433 0 0.18259-0.1068 0.26183-0.1068 0.07924-0.21704 0.07924-0.12747 0-0.22738-0.08613-0.0999-0.08613-0.0999-0.24116 0-0.31695 0.38929-0.31695-0.18259-0.2825-0.62011-0.2825-0.13436 0-0.27217 0.04134-0.1378 0.0379-0.31695 0.16881-0.17914 0.13091-0.31695 0.33762-0.1378 0.2067-0.23426 0.596-0.0965 0.3893-0.0965 0.89573v0.16881q0.28938-0.69936 0.88194-0.69591 0.59256 0 1.0025 0.45131 0.40997 0.45131 0.40997 1.1197 0 0.68558-0.42719 1.1403t-1.0266 0.45475q-0.26872 0-0.51332-0.11369-0.24116-0.11024-0.46853-0.36518-0.22393-0.25494-0.35829-0.74414t-0.13436-1.161zm0.64768 0.6339q0 0.69246 0.12746 1.0232 0.0207 0.05512 0.0655 0.13091 0.0482 0.07579 0.12747 0.1757 0.0827 0.09646 0.21704 0.16192 0.13436 0.06201 0.28939 0.06201 0.47198 0 0.69935-0.4582 0.12058-0.25494 0.12058-0.9474 0-0.70624-0.12747-0.96463-0.21704-0.43753-0.65801-0.43753-0.29628 0-0.50298 0.20326-0.20326 0.20326-0.2825 0.47542-0.0758 0.27216-0.0758 0.57533z"/>
    <path d="m116.47 70.788v-0.21704l2.167-3.3107q0.0551-0.08613 0.14125-0.08268 0.0792 0 0.0965 0.03101 0.0172 0.03101 0.0172 0.15158v3.2108h0.70625v0.21704h-0.70625v0.61323q0 0.20326 0.0827 0.26872 0.0861 0.06546 0.4513 0.06546h0.14814v0.21704q-0.28939-0.02067-0.95773-0.02067-0.66491 0-0.9543 0.02067v-0.21704h0.14814q0.36518 0 0.45131-0.06201 0.0861-0.06546 0.0861-0.27216v-0.61323zm0.19982-0.21704h1.7191v-2.6321z"/>
   </g>
   <g aria-label="81">
    <path d="m123.81 70.85q0-0.78893 1.0163-1.2988-0.43753-0.29628-0.51677-0.3824-0.31006-0.34451-0.31006-0.77515 0-0.49265 0.37207-0.83371 0.37552-0.34451 0.90606-0.34451 0.50643 0 0.88884 0.29283 0.3824 0.29283 0.3824 0.75792 0 0.65457-0.85438 1.0955 0.565 0.3514 0.69936 0.49954 0.3445 0.38241 0.3445 0.86816 0 0.565-0.43408 0.95429-0.43408 0.38585-1.0335 0.38585-0.58566 0-1.0232-0.34106t-0.43753-0.8785zm0.3514 0q0 0.43753 0.32729 0.73036 0.33073 0.29283 0.78892 0.29283 0.44442 0 0.77515-0.25494 0.33417-0.25494 0.33417-0.6339 0-0.14814-0.0517-0.27561-0.0482-0.12747-0.14814-0.22738-0.0965-0.10335-0.15848-0.14814-0.0586-0.04823-0.17225-0.12747l-0.86816-0.54777q-0.82683 0.4582-0.82683 1.192zm0.14814-2.732q0 0.33762 0.35485 0.57189l0.87505 0.565q0.69936-0.40997 0.69936-0.98874 0-0.37552-0.28595-0.62356-0.28594-0.25149-0.68213-0.25149-0.38929 0-0.67524 0.20671-0.28594 0.20326-0.28594 0.52021z"/>
    <path d="m127.67 67.887v-0.22049q0.8475 0 1.285-0.45131 0.12058 0 0.14125 0.02756 0.0207 0.02756 0.0207 0.15503v3.9584q0 0.21015 0.10336 0.27561 0.10335 0.06546 0.55466 0.06546h0.22393v0.21704q-0.24805-0.02067-1.1438-0.02067-0.89572 0-1.1403 0.02067v-0.21704h0.22393q0.44442 0 0.55121-0.06201 0.1068-0.06546 0.1068-0.27905v-3.6552q-0.36862 0.18604-0.92673 0.18604z"/>
   </g>
  </g>
 </g>
</svg>
