<?xml version="1.0" encoding="utf-8"?>
<svg xmlns="http://www.w3.org/2000/svg" xmlns:xlink="http://www.w3.org/1999/xlink" width="600" height="400" viewBox="0 0 2400 1600">
<defs>
  <clipPath id="clip820">
    <rect x="0" y="0" width="2400" height="1600"/>
  </clipPath>
</defs>
<path clip-path="url(#clip820)" d="
M0 1600 L2400 1600 L2400 0 L0 0  Z
  " fill="#1E1E1E" fill-rule="evenodd" fill-opacity="1"/>
<defs>
  <clipPath id="clip821">
    <rect x="480" y="0" width="1681" height="1600"/>
  </clipPath>
</defs>
<defs>
  <clipPath id="clip822">
    <rect x="227" y="47" width="2126" height="1405"/>
  </clipPath>
</defs>
<path clip-path="url(#clip820)" d="
M227.262 1450.96 L2352.76 1450.96 L2352.76 47.2441 L227.262 47.2441  Z
  " fill="#202020" fill-rule="evenodd" fill-opacity="1"/>
<polyline clip-path="url(#clip822)" style="stroke:#adb2b7; stroke-linecap:butt; stroke-linejoin:round; stroke-width:2; stroke-opacity:0.1; fill:none" points="
  287.417,1450.96 287.417,47.2441 
  "/>
<polyline clip-path="url(#clip822)" style="stroke:#adb2b7; stroke-linecap:butt; stroke-linejoin:round; stroke-width:2; stroke-opacity:0.1; fill:none" points="
  788.713,1450.96 788.713,47.2441 
  "/>
<polyline clip-path="url(#clip822)" style="stroke:#adb2b7; stroke-linecap:butt; stroke-linejoin:round; stroke-width:2; stroke-opacity:0.1; fill:none" points="
  1290.01,1450.96 1290.01,47.2441 
  "/>
<polyline clip-path="url(#clip822)" style="stroke:#adb2b7; stroke-linecap:butt; stroke-linejoin:round; stroke-width:2; stroke-opacity:0.1; fill:none" points="
  1791.3,1450.96 1791.3,47.2441 
  "/>
<polyline clip-path="url(#clip822)" style="stroke:#adb2b7; stroke-linecap:butt; stroke-linejoin:round; stroke-width:2; stroke-opacity:0.1; fill:none" points="
  2292.6,1450.96 2292.6,47.2441 
  "/>
<polyline clip-path="url(#clip820)" style="stroke:#adb2b7; stroke-linecap:butt; stroke-linejoin:round; stroke-width:4; stroke-opacity:1; fill:none" points="
  227.262,1450.96 2352.76,1450.96 
  "/>
<polyline clip-path="url(#clip820)" style="stroke:#adb2b7; stroke-linecap:butt; stroke-linejoin:round; stroke-width:4; stroke-opacity:1; fill:none" points="
  287.417,1450.96 287.417,1432.06 
  "/>
<polyline clip-path="url(#clip820)" style="stroke:#adb2b7; stroke-linecap:butt; stroke-linejoin:round; stroke-width:4; stroke-opacity:1; fill:none" points="
  788.713,1450.96 788.713,1432.06 
  "/>
<polyline clip-path="url(#clip820)" style="stroke:#adb2b7; stroke-linecap:butt; stroke-linejoin:round; stroke-width:4; stroke-opacity:1; fill:none" points="
  1290.01,1450.96 1290.01,1432.06 
  "/>
<polyline clip-path="url(#clip820)" style="stroke:#adb2b7; stroke-linecap:butt; stroke-linejoin:round; stroke-width:4; stroke-opacity:1; fill:none" points="
  1791.3,1450.96 1791.3,1432.06 
  "/>
<polyline clip-path="url(#clip820)" style="stroke:#adb2b7; stroke-linecap:butt; stroke-linejoin:round; stroke-width:4; stroke-opacity:1; fill:none" points="
  2292.6,1450.96 2292.6,1432.06 
  "/>
<path clip-path="url(#clip820)" d="M241.48 1494.8 L271.156 1494.8 L271.156 1498.74 L241.48 1498.74 L241.48 1494.8 Z" fill="#ffffff" fill-rule="evenodd" fill-opacity="1" /><path clip-path="url(#clip820)" d="M282.058 1507.7 L289.697 1507.7 L289.697 1481.33 L281.387 1483 L281.387 1478.74 L289.651 1477.07 L294.327 1477.07 L294.327 1507.7 L301.966 1507.7 L301.966 1511.63 L282.058 1511.63 L282.058 1507.7 Z" fill="#ffffff" fill-rule="evenodd" fill-opacity="1" /><path clip-path="url(#clip820)" d="M321.41 1480.15 Q317.799 1480.15 315.97 1483.72 Q314.165 1487.26 314.165 1494.39 Q314.165 1501.49 315.97 1505.06 Q317.799 1508.6 321.41 1508.6 Q325.044 1508.6 326.85 1505.06 Q328.678 1501.49 328.678 1494.39 Q328.678 1487.26 326.85 1483.72 Q325.044 1480.15 321.41 1480.15 M321.41 1476.45 Q327.22 1476.45 330.276 1481.05 Q333.354 1485.64 333.354 1494.39 Q333.354 1503.11 330.276 1507.72 Q327.22 1512.3 321.41 1512.3 Q315.6 1512.3 312.521 1507.72 Q309.466 1503.11 309.466 1494.39 Q309.466 1485.64 312.521 1481.05 Q315.6 1476.45 321.41 1476.45 Z" fill="#ffffff" fill-rule="evenodd" fill-opacity="1" /><path clip-path="url(#clip820)" d="M758.354 1494.8 L788.03 1494.8 L788.03 1498.74 L758.354 1498.74 L758.354 1494.8 Z" fill="#ffffff" fill-rule="evenodd" fill-opacity="1" /><path clip-path="url(#clip820)" d="M798.169 1477.07 L816.525 1477.07 L816.525 1481.01 L802.451 1481.01 L802.451 1489.48 Q803.47 1489.13 804.488 1488.97 Q805.507 1488.79 806.525 1488.79 Q812.312 1488.79 815.692 1491.96 Q819.072 1495.13 819.072 1500.54 Q819.072 1506.12 815.599 1509.22 Q812.127 1512.3 805.808 1512.3 Q803.632 1512.3 801.363 1511.93 Q799.118 1511.56 796.711 1510.82 L796.711 1506.12 Q798.794 1507.26 801.016 1507.81 Q803.238 1508.37 805.715 1508.37 Q809.72 1508.37 812.058 1506.26 Q814.396 1504.16 814.396 1500.54 Q814.396 1496.93 812.058 1494.83 Q809.72 1492.72 805.715 1492.72 Q803.84 1492.72 801.965 1493.14 Q800.113 1493.55 798.169 1494.43 L798.169 1477.07 Z" fill="#ffffff" fill-rule="evenodd" fill-opacity="1" /><path clip-path="url(#clip820)" d="M1290.01 1480.15 Q1286.4 1480.15 1284.57 1483.72 Q1282.76 1487.26 1282.76 1494.39 Q1282.76 1501.49 1284.57 1505.06 Q1286.4 1508.6 1290.01 1508.6 Q1293.64 1508.6 1295.45 1505.06 Q1297.28 1501.49 1297.28 1494.39 Q1297.28 1487.26 1295.45 1483.72 Q1293.64 1480.15 1290.01 1480.15 M1290.01 1476.45 Q1295.82 1476.45 1298.87 1481.05 Q1301.95 1485.64 1301.95 1494.39 Q1301.95 1503.11 1298.87 1507.72 Q1295.82 1512.3 1290.01 1512.3 Q1284.2 1512.3 1281.12 1507.72 Q1278.06 1503.11 1278.06 1494.39 Q1278.06 1485.64 1281.12 1481.05 Q1284.2 1476.45 1290.01 1476.45 Z" fill="#ffffff" fill-rule="evenodd" fill-opacity="1" /><path clip-path="url(#clip820)" d="M1781.58 1477.07 L1799.94 1477.07 L1799.94 1481.01 L1785.86 1481.01 L1785.86 1489.48 Q1786.88 1489.13 1787.9 1488.97 Q1788.92 1488.79 1789.94 1488.79 Q1795.73 1488.79 1799.11 1491.96 Q1802.49 1495.13 1802.49 1500.54 Q1802.49 1506.12 1799.01 1509.22 Q1795.54 1512.3 1789.22 1512.3 Q1787.05 1512.3 1784.78 1511.93 Q1782.53 1511.56 1780.12 1510.82 L1780.12 1506.12 Q1782.21 1507.26 1784.43 1507.81 Q1786.65 1508.37 1789.13 1508.37 Q1793.13 1508.37 1795.47 1506.26 Q1797.81 1504.16 1797.81 1500.54 Q1797.81 1496.93 1795.47 1494.83 Q1793.13 1492.72 1789.13 1492.72 Q1787.25 1492.72 1785.38 1493.14 Q1783.53 1493.55 1781.58 1494.43 L1781.58 1477.07 Z" fill="#ffffff" fill-rule="evenodd" fill-opacity="1" /><path clip-path="url(#clip820)" d="M2267.29 1507.7 L2274.93 1507.7 L2274.93 1481.33 L2266.62 1483 L2266.62 1478.74 L2274.88 1477.07 L2279.56 1477.07 L2279.56 1507.7 L2287.2 1507.7 L2287.2 1511.63 L2267.29 1511.63 L2267.29 1507.7 Z" fill="#ffffff" fill-rule="evenodd" fill-opacity="1" /><path clip-path="url(#clip820)" d="M2306.64 1480.15 Q2303.03 1480.15 2301.2 1483.72 Q2299.39 1487.26 2299.39 1494.39 Q2299.39 1501.49 2301.2 1505.06 Q2303.03 1508.6 2306.64 1508.6 Q2310.27 1508.6 2312.08 1505.06 Q2313.91 1501.49 2313.91 1494.39 Q2313.91 1487.26 2312.08 1483.72 Q2310.27 1480.15 2306.64 1480.15 M2306.64 1476.45 Q2312.45 1476.45 2315.51 1481.05 Q2318.58 1485.64 2318.58 1494.39 Q2318.58 1503.11 2315.51 1507.72 Q2312.45 1512.3 2306.64 1512.3 Q2300.83 1512.3 2297.75 1507.72 Q2294.7 1503.11 2294.7 1494.39 Q2294.7 1485.64 2297.75 1481.05 Q2300.83 1476.45 2306.64 1476.45 Z" fill="#ffffff" fill-rule="evenodd" fill-opacity="1" /><path clip-path="url(#clip820)" d="M1304.18 1539.92 Q1304.18 1541.72 1303.05 1542.75 Q1301.93 1543.75 1300.64 1543.75 Q1299.42 1543.75 1298.77 1543.04 Q1298.13 1542.33 1298.13 1541.43 Q1298.13 1540.21 1299.03 1539.14 Q1299.93 1538.08 1301.28 1537.85 Q1299.96 1537.02 1298 1537.02 Q1296.71 1537.02 1295.58 1537.69 Q1294.49 1538.37 1293.81 1539.24 Q1293.17 1540.11 1292.59 1541.37 Q1292.04 1542.59 1291.82 1543.33 Q1291.62 1544.04 1291.46 1544.81 L1289.21 1553.83 Q1288.11 1558.11 1288.11 1559.63 Q1288.11 1561.49 1289.01 1562.75 Q1289.91 1563.97 1291.72 1563.97 Q1292.43 1563.97 1293.23 1563.78 Q1294.04 1563.55 1295.07 1562.98 Q1296.13 1562.36 1297.06 1561.46 Q1298.03 1560.53 1298.96 1558.95 Q1299.9 1557.37 1300.51 1555.34 Q1300.7 1554.63 1301.35 1554.63 Q1302.15 1554.63 1302.15 1555.28 Q1302.15 1555.83 1301.7 1556.98 Q1301.28 1558.11 1300.35 1559.59 Q1299.45 1561.04 1298.26 1562.36 Q1297.06 1563.65 1295.29 1564.55 Q1293.52 1565.46 1291.59 1565.46 Q1288.82 1565.46 1286.98 1563.97 Q1285.15 1562.49 1284.47 1560.43 Q1284.31 1560.72 1284.09 1561.11 Q1283.86 1561.49 1283.18 1562.36 Q1282.54 1563.2 1281.8 1563.84 Q1281.06 1564.46 1279.9 1564.94 Q1278.77 1565.46 1277.55 1565.46 Q1276 1565.46 1274.62 1565 Q1273.26 1564.55 1272.3 1563.52 Q1271.33 1562.49 1271.33 1561.08 Q1271.33 1559.5 1272.39 1558.4 Q1273.49 1557.27 1274.97 1557.27 Q1275.91 1557.27 1276.65 1557.82 Q1277.42 1558.37 1277.42 1559.56 Q1277.42 1560.88 1276.52 1561.88 Q1275.62 1562.88 1274.33 1563.14 Q1275.65 1563.97 1277.61 1563.97 Q1279.74 1563.97 1281.41 1562.11 Q1283.09 1560.24 1283.89 1557.11 Q1285.89 1549.61 1286.66 1546.26 Q1287.44 1542.88 1287.44 1541.43 Q1287.44 1540.08 1287.08 1539.14 Q1286.73 1538.21 1286.11 1537.79 Q1285.53 1537.34 1284.99 1537.18 Q1284.47 1537.02 1283.89 1537.02 Q1282.93 1537.02 1281.83 1537.4 Q1280.77 1537.79 1279.48 1538.69 Q1278.22 1539.56 1277.03 1541.37 Q1275.84 1543.17 1275.04 1545.65 Q1274.87 1546.39 1274.17 1546.39 Q1273.39 1546.36 1273.39 1545.71 Q1273.39 1545.17 1273.81 1544.04 Q1274.26 1542.88 1275.16 1541.43 Q1276.1 1539.98 1277.29 1538.69 Q1278.51 1537.37 1280.29 1536.47 Q1282.09 1535.57 1284.02 1535.57 Q1284.89 1535.57 1285.73 1535.76 Q1286.6 1535.92 1287.63 1536.41 Q1288.69 1536.89 1289.63 1537.95 Q1290.56 1539.01 1291.14 1540.56 Q1291.53 1539.82 1292.04 1539.11 Q1292.59 1538.4 1293.43 1537.53 Q1294.29 1536.63 1295.49 1536.12 Q1296.71 1535.57 1298.06 1535.57 Q1299.38 1535.57 1300.67 1535.92 Q1301.96 1536.24 1303.05 1537.31 Q1304.18 1538.34 1304.18 1539.92 Z" fill="#ffffff" fill-rule="evenodd" fill-opacity="1" /><polyline clip-path="url(#clip822)" style="stroke:#adb2b7; stroke-linecap:butt; stroke-linejoin:round; stroke-width:2; stroke-opacity:0.1; fill:none" points="
  227.262,1411.23 2352.76,1411.23 
  "/>
<polyline clip-path="url(#clip822)" style="stroke:#adb2b7; stroke-linecap:butt; stroke-linejoin:round; stroke-width:2; stroke-opacity:0.1; fill:none" points="
  227.262,1080.17 2352.76,1080.17 
  "/>
<polyline clip-path="url(#clip822)" style="stroke:#adb2b7; stroke-linecap:butt; stroke-linejoin:round; stroke-width:2; stroke-opacity:0.1; fill:none" points="
  227.262,749.102 2352.76,749.102 
  "/>
<polyline clip-path="url(#clip822)" style="stroke:#adb2b7; stroke-linecap:butt; stroke-linejoin:round; stroke-width:2; stroke-opacity:0.1; fill:none" points="
  227.262,418.037 2352.76,418.037 
  "/>
<polyline clip-path="url(#clip822)" style="stroke:#adb2b7; stroke-linecap:butt; stroke-linejoin:round; stroke-width:2; stroke-opacity:0.1; fill:none" points="
  227.262,86.9719 2352.76,86.9719 
  "/>
<polyline clip-path="url(#clip820)" style="stroke:#adb2b7; stroke-linecap:butt; stroke-linejoin:round; stroke-width:4; stroke-opacity:1; fill:none" points="
  227.262,1450.96 227.262,47.2441 
  "/>
<polyline clip-path="url(#clip820)" style="stroke:#adb2b7; stroke-linecap:butt; stroke-linejoin:round; stroke-width:4; stroke-opacity:1; fill:none" points="
  227.262,1411.23 246.159,1411.23 
  "/>
<polyline clip-path="url(#clip820)" style="stroke:#adb2b7; stroke-linecap:butt; stroke-linejoin:round; stroke-width:4; stroke-opacity:1; fill:none" points="
  227.262,1080.17 246.159,1080.17 
  "/>
<polyline clip-path="url(#clip820)" style="stroke:#adb2b7; stroke-linecap:butt; stroke-linejoin:round; stroke-width:4; stroke-opacity:1; fill:none" points="
  227.262,749.102 246.159,749.102 
  "/>
<polyline clip-path="url(#clip820)" style="stroke:#adb2b7; stroke-linecap:butt; stroke-linejoin:round; stroke-width:4; stroke-opacity:1; fill:none" points="
  227.262,418.037 246.159,418.037 
  "/>
<polyline clip-path="url(#clip820)" style="stroke:#adb2b7; stroke-linecap:butt; stroke-linejoin:round; stroke-width:4; stroke-opacity:1; fill:none" points="
  227.262,86.9719 246.159,86.9719 
  "/>
<path clip-path="url(#clip820)" d="M179.317 1397.03 Q175.706 1397.03 173.877 1400.6 Q172.072 1404.14 172.072 1411.27 Q172.072 1418.37 173.877 1421.94 Q175.706 1425.48 179.317 1425.48 Q182.951 1425.48 184.757 1421.94 Q186.586 1418.37 186.586 1411.27 Q186.586 1404.14 184.757 1400.6 Q182.951 1397.03 179.317 1397.03 M179.317 1393.33 Q185.127 1393.33 188.183 1397.93 Q191.262 1402.52 191.262 1411.27 Q191.262 1419.99 188.183 1424.6 Q185.127 1429.18 179.317 1429.18 Q173.507 1429.18 170.428 1424.6 Q167.373 1419.99 167.373 1411.27 Q167.373 1402.52 170.428 1397.93 Q173.507 1393.33 179.317 1393.33 Z" fill="#ffffff" fill-rule="evenodd" fill-opacity="1" /><path clip-path="url(#clip820)" d="M144.178 1093.51 L160.498 1093.51 L160.498 1097.45 L138.553 1097.45 L138.553 1093.51 Q141.216 1090.76 145.799 1086.13 Q150.405 1081.48 151.586 1080.13 Q153.831 1077.61 154.711 1075.87 Q155.614 1074.11 155.614 1072.42 Q155.614 1069.67 153.669 1067.93 Q151.748 1066.2 148.646 1066.2 Q146.447 1066.2 143.993 1066.96 Q141.563 1067.73 138.785 1069.28 L138.785 1064.55 Q141.609 1063.42 144.063 1062.84 Q146.516 1062.26 148.553 1062.26 Q153.924 1062.26 157.118 1064.95 Q160.313 1067.63 160.313 1072.12 Q160.313 1074.25 159.502 1076.17 Q158.715 1078.07 156.609 1080.66 Q156.03 1081.34 152.928 1084.55 Q149.827 1087.75 144.178 1093.51 Z" fill="#ffffff" fill-rule="evenodd" fill-opacity="1" /><path clip-path="url(#clip820)" d="M170.359 1062.89 L188.715 1062.89 L188.715 1066.82 L174.641 1066.82 L174.641 1075.29 Q175.66 1074.95 176.678 1074.79 Q177.697 1074.6 178.715 1074.6 Q184.502 1074.6 187.882 1077.77 Q191.262 1080.94 191.262 1086.36 Q191.262 1091.94 187.789 1095.04 Q184.317 1098.12 177.998 1098.12 Q175.822 1098.12 173.553 1097.75 Q171.308 1097.38 168.901 1096.64 L168.901 1091.94 Q170.984 1093.07 173.206 1093.63 Q175.428 1094.18 177.905 1094.18 Q181.91 1094.18 184.248 1092.08 Q186.586 1089.97 186.586 1086.36 Q186.586 1082.75 184.248 1080.64 Q181.91 1078.54 177.905 1078.54 Q176.03 1078.54 174.155 1078.95 Q172.303 1079.37 170.359 1080.25 L170.359 1062.89 Z" fill="#ffffff" fill-rule="evenodd" fill-opacity="1" /><path clip-path="url(#clip820)" d="M139.202 731.822 L157.558 731.822 L157.558 735.757 L143.484 735.757 L143.484 744.23 Q144.503 743.882 145.521 743.72 Q146.54 743.535 147.558 743.535 Q153.345 743.535 156.725 746.706 Q160.104 749.878 160.104 755.294 Q160.104 760.873 156.632 763.975 Q153.16 767.053 146.84 767.053 Q144.665 767.053 142.396 766.683 Q140.151 766.313 137.743 765.572 L137.743 760.873 Q139.827 762.007 142.049 762.563 Q144.271 763.118 146.748 763.118 Q150.752 763.118 153.09 761.012 Q155.428 758.905 155.428 755.294 Q155.428 751.683 153.09 749.577 Q150.752 747.47 146.748 747.47 Q144.873 747.47 142.998 747.887 Q141.146 748.304 139.202 749.183 L139.202 731.822 Z" fill="#ffffff" fill-rule="evenodd" fill-opacity="1" /><path clip-path="url(#clip820)" d="M179.317 734.901 Q175.706 734.901 173.877 738.466 Q172.072 742.007 172.072 749.137 Q172.072 756.243 173.877 759.808 Q175.706 763.35 179.317 763.35 Q182.951 763.35 184.757 759.808 Q186.586 756.243 186.586 749.137 Q186.586 742.007 184.757 738.466 Q182.951 734.901 179.317 734.901 M179.317 731.197 Q185.127 731.197 188.183 735.804 Q191.262 740.387 191.262 749.137 Q191.262 757.864 188.183 762.47 Q185.127 767.053 179.317 767.053 Q173.507 767.053 170.428 762.47 Q167.373 757.864 167.373 749.137 Q167.373 740.387 170.428 735.804 Q173.507 731.197 179.317 731.197 Z" fill="#ffffff" fill-rule="evenodd" fill-opacity="1" /><path clip-path="url(#clip820)" d="M138.97 400.757 L161.192 400.757 L161.192 402.748 L148.646 435.317 L143.762 435.317 L155.567 404.692 L138.97 404.692 L138.97 400.757 Z" fill="#ffffff" fill-rule="evenodd" fill-opacity="1" /><path clip-path="url(#clip820)" d="M170.359 400.757 L188.715 400.757 L188.715 404.692 L174.641 404.692 L174.641 413.164 Q175.66 412.817 176.678 412.655 Q177.697 412.47 178.715 412.47 Q184.502 412.47 187.882 415.641 Q191.262 418.813 191.262 424.229 Q191.262 429.808 187.789 432.91 Q184.317 435.988 177.998 435.988 Q175.822 435.988 173.553 435.618 Q171.308 435.248 168.901 434.507 L168.901 429.808 Q170.984 430.942 173.206 431.498 Q175.428 432.053 177.905 432.053 Q181.91 432.053 184.248 429.947 Q186.586 427.84 186.586 424.229 Q186.586 420.618 184.248 418.512 Q181.91 416.405 177.905 416.405 Q176.03 416.405 174.155 416.822 Q172.303 417.238 170.359 418.118 L170.359 400.757 Z" fill="#ffffff" fill-rule="evenodd" fill-opacity="1" /><path clip-path="url(#clip820)" d="M109.804 100.317 L117.442 100.317 L117.442 73.9511 L109.132 75.6178 L109.132 71.3586 L117.396 69.6919 L122.072 69.6919 L122.072 100.317 L129.711 100.317 L129.711 104.252 L109.804 104.252 L109.804 100.317 Z" fill="#ffffff" fill-rule="evenodd" fill-opacity="1" /><path clip-path="url(#clip820)" d="M149.155 72.7706 Q145.544 72.7706 143.715 76.3354 Q141.91 79.877 141.91 87.0066 Q141.91 94.1131 143.715 97.6779 Q145.544 101.22 149.155 101.22 Q152.79 101.22 154.595 97.6779 Q156.424 94.1131 156.424 87.0066 Q156.424 79.877 154.595 76.3354 Q152.79 72.7706 149.155 72.7706 M149.155 69.0669 Q154.965 69.0669 158.021 73.6734 Q161.1 78.2567 161.1 87.0066 Q161.1 95.7334 158.021 100.34 Q154.965 104.923 149.155 104.923 Q143.345 104.923 140.266 100.34 Q137.211 95.7334 137.211 87.0066 Q137.211 78.2567 140.266 73.6734 Q143.345 69.0669 149.155 69.0669 Z" fill="#ffffff" fill-rule="evenodd" fill-opacity="1" /><path clip-path="url(#clip820)" d="M179.317 72.7706 Q175.706 72.7706 173.877 76.3354 Q172.072 79.877 172.072 87.0066 Q172.072 94.1131 173.877 97.6779 Q175.706 101.22 179.317 101.22 Q182.951 101.22 184.757 97.6779 Q186.586 94.1131 186.586 87.0066 Q186.586 79.877 184.757 76.3354 Q182.951 72.7706 179.317 72.7706 M179.317 69.0669 Q185.127 69.0669 188.183 73.6734 Q191.262 78.2567 191.262 87.0066 Q191.262 95.7334 188.183 100.34 Q185.127 104.923 179.317 104.923 Q173.507 104.923 170.428 100.34 Q167.373 95.7334 167.373 87.0066 Q167.373 78.2567 170.428 73.6734 Q173.507 69.0669 179.317 69.0669 Z" fill="#ffffff" fill-rule="evenodd" fill-opacity="1" /><path clip-path="url(#clip820)" d="M39.4663 810.807 Q39.9172 810.807 40.98 811.097 L66.165 817.41 Q71.7688 818.795 75.6979 823.303 Q79.627 827.78 79.627 832.868 Q79.627 835.928 77.9845 837.893 Q76.3742 839.857 73.8944 839.857 Q71.7044 839.857 70.6416 838.698 Q69.611 837.538 69.611 836.153 Q69.611 835.703 69.7398 835.22 Q69.8686 834.736 70.4161 834.221 Q70.9636 833.706 71.8976 833.706 Q73.4113 833.706 74.6029 835.026 Q75.1504 835.67 75.2792 836.282 Q75.408 836.862 75.408 837.86 Q76.3098 837.474 76.9217 836.765 Q77.5336 836.057 77.7591 835.252 Q78.0167 834.447 78.0811 833.931 Q78.1777 833.384 78.1777 832.868 Q78.1777 828.746 74.0232 825.59 Q72.7672 824.656 71.5111 823.98 Q70.2873 823.271 68.7736 822.756 Q67.2922 822.241 66.487 822.015 Q65.6819 821.757 63.8461 821.307 Q66.8413 824.302 66.8413 827.973 Q66.8413 829.519 66.4226 830.904 Q66.0039 832.257 65.1344 833.448 Q64.2326 834.64 62.6545 835.348 Q61.0764 836.025 58.9831 836.025 Q56.7608 836.025 53.7335 835.155 Q50.7061 834.286 45.1345 832.192 Q42.0106 831.065 40.4969 831.065 Q39.7562 831.065 39.3053 831.226 Q38.8222 831.387 38.6612 831.709 Q38.4679 832.031 38.4357 832.224 Q38.4035 832.385 38.4035 832.707 Q38.4035 834.608 40.3359 836.379 Q42.2682 838.15 46.5838 839.374 Q47.3889 839.632 47.5822 839.793 Q47.7754 839.954 47.7754 840.437 Q47.7432 841.242 47.0991 841.242 Q46.8414 841.242 45.8431 840.952 Q44.8125 840.662 43.2988 839.986 Q41.7529 839.277 40.3681 838.311 Q38.951 837.345 37.9526 835.831 Q36.9542 834.286 36.9542 832.514 Q36.9542 830.099 38.5323 828.617 Q40.0782 827.104 42.3648 827.104 Q43.2988 827.104 44.1362 827.361 Q44.9413 827.587 47.0991 828.424 Q55.7947 831.806 60.0458 831.806 Q61.0764 831.806 61.946 831.645 Q62.7833 831.451 63.6207 831.033 Q64.4258 830.614 64.9089 829.777 Q65.3598 828.907 65.3598 827.716 Q65.3598 826.202 64.6513 824.785 Q63.9105 823.336 62.9122 822.434 Q61.9138 821.5 61.0764 820.952 Q60.2069 820.373 59.756 820.244 L47.9042 817.281 L42.6225 815.96 Q39.7562 815.348 39.0476 815.059 Q38.3713 814.672 38.017 813.996 Q37.6628 813.32 37.6628 812.74 Q37.6628 811.935 38.1459 811.387 Q38.6289 810.807 39.4663 810.807 Z" fill="#ffffff" fill-rule="evenodd" fill-opacity="1" /><path clip-path="url(#clip820)" d="M56.0845 790.945 Q55.2794 790.881 55.2794 789.625 L55.2794 749.206 Q55.2794 747.306 56.0201 747.274 Q56.8253 747.274 56.7931 749.078 L56.7931 789.174 Q56.8253 790.945 56.0845 790.945 M43.2022 790.945 Q42.397 790.945 42.4292 789.56 L42.4292 749.271 Q42.4292 747.306 43.2022 747.274 Q43.9429 747.274 43.9429 748.949 L43.9429 789.625 Q43.9429 790.945 43.2022 790.945 Z" fill="#ffffff" fill-rule="evenodd" fill-opacity="1" /><path clip-path="url(#clip820)" d="M41.302 688.978 Q43.1056 688.978 44.1362 690.106 Q45.1345 691.233 45.1345 692.521 Q45.1345 693.745 44.426 694.389 Q43.7175 695.033 42.8157 695.033 Q41.5919 695.033 40.5291 694.131 Q39.4663 693.229 39.2409 691.877 Q38.4035 693.197 38.4035 695.162 Q38.4035 696.45 39.0798 697.577 Q39.7562 698.672 40.6257 699.349 Q41.4953 699.993 42.7513 700.572 Q43.9751 701.12 44.7159 701.345 Q45.4244 701.539 46.1973 701.7 L55.215 703.954 Q59.4983 705.049 61.012 705.049 Q62.88 705.049 64.136 704.147 Q65.3598 703.246 65.3598 701.442 Q65.3598 700.733 65.1666 699.928 Q64.9411 699.123 64.3614 698.093 Q63.7495 697.03 62.8478 696.096 Q61.9138 695.13 60.3357 694.196 Q58.7576 693.262 56.7286 692.65 Q56.0201 692.457 56.0201 691.812 Q56.0201 691.007 56.6642 691.007 Q57.2117 691.007 58.3711 691.458 Q59.4983 691.877 60.9798 692.811 Q62.4291 693.713 63.7495 694.904 Q65.0378 696.096 65.9395 697.867 Q66.8413 699.638 66.8413 701.571 Q66.8413 704.341 65.3598 706.176 Q63.8783 708.012 61.8172 708.688 Q62.107 708.849 62.4935 709.075 Q62.88 709.3 63.7495 709.977 Q64.5869 710.621 65.231 711.361 Q65.8429 712.102 66.326 713.262 Q66.8413 714.389 66.8413 715.613 Q66.8413 717.158 66.3904 718.543 Q65.9395 719.896 64.9089 720.862 Q63.8783 721.828 62.4613 721.828 Q60.8832 721.828 59.7882 720.765 Q58.661 719.67 58.661 718.189 Q58.661 717.255 59.2085 716.514 Q59.756 715.741 60.9476 715.741 Q62.2681 715.741 63.2664 716.643 Q64.2648 717.545 64.5225 718.833 Q65.3598 717.513 65.3598 715.548 Q65.3598 713.423 63.4919 711.748 Q61.6239 710.073 58.5 709.268 Q50.996 707.271 47.6466 706.498 Q44.265 705.725 42.8157 705.725 Q41.4631 705.725 40.5291 706.08 Q39.5951 706.434 39.1764 707.046 Q38.7256 707.626 38.5645 708.173 Q38.4035 708.688 38.4035 709.268 Q38.4035 710.234 38.79 711.329 Q39.1764 712.392 40.0782 713.68 Q40.9478 714.936 42.7513 716.128 Q44.5548 717.319 47.0347 718.125 Q47.7754 718.286 47.7754 718.994 Q47.7432 719.767 47.0991 719.767 Q46.5516 719.767 45.4244 719.348 Q44.265 718.898 42.8157 717.996 Q41.3664 717.062 40.0782 715.87 Q38.7578 714.646 37.856 712.875 Q36.9542 711.072 36.9542 709.139 Q36.9542 708.27 37.1475 707.432 Q37.3085 706.563 37.7916 705.532 Q38.2747 704.469 39.3375 703.535 Q40.4003 702.601 41.9462 702.022 Q41.2054 701.635 40.4969 701.12 Q39.7884 700.572 38.9188 699.735 Q38.017 698.866 37.5017 697.674 Q36.9542 696.45 36.9542 695.097 Q36.9542 693.777 37.3085 692.489 Q37.6306 691.201 38.6934 690.106 Q39.7239 688.978 41.302 688.978 Z" fill="#ffffff" fill-rule="evenodd" fill-opacity="1" /><path clip-path="url(#clip820)" d="M46.3638 682.257 Q45.5297 682.257 45.2817 682.189 Q45.0337 682.099 44.6505 681.739 L34.7762 672.879 Q29.3205 668.032 24.5637 668.032 Q21.4751 668.032 19.2658 669.655 Q17.0565 671.256 17.0565 674.209 Q17.0565 676.238 18.2964 677.951 Q19.5363 679.664 21.7457 680.454 Q21.7006 680.318 21.7006 679.845 Q21.7006 678.695 22.422 678.064 Q23.1434 677.41 24.1128 677.41 Q25.3527 677.41 25.9614 678.222 Q26.5476 679.011 26.5476 679.8 Q26.5476 680.115 26.4799 680.544 Q26.4123 680.949 25.7811 681.603 Q25.1273 682.257 23.9775 682.257 Q20.7537 682.257 18.1837 679.822 Q15.6137 677.365 15.6137 673.623 Q15.6137 669.384 18.1386 666.611 Q20.641 663.816 24.5637 663.816 Q25.9389 663.816 27.2013 664.244 Q28.4413 664.65 29.4107 665.214 Q30.3801 665.755 31.9356 667.243 Q33.4911 668.731 34.5958 669.925 Q35.7005 671.12 38.0451 673.803 L42.8019 678.695 L42.8019 670.376 Q42.8019 666.318 42.4412 666.003 Q41.7874 665.552 38.3381 664.988 L38.3381 663.816 L46.3638 665.124 L46.3638 682.257 Z" fill="#ffffff" fill-rule="evenodd" fill-opacity="1" /><polyline clip-path="url(#clip822)" style="stroke:#fe4365; stroke-linecap:butt; stroke-linejoin:round; stroke-width:12; stroke-opacity:1; fill:none" points="
  287.417,86.9719 312.482,152.357 337.547,216.087 362.611,278.162 387.676,338.581 412.741,397.345 437.806,454.454 462.871,509.908 487.935,563.706 513,615.848 
  538.065,666.336 563.13,715.168 588.195,762.345 613.259,807.866 638.324,851.732 663.389,893.943 688.454,934.499 713.519,973.399 738.583,1010.64 763.648,1046.23 
  788.713,1080.17 813.778,1112.45 838.842,1143.07 863.907,1172.04 888.972,1199.35 914.037,1225.01 939.102,1249.01 964.166,1271.36 989.231,1292.05 1014.3,1311.09 
  1039.36,1328.47 1064.43,1344.19 1089.49,1358.26 1114.56,1370.68 1139.62,1381.44 1164.68,1390.54 1189.75,1397.99 1214.81,1403.78 1239.88,1407.92 1264.94,1410.4 
  1290.01,1411.23 1315.07,1410.4 1340.14,1407.92 1365.2,1403.78 1390.27,1397.99 1415.33,1390.54 1440.4,1381.44 1465.46,1370.68 1490.53,1358.26 1515.59,1344.19 
  1540.66,1328.47 1565.72,1311.09 1590.79,1292.05 1615.85,1271.36 1640.92,1249.01 1665.98,1225.01 1691.05,1199.35 1716.11,1172.04 1741.17,1143.07 1766.24,1112.45 
  1791.3,1080.17 1816.37,1046.23 1841.43,1010.64 1866.5,973.399 1891.56,934.499 1916.63,893.943 1941.69,851.732 1966.76,807.866 1991.82,762.345 2016.89,715.168 
  2041.95,666.336 2067.02,615.848 2092.08,563.706 2117.15,509.908 2142.21,454.454 2167.28,397.345 2192.34,338.581 2217.41,278.162 2242.47,216.087 2267.54,152.357 
  2292.6,86.9719 
  "/>
</svg>
