<svg width="769.55" height="313.841" viewBox="0 0 203.61 83.037" xmlns="http://www.w3.org/2000/svg"><rect width="100%" height="100%" fill="#1E1E1E"/><path d="M12.205 5.647q-.597 0-1.029.29-.429.289-.64.778t-.21 1.126q0 .475.114.868.114.39.343.686.229.294.593.458.368.16.843.16.612 0 1.265-.317l.104.525q-.532.336-1.44.336-.597 0-1.072-.197-.472-.2-.783-.56-.307-.365-.468-.865-.16-.504-.16-1.119 0-.593.175-1.093t.493-.858q.321-.361.8-.561.479-.2 1.065-.2.89 0 1.5.393L13.457 6q-.586-.354-1.25-.354zm2.616 2.88q0 .697.307 1.119.311.418.904.418.587 0 .883-.418.3-.419.3-1.126 0-.718-.296-1.13-.293-.414-.897-.414-.586 0-.894.422-.307.422-.307 1.129zm3.013-.01q0 .91-.486 1.479-.486.564-1.344.564-.826 0-1.315-.571-.486-.572-.486-1.47 0-.914.49-1.479t1.343-.564q.84 0 1.319.568.479.565.479 1.472zm2.372 1.529q.59 0 .876-.379.289-.379.289-1.082 0-.794-.279-1.194-.275-.404-.893-.404-.275 0-.486.118-.21.118-.34.329t-.196.486q-.064.271-.064.597 0 .457.11.793.115.336.365.536t.618.2zm1.176-.136q-.193.297-.515.472-.321.175-.718.175-.775 0-1.215-.55-.44-.554-.44-1.505 0-.907.447-1.465.447-.56 1.197-.56.39 0 .733.17.346.169.518.455l-.01-.34V5.036L21.967 5v5.478h-.508zm3.881-2.626q-.26-.314-.718-.314-.458 0-.747.325-.29.321-.34.882h2.07q0-.582-.265-.893zm-.6 3.277q-.854 0-1.347-.543-.49-.544-.49-1.487 0-.911.475-1.476.476-.568 1.251-.579.729 0 1.154.5.429.497.429 1.33 0 .043-.004.157v.165h-2.69q.01.668.343 1.043.336.372.9.372.622 0 1.247-.33l.093.483q-.597.365-1.361.365zm2.301 1.618V6.558h.525l.058.532q.514-.614 1.236-.614.536 0 .908.268.371.268.546.725.179.458.179 1.069 0 .586-.193 1.043-.193.454-.568.718-.372.261-.872.261-.379 0-.711-.168-.332-.171-.533-.45.022.386.022.75v1.448zm1.737-2.123q.271 0 .486-.121.214-.125.346-.34.133-.214.2-.486.068-.275.068-.593 0-.672-.282-1.1-.282-.433-.825-.433-1.137 0-1.137 1.469 0 .797.265 1.2.268.404.879.404zm2.99-1.529q0 .697.307 1.119.311.418.904.418.587 0 .883-.418.3-.419.3-1.126 0-.718-.296-1.13-.293-.414-.897-.414-.586 0-.894.422-.307.422-.307 1.129zm3.013-.01q0 .91-.486 1.479-.486.564-1.344.564-.826 0-1.315-.571-.486-.572-.486-1.47 0-.914.49-1.479t1.343-.564q.84 0 1.319.568.479.565.479 1.472zm1.547-1.959v3.92h-.6v-3.92zm0-1.426v.708h-.6v-.708zm1.122 5.346v-3.92h.5l.075.561q.233-.29.58-.465.35-.178.753-.178.68 0 1.004.382.326.379.326 1.169v2.451h-.597q0-2.358-.004-2.526-.014-.5-.203-.733-.186-.232-.626-.232-.46 0-.768.221t-.4.576q-.036.24-.036.55v2.144zm5.482.072q-.579 0-.822-.282t-.257-.912V7.002h-.583l.025-.393.554-.05.204-.897.393-.015v.911h1.09v.444h-1.09v2.247q0 .447.136.63.136.181.464.181.118 0 .511-.057l.025.472q-.425.075-.65.075zm2.455.01q-.401 0-.74-.086-.336-.086-.547-.221l.075-.504q.596.318 1.172.318.872 0 .897-.615 0-.26-.186-.41-.186-.15-.73-.337l-.296-.103q-.514-.172-.736-.425-.218-.254-.221-.633 0-.46.368-.765.371-.303 1.015-.303.664 0 1.21.257l-.174.457q-.554-.228-1.036-.228-.376 0-.59.15-.21.146-.21.414 0 .229.153.35t.614.28q.118.042.297.1.593.192.84.457.246.26.246.707-.007.543-.39.843-.382.297-1.032.297z" fill="#fff" aria-label="Codepoints"/><g fill="#fff" stroke-width=".168"><path d="M74.262 7.963v2.008h1.104q.672 0 1.008-.246.336-.25.336-.776 0-.546-.365-.764-.36-.222-1.129-.222zm0-.497h1.133q.554 0 .836-.193.282-.193.282-.686 0-.496-.34-.682-.335-.19-1.046-.19h-.865zm-.618-2.272h1.515q1.019 0 1.508.31.493.311.493.99 0 .1-.014.2-.01.097-.064.25-.05.154-.14.283-.089.125-.264.254-.172.125-.404.2.533.1.808.45t.275.843q0 .719-.472 1.112-.468.393-1.397.393h-1.844zm3.985 1.365h.632l1.237 3.262 1.1-3.262h.633q-1.587 4.366-1.64 4.502-.247.618-.597.904-.35.29-.922.29-.172 0-.361-.029l-.036-.507q.2.014.3.014.404 0 .611-.15.211-.147.376-.554.146-.375.218-.579zm5.403 3.991q-.579 0-.822-.282t-.257-.91V7.001h-.583l.025-.393.554-.05.204-.897.393-.014v.911h1.09v.443h-1.09V9.25q0 .447.136.629t.464.182q.118 0 .511-.057l.025.472q-.425.075-.65.075zm3.506-3.266q-.261-.314-.718-.314t-.747.325q-.29.321-.34.882h2.07q0-.582-.265-.893zm-.6 3.277q-.855 0-1.348-.543-.49-.543-.49-1.487 0-.911.476-1.476.475-.568 1.25-.579.73 0 1.155.5.429.497.429 1.33 0 .043-.004.157v.165h-2.69q.01.668.342 1.043.336.372.901.372.622 0 1.247-.329l.093.482q-.597.365-1.361.365zm4.695-5.428h.568v5.346h-.632V5.794q-.361.236-.883.404V5.6l.232-.1q.175-.075.261-.114.09-.04.222-.111.132-.072.232-.143z" aria-label="Byte 1"/><path d="M108.786 7.963v2.008h1.104q.672 0 1.008-.246.336-.25.336-.776 0-.546-.365-.764-.36-.222-1.129-.222zm0-.497h1.133q.554 0 .836-.193t.282-.686q0-.496-.34-.682-.335-.19-1.046-.19h-.865zm-.618-2.272h1.515q1.018 0 1.508.31.493.311.493.99 0 .1-.014.2-.011.097-.064.25-.05.154-.14.283-.09.125-.264.254-.172.125-.404.2.532.1.808.45.275.35.275.843 0 .719-.472 1.112-.468.393-1.397.393h-1.844zm3.989 1.365h.633l1.236 3.262 1.1-3.262h.633q-1.587 4.366-1.64 4.502-.247.618-.597.904-.35.29-.922.29-.171 0-.36-.029l-.037-.507q.2.014.3.014.404 0 .612-.15.21-.147.375-.554.146-.375.218-.579zm5.404 3.991q-.579 0-.822-.282-.242-.282-.257-.91V7.001h-.582l.025-.393.554-.05.203-.897.393-.014v.911h1.09v.443h-1.09V9.25q0 .447.136.629t.465.182q.118 0 .51-.057l.026.472q-.426.075-.65.075zm3.502-3.266q-.261-.314-.718-.314-.458 0-.747.325-.29.321-.34.882h2.07q0-.582-.265-.893zm-.6 3.277q-.855 0-1.348-.543-.49-.543-.49-1.487 0-.911.476-1.476.475-.568 1.25-.579.73 0 1.155.5.429.497.429 1.33 0 .043-.004.157v.165h-2.69q.01.668.343 1.043.336.372.9.372.622 0 1.247-.329l.093.482q-.596.365-1.361.365zm4.014-.082-.082-.586 1.848-2.051q.185-.208.357-.536.175-.33.254-.558l.082-.225q0-.443-.247-.686-.246-.247-.7-.247-.758 0-1.194.44l-.207-.536q.493-.465 1.444-.465.729 0 1.161.397.432.393.432 1.054-.014.05-.042.136-.029.082-.125.325-.093.243-.197.461-.104.218-.264.479-.158.26-.322.436l-1.508 1.612h2.476l-.039.55z" aria-label="Byte 2"/><path d="M143.311 7.963v2.008h1.104q.672 0 1.008-.246.336-.25.336-.776 0-.546-.365-.764-.36-.222-1.129-.222zm0-.497h1.133q.554 0 .836-.193t.282-.686q0-.496-.34-.682-.335-.19-1.046-.19h-.865zm-.618-2.272h1.515q1.018 0 1.508.31.493.311.493.99 0 .1-.014.2-.011.097-.064.25-.05.154-.14.283-.089.125-.264.254-.172.125-.404.2.532.1.808.45.275.35.275.843 0 .719-.472 1.112-.468.393-1.397.393h-1.844zm3.989 1.365h.632l1.237 3.262 1.1-3.262h.633q-1.587 4.366-1.64 4.502-.247.618-.597.904-.35.29-.922.29-.171 0-.36-.029l-.037-.507q.2.014.3.014.404 0 .612-.15.21-.147.375-.554.146-.375.218-.579zm5.404 3.991q-.579 0-.822-.282t-.257-.91V7.001h-.582l.025-.393.554-.05.203-.897.393-.014v.911h1.09v.443h-1.09V9.25q0 .447.136.629t.465.182q.118 0 .51-.057l.026.472q-.426.075-.65.075zm3.502-3.266q-.261-.314-.719-.314-.457 0-.746.325-.29.321-.34.882h2.07q0-.582-.265-.893zm-.6 3.277q-.855 0-1.348-.543-.49-.543-.49-1.487 0-.911.476-1.476.475-.568 1.25-.579.73 0 1.155.5.429.497.429 1.33 0 .043-.004.157v.165h-2.69q.01.668.343 1.043.336.372.9.372.622 0 1.247-.329l.093.482q-.597.365-1.361.365zm5.384-.001q-.479 0-.854-.125-.371-.125-.543-.29l.2-.524q.504.396 1.2.396.537 0 .851-.264.318-.268.318-.747 0-.26-.082-.454-.078-.196-.214-.314-.132-.122-.343-.193-.207-.075-.429-.104-.218-.032-.507-.04h-.108q-.071-.003-.107-.003v-.532h.179q.25-.004.44-.025.192-.025.382-.086.193-.06.318-.16t.203-.269q.079-.168.079-.397 0-.857-.983-.857-.353 0-.664.103t-.533.28l-.2-.523q.533-.403 1.533-.403.404 0 .747.15.343.146.565.454.221.303.221.714 0 .5-.246.822-.247.322-.694.461.5.107.783.468.286.361.286.915 0 .704-.504 1.126-.504.421-1.294.421z" aria-label="Byte 3"/><path d="M177.836 7.963v2.008h1.104q.672 0 1.008-.246.336-.25.336-.776 0-.546-.365-.764-.36-.222-1.129-.222zm0-.497h1.133q.554 0 .836-.193t.282-.686q0-.496-.34-.682-.335-.19-1.046-.19h-.865zm-.618-2.272h1.515q1.018 0 1.508.31.493.311.493.99 0 .1-.014.2-.011.097-.065.25-.05.154-.139.283-.09.125-.264.254-.172.125-.404.2.532.1.807.45.276.35.276.843 0 .719-.472 1.112-.468.393-1.397.393h-1.844zm3.989 1.365h.632l1.237 3.262 1.1-3.262h.633q-1.587 4.366-1.64 4.502-.247.618-.597.904-.35.29-.922.29-.172 0-.36-.029l-.037-.507q.2.014.3.014.404 0 .612-.15.21-.147.375-.554.146-.375.218-.579zm5.404 3.991q-.579 0-.822-.282t-.257-.91V7.001h-.582l.025-.393.554-.05.203-.897.393-.014v.911h1.09v.443h-1.09V9.25q0 .447.136.629t.465.182q.118 0 .51-.057l.026.472q-.426.075-.65.075zm3.502-3.266q-.261-.314-.719-.314-.457 0-.746.325-.29.321-.34.882h2.07q0-.582-.265-.893zm-.6 3.277q-.855 0-1.348-.543-.49-.543-.49-1.487 0-.911.476-1.476.475-.568 1.25-.579.73 0 1.155.5.429.497.429 1.33 0 .043-.004.157v.165h-2.69q.01.668.343 1.043.336.372.9.372.622 0 1.247-.329l.093.482q-.597.365-1.361.365zm7.624-1.408h-.607v1.326h-.6V9.153h-2.416v-.546l2.348-3.474h.668v3.502h.657zm-1.207-3.209-1.787 2.691h1.787z" aria-label="Byte 4"/></g><path d="M27.523 27.243v-.526h2.369v.526z" fill="#fff" aria-label="-"/><path d="M10.366 23.797h15.655c1.108 0 2 .892 2 2v2.614c0 1.108-.892 2-2 2H10.366c-1.108 0-2-.892-2-2v-2.614c0-1.108.892-2 2-2z" fill="#404040"/><path d="M12.476 27.426q0 .323-.072.565-.07.24-.231.4-.154.151-.36.221t-.48.07q-.279 0-.487-.074-.207-.074-.35-.218-.16-.163-.233-.395-.07-.232-.07-.57v-1.78h.396v1.8q0 .242.032.382.034.14.112.254.087.13.237.196.152.066.364.066.214 0 .363-.064.15-.066.24-.198.078-.114.11-.26.034-.148.034-.365v-1.81h.395zm3.284.052h-1.088v1.088h-.332v-1.088h-1.088v-.32h1.088V26.07h.332v1.09h1.088zm2.751-.346q0 .8-.251 1.176-.25.374-.777.374-.536 0-.783-.38-.246-.38-.246-1.166 0-.793.25-1.17.25-.38.779-.38.535 0 .78.385.248.384.248 1.16zm-.525.907q.07-.162.094-.38.026-.22.026-.527 0-.304-.026-.528-.024-.223-.096-.38-.07-.153-.192-.23-.12-.079-.31-.079-.187 0-.31.078t-.195.236q-.068.148-.094.385-.024.238-.024.522 0 .311.022.521t.094.376q.066.155.186.237.122.082.322.082.187 0 .311-.078t.192-.235zm3.126-.907q0 .8-.251 1.176-.25.374-.777.374-.536 0-.783-.38-.246-.38-.246-1.166 0-.793.25-1.17.25-.38.779-.38.535 0 .78.385.248.384.248 1.16zm-.525.907q.07-.162.094-.38.026-.22.026-.527 0-.304-.026-.528-.024-.223-.096-.38-.07-.153-.192-.23-.12-.079-.31-.079-.187 0-.31.078t-.195.236q-.068.148-.094.385-.024.238-.024.522 0 .311.022.521t.094.376q.066.155.186.237.122.082.322.082.187 0 .311-.078t.192-.235zm3.125-.907q0 .8-.251 1.176-.25.374-.777.374-.536 0-.783-.38-.246-.38-.246-1.166 0-.793.25-1.17.25-.38.779-.38.535 0 .78.385.248.384.248 1.16zm-.525.907q.07-.162.094-.38.026-.22.026-.527 0-.304-.026-.528-.024-.223-.096-.38-.07-.153-.192-.23-.12-.079-.31-.079-.187 0-.31.078t-.195.236q-.068.148-.094.385-.024.238-.024.522 0 .311.022.521t.094.376q.066.155.186.237.122.082.322.082.187 0 .311-.078t.192-.235zm3.126-.907q0 .8-.251 1.176-.25.374-.777.374-.536 0-.783-.38-.246-.38-.246-1.166 0-.793.25-1.17.25-.38.779-.38.535 0 .78.385.248.384.248 1.16zm-.525.907q.07-.162.094-.38.026-.22.026-.527 0-.304-.026-.528-.024-.223-.096-.38-.07-.153-.192-.23-.12-.079-.31-.079-.187 0-.31.078t-.195.236q-.068.148-.094.385-.024.238-.024.522 0 .311.022.521t.094.376q.066.155.186.237.122.082.322.082.187 0 .311-.078t.192-.235z" fill="#fff" aria-label="U+0000"/><path d="M31.533 23.797h15.655c1.108 0 2 .892 2 2v2.614c0 1.108-.892 2-2 2H31.533c-1.108 0-2-.892-2-2v-2.614c0-1.108.892-2 2-2z" fill="#404040"/><path d="M33.643 27.426q0 .323-.072.565-.07.24-.232.4-.153.151-.36.221-.205.07-.478.07-.28 0-.488-.074-.208-.074-.35-.218-.161-.163-.233-.395-.07-.232-.07-.57v-1.78h.395v1.8q0 .242.032.382.034.14.112.254.088.13.238.196.152.066.364.066.213 0 .363-.064.15-.066.24-.198.078-.114.11-.26.034-.148.034-.365v-1.81h.395zm3.284.052h-1.089v1.088h-.331v-1.088h-1.089v-.32h1.089V26.07h.331v1.09h1.09zm2.751-.346q0 .8-.252 1.176-.25.374-.777.374-.535 0-.783-.38-.245-.38-.245-1.166 0-.793.25-1.17.249-.38.778-.38.536 0 .781.385.248.384.248 1.16zm-.525.907q.07-.162.094-.38.026-.22.026-.527 0-.304-.026-.528-.024-.223-.096-.38-.07-.153-.192-.23-.12-.079-.31-.079-.187 0-.311.078-.122.078-.194.236-.068.148-.094.385-.024.238-.024.522 0 .311.022.521t.094.376q.066.155.186.237.122.082.321.082.188 0 .312-.078t.192-.235zm3.127-.907q0 .8-.253 1.176-.25.374-.777.374-.535 0-.783-.38-.245-.38-.245-1.166 0-.793.25-1.17.249-.38.778-.38.536 0 .781.385.248.384.248 1.16zm-.526.907q.07-.162.094-.38.026-.22.026-.527 0-.304-.026-.528-.024-.223-.096-.38-.07-.153-.192-.23-.12-.079-.31-.079-.187 0-.311.078-.122.078-.194.236-.068.148-.094.385-.024.238-.024.522 0 .311.022.521t.094.376q.066.155.186.237.122.082.321.082.188 0 .312-.078t.192-.235zm3.137-1.947-1.346 2.529h-.428l1.433-2.625h-1.694v-.35h2.035zm2.557-.094h-1.504v.839h1.292v.351h-1.292v1.432h-.396v-2.974h1.9z" fill="#fff" aria-label="U+007F"/><path d="M27.523 43.118v-.526h2.369v.526z" fill="#fff" aria-label="-"/><path d="M10.366 39.672h15.655c1.108 0 2 .892 2 2v2.615c0 1.108-.892 2-2 2H10.366c-1.108 0-2-.892-2-2v-2.615c0-1.108.892-2 2-2z" fill="#404040"/><path d="M12.476 43.301q0 .324-.072.565-.07.24-.231.4-.154.152-.36.222t-.48.07q-.279 0-.487-.074-.207-.074-.35-.218-.16-.164-.233-.396-.07-.231-.07-.569v-1.78h.396v1.8q0 .242.032.381.034.14.112.254.087.13.237.196.152.066.364.066.214 0 .363-.064.15-.066.24-.198.078-.114.11-.26.034-.147.034-.365v-1.81h.395zm3.284.052h-1.088v1.089h-.332v-1.089h-1.088v-.32h1.088v-1.088h.332v1.088h1.088zm2.751-.346q0 .801-.251 1.177-.25.373-.777.373-.536 0-.783-.38-.246-.379-.246-1.166 0-.793.25-1.17.25-.38.779-.38.535 0 .78.386.248.383.248 1.16zm-.525.907q.07-.162.094-.38.026-.22.026-.527 0-.304-.026-.527-.024-.224-.096-.38-.07-.154-.192-.232-.12-.077-.31-.077-.187 0-.31.077-.123.078-.195.236-.068.148-.094.386-.024.237-.024.521 0 .312.022.521t.094.376q.066.156.186.238.122.081.322.081.187 0 .311-.077.124-.078.192-.236zm3.126-.907q0 .801-.251 1.177-.25.373-.777.373-.536 0-.783-.38-.246-.379-.246-1.166 0-.793.25-1.17.25-.38.779-.38.535 0 .78.386.248.383.248 1.16zm-.525.907q.07-.162.094-.38.026-.22.026-.527 0-.304-.026-.527-.024-.224-.096-.38-.07-.154-.192-.232-.12-.077-.31-.077-.187 0-.31.077-.123.078-.195.236-.068.148-.094.386-.024.237-.024.521 0 .312.022.521t.094.376q.066.156.186.238.122.081.322.081.187 0 .311-.077.124-.078.192-.236zm3.151-.248q0 .386-.301.641-.3.256-.755.256-.484 0-.771-.25-.286-.25-.286-.639 0-.248.144-.447.144-.202.405-.32v-.012q-.24-.128-.355-.28-.114-.152-.114-.38 0-.335.276-.559t.7-.223q.446 0 .712.213.265.214.265.544 0 .202-.125.397-.126.194-.37.304v.012q.28.12.428.296.147.175.147.447zm-.473-1.452q0-.214-.166-.34-.164-.128-.42-.128-.251 0-.413.12-.16.12-.16.324 0 .144.08.25.082.103.246.185.074.036.212.094.14.058.271.096.198-.132.274-.274.076-.141.076-.327zm.062 1.49q0-.184-.082-.294-.08-.112-.316-.223-.093-.044-.205-.082-.112-.038-.298-.106-.18.098-.29.265-.107.168-.107.38 0 .27.185.445.186.176.472.176.291 0 .465-.15.176-.15.176-.411zm2.986-.697q0 .801-.251 1.177-.25.373-.777.373-.536 0-.783-.38-.246-.379-.246-1.166 0-.793.25-1.17.25-.38.779-.38.535 0 .78.386.248.383.248 1.16zm-.525.907q.07-.162.094-.38.026-.22.026-.527 0-.304-.026-.527-.024-.224-.096-.38-.07-.154-.192-.232-.12-.077-.31-.077-.187 0-.31.077-.123.078-.195.236-.068.148-.094.386-.024.237-.024.521 0 .312.022.521t.094.376q.066.156.186.238.122.081.322.081.187 0 .311-.077.124-.078.192-.236z" fill="#fff" aria-label="U+0080"/><path d="M31.533 39.672h15.655c1.108 0 2 .892 2 2v2.615c0 1.108-.892 2-2 2H31.533c-1.108 0-2-.892-2-2v-2.615c0-1.108.892-2 2-2z" fill="#404040"/><path d="M33.643 43.301q0 .324-.072.565-.07.24-.232.4-.153.152-.36.222-.205.07-.478.07-.28 0-.488-.074-.208-.074-.35-.218-.161-.164-.233-.396-.07-.231-.07-.569v-1.78h.395v1.8q0 .242.032.381.034.14.112.254.088.13.238.196.152.066.364.066.213 0 .363-.064.15-.066.24-.198.078-.114.11-.26.034-.147.034-.365v-1.81h.395zm3.284.052h-1.089v1.089h-.331v-1.089h-1.089v-.32h1.089v-1.088h.331v1.088h1.09zm2.751-.346q0 .801-.252 1.177-.25.373-.777.373-.535 0-.783-.38-.245-.379-.245-1.166 0-.793.25-1.17.249-.38.778-.38.536 0 .781.386.248.383.248 1.16zm-.525.907q.07-.162.094-.38.026-.22.026-.527 0-.304-.026-.527-.024-.224-.096-.38-.07-.154-.192-.232-.12-.077-.31-.077-.187 0-.311.077-.122.078-.194.236-.068.148-.094.386-.024.237-.024.521 0 .312.022.521t.094.376q.066.156.186.238.122.081.321.081.188 0 .312-.077.124-.078.192-.236zm3.138-1.947-1.346 2.529h-.428l1.433-2.625h-1.694v-.35h2.035zm2.556-.094h-1.504v.839h1.292v.352h-1.292v1.432h-.396V41.52h1.9zm2.351 0h-1.504v.839h1.292v.352h-1.292v1.432h-.396V41.52h1.9z" fill="#fff" aria-label="U+07FF"/><path d="M27.523 58.993v-.526h2.369v.526z" fill="#fff" aria-label="-"/><path d="M10.366 55.547h15.655c1.108 0 2 .892 2 2v2.615c0 1.108-.892 2-2 2H10.366c-1.108 0-2-.892-2-2v-2.615c0-1.108.892-2 2-2z" fill="#404040"/><path d="M12.476 59.176q0 .324-.072.565-.07.24-.231.4-.154.152-.36.222t-.48.07q-.279 0-.487-.074-.207-.074-.35-.218-.16-.164-.233-.396-.07-.231-.07-.569v-1.78h.396v1.8q0 .242.032.381.034.14.112.254.087.13.237.196.152.066.364.066.214 0 .363-.064.15-.066.24-.198.078-.114.11-.26.034-.147.034-.365v-1.81h.395zm3.284.052h-1.088v1.089h-.332v-1.089h-1.088v-.32h1.088V57.82h.332v1.088h1.088zm2.751-.346q0 .801-.251 1.177-.25.373-.777.373-.536 0-.783-.38-.246-.379-.246-1.166 0-.793.25-1.17.25-.38.779-.38.535 0 .78.386.248.383.248 1.16zm-.525.907q.07-.162.094-.38.026-.22.026-.527 0-.304-.026-.527-.024-.224-.096-.38-.07-.154-.192-.232-.12-.077-.31-.077-.187 0-.31.077-.123.078-.195.236-.068.148-.094.386-.024.237-.024.521 0 .312.022.521t.094.376q.066.156.186.238.122.081.322.081.187 0 .311-.077.124-.078.192-.236zm3.152-.248q0 .386-.301.641-.3.256-.755.256-.484 0-.771-.25-.286-.25-.286-.639 0-.248.144-.447.144-.202.405-.32v-.012q-.24-.128-.355-.28-.114-.152-.114-.38 0-.335.276-.559t.7-.223q.446 0 .712.213.265.214.265.544 0 .202-.125.397-.126.194-.37.304v.012q.28.12.428.296.147.175.147.447zm-.473-1.452q0-.214-.166-.34-.164-.128-.42-.128-.251 0-.413.12-.16.12-.16.324 0 .144.08.25.082.103.246.185.074.036.212.094.14.058.271.096.198-.132.274-.274.076-.141.076-.327zm.062 1.49q0-.184-.082-.294-.08-.112-.316-.223-.093-.044-.205-.082-.112-.038-.298-.106-.18.098-.29.265-.107.168-.107.38 0 .27.185.445.186.176.472.176.291 0 .465-.15.176-.15.176-.411zm2.985-.697q0 .801-.251 1.177-.25.373-.777.373-.536 0-.783-.38-.246-.379-.246-1.166 0-.793.25-1.17.25-.38.779-.38.535 0 .78.386.248.383.248 1.16zm-.525.907q.07-.162.094-.38.026-.22.026-.527 0-.304-.026-.527-.024-.224-.096-.38-.07-.154-.192-.232-.12-.077-.31-.077-.187 0-.31.077-.123.078-.195.236-.068.148-.094.386-.024.237-.024.521 0 .312.022.521t.094.376q.066.156.186.238.122.081.322.081.187 0 .311-.077.124-.078.192-.236zm3.126-.907q0 .801-.251 1.177-.25.373-.777.373-.536 0-.783-.38-.246-.379-.246-1.166 0-.793.25-1.17.25-.38.779-.38.535 0 .78.386.248.383.248 1.16zm-.525.907q.07-.162.094-.38.026-.22.026-.527 0-.304-.026-.527-.024-.224-.096-.38-.07-.154-.192-.232-.12-.077-.31-.077-.187 0-.31.077-.123.078-.195.236-.068.148-.094.386-.024.237-.024.521 0 .312.022.521t.094.376q.066.156.186.238.122.081.322.081.187 0 .311-.077.124-.078.192-.236z" fill="#fff" aria-label="U+0800"/><path d="M31.533 55.547h15.655c1.108 0 2 .892 2 2v2.615c0 1.108-.892 2-2 2H31.533c-1.108 0-2-.892-2-2v-2.615c0-1.108.892-2 2-2z" fill="#404040"/><path d="M33.643 59.176q0 .324-.072.565-.07.24-.232.4-.153.152-.36.222-.205.07-.478.07-.28 0-.488-.074-.208-.074-.35-.218-.161-.164-.233-.396-.07-.231-.07-.569v-1.78h.395v1.8q0 .242.032.381.034.14.112.254.088.13.238.196.152.066.364.066.213 0 .363-.064.15-.066.24-.198.078-.114.11-.26.034-.147.034-.365v-1.81h.395zm3.284.052h-1.089v1.089h-.331v-1.089h-1.089v-.32h1.089V57.82h.331v1.088h1.09zm2.719-1.48h-1.504v.839h1.292v.352h-1.292v1.432h-.396v-2.975h1.9zm2.351 0h-1.504v.839h1.292v.352h-1.292v1.432h-.396v-2.975h1.9zm2.351 0h-1.504v.839h1.292v.352h-1.292v1.432h-.396v-2.975h1.9zm2.352 0h-1.505v.839h1.292v.352h-1.292v1.432h-.396v-2.975h1.9z" fill="#fff" aria-label="U+FFFF"/><path d="M27.523 75.13v-.526h2.369v.526z" fill="#fff" aria-label="-"/><path d="M7.307 71.422H25.37c1.278 0 2.308.892 2.308 2v2.615c0 1.108-1.03 2-2.308 2H7.307c-1.278 0-2.307-.892-2.307-2v-2.615c0-1.108 1.029-2 2.307-2zm24.751.001h19.766c1.399 0 2.525.892 2.525 2v2.615c0 1.108-1.126 2-2.525 2H32.058c-1.399 0-2.525-.892-2.525-2v-2.615c0-1.108 1.126-2 2.525-2z" fill="#404040"/><path d="M9.564 75.051q0 .324-.072.565-.07.24-.232.4-.153.152-.36.222-.205.07-.478.07-.28 0-.488-.074-.208-.074-.35-.218-.161-.164-.233-.396-.07-.231-.07-.569v-1.78h.395v1.8q0 .242.032.382.034.14.112.253.088.13.238.196.152.066.364.066.213 0 .363-.064.15-.066.24-.198.078-.114.11-.26.034-.147.034-.365v-1.81h.395zm3.284.051H11.76v1.089h-.332v-1.089h-1.089v-.32h1.089v-1.088h.332v1.088h1.088zm2.584 1.143h-1.61v-.304h.62v-1.993h-.62v-.272q.126 0 .27-.02.144-.022.217-.062.092-.05.144-.126.054-.077.062-.207h.31v2.68h.607zm2.768-1.488q0 .801-.253 1.177-.25.373-.777.373-.535 0-.783-.38-.245-.379-.245-1.166 0-.793.25-1.17.25-.38.778-.38.536 0 .781.385.248.384.248 1.161zm-.526.907q.07-.162.094-.38.026-.22.026-.527 0-.304-.026-.527-.024-.224-.096-.38-.07-.154-.192-.232-.12-.077-.31-.077-.187 0-.311.077-.122.078-.194.236-.068.148-.094.386-.024.237-.024.521 0 .312.022.521t.094.376q.066.156.186.238.122.081.321.081.188 0 .312-.077t.192-.236zm3.126-.907q0 .801-.252 1.177-.25.373-.777.373-.535 0-.783-.38-.245-.379-.245-1.166 0-.793.25-1.17.25-.38.778-.38.536 0 .781.385.248.384.248 1.161zm-.525.907q.07-.162.094-.38.026-.22.026-.527 0-.304-.026-.527-.024-.224-.096-.38-.07-.154-.192-.232-.12-.077-.31-.077-.187 0-.311.077-.122.078-.194.236-.068.148-.094.386-.024.237-.024.521 0 .312.022.521t.094.376q.066.156.186.238.122.081.321.081.188 0 .312-.077t.192-.236zm3.125-.907q0 .801-.252 1.177-.25.373-.777.373-.535 0-.783-.38-.245-.379-.245-1.166 0-.793.25-1.17.25-.38.778-.38.536 0 .781.385.248.384.248 1.161zm-.525.907q.07-.162.094-.38.026-.22.026-.527 0-.304-.026-.527-.024-.224-.096-.38-.07-.154-.192-.232-.12-.077-.31-.077-.187 0-.311.077-.122.078-.194.236-.068.148-.094.386-.024.237-.024.521 0 .312.022.521t.094.376q.066.156.186.238.122.081.321.081.188 0 .312-.077t.192-.236zm3.126-.907q0 .801-.252 1.177-.25.373-.777.373-.535 0-.783-.38-.245-.379-.245-1.166 0-.793.25-1.17.25-.38.778-.38.536 0 .781.385.248.384.248 1.161zm-.525.907q.07-.162.094-.38.026-.22.026-.527 0-.304-.026-.527-.024-.224-.096-.38-.07-.154-.192-.232-.12-.077-.31-.077-.187 0-.311.077-.122.078-.194.236-.068.148-.094.386-.024.237-.024.521 0 .312.022.521t.094.376q.066.156.186.238.122.081.321.081.188 0 .312-.077.124-.078.192-.236z" fill="#fff" aria-label="U+10000"/><path d="M34.375 75.051q0 .324-.072.565-.07.24-.232.4-.153.152-.36.222-.205.07-.478.07-.28 0-.488-.074-.208-.074-.35-.218-.161-.164-.233-.396-.07-.231-.07-.569v-1.78h.395v1.8q0 .242.032.382.034.14.112.253.088.13.238.196.152.066.364.066.213 0 .363-.064.15-.066.24-.198.078-.114.11-.26.034-.147.034-.365v-1.81h.395zm3.285.052h-1.09v1.089h-.331v-1.089H35.15v-.32h1.089v-1.088h.332v1.088h1.088zm2.584 1.143h-1.61v-.304h.62V73.95h-.62v-.272q.126 0 .27-.02.144-.022.217-.062.092-.05.144-.126.054-.077.062-.207h.31v2.68h.607zm2.767-1.488q0 .801-.252 1.177-.25.373-.777.373-.535 0-.783-.38-.245-.379-.245-1.166 0-.793.25-1.17.25-.38.778-.38.536 0 .781.385.248.384.248 1.161zm-.525.907q.07-.162.094-.38.026-.22.026-.527 0-.304-.026-.527-.024-.224-.096-.38-.07-.154-.192-.232-.12-.077-.31-.077-.187 0-.311.077-.122.078-.194.236-.068.148-.094.386-.024.237-.024.521 0 .312.022.521t.094.376q.066.156.186.238.122.081.321.081.188 0 .312-.077t.192-.236zm3.094-2.042h-1.505v.839h1.292v.352h-1.292v1.432h-.396V73.27h1.9zm2.35 0h-1.504v.839h1.292v.352h-1.292v1.432h-.396V73.27h1.9zm2.352 0h-1.504v.839h1.292v.352h-1.292v1.432h-.396V73.27h1.9zm2.351 0H51.13v.839h1.292v.352H51.13v1.432h-.396V73.27h1.9z" fill="#fff" aria-label="U+10FFFF"/><path d="M73.919 23.797h18.726c1.325 0 2.392.892 2.392 2v2.614c0 1.108-1.067 2-2.392 2H73.92c-1.326 0-2.393-.892-2.393-2v-2.614c0-1.108 1.067-2 2.393-2z" fill="#404040"/><path d="M75.934 27.132q0 .8-.252 1.176-.25.374-.777.374-.535 0-.783-.38-.245-.38-.245-1.166 0-.793.25-1.17.25-.38.778-.38.536 0 .781.385.248.384.248 1.16zm-.525.907q.07-.162.094-.38.026-.22.026-.527 0-.304-.026-.528-.024-.223-.096-.38-.07-.153-.192-.23-.12-.079-.31-.079-.187 0-.311.078-.122.078-.194.236-.068.148-.094.385-.024.238-.024.522 0 .311.022.521t.094.376q.066.155.186.237.122.082.321.082.188 0 .312-.078t.192-.235zm3.096.581h-.473l-.634-.857-.637.857h-.437l.87-1.113-.862-1.119h.473l.63.843.63-.843h.44l-.877 1.1zm2.421 0h-.473l-.634-.857-.637.857h-.437l.87-1.113-.862-1.119h.473l.63.843.63-.843h.44l-.877 1.1zm2.421 0h-.473l-.634-.857-.637.857h-.437l.87-1.113-.862-1.119h.473l.63.843.63-.843h.44l-.877 1.1zm2.421 0h-.473l-.634-.857-.637.857h-.437l.87-1.113-.862-1.119h.473l.63.843.63-.843h.44l-.877 1.1zm2.422 0h-.474l-.634-.857-.637.857h-.437l.87-1.113-.862-1.119h.473l.63.843.63-.843h.44l-.877 1.1zm2.42 0h-.473l-.634-.857-.637.857h-.437l.87-1.113-.862-1.119h.473l.63.843.63-.843h.44l-.877 1.1zm2.421 0h-.473l-.634-.857-.637.857h-.437l.87-1.113-.862-1.119h.473l.63.843.63-.843h.44l-.877 1.1z" fill="#fff" aria-label="0xxxxxxx"/><path d="M73.919 23.797h18.726c1.325 0 2.392.892 2.392 2v2.614c0 1.108-1.067 2-2.392 2H73.92c-1.326 0-2.393-.892-2.393-2v-2.614c0-1.108 1.067-2 2.393-2z" fill="#404040"/><path d="M75.934 27.132q0 .8-.252 1.176-.25.374-.777.374-.535 0-.783-.38-.245-.38-.245-1.166 0-.793.25-1.17.25-.38.778-.38.536 0 .781.385.248.384.248 1.16zm-.525.907q.07-.162.094-.38.026-.22.026-.527 0-.304-.026-.528-.024-.223-.096-.38-.07-.153-.192-.23-.12-.079-.31-.079-.187 0-.311.078-.122.078-.194.236-.068.148-.094.385-.024.238-.024.522 0 .311.022.521t.094.376q.066.155.186.237.122.082.321.082.188 0 .312-.078t.192-.235zm3.096.581h-.473l-.634-.857-.637.857h-.437l.87-1.113-.862-1.119h.473l.63.843.63-.843h.44l-.877 1.1zm2.421 0h-.473l-.634-.857-.637.857h-.437l.87-1.113-.862-1.119h.473l.63.843.63-.843h.44l-.877 1.1zm2.421 0h-.473l-.634-.857-.637.857h-.437l.87-1.113-.862-1.119h.473l.63.843.63-.843h.44l-.877 1.1zm2.421 0h-.473l-.634-.857-.637.857h-.437l.87-1.113-.862-1.119h.473l.63.843.63-.843h.44l-.877 1.1zm2.422 0h-.474l-.634-.857-.637.857h-.437l.87-1.113-.862-1.119h.473l.63.843.63-.843h.44l-.877 1.1zm2.42 0h-.473l-.634-.857-.637.857h-.437l.87-1.113-.862-1.119h.473l.63.843.63-.843h.44l-.877 1.1zm2.421 0h-.473l-.634-.857-.637.857h-.437l.87-1.113-.862-1.119h.473l.63.843.63-.843h.44l-.877 1.1z" fill="#fff" aria-label="0xxxxxxx"/><path d="M73.919 39.672h18.726c1.325 0 2.392.892 2.392 2v2.614c0 1.108-1.067 2-2.392 2H73.92c-1.326 0-2.393-.892-2.393-2v-2.614c0-1.108 1.067-2 2.393-2z" fill="#404040"/><path d="M75.934 43.007q0 .8-.252 1.176-.25.374-.777.374-.535 0-.783-.38-.245-.38-.245-1.166 0-.793.25-1.17.25-.38.778-.38.536 0 .781.385.248.384.248 1.16zm-.525.907q.07-.162.094-.38.026-.22.026-.527 0-.304-.026-.528-.024-.223-.096-.38-.07-.153-.192-.23-.12-.079-.31-.079-.187 0-.311.078-.122.078-.194.236-.068.148-.094.385-.024.238-.024.522 0 .311.022.521t.094.376q.066.155.186.237.122.082.321.082.188 0 .312-.078t.192-.235zm3.096.581h-.473l-.634-.857-.637.857h-.437l.87-1.113-.862-1.119h.473l.63.843.63-.843h.44l-.877 1.1zm2.421 0h-.473l-.634-.857-.637.857h-.437l.87-1.113-.862-1.119h.473l.63.843.63-.843h.44l-.877 1.1zm2.421 0h-.473l-.634-.857-.637.857h-.437l.87-1.113-.862-1.119h.473l.63.843.63-.843h.44l-.877 1.1zm2.421 0h-.473l-.634-.857-.637.857h-.437l.87-1.113-.862-1.119h.473l.63.843.63-.843h.44l-.877 1.1zm2.422 0h-.474l-.634-.857-.637.857h-.437l.87-1.113-.862-1.119h.473l.63.843.63-.843h.44l-.877 1.1zm2.42 0h-.473l-.634-.857-.637.857h-.437l.87-1.113-.862-1.119h.473l.63.843.63-.843h.44l-.877 1.1zm2.421 0h-.473l-.634-.857-.637.857h-.437l.87-1.113-.862-1.119h.473l.63.843.63-.843h.44l-.877 1.1z" fill="#fff" aria-label="0xxxxxxx"/><path d="M73.919 39.672h18.726c1.325 0 2.392.892 2.392 2v2.614c0 1.108-1.067 2-2.392 2H73.92c-1.326 0-2.393-.892-2.393-2v-2.614c0-1.108 1.067-2 2.393-2z" fill="#404040"/><path d="M75.934 43.007q0 .8-.252 1.176-.25.374-.777.374-.535 0-.783-.38-.245-.38-.245-1.166 0-.793.25-1.17.25-.38.778-.38.536 0 .781.385.248.384.248 1.16zm-.525.907q.07-.162.094-.38.026-.22.026-.527 0-.304-.026-.528-.024-.223-.096-.38-.07-.153-.192-.23-.12-.079-.31-.079-.187 0-.311.078-.122.078-.194.236-.068.148-.094.385-.024.238-.024.522 0 .311.022.521t.094.376q.066.155.186.237.122.082.321.082.188 0 .312-.078t.192-.235zm3.096.581h-.473l-.634-.857-.637.857h-.437l.87-1.113-.862-1.119h.473l.63.843.63-.843h.44l-.877 1.1zm2.421 0h-.473l-.634-.857-.637.857h-.437l.87-1.113-.862-1.119h.473l.63.843.63-.843h.44l-.877 1.1zm2.421 0h-.473l-.634-.857-.637.857h-.437l.87-1.113-.862-1.119h.473l.63.843.63-.843h.44l-.877 1.1zm2.421 0h-.473l-.634-.857-.637.857h-.437l.87-1.113-.862-1.119h.473l.63.843.63-.843h.44l-.877 1.1zm2.422 0h-.474l-.634-.857-.637.857h-.437l.87-1.113-.862-1.119h.473l.63.843.63-.843h.44l-.877 1.1zm2.42 0h-.473l-.634-.857-.637.857h-.437l.87-1.113-.862-1.119h.473l.63.843.63-.843h.44l-.877 1.1zm2.421 0h-.473l-.634-.857-.637.857h-.437l.87-1.113-.862-1.119h.473l.63.843.63-.843h.44l-.877 1.1z" fill="#fff" aria-label="0xxxxxxx"/><path d="M73.919 55.547h18.726c1.325 0 2.392.892 2.392 2v2.614c0 1.108-1.067 2-2.392 2H73.92c-1.326 0-2.393-.892-2.393-2v-2.614c0-1.108 1.067-2 2.393-2z" fill="#404040"/><path d="M75.934 58.882q0 .8-.252 1.176-.25.374-.777.374-.535 0-.783-.38-.245-.38-.245-1.166 0-.793.25-1.17.25-.38.778-.38.536 0 .781.385.248.384.248 1.16zm-.525.907q.07-.162.094-.38.026-.22.026-.527 0-.304-.026-.528-.024-.223-.096-.38-.07-.153-.192-.23-.12-.079-.31-.079-.187 0-.311.078-.122.078-.194.236-.068.148-.094.385-.024.238-.024.522 0 .311.022.521t.094.376q.066.155.186.237.122.082.321.082.188 0 .312-.078t.192-.235zm3.096.581h-.473l-.634-.857-.637.857h-.437l.87-1.113-.862-1.119h.473l.63.843.63-.843h.44l-.877 1.1zm2.421 0h-.473l-.634-.857-.637.857h-.437l.87-1.113-.862-1.119h.473l.63.843.63-.843h.44l-.877 1.1zm2.421 0h-.473l-.634-.857-.637.857h-.437l.87-1.113-.862-1.119h.473l.63.843.63-.843h.44l-.877 1.1zm2.421 0h-.473l-.634-.857-.637.857h-.437l.87-1.113-.862-1.119h.473l.63.843.63-.843h.44l-.877 1.1zm2.422 0h-.474l-.634-.857-.637.857h-.437l.87-1.113-.862-1.119h.473l.63.843.63-.843h.44l-.877 1.1zm2.42 0h-.473l-.634-.857-.637.857h-.437l.87-1.113-.862-1.119h.473l.63.843.63-.843h.44l-.877 1.1zm2.421 0h-.473l-.634-.857-.637.857h-.437l.87-1.113-.862-1.119h.473l.63.843.63-.843h.44l-.877 1.1z" fill="#fff" aria-label="0xxxxxxx"/><path d="M73.919 55.547h18.726c1.325 0 2.392.892 2.392 2v2.614c0 1.108-1.067 2-2.392 2H73.92c-1.326 0-2.393-.892-2.393-2v-2.614c0-1.108 1.067-2 2.393-2z" fill="#404040"/><path d="M75.934 58.882q0 .8-.252 1.176-.25.374-.777.374-.535 0-.783-.38-.245-.38-.245-1.166 0-.793.25-1.17.25-.38.778-.38.536 0 .781.385.248.384.248 1.16zm-.525.907q.07-.162.094-.38.026-.22.026-.527 0-.304-.026-.528-.024-.223-.096-.38-.07-.153-.192-.23-.12-.079-.31-.079-.187 0-.311.078-.122.078-.194.236-.068.148-.094.385-.024.238-.024.522 0 .311.022.521t.094.376q.066.155.186.237.122.082.321.082.188 0 .312-.078t.192-.235zm3.096.581h-.473l-.634-.857-.637.857h-.437l.87-1.113-.862-1.119h.473l.63.843.63-.843h.44l-.877 1.1zm2.421 0h-.473l-.634-.857-.637.857h-.437l.87-1.113-.862-1.119h.473l.63.843.63-.843h.44l-.877 1.1zm2.421 0h-.473l-.634-.857-.637.857h-.437l.87-1.113-.862-1.119h.473l.63.843.63-.843h.44l-.877 1.1zm2.421 0h-.473l-.634-.857-.637.857h-.437l.87-1.113-.862-1.119h.473l.63.843.63-.843h.44l-.877 1.1zm2.422 0h-.474l-.634-.857-.637.857h-.437l.87-1.113-.862-1.119h.473l.63.843.63-.843h.44l-.877 1.1zm2.42 0h-.473l-.634-.857-.637.857h-.437l.87-1.113-.862-1.119h.473l.63.843.63-.843h.44l-.877 1.1zm2.421 0h-.473l-.634-.857-.637.857h-.437l.87-1.113-.862-1.119h.473l.63.843.63-.843h.44l-.877 1.1z" fill="#fff" aria-label="0xxxxxxx"/><path d="M73.919 71.422h18.726c1.325 0 2.392.892 2.392 2v2.614c0 1.108-1.067 2-2.392 2H73.92c-1.326 0-2.393-.892-2.393-2v-2.614c0-1.108 1.067-2 2.393-2z" fill="#404040"/><path d="M75.934 74.757q0 .8-.252 1.176-.25.374-.777.374-.535 0-.783-.38-.245-.38-.245-1.166 0-.793.25-1.17.25-.38.778-.38.536 0 .781.385.248.384.248 1.16zm-.525.907q.07-.162.094-.38.026-.22.026-.527 0-.304-.026-.528-.024-.223-.096-.38-.07-.153-.192-.23-.12-.079-.31-.079-.187 0-.311.078-.122.078-.194.236-.068.148-.094.385-.024.238-.024.522 0 .311.022.521t.094.376q.066.155.186.237.122.082.321.082.188 0 .312-.078t.192-.235zm3.096.581h-.473l-.634-.857-.637.857h-.437l.87-1.113-.862-1.119h.473l.63.843.63-.842h.44l-.877 1.098zm2.421 0h-.473l-.634-.857-.637.857h-.437l.87-1.113-.862-1.119h.473l.63.843.63-.842h.44l-.877 1.098zm2.421 0h-.473l-.634-.857-.637.857h-.437l.87-1.113-.862-1.119h.473l.63.843.63-.842h.44l-.877 1.098zm2.421 0h-.473l-.634-.857-.637.857h-.437l.87-1.113-.862-1.119h.473l.63.843.63-.842h.44l-.877 1.098zm2.422 0h-.474l-.634-.857-.637.857h-.437l.87-1.113-.862-1.119h.473l.63.843.63-.842h.44l-.877 1.098zm2.42 0h-.473l-.634-.857-.637.857h-.437l.87-1.113-.862-1.119h.473l.63.843.63-.842h.44l-.877 1.098zm2.421 0h-.473l-.634-.857-.637.857h-.437l.87-1.113-.862-1.119h.473l.63.843.63-.842h.44l-.877 1.098z" fill="#fff" aria-label="0xxxxxxx"/><path d="M73.919 71.422h18.726c1.325 0 2.392.892 2.392 2v2.614c0 1.108-1.067 2-2.392 2H73.92c-1.326 0-2.393-.892-2.393-2v-2.614c0-1.108 1.067-2 2.393-2z" fill="#404040"/><path d="M75.934 74.757q0 .8-.252 1.176-.25.374-.777.374-.535 0-.783-.38-.245-.38-.245-1.166 0-.793.25-1.17.25-.38.778-.38.536 0 .781.385.248.384.248 1.16zm-.525.907q.07-.162.094-.38.026-.22.026-.527 0-.304-.026-.528-.024-.223-.096-.38-.07-.153-.192-.23-.12-.079-.31-.079-.187 0-.311.078-.122.078-.194.236-.068.148-.094.385-.024.238-.024.522 0 .311.022.521t.094.376q.066.155.186.237.122.082.321.082.188 0 .312-.078t.192-.235zm3.096.581h-.473l-.634-.857-.637.857h-.437l.87-1.113-.862-1.119h.473l.63.843.63-.842h.44l-.877 1.098zm2.421 0h-.473l-.634-.857-.637.857h-.437l.87-1.113-.862-1.119h.473l.63.843.63-.842h.44l-.877 1.098zm2.421 0h-.473l-.634-.857-.637.857h-.437l.87-1.113-.862-1.119h.473l.63.843.63-.842h.44l-.877 1.098zm2.421 0h-.473l-.634-.857-.637.857h-.437l.87-1.113-.862-1.119h.473l.63.843.63-.842h.44l-.877 1.098zm2.422 0h-.474l-.634-.857-.637.857h-.437l.87-1.113-.862-1.119h.473l.63.843.63-.842h.44l-.877 1.098zm2.42 0h-.473l-.634-.857-.637.857h-.437l.87-1.113-.862-1.119h.473l.63.843.63-.842h.44l-.877 1.098zm2.421 0h-.473l-.634-.857-.637.857h-.437l.87-1.113-.862-1.119h.473l.63.843.63-.842h.44l-.877 1.098z" fill="#fff" aria-label="0xxxxxxx"/><path d="M73.919 23.797h18.726c1.325 0 2.392.892 2.392 2v2.614c0 1.108-1.067 2-2.392 2H73.92c-1.326 0-2.393-.892-2.393-2v-2.614c0-1.108 1.067-2 2.393-2z" fill="#404040"/><path d="M75.934 27.132q0 .8-.252 1.176-.25.374-.777.374-.535 0-.783-.38-.245-.38-.245-1.166 0-.793.25-1.17.25-.38.778-.38.536 0 .781.385.248.384.248 1.16zm-.525.907q.07-.162.094-.38.026-.22.026-.527 0-.304-.026-.528-.024-.223-.096-.38-.07-.153-.192-.23-.12-.079-.31-.079-.187 0-.311.078-.122.078-.194.236-.068.148-.094.385-.024.238-.024.522 0 .311.022.521t.094.376q.066.155.186.237.122.082.321.082.188 0 .312-.078t.192-.235zm3.096.581h-.473l-.634-.857-.637.857h-.437l.87-1.113-.862-1.119h.473l.63.843.63-.843h.44l-.877 1.1zm2.421 0h-.473l-.634-.857-.637.857h-.437l.87-1.113-.862-1.119h.473l.63.843.63-.843h.44l-.877 1.1zm2.421 0h-.473l-.634-.857-.637.857h-.437l.87-1.113-.862-1.119h.473l.63.843.63-.843h.44l-.877 1.1zm2.421 0h-.473l-.634-.857-.637.857h-.437l.87-1.113-.862-1.119h.473l.63.843.63-.843h.44l-.877 1.1zm2.422 0h-.474l-.634-.857-.637.857h-.437l.87-1.113-.862-1.119h.473l.63.843.63-.843h.44l-.877 1.1zm2.42 0h-.473l-.634-.857-.637.857h-.437l.87-1.113-.862-1.119h.473l.63.843.63-.843h.44l-.877 1.1zm2.421 0h-.473l-.634-.857-.637.857h-.437l.87-1.113-.862-1.119h.473l.63.843.63-.843h.44l-.877 1.1z" fill="#fff" aria-label="0xxxxxxx"/><path d="M73.919 23.797h18.726c1.325 0 2.392.892 2.392 2v2.614c0 1.108-1.067 2-2.392 2H73.92c-1.326 0-2.393-.892-2.393-2v-2.614c0-1.108 1.067-2 2.393-2z" fill="#404040"/><path d="M75.934 27.132q0 .8-.252 1.176-.25.374-.777.374-.535 0-.783-.38-.245-.38-.245-1.166 0-.793.25-1.17.25-.38.778-.38.536 0 .781.385.248.384.248 1.16zm-.525.907q.07-.162.094-.38.026-.22.026-.527 0-.304-.026-.528-.024-.223-.096-.38-.07-.153-.192-.23-.12-.079-.31-.079-.187 0-.311.078-.122.078-.194.236-.068.148-.094.385-.024.238-.024.522 0 .311.022.521t.094.376q.066.155.186.237.122.082.321.082.188 0 .312-.078t.192-.235zm3.096.581h-.473l-.634-.857-.637.857h-.437l.87-1.113-.862-1.119h.473l.63.843.63-.843h.44l-.877 1.1zm2.421 0h-.473l-.634-.857-.637.857h-.437l.87-1.113-.862-1.119h.473l.63.843.63-.843h.44l-.877 1.1zm2.421 0h-.473l-.634-.857-.637.857h-.437l.87-1.113-.862-1.119h.473l.63.843.63-.843h.44l-.877 1.1zm2.421 0h-.473l-.634-.857-.637.857h-.437l.87-1.113-.862-1.119h.473l.63.843.63-.843h.44l-.877 1.1zm2.422 0h-.474l-.634-.857-.637.857h-.437l.87-1.113-.862-1.119h.473l.63.843.63-.843h.44l-.877 1.1zm2.42 0h-.473l-.634-.857-.637.857h-.437l.87-1.113-.862-1.119h.473l.63.843.63-.843h.44l-.877 1.1zm2.421 0h-.473l-.634-.857-.637.857h-.437l.87-1.113-.862-1.119h.473l.63.843.63-.843h.44l-.877 1.1z" fill="#fff" aria-label="0xxxxxxx"/><path d="M73.919 39.672h18.726c1.325 0 2.392.892 2.392 2v2.614c0 1.108-1.067 2-2.392 2H73.92c-1.326 0-2.393-.892-2.393-2v-2.614c0-1.108 1.067-2 2.393-2z" fill="#404040"/><path d="M75.934 43.007q0 .8-.252 1.176-.25.374-.777.374-.535 0-.783-.38-.245-.38-.245-1.166 0-.793.25-1.17.25-.38.778-.38.536 0 .781.385.248.384.248 1.16zm-.525.907q.07-.162.094-.38.026-.22.026-.527 0-.304-.026-.528-.024-.223-.096-.38-.07-.153-.192-.23-.12-.079-.31-.079-.187 0-.311.078-.122.078-.194.236-.068.148-.094.385-.024.238-.024.522 0 .311.022.521t.094.376q.066.155.186.237.122.082.321.082.188 0 .312-.078t.192-.235zm3.096.581h-.473l-.634-.857-.637.857h-.437l.87-1.113-.862-1.119h.473l.63.843.63-.843h.44l-.877 1.1zm2.421 0h-.473l-.634-.857-.637.857h-.437l.87-1.113-.862-1.119h.473l.63.843.63-.843h.44l-.877 1.1zm2.421 0h-.473l-.634-.857-.637.857h-.437l.87-1.113-.862-1.119h.473l.63.843.63-.843h.44l-.877 1.1zm2.421 0h-.473l-.634-.857-.637.857h-.437l.87-1.113-.862-1.119h.473l.63.843.63-.843h.44l-.877 1.1zm2.422 0h-.474l-.634-.857-.637.857h-.437l.87-1.113-.862-1.119h.473l.63.843.63-.843h.44l-.877 1.1zm2.42 0h-.473l-.634-.857-.637.857h-.437l.87-1.113-.862-1.119h.473l.63.843.63-.843h.44l-.877 1.1zm2.421 0h-.473l-.634-.857-.637.857h-.437l.87-1.113-.862-1.119h.473l.63.843.63-.843h.44l-.877 1.1z" fill="#fff" aria-label="0xxxxxxx"/><path d="M73.919 39.672h18.726c1.325 0 2.392.892 2.392 2v2.614c0 1.108-1.067 2-2.392 2H73.92c-1.326 0-2.393-.892-2.393-2v-2.614c0-1.108 1.067-2 2.393-2z" fill="#404040"/><path d="M75.768 44.495h-1.61v-.304h.62v-1.993h-.62v-.272q.126 0 .27-.02.144-.022.217-.062.092-.05.144-.126.054-.078.062-.208h.31v2.681h.607zm2.602 0h-1.61v-.304h.618v-1.993h-.619v-.272q.126 0 .27-.02.144-.022.217-.062.092-.05.144-.126.054-.078.062-.208h.31v2.681h.607zm2.765-1.488q0 .8-.252 1.176-.25.374-.777.374-.535 0-.783-.38-.245-.38-.245-1.166 0-.793.25-1.17.25-.38.778-.38.536 0 .781.385.248.384.248 1.16zm-.525.907q.07-.162.094-.38.026-.22.026-.527 0-.304-.026-.528-.024-.223-.096-.38-.07-.153-.192-.23-.12-.079-.31-.079-.187 0-.311.078-.122.078-.194.236-.068.148-.094.385-.024.238-.024.522 0 .311.022.521t.094.376q.066.155.186.237.122.082.321.082.188 0 .312-.078t.192-.235zm3.096.581h-.473l-.634-.857-.637.857h-.437l.87-1.113-.862-1.119h.473l.63.843.63-.843h.44l-.877 1.1zm2.421 0h-.473l-.634-.857-.637.857h-.437l.87-1.113-.862-1.119h.473l.63.843.63-.843h.44l-.877 1.1zm2.421 0h-.473l-.634-.857-.637.857h-.437l.87-1.113-.862-1.119h.473l.63.843.63-.843h.44l-.877 1.1zm2.422 0h-.474l-.634-.857-.637.857h-.437l.87-1.113-.862-1.119h.473l.63.843.63-.843h.44l-.877 1.1zm2.42 0h-.473l-.634-.857-.637.857h-.437l.87-1.113-.862-1.119h.473l.63.843.63-.843h.44l-.877 1.1z" fill="#fff" aria-label="110xxxxx"/><path d="M73.919 55.547h18.726c1.325 0 2.392.892 2.392 2v2.614c0 1.108-1.067 2-2.392 2H73.92c-1.326 0-2.393-.892-2.393-2v-2.614c0-1.108 1.067-2 2.393-2z" fill="#404040"/><path d="M75.934 58.882q0 .8-.252 1.176-.25.374-.777.374-.535 0-.783-.38-.245-.38-.245-1.166 0-.793.25-1.17.25-.38.778-.38.536 0 .781.385.248.384.248 1.16zm-.525.907q.07-.162.094-.38.026-.22.026-.527 0-.304-.026-.528-.024-.223-.096-.38-.07-.153-.192-.23-.12-.079-.31-.079-.187 0-.311.078-.122.078-.194.236-.068.148-.094.385-.024.238-.024.522 0 .311.022.521t.094.376q.066.155.186.237.122.082.321.082.188 0 .312-.078t.192-.235zm3.096.581h-.473l-.634-.857-.637.857h-.437l.87-1.113-.862-1.119h.473l.63.843.63-.843h.44l-.877 1.1zm2.421 0h-.473l-.634-.857-.637.857h-.437l.87-1.113-.862-1.119h.473l.63.843.63-.843h.44l-.877 1.1zm2.421 0h-.473l-.634-.857-.637.857h-.437l.87-1.113-.862-1.119h.473l.63.843.63-.843h.44l-.877 1.1zm2.421 0h-.473l-.634-.857-.637.857h-.437l.87-1.113-.862-1.119h.473l.63.843.63-.843h.44l-.877 1.1zm2.422 0h-.474l-.634-.857-.637.857h-.437l.87-1.113-.862-1.119h.473l.63.843.63-.843h.44l-.877 1.1zm2.42 0h-.473l-.634-.857-.637.857h-.437l.87-1.113-.862-1.119h.473l.63.843.63-.843h.44l-.877 1.1zm2.421 0h-.473l-.634-.857-.637.857h-.437l.87-1.113-.862-1.119h.473l.63.843.63-.843h.44l-.877 1.1z" fill="#fff" aria-label="0xxxxxxx"/><path d="M73.919 55.547h18.726c1.325 0 2.392.892 2.392 2v2.614c0 1.108-1.067 2-2.392 2H73.92c-1.326 0-2.393-.892-2.393-2v-2.614c0-1.108 1.067-2 2.393-2z" fill="#404040"/><path d="M75.768 60.37h-1.61v-.304h.62v-1.993h-.62V57.8q.126 0 .27-.02.144-.022.217-.062.092-.05.144-.126.054-.078.062-.208h.31v2.681h.607zm2.602 0h-1.61v-.304h.618v-1.993h-.619V57.8q.126 0 .27-.02.144-.022.217-.062.092-.05.144-.126.054-.078.062-.208h.31v2.681h.607zm2.6 0h-1.61v-.304h.62v-1.993h-.62V57.8q.126 0 .27-.02.144-.022.217-.062.092-.05.144-.126.054-.078.062-.208h.31v2.681h.607zm2.766-1.488q0 .8-.252 1.176-.25.374-.777.374-.535 0-.783-.38-.245-.38-.245-1.166 0-.793.25-1.17.25-.38.778-.38.536 0 .781.385.248.384.248 1.16zm-.525.907q.07-.162.094-.38.026-.22.026-.527 0-.304-.026-.528-.024-.223-.096-.38-.07-.153-.192-.23-.12-.079-.31-.079-.187 0-.311.078-.122.078-.194.236-.068.148-.094.385-.024.238-.024.522 0 .311.022.521t.094.376q.066.155.186.237.122.082.321.082.188 0 .312-.078t.192-.235zm3.096.581h-.473l-.634-.857-.637.857h-.437l.87-1.113-.862-1.119h.473l.63.843.63-.843h.44l-.877 1.1zm2.421 0h-.473l-.634-.857-.637.857h-.437l.87-1.113-.862-1.119h.473l.63.843.63-.843h.44l-.877 1.1zm2.422 0h-.474l-.634-.857-.637.857h-.437l.87-1.113-.862-1.119h.473l.63.843.63-.843h.44l-.877 1.1zm2.42 0h-.473l-.634-.857-.637.857h-.437l.87-1.113-.862-1.119h.473l.63.843.63-.843h.44l-.877 1.1z" fill="#fff" aria-label="1110xxxx"/><path d="M73.919 71.422h18.726c1.325 0 2.392.892 2.392 2v2.614c0 1.108-1.067 2-2.392 2H73.92c-1.326 0-2.393-.892-2.393-2v-2.614c0-1.108 1.067-2 2.393-2z" fill="#404040"/><path d="M75.934 74.757q0 .8-.252 1.176-.25.374-.777.374-.535 0-.783-.38-.245-.38-.245-1.166 0-.793.25-1.17.25-.38.778-.38.536 0 .781.385.248.384.248 1.16zm-.525.907q.07-.162.094-.38.026-.22.026-.527 0-.304-.026-.528-.024-.223-.096-.38-.07-.153-.192-.23-.12-.079-.31-.079-.187 0-.311.078-.122.078-.194.236-.068.148-.094.385-.024.238-.024.522 0 .311.022.521t.094.376q.066.155.186.237.122.082.321.082.188 0 .312-.078t.192-.235zm3.096.581h-.473l-.634-.857-.637.857h-.437l.87-1.113-.862-1.119h.473l.63.843.63-.842h.44l-.877 1.098zm2.421 0h-.473l-.634-.857-.637.857h-.437l.87-1.113-.862-1.119h.473l.63.843.63-.842h.44l-.877 1.098zm2.421 0h-.473l-.634-.857-.637.857h-.437l.87-1.113-.862-1.119h.473l.63.843.63-.842h.44l-.877 1.098zm2.421 0h-.473l-.634-.857-.637.857h-.437l.87-1.113-.862-1.119h.473l.63.843.63-.842h.44l-.877 1.098zm2.422 0h-.474l-.634-.857-.637.857h-.437l.87-1.113-.862-1.119h.473l.63.843.63-.842h.44l-.877 1.098zm2.42 0h-.473l-.634-.857-.637.857h-.437l.87-1.113-.862-1.119h.473l.63.843.63-.842h.44l-.877 1.098zm2.421 0h-.473l-.634-.857-.637.857h-.437l.87-1.113-.862-1.119h.473l.63.843.63-.842h.44l-.877 1.098z" fill="#fff" aria-label="0xxxxxxx"/><path d="M73.919 71.422h18.726c1.325 0 2.392.892 2.392 2v2.614c0 1.108-1.067 2-2.392 2H73.92c-1.326 0-2.393-.892-2.393-2v-2.614c0-1.108 1.067-2 2.393-2z" fill="#404040"/><path d="M75.768 76.245h-1.61v-.304h.62v-1.993h-.62v-.272q.126 0 .27-.02.144-.022.217-.062.092-.05.144-.126.054-.078.062-.208h.31v2.681h.607zm2.602 0h-1.61v-.304h.618v-1.993h-.619v-.272q.126 0 .27-.02.144-.022.217-.062.092-.05.144-.126.054-.078.062-.208h.31v2.681h.607zm2.6 0h-1.61v-.304h.62v-1.993h-.62v-.272q.126 0 .27-.02.144-.022.217-.062.092-.05.144-.126.054-.078.062-.208h.31v2.681h.607zm2.6 0h-1.61v-.304h.62v-1.993h-.62v-.272q.126 0 .27-.02.144-.022.217-.062.092-.05.144-.126.054-.078.062-.208h.31v2.681h.607zm2.767-1.488q0 .8-.252 1.176-.25.374-.777.374-.535 0-.783-.38-.245-.38-.245-1.166 0-.793.25-1.17.25-.38.778-.38.536 0 .781.385.248.384.248 1.16zm-.525.907q.07-.162.094-.38.026-.22.026-.527 0-.304-.026-.528-.024-.223-.096-.38-.07-.153-.192-.23-.12-.079-.31-.079-.187 0-.311.078-.122.078-.194.236-.068.148-.094.385-.024.238-.024.522 0 .311.022.521t.094.376q.066.155.186.237.122.082.321.082.188 0 .312-.078t.192-.235zm3.096.581h-.473l-.634-.857-.637.857h-.437l.87-1.113-.862-1.119h.473l.63.843.63-.842h.44l-.877 1.098zm2.422 0h-.474l-.634-.857-.637.857h-.437l.87-1.113-.862-1.119h.473l.63.843.63-.842h.44l-.877 1.098zm2.42 0h-.473l-.634-.857-.637.857h-.437l.87-1.113-.862-1.119h.473l.63.843.63-.842h.44l-.877 1.098z" fill="#fff" aria-label="11110xxx"/><path d="M108.448 39.672h18.726c1.325 0 2.392.892 2.392 2v2.614c0 1.108-1.067 2-2.392 2h-18.726c-1.326 0-2.393-.892-2.393-2v-2.614c0-1.108 1.067-2 2.393-2z" fill="#404040"/><path d="M110.463 43.007q0 .8-.252 1.176-.25.374-.777.374-.535 0-.783-.38-.245-.38-.245-1.166 0-.793.25-1.17.25-.38.778-.38.536 0 .781.385.248.384.248 1.16zm-.525.907q.07-.162.094-.38.026-.22.026-.527 0-.304-.026-.528-.024-.223-.096-.38-.07-.153-.192-.23-.12-.079-.31-.079-.187 0-.311.078-.122.078-.194.236-.068.148-.094.385-.024.238-.024.522 0 .311.022.521t.094.376q.066.155.186.237.122.082.321.082.188 0 .312-.078t.192-.235zm3.096.581h-.473l-.634-.857-.637.857h-.437l.87-1.113-.862-1.119h.473l.63.843.63-.843h.44l-.877 1.1zm2.421 0h-.473l-.634-.857-.637.857h-.437l.87-1.113-.862-1.119h.473l.63.843.63-.843h.44l-.877 1.1zm2.421 0h-.473l-.634-.857-.637.857h-.437l.87-1.113-.862-1.119h.473l.63.843.63-.843h.44l-.877 1.1zm2.421 0h-.473l-.634-.857-.637.857h-.437l.87-1.113-.862-1.119h.473l.63.843.63-.843h.44l-.877 1.1zm2.421 0h-.473l-.634-.857-.637.857h-.437l.87-1.113-.862-1.119h.473l.63.843.63-.843h.44l-.877 1.1zm2.422 0h-.474l-.634-.857-.637.857h-.437l.87-1.113-.862-1.119h.473l.63.843.63-.843h.44l-.877 1.1zm2.42 0h-.473l-.634-.857-.637.857h-.437l.87-1.113-.862-1.119h.473l.63.843.63-.843h.44l-.877 1.1z" fill="#fff" aria-label="0xxxxxxx"/><path d="M108.448 39.672h18.726c1.325 0 2.392.892 2.392 2v2.614c0 1.108-1.067 2-2.392 2h-18.726c-1.326 0-2.393-.892-2.393-2v-2.614c0-1.108 1.067-2 2.393-2z" fill="#404040"/><path d="M110.463 43.007q0 .8-.252 1.176-.25.374-.777.374-.535 0-.783-.38-.245-.38-.245-1.166 0-.793.25-1.17.25-.38.778-.38.536 0 .781.385.248.384.248 1.16zm-.525.907q.07-.162.094-.38.026-.22.026-.527 0-.304-.026-.528-.024-.223-.096-.38-.07-.153-.192-.23-.12-.079-.31-.079-.187 0-.311.078-.122.078-.194.236-.068.148-.094.385-.024.238-.024.522 0 .311.022.521t.094.376q.066.155.186.237.122.082.321.082.188 0 .312-.078t.192-.235zm3.096.581h-.473l-.634-.857-.637.857h-.437l.87-1.113-.862-1.119h.473l.63.843.63-.843h.44l-.877 1.1zm2.421 0h-.473l-.634-.857-.637.857h-.437l.87-1.113-.862-1.119h.473l.63.843.63-.843h.44l-.877 1.1zm2.421 0h-.473l-.634-.857-.637.857h-.437l.87-1.113-.862-1.119h.473l.63.843.63-.843h.44l-.877 1.1zm2.421 0h-.473l-.634-.857-.637.857h-.437l.87-1.113-.862-1.119h.473l.63.843.63-.843h.44l-.877 1.1zm2.421 0h-.473l-.634-.857-.637.857h-.437l.87-1.113-.862-1.119h.473l.63.843.63-.843h.44l-.877 1.1zm2.422 0h-.474l-.634-.857-.637.857h-.437l.87-1.113-.862-1.119h.473l.63.843.63-.843h.44l-.877 1.1zm2.42 0h-.473l-.634-.857-.637.857h-.437l.87-1.113-.862-1.119h.473l.63.843.63-.843h.44l-.877 1.1z" fill="#fff" aria-label="0xxxxxxx"/><path d="M108.448 55.547h18.726c1.325 0 2.392.892 2.392 2v2.614c0 1.108-1.067 2-2.392 2h-18.726c-1.326 0-2.393-.892-2.393-2v-2.614c0-1.108 1.067-2 2.393-2z" fill="#404040"/><path d="M110.463 58.882q0 .8-.252 1.176-.25.374-.777.374-.535 0-.783-.38-.245-.38-.245-1.166 0-.793.25-1.17.25-.38.778-.38.536 0 .781.385.248.384.248 1.16zm-.525.907q.07-.162.094-.38.026-.22.026-.527 0-.304-.026-.528-.024-.223-.096-.38-.07-.153-.192-.23-.12-.079-.31-.079-.187 0-.311.078-.122.078-.194.236-.068.148-.094.385-.024.238-.024.522 0 .311.022.521t.094.376q.066.155.186.237.122.082.321.082.188 0 .312-.078t.192-.235zm3.096.581h-.473l-.634-.857-.637.857h-.437l.87-1.113-.862-1.119h.473l.63.843.63-.843h.44l-.877 1.1zm2.421 0h-.473l-.634-.857-.637.857h-.437l.87-1.113-.862-1.119h.473l.63.843.63-.843h.44l-.877 1.1zm2.421 0h-.473l-.634-.857-.637.857h-.437l.87-1.113-.862-1.119h.473l.63.843.63-.843h.44l-.877 1.1zm2.421 0h-.473l-.634-.857-.637.857h-.437l.87-1.113-.862-1.119h.473l.63.843.63-.843h.44l-.877 1.1zm2.421 0h-.473l-.634-.857-.637.857h-.437l.87-1.113-.862-1.119h.473l.63.843.63-.843h.44l-.877 1.1zm2.422 0h-.474l-.634-.857-.637.857h-.437l.87-1.113-.862-1.119h.473l.63.843.63-.843h.44l-.877 1.1zm2.42 0h-.473l-.634-.857-.637.857h-.437l.87-1.113-.862-1.119h.473l.63.843.63-.843h.44l-.877 1.1z" fill="#fff" aria-label="0xxxxxxx"/><path d="M108.448 55.547h18.726c1.325 0 2.392.892 2.392 2v2.614c0 1.108-1.067 2-2.392 2h-18.726c-1.326 0-2.393-.892-2.393-2v-2.614c0-1.108 1.067-2 2.393-2z" fill="#404040"/><path d="M110.463 58.882q0 .8-.252 1.176-.25.374-.777.374-.535 0-.783-.38-.245-.38-.245-1.166 0-.793.25-1.17.25-.38.778-.38.536 0 .781.385.248.384.248 1.16zm-.525.907q.07-.162.094-.38.026-.22.026-.527 0-.304-.026-.528-.024-.223-.096-.38-.07-.153-.192-.23-.12-.079-.31-.079-.187 0-.311.078-.122.078-.194.236-.068.148-.094.385-.024.238-.024.522 0 .311.022.521t.094.376q.066.155.186.237.122.082.321.082.188 0 .312-.078t.192-.235zm3.096.581h-.473l-.634-.857-.637.857h-.437l.87-1.113-.862-1.119h.473l.63.843.63-.843h.44l-.877 1.1zm2.421 0h-.473l-.634-.857-.637.857h-.437l.87-1.113-.862-1.119h.473l.63.843.63-.843h.44l-.877 1.1zm2.421 0h-.473l-.634-.857-.637.857h-.437l.87-1.113-.862-1.119h.473l.63.843.63-.843h.44l-.877 1.1zm2.421 0h-.473l-.634-.857-.637.857h-.437l.87-1.113-.862-1.119h.473l.63.843.63-.843h.44l-.877 1.1zm2.421 0h-.473l-.634-.857-.637.857h-.437l.87-1.113-.862-1.119h.473l.63.843.63-.843h.44l-.877 1.1zm2.422 0h-.474l-.634-.857-.637.857h-.437l.87-1.113-.862-1.119h.473l.63.843.63-.843h.44l-.877 1.1zm2.42 0h-.473l-.634-.857-.637.857h-.437l.87-1.113-.862-1.119h.473l.63.843.63-.843h.44l-.877 1.1z" fill="#fff" aria-label="0xxxxxxx"/><path d="M108.448 71.422h18.726c1.325 0 2.392.892 2.392 2v2.614c0 1.108-1.067 2-2.392 2h-18.726c-1.326 0-2.393-.892-2.393-2v-2.614c0-1.108 1.067-2 2.393-2z" fill="#404040"/><path d="M110.463 74.757q0 .8-.252 1.176-.25.374-.777.374-.535 0-.783-.38-.245-.38-.245-1.166 0-.793.25-1.17.25-.38.778-.38.536 0 .781.385.248.384.248 1.16zm-.525.907q.07-.162.094-.38.026-.22.026-.527 0-.304-.026-.528-.024-.223-.096-.38-.07-.153-.192-.23-.12-.079-.31-.079-.187 0-.311.078-.122.078-.194.236-.068.148-.094.385-.024.238-.024.522 0 .311.022.521t.094.376q.066.155.186.237.122.082.321.082.188 0 .312-.078t.192-.235zm3.096.581h-.473l-.634-.857-.637.857h-.437l.87-1.113-.862-1.119h.473l.63.843.63-.842h.44l-.877 1.098zm2.421 0h-.473l-.634-.857-.637.857h-.437l.87-1.113-.862-1.119h.473l.63.843.63-.842h.44l-.877 1.098zm2.421 0h-.473l-.634-.857-.637.857h-.437l.87-1.113-.862-1.119h.473l.63.843.63-.842h.44L117 75.111zm2.421 0h-.473l-.634-.857-.637.857h-.437l.87-1.113-.862-1.119h.473l.63.843.63-.842h.44l-.877 1.098zm2.421 0h-.473l-.634-.857-.637.857h-.437l.87-1.113-.862-1.119h.473l.63.843.63-.842h.44l-.877 1.098zm2.422 0h-.474l-.634-.857-.637.857h-.437l.87-1.113-.862-1.119h.473l.63.843.63-.842h.44l-.877 1.098zm2.42 0h-.473l-.634-.857-.637.857h-.437l.87-1.113-.862-1.119h.473l.63.843.63-.842h.44l-.877 1.098z" fill="#fff" aria-label="0xxxxxxx"/><path d="M108.448 71.422h18.726c1.325 0 2.392.892 2.392 2v2.614c0 1.108-1.067 2-2.392 2h-18.726c-1.326 0-2.393-.892-2.393-2v-2.614c0-1.108 1.067-2 2.393-2z" fill="#404040"/><path d="M110.463 74.757q0 .8-.252 1.176-.25.374-.777.374-.535 0-.783-.38-.245-.38-.245-1.166 0-.793.25-1.17.25-.38.778-.38.536 0 .781.385.248.384.248 1.16zm-.525.907q.07-.162.094-.38.026-.22.026-.527 0-.304-.026-.528-.024-.223-.096-.38-.07-.153-.192-.23-.12-.079-.31-.079-.187 0-.311.078-.122.078-.194.236-.068.148-.094.385-.024.238-.024.522 0 .311.022.521t.094.376q.066.155.186.237.122.082.321.082.188 0 .312-.078t.192-.235zm3.096.581h-.473l-.634-.857-.637.857h-.437l.87-1.113-.862-1.119h.473l.63.843.63-.842h.44l-.877 1.098zm2.421 0h-.473l-.634-.857-.637.857h-.437l.87-1.113-.862-1.119h.473l.63.843.63-.842h.44l-.877 1.098zm2.421 0h-.473l-.634-.857-.637.857h-.437l.87-1.113-.862-1.119h.473l.63.843.63-.842h.44L117 75.111zm2.421 0h-.473l-.634-.857-.637.857h-.437l.87-1.113-.862-1.119h.473l.63.843.63-.842h.44l-.877 1.098zm2.421 0h-.473l-.634-.857-.637.857h-.437l.87-1.113-.862-1.119h.473l.63.843.63-.842h.44l-.877 1.098zm2.422 0h-.474l-.634-.857-.637.857h-.437l.87-1.113-.862-1.119h.473l.63.843.63-.842h.44l-.877 1.098zm2.42 0h-.473l-.634-.857-.637.857h-.437l.87-1.113-.862-1.119h.473l.63.843.63-.842h.44l-.877 1.098z" fill="#fff" aria-label="0xxxxxxx"/><path d="M108.448 39.672h18.726c1.325 0 2.392.892 2.392 2v2.614c0 1.108-1.067 2-2.392 2h-18.726c-1.326 0-2.393-.892-2.393-2v-2.614c0-1.108 1.067-2 2.393-2z" fill="#404040"/><path d="M110.463 43.007q0 .8-.252 1.176-.25.374-.777.374-.535 0-.783-.38-.245-.38-.245-1.166 0-.793.25-1.17.25-.38.778-.38.536 0 .781.385.248.384.248 1.16zm-.525.907q.07-.162.094-.38.026-.22.026-.527 0-.304-.026-.528-.024-.223-.096-.38-.07-.153-.192-.23-.12-.079-.31-.079-.187 0-.311.078-.122.078-.194.236-.068.148-.094.385-.024.238-.024.522 0 .311.022.521t.094.376q.066.155.186.237.122.082.321.082.188 0 .312-.078t.192-.235zm3.096.581h-.473l-.634-.857-.637.857h-.437l.87-1.113-.862-1.119h.473l.63.843.63-.843h.44l-.877 1.1zm2.421 0h-.473l-.634-.857-.637.857h-.437l.87-1.113-.862-1.119h.473l.63.843.63-.843h.44l-.877 1.1zm2.421 0h-.473l-.634-.857-.637.857h-.437l.87-1.113-.862-1.119h.473l.63.843.63-.843h.44l-.877 1.1zm2.421 0h-.473l-.634-.857-.637.857h-.437l.87-1.113-.862-1.119h.473l.63.843.63-.843h.44l-.877 1.1zm2.421 0h-.473l-.634-.857-.637.857h-.437l.87-1.113-.862-1.119h.473l.63.843.63-.843h.44l-.877 1.1zm2.422 0h-.474l-.634-.857-.637.857h-.437l.87-1.113-.862-1.119h.473l.63.843.63-.843h.44l-.877 1.1zm2.42 0h-.473l-.634-.857-.637.857h-.437l.87-1.113-.862-1.119h.473l.63.843.63-.843h.44l-.877 1.1z" fill="#fff" aria-label="0xxxxxxx"/><path d="M108.448 39.672h18.726c1.325 0 2.392.892 2.392 2v2.614c0 1.108-1.067 2-2.392 2h-18.726c-1.326 0-2.393-.892-2.393-2v-2.614c0-1.108 1.067-2 2.393-2z" fill="#404040"/><path d="M110.297 44.495h-1.61v-.304h.62v-1.993h-.62v-.272q.126 0 .27-.02.144-.022.217-.062.092-.05.144-.126.054-.078.062-.208h.31v2.681h.607zm2.767-1.488q0 .8-.252 1.176-.25.374-.777.374-.535 0-.783-.38-.245-.38-.245-1.166 0-.793.25-1.17.25-.38.778-.38.536 0 .781.385.248.384.248 1.16zm-.525.907q.07-.162.094-.38.026-.22.026-.527 0-.304-.026-.528-.024-.223-.096-.38-.07-.153-.192-.23-.12-.079-.31-.079-.187 0-.311.078-.122.078-.194.236-.068.148-.094.385-.024.238-.024.522 0 .311.022.521t.094.376q.066.155.186.237.122.082.321.082.188 0 .312-.078t.192-.235zm3.095.581h-.473l-.634-.857-.637.857h-.437l.87-1.113-.862-1.119h.473l.63.843.63-.843h.44l-.877 1.1zm2.421 0h-.473l-.634-.857-.637.857h-.437l.87-1.113-.862-1.119h.473l.63.843.63-.843h.44l-.877 1.1zm2.421 0h-.473l-.634-.857-.637.857h-.437l.87-1.113-.862-1.119h.473l.63.843.63-.843h.44l-.877 1.1zm2.421 0h-.473l-.634-.857-.637.857h-.437l.87-1.113-.862-1.119h.473l.63.843.63-.843h.44l-.877 1.1zm2.421 0h-.473l-.634-.857-.637.857h-.437l.87-1.113-.862-1.119h.473l.63.843.63-.843h.44l-.877 1.1zm2.422 0h-.474l-.634-.857-.637.857h-.437l.87-1.113-.862-1.119h.473l.63.843.63-.843h.44l-.877 1.1z" fill="#fff" aria-label="10xxxxxx"/><path d="M108.448 55.547h18.726c1.325 0 2.392.892 2.392 2v2.614c0 1.108-1.067 2-2.392 2h-18.726c-1.326 0-2.393-.892-2.393-2v-2.614c0-1.108 1.067-2 2.393-2z" fill="#404040"/><path d="M110.463 58.882q0 .8-.252 1.176-.25.374-.777.374-.535 0-.783-.38-.245-.38-.245-1.166 0-.793.25-1.17.25-.38.778-.38.536 0 .781.385.248.384.248 1.16zm-.525.907q.07-.162.094-.38.026-.22.026-.527 0-.304-.026-.528-.024-.223-.096-.38-.07-.153-.192-.23-.12-.079-.31-.079-.187 0-.311.078-.122.078-.194.236-.068.148-.094.385-.024.238-.024.522 0 .311.022.521t.094.376q.066.155.186.237.122.082.321.082.188 0 .312-.078t.192-.235zm3.096.581h-.473l-.634-.857-.637.857h-.437l.87-1.113-.862-1.119h.473l.63.843.63-.843h.44l-.877 1.1zm2.421 0h-.473l-.634-.857-.637.857h-.437l.87-1.113-.862-1.119h.473l.63.843.63-.843h.44l-.877 1.1zm2.421 0h-.473l-.634-.857-.637.857h-.437l.87-1.113-.862-1.119h.473l.63.843.63-.843h.44l-.877 1.1zm2.421 0h-.473l-.634-.857-.637.857h-.437l.87-1.113-.862-1.119h.473l.63.843.63-.843h.44l-.877 1.1zm2.421 0h-.473l-.634-.857-.637.857h-.437l.87-1.113-.862-1.119h.473l.63.843.63-.843h.44l-.877 1.1zm2.422 0h-.474l-.634-.857-.637.857h-.437l.87-1.113-.862-1.119h.473l.63.843.63-.843h.44l-.877 1.1zm2.42 0h-.473l-.634-.857-.637.857h-.437l.87-1.113-.862-1.119h.473l.63.843.63-.843h.44l-.877 1.1z" fill="#fff" aria-label="0xxxxxxx"/><path d="M108.448 55.547h18.726c1.325 0 2.392.892 2.392 2v2.614c0 1.108-1.067 2-2.392 2h-18.726c-1.326 0-2.393-.892-2.393-2v-2.614c0-1.108 1.067-2 2.393-2z" fill="#404040"/><path d="M110.297 60.37h-1.61v-.304h.62v-1.993h-.62V57.8q.126 0 .27-.02.144-.022.217-.062.092-.05.144-.126.054-.078.062-.208h.31v2.681h.607zm2.767-1.488q0 .8-.252 1.176-.25.374-.777.374-.535 0-.783-.38-.245-.38-.245-1.166 0-.793.25-1.17.25-.38.778-.38.536 0 .781.385.248.384.248 1.16zm-.525.907q.07-.162.094-.38.026-.22.026-.527 0-.304-.026-.528-.024-.223-.096-.38-.07-.153-.192-.23-.12-.079-.31-.079-.187 0-.311.078-.122.078-.194.236-.068.148-.094.385-.024.238-.024.522 0 .311.022.521t.094.376q.066.155.186.237.122.082.321.082.188 0 .312-.078t.192-.235zm3.095.581h-.473l-.634-.857-.637.857h-.437l.87-1.113-.862-1.119h.473l.63.843.63-.843h.44l-.877 1.1zm2.421 0h-.473l-.634-.857-.637.857h-.437l.87-1.113-.862-1.119h.473l.63.843.63-.843h.44l-.877 1.1zm2.421 0h-.473l-.634-.857-.637.857h-.437l.87-1.113-.862-1.119h.473l.63.843.63-.843h.44l-.877 1.1zm2.421 0h-.473l-.634-.857-.637.857h-.437l.87-1.113-.862-1.119h.473l.63.843.63-.843h.44l-.877 1.1zm2.421 0h-.473l-.634-.857-.637.857h-.437l.87-1.113-.862-1.119h.473l.63.843.63-.843h.44l-.877 1.1zm2.422 0h-.474l-.634-.857-.637.857h-.437l.87-1.113-.862-1.119h.473l.63.843.63-.843h.44l-.877 1.1z" fill="#fff" aria-label="10xxxxxx"/><path d="M108.448 71.422h18.726c1.325 0 2.392.892 2.392 2v2.614c0 1.108-1.067 2-2.392 2h-18.726c-1.326 0-2.393-.892-2.393-2v-2.614c0-1.108 1.067-2 2.393-2z" fill="#404040"/><path d="M110.463 74.757q0 .8-.252 1.176-.25.374-.777.374-.535 0-.783-.38-.245-.38-.245-1.166 0-.793.25-1.17.25-.38.778-.38.536 0 .781.385.248.384.248 1.16zm-.525.907q.07-.162.094-.38.026-.22.026-.527 0-.304-.026-.528-.024-.223-.096-.38-.07-.153-.192-.23-.12-.079-.31-.079-.187 0-.311.078-.122.078-.194.236-.068.148-.094.385-.024.238-.024.522 0 .311.022.521t.094.376q.066.155.186.237.122.082.321.082.188 0 .312-.078t.192-.235zm3.096.581h-.473l-.634-.857-.637.857h-.437l.87-1.113-.862-1.119h.473l.63.843.63-.842h.44l-.877 1.098zm2.421 0h-.473l-.634-.857-.637.857h-.437l.87-1.113-.862-1.119h.473l.63.843.63-.842h.44l-.877 1.098zm2.421 0h-.473l-.634-.857-.637.857h-.437l.87-1.113-.862-1.119h.473l.63.843.63-.842h.44L117 75.111zm2.421 0h-.473l-.634-.857-.637.857h-.437l.87-1.113-.862-1.119h.473l.63.843.63-.842h.44l-.877 1.098zm2.421 0h-.473l-.634-.857-.637.857h-.437l.87-1.113-.862-1.119h.473l.63.843.63-.842h.44l-.877 1.098zm2.422 0h-.474l-.634-.857-.637.857h-.437l.87-1.113-.862-1.119h.473l.63.843.63-.842h.44l-.877 1.098zm2.42 0h-.473l-.634-.857-.637.857h-.437l.87-1.113-.862-1.119h.473l.63.843.63-.842h.44l-.877 1.098z" fill="#fff" aria-label="0xxxxxxx"/><path d="M108.448 71.422h18.726c1.325 0 2.392.892 2.392 2v2.614c0 1.108-1.067 2-2.392 2h-18.726c-1.326 0-2.393-.892-2.393-2v-2.614c0-1.108 1.067-2 2.393-2z" fill="#404040"/><path d="M110.297 76.245h-1.61v-.304h.62v-1.993h-.62v-.272q.126 0 .27-.02.144-.022.217-.062.092-.05.144-.126.054-.078.062-.208h.31v2.681h.607zm2.767-1.488q0 .8-.252 1.176-.25.374-.777.374-.535 0-.783-.38-.245-.38-.245-1.166 0-.793.25-1.17.25-.38.778-.38.536 0 .781.385.248.384.248 1.16zm-.525.907q.07-.162.094-.38.026-.22.026-.527 0-.304-.026-.528-.024-.223-.096-.38-.07-.153-.192-.23-.12-.079-.31-.079-.187 0-.311.078-.122.078-.194.236-.068.148-.094.385-.024.238-.024.522 0 .311.022.521t.094.376q.066.155.186.237.122.082.321.082.188 0 .312-.078t.192-.235zm3.095.581h-.473l-.634-.857-.637.857h-.437l.87-1.113-.862-1.119h.473l.63.843.63-.842h.44l-.877 1.098zm2.421 0h-.473l-.634-.857-.637.857h-.437l.87-1.113-.862-1.119h.473l.63.843.63-.842h.44l-.877 1.098zm2.421 0h-.473l-.634-.857-.637.857h-.437l.87-1.113-.862-1.119h.473l.63.843.63-.842h.44l-.877 1.098zm2.421 0h-.473l-.634-.857-.637.857h-.437l.87-1.113-.862-1.119h.473l.63.843.63-.842h.44l-.877 1.098zm2.421 0h-.473l-.634-.857-.637.857h-.437l.87-1.113-.862-1.119h.473l.63.843.63-.842h.44l-.877 1.098zm2.422 0h-.474l-.634-.857-.637.857h-.437l.87-1.113-.862-1.119h.473l.63.843.63-.842h.44l-.877 1.098z" fill="#fff" aria-label="10xxxxxx"/><path d="M142.968 55.547h18.726c1.325 0 2.392.892 2.392 2v2.614c0 1.108-1.067 2-2.392 2h-18.726c-1.326 0-2.393-.892-2.393-2v-2.614c0-1.108 1.067-2 2.393-2z" fill="#404040"/><path d="M144.983 58.882q0 .8-.252 1.176-.25.374-.777.374-.535 0-.783-.38-.245-.38-.245-1.166 0-.793.25-1.17.25-.38.778-.38.536 0 .781.385.248.384.248 1.16zm-.525.907q.07-.162.094-.38.026-.22.026-.527 0-.304-.026-.528-.024-.223-.096-.38-.07-.153-.192-.23-.12-.079-.31-.079-.187 0-.311.078-.122.078-.194.236-.068.148-.094.385-.024.238-.024.522 0 .311.022.521t.094.376q.066.155.186.237.122.082.321.082.188 0 .312-.078t.192-.235zm3.096.581h-.473l-.634-.857-.637.857h-.437l.87-1.113-.862-1.119h.473l.63.843.63-.843h.44l-.877 1.1zm2.421 0h-.473l-.634-.857-.637.857h-.437l.87-1.113-.862-1.119h.473l.63.843.63-.843h.44l-.877 1.1zm2.421 0h-.473l-.634-.857-.637.857h-.437l.87-1.113-.862-1.119h.473l.63.843.63-.843h.44l-.877 1.1zm2.421 0h-.473l-.634-.857-.637.857h-.437l.87-1.113-.862-1.119h.473l.63.843.63-.843h.44l-.877 1.1zm2.421 0h-.473l-.634-.857-.637.857h-.437l.87-1.113-.862-1.119h.473l.63.843.63-.843h.44l-.877 1.1zm2.422 0h-.474l-.634-.857-.637.857h-.437l.87-1.113-.862-1.119h.473l.63.843.63-.843h.44l-.877 1.1zm2.42 0h-.473l-.634-.857-.637.857h-.437l.87-1.113-.862-1.119h.473l.63.843.63-.843h.44l-.877 1.1z" fill="#fff" aria-label="0xxxxxxx"/><path d="M142.968 55.547h18.726c1.325 0 2.392.892 2.392 2v2.614c0 1.108-1.067 2-2.392 2h-18.726c-1.326 0-2.393-.892-2.393-2v-2.614c0-1.108 1.067-2 2.393-2z" fill="#404040"/><path d="M144.983 58.882q0 .8-.252 1.176-.25.374-.777.374-.535 0-.783-.38-.245-.38-.245-1.166 0-.793.25-1.17.25-.38.778-.38.536 0 .781.385.248.384.248 1.16zm-.525.907q.07-.162.094-.38.026-.22.026-.527 0-.304-.026-.528-.024-.223-.096-.38-.07-.153-.192-.23-.12-.079-.31-.079-.187 0-.311.078-.122.078-.194.236-.068.148-.094.385-.024.238-.024.522 0 .311.022.521t.094.376q.066.155.186.237.122.082.321.082.188 0 .312-.078t.192-.235zm3.096.581h-.473l-.634-.857-.637.857h-.437l.87-1.113-.862-1.119h.473l.63.843.63-.843h.44l-.877 1.1zm2.421 0h-.473l-.634-.857-.637.857h-.437l.87-1.113-.862-1.119h.473l.63.843.63-.843h.44l-.877 1.1zm2.421 0h-.473l-.634-.857-.637.857h-.437l.87-1.113-.862-1.119h.473l.63.843.63-.843h.44l-.877 1.1zm2.421 0h-.473l-.634-.857-.637.857h-.437l.87-1.113-.862-1.119h.473l.63.843.63-.843h.44l-.877 1.1zm2.421 0h-.473l-.634-.857-.637.857h-.437l.87-1.113-.862-1.119h.473l.63.843.63-.843h.44l-.877 1.1zm2.422 0h-.474l-.634-.857-.637.857h-.437l.87-1.113-.862-1.119h.473l.63.843.63-.843h.44l-.877 1.1zm2.42 0h-.473l-.634-.857-.637.857h-.437l.87-1.113-.862-1.119h.473l.63.843.63-.843h.44l-.877 1.1z" fill="#fff" aria-label="0xxxxxxx"/><path d="M142.968 71.422h18.726c1.325 0 2.392.892 2.392 2v2.614c0 1.108-1.067 2-2.392 2h-18.726c-1.326 0-2.393-.892-2.393-2v-2.614c0-1.108 1.067-2 2.393-2z" fill="#404040"/><path d="M144.983 74.757q0 .8-.252 1.176-.25.374-.777.374-.535 0-.783-.38-.245-.38-.245-1.166 0-.793.25-1.17.25-.38.778-.38.536 0 .781.385.248.384.248 1.16zm-.525.907q.07-.162.094-.38.026-.22.026-.527 0-.304-.026-.528-.024-.223-.096-.38-.07-.153-.192-.23-.12-.079-.31-.079-.187 0-.311.078-.122.078-.194.236-.068.148-.094.385-.024.238-.024.522 0 .311.022.521t.094.376q.066.155.186.237.122.082.321.082.188 0 .312-.078t.192-.235zm3.096.581h-.473l-.634-.857-.637.857h-.437l.87-1.113-.862-1.119h.473l.63.843.63-.842h.44l-.877 1.098zm2.421 0h-.473l-.634-.857-.637.857h-.437l.87-1.113-.862-1.119h.473l.63.843.63-.842h.44l-.877 1.098zm2.421 0h-.473l-.634-.857-.637.857h-.437l.87-1.113-.862-1.119h.473l.63.843.63-.842h.44l-.877 1.098zm2.421 0h-.473l-.634-.857-.637.857h-.437l.87-1.113-.862-1.119h.473l.63.843.63-.842h.44l-.877 1.098zm2.421 0h-.473l-.634-.857-.637.857h-.437l.87-1.113-.862-1.119h.473l.63.843.63-.842h.44l-.877 1.098zm2.422 0h-.474l-.634-.857-.637.857h-.437l.87-1.113-.862-1.119h.473l.63.843.63-.842h.44l-.877 1.098zm2.42 0h-.473l-.634-.857-.637.857h-.437l.87-1.113-.862-1.119h.473l.63.843.63-.842h.44l-.877 1.098z" fill="#fff" aria-label="0xxxxxxx"/><path d="M142.968 71.422h18.726c1.325 0 2.392.892 2.392 2v2.614c0 1.108-1.067 2-2.392 2h-18.726c-1.326 0-2.393-.892-2.393-2v-2.614c0-1.108 1.067-2 2.393-2z" fill="#404040"/><path d="M144.983 74.757q0 .8-.252 1.176-.25.374-.777.374-.535 0-.783-.38-.245-.38-.245-1.166 0-.793.25-1.17.25-.38.778-.38.536 0 .781.385.248.384.248 1.16zm-.525.907q.07-.162.094-.38.026-.22.026-.527 0-.304-.026-.528-.024-.223-.096-.38-.07-.153-.192-.23-.12-.079-.31-.079-.187 0-.311.078-.122.078-.194.236-.068.148-.094.385-.024.238-.024.522 0 .311.022.521t.094.376q.066.155.186.237.122.082.321.082.188 0 .312-.078t.192-.235zm3.096.581h-.473l-.634-.857-.637.857h-.437l.87-1.113-.862-1.119h.473l.63.843.63-.842h.44l-.877 1.098zm2.421 0h-.473l-.634-.857-.637.857h-.437l.87-1.113-.862-1.119h.473l.63.843.63-.842h.44l-.877 1.098zm2.421 0h-.473l-.634-.857-.637.857h-.437l.87-1.113-.862-1.119h.473l.63.843.63-.842h.44l-.877 1.098zm2.421 0h-.473l-.634-.857-.637.857h-.437l.87-1.113-.862-1.119h.473l.63.843.63-.842h.44l-.877 1.098zm2.421 0h-.473l-.634-.857-.637.857h-.437l.87-1.113-.862-1.119h.473l.63.843.63-.842h.44l-.877 1.098zm2.422 0h-.474l-.634-.857-.637.857h-.437l.87-1.113-.862-1.119h.473l.63.843.63-.842h.44l-.877 1.098zm2.42 0h-.473l-.634-.857-.637.857h-.437l.87-1.113-.862-1.119h.473l.63.843.63-.842h.44l-.877 1.098z" fill="#fff" aria-label="0xxxxxxx"/><path d="M142.968 55.547h18.726c1.325 0 2.392.892 2.392 2v2.614c0 1.108-1.067 2-2.392 2h-18.726c-1.326 0-2.393-.892-2.393-2v-2.614c0-1.108 1.067-2 2.393-2z" fill="#404040"/><path d="M144.983 58.882q0 .8-.252 1.176-.25.374-.777.374-.535 0-.783-.38-.245-.38-.245-1.166 0-.793.25-1.17.25-.38.778-.38.536 0 .781.385.248.384.248 1.16zm-.525.907q.07-.162.094-.38.026-.22.026-.527 0-.304-.026-.528-.024-.223-.096-.38-.07-.153-.192-.23-.12-.079-.31-.079-.187 0-.311.078-.122.078-.194.236-.068.148-.094.385-.024.238-.024.522 0 .311.022.521t.094.376q.066.155.186.237.122.082.321.082.188 0 .312-.078t.192-.235zm3.096.581h-.473l-.634-.857-.637.857h-.437l.87-1.113-.862-1.119h.473l.63.843.63-.843h.44l-.877 1.1zm2.421 0h-.473l-.634-.857-.637.857h-.437l.87-1.113-.862-1.119h.473l.63.843.63-.843h.44l-.877 1.1zm2.421 0h-.473l-.634-.857-.637.857h-.437l.87-1.113-.862-1.119h.473l.63.843.63-.843h.44l-.877 1.1zm2.421 0h-.473l-.634-.857-.637.857h-.437l.87-1.113-.862-1.119h.473l.63.843.63-.843h.44l-.877 1.1zm2.421 0h-.473l-.634-.857-.637.857h-.437l.87-1.113-.862-1.119h.473l.63.843.63-.843h.44l-.877 1.1zm2.422 0h-.474l-.634-.857-.637.857h-.437l.87-1.113-.862-1.119h.473l.63.843.63-.843h.44l-.877 1.1zm2.42 0h-.473l-.634-.857-.637.857h-.437l.87-1.113-.862-1.119h.473l.63.843.63-.843h.44l-.877 1.1z" fill="#fff" aria-label="0xxxxxxx"/><path d="M142.968 55.547h18.726c1.325 0 2.392.892 2.392 2v2.614c0 1.108-1.067 2-2.392 2h-18.726c-1.326 0-2.393-.892-2.393-2v-2.614c0-1.108 1.067-2 2.393-2z" fill="#404040"/><path d="M144.817 60.37h-1.61v-.304h.62v-1.993h-.62V57.8q.126 0 .27-.02.144-.022.217-.062.092-.05.144-.126.054-.078.062-.208h.31v2.681h.607zm2.767-1.488q0 .8-.252 1.176-.25.374-.777.374-.535 0-.783-.38-.245-.38-.245-1.166 0-.793.25-1.17.25-.38.778-.38.536 0 .781.385.248.384.248 1.16zm-.525.907q.07-.162.094-.38.026-.22.026-.527 0-.304-.026-.528-.024-.223-.096-.38-.07-.153-.192-.23-.12-.079-.31-.079-.187 0-.311.078-.122.078-.194.236-.068.148-.094.385-.024.238-.024.522 0 .311.022.521t.094.376q.066.155.186.237.122.082.321.082.188 0 .312-.078t.192-.235zm3.095.581h-.473l-.634-.857-.637.857h-.437l.87-1.113-.862-1.119h.473l.63.843.63-.843h.44l-.877 1.1zm2.421 0h-.473l-.634-.857-.637.857h-.437l.87-1.113-.862-1.119h.473l.63.843.63-.843h.44l-.877 1.1zm2.421 0h-.473l-.634-.857-.637.857h-.437l.87-1.113-.862-1.119h.473l.63.843.63-.843h.44l-.877 1.1zm2.421 0h-.473l-.634-.857-.637.857h-.437l.87-1.113-.862-1.119h.473l.63.843.63-.843h.44l-.877 1.1zm2.421 0h-.473l-.634-.857-.637.857h-.437l.87-1.113-.862-1.119h.473l.63.843.63-.843h.44l-.877 1.1zm2.422 0h-.474l-.634-.857-.637.857h-.437l.87-1.113-.862-1.119h.473l.63.843.63-.843h.44l-.877 1.1z" fill="#fff" aria-label="10xxxxxx"/><path d="M142.968 71.422h18.726c1.325 0 2.392.892 2.392 2v2.614c0 1.108-1.067 2-2.392 2h-18.726c-1.326 0-2.393-.892-2.393-2v-2.614c0-1.108 1.067-2 2.393-2z" fill="#404040"/><path d="M144.983 74.757q0 .8-.252 1.176-.25.374-.777.374-.535 0-.783-.38-.245-.38-.245-1.166 0-.793.25-1.17.25-.38.778-.38.536 0 .781.385.248.384.248 1.16zm-.525.907q.07-.162.094-.38.026-.22.026-.527 0-.304-.026-.528-.024-.223-.096-.38-.07-.153-.192-.23-.12-.079-.31-.079-.187 0-.311.078-.122.078-.194.236-.068.148-.094.385-.024.238-.024.522 0 .311.022.521t.094.376q.066.155.186.237.122.082.321.082.188 0 .312-.078t.192-.235zm3.096.581h-.473l-.634-.857-.637.857h-.437l.87-1.113-.862-1.119h.473l.63.843.63-.842h.44l-.877 1.098zm2.421 0h-.473l-.634-.857-.637.857h-.437l.87-1.113-.862-1.119h.473l.63.843.63-.842h.44l-.877 1.098zm2.421 0h-.473l-.634-.857-.637.857h-.437l.87-1.113-.862-1.119h.473l.63.843.63-.842h.44l-.877 1.098zm2.421 0h-.473l-.634-.857-.637.857h-.437l.87-1.113-.862-1.119h.473l.63.843.63-.842h.44l-.877 1.098zm2.421 0h-.473l-.634-.857-.637.857h-.437l.87-1.113-.862-1.119h.473l.63.843.63-.842h.44l-.877 1.098zm2.422 0h-.474l-.634-.857-.637.857h-.437l.87-1.113-.862-1.119h.473l.63.843.63-.842h.44l-.877 1.098zm2.42 0h-.473l-.634-.857-.637.857h-.437l.87-1.113-.862-1.119h.473l.63.843.63-.842h.44l-.877 1.098z" fill="#fff" aria-label="0xxxxxxx"/><path d="M142.968 71.422h18.726c1.325 0 2.392.892 2.392 2v2.614c0 1.108-1.067 2-2.392 2h-18.726c-1.326 0-2.393-.892-2.393-2v-2.614c0-1.108 1.067-2 2.393-2z" fill="#404040"/><path d="M144.817 76.245h-1.61v-.304h.62v-1.993h-.62v-.272q.126 0 .27-.02.144-.022.217-.062.092-.05.144-.126.054-.078.062-.208h.31v2.681h.607zm2.767-1.488q0 .8-.252 1.176-.25.374-.777.374-.535 0-.783-.38-.245-.38-.245-1.166 0-.793.25-1.17.25-.38.778-.38.536 0 .781.385.248.384.248 1.16zm-.525.907q.07-.162.094-.38.026-.22.026-.527 0-.304-.026-.528-.024-.223-.096-.38-.07-.153-.192-.23-.12-.079-.31-.079-.187 0-.311.078-.122.078-.194.236-.068.148-.094.385-.024.238-.024.522 0 .311.022.521t.094.376q.066.155.186.237.122.082.321.082.188 0 .312-.078t.192-.235zm3.095.581h-.473l-.634-.857-.637.857h-.437l.87-1.113-.862-1.119h.473l.63.843.63-.842h.44l-.877 1.098zm2.421 0h-.473l-.634-.857-.637.857h-.437l.87-1.113-.862-1.119h.473l.63.843.63-.842h.44l-.877 1.098zm2.421 0h-.473l-.634-.857-.637.857h-.437l.87-1.113-.862-1.119h.473l.63.843.63-.842h.44l-.877 1.098zm2.421 0h-.473l-.634-.857-.637.857h-.437l.87-1.113-.862-1.119h.473l.63.843.63-.842h.44l-.877 1.098zm2.421 0h-.473l-.634-.857-.637.857h-.437l.87-1.113-.862-1.119h.473l.63.843.63-.842h.44l-.877 1.098zm2.422 0h-.474l-.634-.857-.637.857h-.437l.87-1.113-.862-1.119h.473l.63.843.63-.842h.44l-.877 1.098z" fill="#fff" aria-label="10xxxxxx"/><rect x="8.353" y="41.388" width="19.655" height="6.615" rx="2" ry="2" fill="#404040" transform="matrix(1.1962 0 0 1 165.113 30.034)"/><rect x="8.353" y="41.388" width="19.655" height="6.615" rx="2" ry="2" fill="#404040" transform="matrix(1.1962 0 0 1 165.113 30.034)"/><rect x="8.353" y="41.388" width="19.655" height="6.615" rx="2" ry="2" fill="#404040" transform="matrix(1.1962 0 0 1 165.113 30.034)"/><rect x="8.353" y="41.388" width="19.655" height="6.615" rx="2" ry="2" fill="#404040" transform="matrix(1.1962 0 0 1 165.113 30.034)"/><path d="M179.347 76.245h-1.61v-.304h.62v-1.993h-.62v-.272q.126 0 .27-.02.144-.022.217-.062.092-.05.144-.126.054-.078.062-.208h.31v2.681h.607zm2.767-1.488q0 .8-.252 1.176-.25.374-.777.374-.535 0-.783-.38-.245-.38-.245-1.166 0-.793.25-1.17.25-.38.778-.38.536 0 .781.385.248.384.248 1.16zm-.525.907q.07-.162.094-.38.026-.22.026-.527 0-.304-.026-.528-.024-.223-.096-.38-.07-.153-.192-.23-.12-.079-.31-.079-.187 0-.311.078-.122.078-.194.236-.068.148-.094.385-.024.238-.024.522 0 .311.022.521t.094.376q.066.155.186.237.122.082.321.082.188 0 .312-.078t.192-.235zm3.095.581h-.473l-.634-.857-.637.857h-.437l.87-1.113-.862-1.119h.473l.63.843.63-.842h.44l-.877 1.098zm2.421 0h-.473l-.634-.857-.637.857h-.437l.87-1.113-.862-1.119h.473l.63.843.63-.842h.44l-.877 1.098zm2.421 0h-.473l-.634-.857-.637.857h-.437l.87-1.113-.862-1.119h.473l.63.843.63-.842h.44l-.877 1.098zm2.421 0h-.473l-.634-.857-.637.857h-.437l.87-1.113-.862-1.119h.473l.63.843.63-.842h.44l-.877 1.098zm2.421 0h-.473l-.634-.857-.637.857h-.437l.87-1.113-.862-1.119h.473l.63.843.63-.842h.44l-.877 1.098zm2.422 0h-.474l-.634-.857-.637.857h-.437l.87-1.113-.862-1.119h.473l.63.843.63-.842h.44l-.877 1.098z" fill="#fff" aria-label="10xxxxxx"/></svg>