<svg xmlns="http://www.w3.org/2000/svg" xmlns:xlink="http://www.w3.org/1999/xlink" width="1920mm" height="1080mm" viewBox="0 0 1920 1080"><defs><radialGradient xlink:href="#a" id="d" cx="0" cy="0" r="1" gradientTransform="rotate(132.839 10.786 10.065) scale(37.5033)" gradientUnits="userSpaceOnUse"/><radialGradient xlink:href="#a" id="e" cx="0" cy="0" r="1" gradientTransform="rotate(131.878 10.74 10.193) scale(38.9487)" gradientUnits="userSpaceOnUse"/><radialGradient id="f" cx="0" cy="0" r="1" gradientTransform="matrix(-3.50003 17.50003 -22.4142 -4.48287 16 12.5)" gradientUnits="userSpaceOnUse"><stop offset=".788" stop-color="#f59639" stop-opacity="0"/><stop offset=".973" stop-color="#ff7dce"/></radialGradient><radialGradient id="g" cx="0" cy="0" r="1" gradientTransform="matrix(-29 29 -29 -29 18 14)" gradientUnits="userSpaceOnUse"><stop offset=".315" stop-opacity="0"/><stop offset="1"/></radialGradient><radialGradient id="h" cx="0" cy="0" r="1" gradientTransform="rotate(77.692 -2.555 18.434) scale(28.1469)" gradientUnits="userSpaceOnUse"><stop offset=".508" stop-color="#7d6133" stop-opacity="0"/><stop offset="1" stop-color="#715b32"/></radialGradient><radialGradient id="i" cx="0" cy="0" r="1" gradientTransform="matrix(7.49999 10.99997 -7.97336 5.43638 16.5 16.5)" gradientUnits="userSpaceOnUse"><stop offset="0" stop-color="#ffb849"/><stop offset="1" stop-color="#ffb847" stop-opacity="0"/></radialGradient><radialGradient id="j" cx="0" cy="0" r="1" gradientTransform="matrix(11.49998 2 -2 11.49998 20.5 18)" gradientUnits="userSpaceOnUse"><stop offset="0" stop-color="#ffa64b"/><stop offset=".9" stop-color="#ffae46" stop-opacity="0"/></radialGradient><radialGradient id="k" cx="0" cy="0" r="1" gradientTransform="rotate(43.971 -9.827 29.173) scale(59.0529)" gradientUnits="userSpaceOnUse"><stop offset=".185" stop-opacity="0"/><stop offset="1" stop-opacity=".4"/></radialGradient><radialGradient xlink:href="#b" id="l" cx="7.505" cy="16.501" r="6.495" gradientUnits="userSpaceOnUse"/><radialGradient xlink:href="#b" id="m" cx="24.505" cy="16.501" r="6.495" gradientUnits="userSpaceOnUse"/><radialGradient id="r" cx="0" cy="0" r="1" gradientTransform="matrix(0 6 -9.18387 0 16 17)" gradientUnits="userSpaceOnUse"><stop offset=".518" stop-color="#4e2553"/><stop offset=".703" stop-color="#5b4852"/><stop offset="1" stop-color="#4e2553"/></radialGradient><filter id="n" width="10" height="7" x="5" y="8" color-interpolation-filters="sRGB" filterUnits="userSpaceOnUse"><feFlood flood-opacity="0" result="BackgroundImageFix"/><feBlend in="SourceGraphic" in2="BackgroundImageFix" result="shape"/><feGaussianBlur result="effect1_foregroundBlur_23_436" stdDeviation=".75"/></filter><filter id="o" width="10.001" height="7" x="16" y="8" color-interpolation-filters="sRGB" filterUnits="userSpaceOnUse"><feFlood flood-opacity="0" result="BackgroundImageFix"/><feBlend in="SourceGraphic" in2="BackgroundImageFix" result="shape"/><feGaussianBlur result="effect1_foregroundBlur_23_436" stdDeviation=".75"/></filter><filter id="p" width="8.75" height="5.75" x="6.375" y="7.875" color-interpolation-filters="sRGB" filterUnits="userSpaceOnUse"><feFlood flood-opacity="0" result="BackgroundImageFix"/><feBlend in="SourceGraphic" in2="BackgroundImageFix" result="shape"/><feGaussianBlur result="effect1_foregroundBlur_23_436" stdDeviation=".75"/></filter><filter id="q" width="8.75" height="5.75" x="17.375" y="7.875" color-interpolation-filters="sRGB" filterUnits="userSpaceOnUse"><feFlood flood-opacity="0" result="BackgroundImageFix"/><feBlend in="SourceGraphic" in2="BackgroundImageFix" result="shape"/><feGaussianBlur result="effect1_foregroundBlur_23_436" stdDeviation=".75"/></filter><linearGradient id="a"><stop offset="0" stop-color="#fff478"/><stop offset=".475" stop-color="#ffb02e"/><stop offset="1" stop-color="#f70a8d"/></linearGradient><linearGradient id="b"><stop offset="0" stop-color="#f70a8d" stop-opacity=".59"/><stop offset="1" stop-color="#ff6dc6" stop-opacity="0"/></linearGradient><clipPath id="c"><path d="M0 0h32v32H0Z"/></clipPath></defs><path d="M0 0h1920v1080H0z" style="fill:#191919;fill-opacity:1;stroke-width:.727439"/><g clip-path="url(#c)" transform="matrix(24.88603 0 0 24.88603 440.561 -69.21)"><path fill="url(#d)" d="M15.999 29.998c9.334 0 13.999-6.268 13.999-14 0-7.73-4.665-13.998-14-13.998C6.665 2 2 8.268 2 15.999c0 7.731 4.664 13.999 13.999 13.999Z" style="fill:url(#d)" transform="matrix(.5548 0 0 .5548 11.996 10.075)"/><path fill="url(#e)" d="M15.999 29.998c9.334 0 13.999-6.268 13.999-14 0-7.73-4.665-13.998-14-13.998C6.665 2 2 8.268 2 15.999c0 7.731 4.664 13.999 13.999 13.999Z" style="fill:url(#e)" transform="matrix(.5548 0 0 .5548 11.996 10.075)"/><path fill="url(#f)" d="M15.999 29.998c9.334 0 13.999-6.268 13.999-14 0-7.73-4.665-13.998-14-13.998C6.665 2 2 8.268 2 15.999c0 7.731 4.664 13.999 13.999 13.999Z" style="fill:url(#f)" transform="matrix(.5548 0 0 .5548 11.996 10.075)"/><path fill="url(#g)" fill-opacity=".6" d="M15.999 29.998c9.334 0 13.999-6.268 13.999-14 0-7.73-4.665-13.998-14-13.998C6.665 2 2 8.268 2 15.999c0 7.731 4.664 13.999 13.999 13.999Z" style="fill:url(#g)" transform="matrix(.5548 0 0 .5548 11.996 10.075)"/><path fill="url(#h)" d="M15.999 29.998c9.334 0 13.999-6.268 13.999-14 0-7.73-4.665-13.998-14-13.998C6.665 2 2 8.268 2 15.999c0 7.731 4.664 13.999 13.999 13.999Z" style="fill:url(#h)" transform="matrix(.5548 0 0 .5548 11.996 10.075)"/><path fill="url(#i)" d="M15.999 29.998c9.334 0 13.999-6.268 13.999-14 0-7.73-4.665-13.998-14-13.998C6.665 2 2 8.268 2 15.999c0 7.731 4.664 13.999 13.999 13.999Z" style="fill:url(#i)" transform="matrix(.5548 0 0 .5548 11.996 10.075)"/><path fill="url(#j)" d="M15.999 29.998c9.334 0 13.999-6.268 13.999-14 0-7.73-4.665-13.998-14-13.998C6.665 2 2 8.268 2 15.999c0 7.731 4.664 13.999 13.999 13.999Z" style="fill:url(#j)" transform="matrix(.5548 0 0 .5548 11.996 10.075)"/><path fill="url(#k)" d="M15.999 29.998c9.334 0 13.999-6.268 13.999-14 0-7.73-4.665-13.998-14-13.998C6.665 2 2 8.268 2 15.999c0 7.731 4.664 13.999 13.999 13.999Z" style="fill:url(#k)" transform="matrix(.5548 0 0 .5548 11.996 10.075)"/><path fill="url(#l)" d="M7.5 23a6.5 6.5 0 1 0 0-13 6.5 6.5 0 0 0 0 13Z" opacity=".5" style="fill:url(#l)" transform="matrix(.5548 0 0 .5548 11.996 10.075)"/><path fill="url(#m)" d="M24.5 23a6.5 6.5 0 1 0 0-13 6.5 6.5 0 0 0 0 13z" opacity=".5" style="fill:url(#m)" transform="matrix(.5548 0 0 .5548 11.996 10.075)"/><g filter="url(#n)" opacity=".5" transform="matrix(.5548 0 0 .5548 11.996 10.075)"><path stroke="#9a4609" stroke-linecap="round" stroke-width="2" d="M7.5 12.5s.25-2 2.5-2 2.5 2 2.5 2"/></g><g filter="url(#o)" opacity=".5" transform="matrix(.5548 0 0 .5548 11.996 10.075)"><path stroke="#9a4609" stroke-linecap="round" stroke-width="2" d="M18.5 12.5s.5-2 2.5-2 2.5 2 2.5 2"/></g><path stroke="#43273b" stroke-linecap="round" stroke-linejoin="round" stroke-width="2" d="M8 12s.25-2 2.5-2 2.5 2 2.5 2" style="fill:none" transform="matrix(.5548 0 0 .5548 11.996 10.075)"/><g filter="url(#p)" opacity=".26" transform="matrix(.5548 0 0 .5548 11.996 10.075)"><path stroke="#fff" stroke-linecap="round" stroke-linejoin="round" stroke-width=".75" d="M8.25 11.75s.25-2 2.5-2 2.5 2 2.5 2"/></g><path stroke="#43273b" stroke-linecap="round" stroke-linejoin="round" stroke-width="2" d="M19 12s.5-2 2.5-2 2.5 2 2.5 2" style="fill:none" transform="matrix(.5548 0 0 .5548 11.996 10.075)"/><g filter="url(#q)" opacity=".26" transform="matrix(.5548 0 0 .5548 11.996 10.075)"><path stroke="#fff" stroke-linecap="round" stroke-linejoin="round" stroke-width=".75" d="M19.25 11.75s.25-2 2.5-2 2.5 2 2.5 2"/></g><path stroke="url(#r)" stroke-linecap="round" stroke-width="2" d="M10 19c.5.667 2.5 2.5 6 2.5s5.5-1.833 6-2.5" style="fill:none;stroke:url(#r)" transform="matrix(.5548 0 0 .5548 11.996 10.075)"/></g><path d="M548.108 815.576v-77.047h9.348v68.726h28.25v8.32zm67.904 1.027q-11.095 0-18.08-7.705-6.986-7.704-6.986-19.005 0-11.402 6.986-19.004 6.985-7.705 18.08-7.705 10.992 0 17.977 7.705 7.089 7.704 7.089 19.005 0 11.3-7.089 19.004-6.985 7.705-17.977 7.705zm0-8.116q7.294 0 11.711-5.341 4.417-5.342 4.417-13.252 0-8.013-4.52-13.355-4.417-5.342-11.608-5.342-7.397 0-11.814 5.342-4.315 5.342-4.315 13.354 0 8.013 4.315 13.355 4.417 5.24 11.814 5.24zm53.316 8.116q-6.266 0-12.225-2.26-5.958-2.26-8.834-5.65l4.725-6.164q1.85 2.671 6.472 4.623 4.726 1.85 9.348 1.952 4.829.205 8.013-1.85 3.288-2.054 3.288-5.547 0-1.54-.822-2.773-.72-1.233-1.644-1.952-.822-.822-2.979-1.644-2.055-.924-3.185-1.233-1.13-.41-3.903-1.232l-4.007-1.336q-1.232-.41-3.698-1.335-2.465-1.028-3.698-1.952-1.233-1.027-2.671-2.466-1.438-1.54-2.055-3.39-.616-1.952-.616-4.212 0-6.677 5.547-10.786 5.65-4.212 13.355-4.212 4.828 0 9.657 1.644 4.93 1.54 8.115 4.109l-5.034 6.164q-4.417-4.11-11.197-4.623-4.315-.308-7.807 1.438-3.39 1.746-3.39 5.136 0 1.85.821 3.288.925 1.438 2.877 2.465 2.054 1.027 3.595 1.644 1.644.514 4.726 1.438 3.287.925 4.93 1.541 1.747.514 4.418 1.85 2.774 1.232 4.11 2.67 1.438 1.336 2.568 3.698 1.13 2.363 1.13 5.342 0 6.78-5.753 11.198-5.65 4.417-14.177 4.417zm54.344-10.17 5.034 6.164q-3.801 4.006-10.787 4.006-7.088 0-11.403-4.212-4.314-4.314-4.314-11.197V771.3h-6.678v-7.089h6.678v-17.464h9.04v17.464h13.97v7.089h-13.868v29.894q0 7.602 6.78 7.602 3.288 0 5.548-2.363zm29.894-12.533v-6.37q0-4.52 1.336-7.601 1.438-3.185 3.492-4.52 2.055-1.438 4.418-2.877 2.465-1.438 4.52-2.67 2.054-1.233 3.39-3.904 1.438-2.671 1.438-6.575 0-5.856-4.11-9.554-4.006-3.8-10.375-3.8-6.163 0-10.17 3.903-4.006 3.904-4.11 9.862h-8.217q0-9.348 6.369-15.512 6.472-6.267 16.128-6.267 9.76 0 16.129 6.164 6.472 6.061 6.472 15.204 0 5.547-1.952 9.348-1.85 3.801-4.52 5.65-2.671 1.85-5.445 3.39-2.67 1.439-4.623 3.596-1.849 2.055-1.849 5.24v7.293zm4.52 22.703q-2.363 0-4.212-1.746-1.746-1.747-1.746-4.315 0-2.363 1.746-4.11 1.85-1.848 4.212-1.848 2.466 0 4.212 1.849 1.85 1.746 1.85 4.109 0 2.568-1.85 4.315-1.746 1.746-4.212 1.746zM863.59 746.85h-33.284v25.99h28.97v8.424h-28.97v25.99h33.284v8.322h-42.633v-77.047h42.633zm46.33 17.361h9.657l-20.546 51.365h-8.732l-20.545-51.365h9.656l15.307 40.68zm62.357 25.683q0 1.951-.103 2.979h-38.831q.719 7.293 4.828 11.608 4.11 4.212 11.095 4.212 4.725 0 7.91-1.85 3.184-1.951 6.266-6.677l6.37 4.418q-6.678 12.019-20.854 12.019-11.198 0-17.875-7.396-6.575-7.5-6.575-19.21 0-11.712 6.677-19.211 6.678-7.602 17.773-7.602 10.786 0 17.053 7.396 6.266 7.397 6.266 19.314zm-23.114-18.903q-6.575 0-10.581 4.007-4.007 4.006-5.034 10.786h30.51q-.718-6.883-4.622-10.786-3.801-4.007-10.273-4.007zm58.864-7.807q7.088 0 11.197 3.082l-4.417 6.574q-2.98-1.643-7.191-1.643-5.753 0-10.17 4.52-4.315 4.417-4.315 11.095v28.764h-9.04V764.21h8.32l.412 7.808q6.164-8.835 15.204-8.835zm62.664 1.027v52.7q0 11.095-6.472 17.978-6.369 6.985-18.285 6.985-10.273 0-17.875-4.93v-9.863q7.705 6.678 18.594 6.678 7.396 0 11.095-4.418 3.8-4.417 3.8-12.43v-7.91q-6.163 7.602-16.025 7.602-8.527 0-14.382-5.958-5.856-5.959-5.856-14.485v-31.949h9.04v31.024q0 5.548 3.904 9.451 3.904 3.801 9.554 3.801 5.753 0 9.76-3.8 4.006-3.904 4.006-9.452v-31.024zm36.88 52.392q-11.095 0-18.08-7.705-6.986-7.704-6.986-19.005 0-11.402 6.986-19.004 6.985-7.705 18.08-7.705 10.992 0 17.978 7.705 7.088 7.704 7.088 19.005 0 11.3-7.088 19.004-6.986 7.705-17.978 7.705zm0-8.116q7.294 0 11.711-5.341 4.418-5.342 4.418-13.252 0-8.013-4.52-13.355-4.418-5.342-11.609-5.342-7.396 0-11.814 5.342-4.314 5.342-4.314 13.354 0 8.013 4.314 13.355 4.418 5.24 11.814 5.24zm62.151-45.303q8.63 0 14.28 5.65 5.752 5.65 5.752 14.28v32.462h-9.143V784.14q0-5.548-3.8-9.246-3.802-3.698-9.554-3.698-5.753 0-9.862 3.904-4.007 3.903-4.007 9.45v31.025h-9.04V764.21h8.321l.411 6.78q6.472-7.807 16.642-7.807zm79.204 26.71q0 1.951-.103 2.979h-38.831q.719 7.293 4.828 11.608 4.11 4.212 11.095 4.212 4.725 0 7.91-1.85 3.185-1.951 6.266-6.677l6.37 4.418q-6.678 12.019-20.854 12.019-11.198 0-17.875-7.396-6.575-7.5-6.575-19.21 0-11.712 6.678-19.211 6.677-7.602 17.772-7.602 10.786 0 17.053 7.396 6.266 7.397 6.266 19.313zm-23.114-18.903q-6.575 0-10.581 4.007-4.007 4.006-5.034 10.786h30.51q-.718-6.883-4.622-10.786-3.801-4.007-10.273-4.007zm72.219-17.977q-1.747 1.643-4.212 1.643-2.466 0-4.315-1.643-1.746-1.747-1.746-4.212 0-2.568 1.746-4.315 1.85-1.746 4.315-1.746 2.362 0 4.109 1.849 1.849 1.746 1.849 4.212 0 2.465-1.746 4.212zm-8.835 62.562V764.21h9.04v51.365zm43.454 1.027q-6.266 0-12.224-2.26-5.959-2.26-8.835-5.65l4.725-6.164q1.85 2.671 6.472 4.623 4.726 1.85 9.349 1.952 4.828.205 8.013-1.85 3.287-2.054 3.287-5.547 0-1.54-.822-2.773-.719-1.233-1.644-1.952-.821-.822-2.979-1.644-2.054-.924-3.184-1.233-1.13-.41-3.904-1.232l-4.007-1.336q-1.232-.41-3.698-1.335-2.465-1.028-3.698-1.952-1.233-1.027-2.67-2.466-1.44-1.54-2.056-3.39-.616-1.952-.616-4.212 0-6.677 5.547-10.786 5.65-4.212 13.355-4.212 4.828 0 9.657 1.644 4.93 1.54 8.115 4.109l-5.033 6.164q-4.418-4.11-11.198-4.623-4.314-.308-7.807 1.438-3.39 1.746-3.39 5.136 0 1.85.822 3.288.924 1.438 2.876 2.465 2.055 1.027 3.595 1.644 1.644.513 4.726 1.438 3.287.925 4.931 1.541 1.746.514 4.417 1.85 2.774 1.232 4.11 2.67 1.438 1.336 2.568 3.698 1.13 2.363 1.13 5.342 0 6.78-5.753 11.198-5.65 4.417-14.177 4.417zm37.394-1.746q-1.747 1.746-4.212 1.746-2.466 0-4.212-1.746-1.746-1.85-1.746-4.315 0-2.363 1.746-4.11 1.746-1.848 4.212-1.848 2.465 0 4.212 1.849 1.849 1.746 1.849 4.109 0 2.466-1.85 4.315z" aria-label="Lost? Everyone is." style="fill:#d8d6d6;stroke-width:2.13951"/><path d="M762.295 814.843q-1.746 1.746-4.212 1.746-2.465 0-4.212-1.746-1.746-1.85-1.746-4.315 0-2.362 1.746-4.109 1.747-1.849 4.212-1.849 2.466 0 4.212 1.85 1.85 1.746 1.85 4.108 0 2.466-1.85 4.315zM1370.043 814.848q-1.746 1.746-4.211 1.746-2.466 0-4.212-1.746-1.747-1.85-1.747-4.315 0-2.362 1.747-4.109 1.746-1.849 4.212-1.849 2.465 0 4.211 1.85 1.85 1.746 1.85 4.108 0 2.466-1.85 4.315z" aria-label="." style="fill:#a0fc8e;stroke-width:2.13951"/></svg>