<?xml version="1.0" encoding="UTF-8" standalone="no"?>
<!-- Created with Inkscape (http://www.inkscape.org/) -->

<svg
   width="1920mm"
   height="1080mm"
   viewBox="0 0 1920 1080"
   version="1.1"
   id="svg1"
   xmlns:xlink="http://www.w3.org/1999/xlink"
   xmlns="http://www.w3.org/2000/svg"
   xmlns:svg="http://www.w3.org/2000/svg">
  <defs
     id="defs1">
    <clipPath
       id="r">
      <path
         d="M 0,0 H 32 V 32 H 0 Z"
         id="path23" />
    </clipPath>
    <radialGradient
       id="f"
       cx="0"
       cy="0"
       gradientTransform="matrix(-25.500016,27.49994,-27.49994,-25.500016,25.5,9)"
       gradientUnits="userSpaceOnUse"
       r="1"
       xlink:href="#e" />
    <linearGradient
       id="e">
      <stop
         offset="0"
         stop-color="#fff478"
         id="stop4" />
      <stop
         offset=".474827"
         stop-color="#ffb02e"
         id="stop5" />
      <stop
         offset="1"
         stop-color="#f70a8d"
         id="stop6" />
    </linearGradient>
    <radialGradient
       id="g"
       cx="0"
       cy="0"
       gradientTransform="matrix(-26.000077,28.999953,-28.999953,-26.000077,25.5,9)"
       gradientUnits="userSpaceOnUse"
       r="1"
       xlink:href="#e" />
    <radialGradient
       id="h"
       cx="0"
       cy="0"
       gradientTransform="matrix(-3.5000268,17.500027,-22.414206,-4.4828686,16,12.5)"
       gradientUnits="userSpaceOnUse"
       r="1">
      <stop
         offset=".787821"
         stop-color="#f59639"
         stop-opacity="0"
         id="stop7" />
      <stop
         offset=".972509"
         stop-color="#ff7dce"
         id="stop8" />
    </radialGradient>
    <radialGradient
       id="i"
       cx="0"
       cy="0"
       gradientTransform="matrix(-29.000005,29.000005,-29.000005,-29.000005,18,14)"
       gradientUnits="userSpaceOnUse"
       r="1">
      <stop
         offset=".314853"
         stop-opacity="0"
         id="stop9" />
      <stop
         offset="1"
         id="stop10" />
    </radialGradient>
    <radialGradient
       id="j"
       cx="0"
       cy="0"
       gradientTransform="matrix(5.9999848,27.499967,-27.499967,5.9999848,16,17)"
       gradientUnits="userSpaceOnUse"
       r="1">
      <stop
         offset=".507903"
         stop-color="#7d6133"
         stop-opacity="0"
         id="stop11" />
      <stop
         offset="1"
         stop-color="#715b32"
         id="stop12" />
    </radialGradient>
    <radialGradient
       id="k"
       cx="0"
       cy="0"
       gradientTransform="matrix(7.4999892,10.999975,-7.9733561,5.4363838,16.5,16.5)"
       gradientUnits="userSpaceOnUse"
       r="1">
      <stop
         offset="0"
         stop-color="#ffb849"
         id="stop13" />
      <stop
         offset="1"
         stop-color="#ffb847"
         stop-opacity="0"
         id="stop14" />
    </radialGradient>
    <radialGradient
       id="l"
       cx="0"
       cy="0"
       gradientTransform="matrix(11.499983,1.9999976,-1.9999976,11.499983,20.5,18)"
       gradientUnits="userSpaceOnUse"
       r="1">
      <stop
         offset="0"
         stop-color="#ffa64b"
         id="stop15" />
      <stop
         offset=".900412"
         stop-color="#ffae46"
         stop-opacity="0"
         id="stop16" />
    </radialGradient>
    <radialGradient
       id="m"
       cx="0"
       cy="0"
       gradientTransform="matrix(42.500002,40.999937,-40.999937,42.500002,17.5,15)"
       gradientUnits="userSpaceOnUse"
       r="1">
      <stop
         offset=".185425"
         stop-opacity="0"
         id="stop17" />
      <stop
         offset="1"
         stop-opacity=".4"
         id="stop18" />
    </radialGradient>
    <radialGradient
       id="o"
       cx="7.5051298"
       cy="16.5012"
       gradientUnits="userSpaceOnUse"
       r="6.4948702"
       xlink:href="#n" />
    <linearGradient
       id="n">
      <stop
         offset="0"
         stop-color="#f70a8d"
         stop-opacity=".59"
         id="stop19" />
      <stop
         offset="1"
         stop-color="#ff6dc6"
         stop-opacity="0"
         id="stop20" />
    </linearGradient>
    <radialGradient
       id="p"
       cx="24.5051"
       cy="16.5012"
       gradientUnits="userSpaceOnUse"
       r="6.4948702"
       xlink:href="#n" />
    <filter
       id="a"
       color-interpolation-filters="sRGB"
       filterUnits="userSpaceOnUse"
       height="7.0001202"
       width="10"
       x="5"
       y="8">
      <feFlood
         flood-opacity="0"
         result="BackgroundImageFix"
         id="feFlood1" />
      <feBlend
         in="SourceGraphic"
         in2="BackgroundImageFix"
         mode="normal"
         result="shape"
         id="feBlend1" />
      <feGaussianBlur
         result="effect1_foregroundBlur_23_436"
         stdDeviation=".75"
         id="feGaussianBlur1" />
    </filter>
    <filter
       id="b"
       color-interpolation-filters="sRGB"
       filterUnits="userSpaceOnUse"
       height="7.0002398"
       width="10.0005"
       x="15.9998"
       y="8">
      <feFlood
         flood-opacity="0"
         result="BackgroundImageFix"
         id="feFlood2" />
      <feBlend
         in="SourceGraphic"
         in2="BackgroundImageFix"
         mode="normal"
         result="shape"
         id="feBlend2" />
      <feGaussianBlur
         result="effect1_foregroundBlur_23_436"
         stdDeviation=".75"
         id="feGaussianBlur2" />
    </filter>
    <filter
       id="c"
       color-interpolation-filters="sRGB"
       filterUnits="userSpaceOnUse"
       height="5.75"
       width="8.75"
       x="6.375"
       y="7.875">
      <feFlood
         flood-opacity="0"
         result="BackgroundImageFix"
         id="feFlood3" />
      <feBlend
         in="SourceGraphic"
         in2="BackgroundImageFix"
         mode="normal"
         result="shape"
         id="feBlend3" />
      <feGaussianBlur
         result="effect1_foregroundBlur_23_436"
         stdDeviation=".75"
         id="feGaussianBlur3" />
    </filter>
    <filter
       id="d"
       color-interpolation-filters="sRGB"
       filterUnits="userSpaceOnUse"
       height="5.75"
       width="8.75"
       x="17.375"
       y="7.875">
      <feFlood
         flood-opacity="0"
         result="BackgroundImageFix"
         id="feFlood4" />
      <feBlend
         in="SourceGraphic"
         in2="BackgroundImageFix"
         mode="normal"
         result="shape"
         id="feBlend4" />
      <feGaussianBlur
         result="effect1_foregroundBlur_23_436"
         stdDeviation=".75"
         id="feGaussianBlur4" />
    </filter>
    <radialGradient
       id="q"
       cx="0"
       cy="0"
       gradientTransform="matrix(0,6,-9.18387,0,16,17)"
       gradientUnits="userSpaceOnUse"
       r="1">
      <stop
         offset=".517632"
         stop-color="#4e2553"
         id="stop23" />
      <stop
         offset=".702876"
         stop-color="#5b4852"
         id="stop24" />
      <stop
         offset="1"
         stop-color="#4e2553"
         id="stop25" />
    </radialGradient>
  </defs>
  <g
     id="layer1">
    <rect
       style="fill:#191919;fill-opacity:1;stroke-width:0.727439"
       id="rect1"
       width="1920"
       height="1080"
       x="-2.1316282e-14"
       y="6.2172489e-14" />
    <g
       clip-path="url(#r)"
       id="g40"
       transform="matrix(24.886033,0,0,24.886033,440.56128,-69.210788)">
      <g
         id="g1"
         transform="matrix(0.55480355,0,0,0.55480355,11.995844,10.075245)">
        <path
           d="m 15.9989,29.9978 c 9.3344,0 13.9989,-6.2675 13.9989,-13.9989 C 29.9978,8.26751 25.3333,2 15.9989,2 6.66443,2 2,8.26751 2,15.9989 2,23.7303 6.66443,29.9978 15.9989,29.9978 Z"
           fill="url(#f)"
           id="path24"
           style="fill:url(#f)" />
        <path
           d="m 15.9989,29.9978 c 9.3344,0 13.9989,-6.2675 13.9989,-13.9989 C 29.9978,8.26751 25.3333,2 15.9989,2 6.66443,2 2,8.26751 2,15.9989 2,23.7303 6.66443,29.9978 15.9989,29.9978 Z"
           fill="url(#g)"
           id="path25"
           style="fill:url(#g)" />
        <path
           d="m 15.9989,29.9978 c 9.3344,0 13.9989,-6.2675 13.9989,-13.9989 C 29.9978,8.26751 25.3333,2 15.9989,2 6.66443,2 2,8.26751 2,15.9989 2,23.7303 6.66443,29.9978 15.9989,29.9978 Z"
           fill="url(#h)"
           id="path26"
           style="fill:url(#h)" />
        <path
           d="m 15.9989,29.9978 c 9.3344,0 13.9989,-6.2675 13.9989,-13.9989 C 29.9978,8.26751 25.3333,2 15.9989,2 6.66443,2 2,8.26751 2,15.9989 2,23.7303 6.66443,29.9978 15.9989,29.9978 Z"
           fill="url(#i)"
           fill-opacity="0.6"
           id="path27"
           style="fill:url(#i)" />
        <path
           d="m 15.9989,29.9978 c 9.3344,0 13.9989,-6.2675 13.9989,-13.9989 C 29.9978,8.26751 25.3333,2 15.9989,2 6.66443,2 2,8.26751 2,15.9989 2,23.7303 6.66443,29.9978 15.9989,29.9978 Z"
           fill="url(#j)"
           id="path28"
           style="fill:url(#j)" />
        <path
           d="m 15.9989,29.9978 c 9.3344,0 13.9989,-6.2675 13.9989,-13.9989 C 29.9978,8.26751 25.3333,2 15.9989,2 6.66443,2 2,8.26751 2,15.9989 2,23.7303 6.66443,29.9978 15.9989,29.9978 Z"
           fill="url(#k)"
           id="path29"
           style="fill:url(#k)" />
        <path
           d="m 15.9989,29.9978 c 9.3344,0 13.9989,-6.2675 13.9989,-13.9989 C 29.9978,8.26751 25.3333,2 15.9989,2 6.66443,2 2,8.26751 2,15.9989 2,23.7303 6.66443,29.9978 15.9989,29.9978 Z"
           fill="url(#l)"
           id="path30"
           style="fill:url(#l)" />
        <path
           d="m 15.9989,29.9978 c 9.3344,0 13.9989,-6.2675 13.9989,-13.9989 C 29.9978,8.26751 25.3333,2 15.9989,2 6.66443,2 2,8.26751 2,15.9989 2,23.7303 6.66443,29.9978 15.9989,29.9978 Z"
           fill="url(#m)"
           id="path31"
           style="fill:url(#m)" />
        <path
           d="M 7.5,23 C 11.0899,23 14,20.0899 14,16.5 14,12.9101 11.0899,10 7.5,10 3.91015,10 1,12.9101 1,16.5 1,20.0899 3.91015,23 7.5,23 Z"
           fill="url(#o)"
           opacity="0.5"
           id="path32"
           style="fill:url(#o)" />
        <path
           d="M 24.5,23 C 28.0899,23 31,20.0899 31,16.5 31,12.9101 28.0899,10 24.5,10 20.9101,10 18,12.9101 18,16.5 c 0,3.5899 2.9101,6.5 6.5,6.5 z"
           fill="url(#p)"
           opacity="0.5"
           id="path33"
           style="fill:url(#p)" />
        <g
           filter="url(#a)"
           opacity="0.5"
           id="g34">
          <path
             d="m 7.5,12.5 c 0,0 0.25,-2 2.5,-2 2.25,0 2.5,2 2.5,2"
             stroke="#9a4609"
             stroke-linecap="round"
             stroke-width="2"
             id="path34" />
        </g>
        <g
           filter="url(#b)"
           opacity="0.5"
           id="g35">
          <path
             d="m 18.5,12.5 c 0,0 0.5,-2 2.5,-2 2,0 2.5,2 2.5,2"
             stroke="#9a4609"
             stroke-linecap="round"
             stroke-width="2"
             id="path35" />
        </g>
        <path
           d="m 8,12 c 0,0 0.25,-2 2.5,-2 2.25,0 2.5,2 2.5,2"
           stroke="#43273b"
           stroke-linecap="round"
           stroke-linejoin="round"
           stroke-width="2"
           id="path36"
           style="fill:none" />
        <g
           filter="url(#c)"
           opacity="0.26"
           id="g37">
          <path
             d="m 8.25,11.75 c 0,0 0.25,-2 2.5,-2 2.25,0 2.5,2 2.5,2"
             stroke="#ffffff"
             stroke-linecap="round"
             stroke-linejoin="round"
             stroke-width="0.75"
             id="path37" />
        </g>
        <path
           d="m 19,12 c 0,0 0.5,-2 2.5,-2 2,0 2.5,2 2.5,2"
           stroke="#43273b"
           stroke-linecap="round"
           stroke-linejoin="round"
           stroke-width="2"
           id="path38"
           style="fill:none" />
        <g
           filter="url(#d)"
           opacity="0.26"
           id="g39">
          <path
             d="m 19.25,11.75 c 0,0 0.25,-2 2.5,-2 2.25,0 2.5,2 2.5,2"
             stroke="#ffffff"
             stroke-linecap="round"
             stroke-linejoin="round"
             stroke-width="0.75"
             id="path39" />
        </g>
        <path
           d="m 10,19 c 0.5,0.6667 2.5,2.5 6,2.5 3.5,0 5.5,-1.8333 6,-2.5"
           stroke="url(#q)"
           stroke-linecap="round"
           stroke-width="2"
           id="path40"
           style="fill:none;stroke:url(#q)" />
      </g>
    </g>
    <text
       xml:space="preserve"
       style="font-weight:600;font-size:102.729px;font-family:'Noto Sans Bengali';-inkscape-font-specification:'Noto Sans Bengali Semi-Bold';fill:#d8d6d6;fill-opacity:1;stroke-width:2.13951"
       x="540.40338"
       y="815.57574"
       id="text1"><tspan
         id="tspan1"
         style="font-style:normal;font-variant:normal;font-weight:normal;font-stretch:normal;font-size:102.729px;font-family:Orkney;-inkscape-font-specification:Orkney;fill:#d8d6d6;fill-opacity:1;stroke-width:2.13951"
         x="540.40338"
         y="815.57574">Lost? Everyone is.</tspan></text>
    <text
       x="748.73492"
       y="815.56201"
       style="font-style:normal;font-variant:normal;font-weight:normal;font-stretch:normal;font-size:102.729px;font-family:Orkney;-inkscape-font-specification:Orkney;fill:#a0fc8e;fill-opacity:1;stroke-width:2.13951"
       id="text2"><tspan
         x="748.73492"
         y="815.56201"
         id="tspan2"
         style="fill:#a0fc8e;fill-opacity:1">.</tspan></text>
    <text
       x="1356.4833"
       y="815.56702"
       style="font-style:normal;font-variant:normal;font-weight:normal;font-stretch:normal;font-size:102.729px;font-family:Orkney;-inkscape-font-specification:Orkney;fill:#a0fc8e;fill-opacity:1;stroke-width:2.13951"
       id="text19"><tspan
         x="1356.4833"
         y="815.56702"
         id="tspan19"
         style="fill:#a0fc8e;fill-opacity:1">.</tspan></text>
  </g>
</svg>
