<svg xmlns="http://www.w3.org/2000/svg" width="1920" height="1080" viewBox="0 0 508 285.75"><path d="M0 0h508v285.75H0z" style="fill:#191919;fill-opacity:1;stroke-width:.819888"/><path d="M116.492 123.755h3.743l-12.071 28.651h-3.782l-5.196-12.3-5.195 12.3h-3.744l-12.149-28.651h3.782l10.353 24.526 5.196-12.301-5.158-12.225h3.591l10.277 24.526zm15.662 9.168q3.21 0 5.31 2.101 2.14 2.102 2.14 5.31v12.072h-3.4v-11.69q0-2.062-1.414-3.438-1.413-1.375-3.552-1.375-2.14 0-3.668 1.452-1.49 1.451-1.49 3.514v11.537h-3.361v-28.651h3.361v11.957q2.369-2.789 6.074-2.789zm21.012 19.865q-4.126 0-6.724-2.865t-2.598-7.067q0-4.24 2.598-7.067 2.598-2.866 6.724-2.866 4.087 0 6.685 2.866 2.636 2.865 2.636 7.067t-2.636 7.067q-2.598 2.865-6.685 2.865zm0-3.018q2.712 0 4.355-1.986 1.642-1.987 1.642-4.928 0-2.98-1.68-4.966-1.643-1.987-4.317-1.987-2.751 0-4.394 1.987-1.604 1.986-1.604 4.966 0 2.98 1.604 4.966 1.643 1.948 4.394 1.948zm19.941-5.424v-2.369q0-1.68.497-2.827.534-1.184 1.299-1.68.764-.535 1.642-1.07.917-.535 1.681-.994.764-.458 1.26-1.451.536-.993.536-2.445 0-2.178-1.528-3.553-1.49-1.413-3.859-1.413-2.292 0-3.782 1.451-1.49 1.452-1.528 3.668h-3.056q0-3.477 2.368-5.769 2.407-2.33 5.998-2.33 3.63 0 5.998 2.292 2.407 2.254 2.407 5.654 0 2.063-.726 3.476-.688 1.414-1.681 2.101-.993.688-2.025 1.261-.993.535-1.719 1.337-.688.764-.688 1.948v2.713zm1.68 8.442q-.878 0-1.565-.649-.65-.65-.65-1.604 0-.88.65-1.529.687-.687 1.566-.687.917 0 1.566.687.688.65.688 1.529 0 .955-.688 1.604-.65.65-1.566.65zm58.527-29.033h3.743l-12.072 28.651h-3.782l-5.195-12.3-5.196 12.3h-3.743l-12.149-28.651h3.782l10.353 24.526 5.196-12.301-5.158-12.225h3.591l10.277 24.526zm15.662 9.168q3.21 0 5.31 2.101 2.14 2.102 2.14 5.31v12.072h-3.4v-11.69q0-2.062-1.414-3.438-1.413-1.375-3.552-1.375-2.14 0-3.668 1.452-1.49 1.451-1.49 3.514v11.537h-3.362v-28.651h3.362v11.957q2.369-2.789 6.074-2.789zm20.056 0q3.477 0 5.693 1.872 2.215 1.834 2.215 5.387v12.224h-2.98l-.19-2.712q-3.477 3.094-7.068 3.094-2.56 0-4.202-1.642-1.643-1.643-1.643-4.202 0-2.866 2.292-4.47 2.33-1.605 6.991-.84l3.477.572v-2.253q0-2.063-1.337-3.095-1.3-1.07-3.4-1.07-3.362 0-5.12 2.636l-2.33-2.062q2.369-3.439 7.602-3.439zm-4.737 13.868q0 1.337.84 2.177.88.802 2.331.802 2.98 0 6.15-2.903v-2.177l-3.132-.535q-3.323-.611-4.775.229-1.414.802-1.414 2.407zM291 149.006l1.872 2.293q-1.414 1.49-4.012 1.49-2.636 0-4.24-1.567-1.605-1.604-1.605-4.164v-11.117h-2.483v-2.636h2.483v-6.494h3.362v6.494h5.196v2.636h-5.158v11.117q0 2.827 2.522 2.827 1.222 0 2.063-.879zm11.117-4.66v-2.369q0-1.68.496-2.827.535-1.184 1.3-1.68.763-.535 1.642-1.07.917-.535 1.68-.994.765-.458 1.261-1.451.535-.993.535-2.445 0-2.178-1.528-3.553-1.49-1.413-3.858-1.413-2.292 0-3.782 1.451-1.49 1.452-1.528 3.668h-3.057q0-3.477 2.369-5.769 2.407-2.33 5.998-2.33 3.629 0 5.997 2.292 2.407 2.254 2.407 5.654 0 2.063-.726 3.476-.687 1.414-1.68 2.101-.994.688-2.025 1.261-.994.535-1.72 1.337-.687.764-.687 1.948v2.713zm1.68 8.442q-.878 0-1.566-.649-.65-.65-.65-1.604 0-.88.65-1.529.688-.687 1.566-.687.917 0 1.567.687.687.65.687 1.529 0 .955-.687 1.604-.65.65-1.567.65zm58.526-29.033h3.744l-12.072 28.651h-3.782l-5.196-12.3-5.195 12.3h-3.744l-12.148-28.651h3.782l10.353 24.526 5.195-12.301-5.157-12.225h3.59l10.277 24.526zm15.663 9.168q3.209 0 5.31 2.101 2.14 2.102 2.14 5.31v12.072h-3.4v-11.69q0-2.062-1.414-3.438-1.414-1.375-3.553-1.375-2.14 0-3.667 1.452-1.49 1.451-1.49 3.514v11.537h-3.362v-28.651h3.362v11.957q2.368-2.789 6.074-2.789zm29.989.382v19.598q0 4.126-2.407 6.685-2.369 2.598-6.8 2.598-3.82 0-6.647-1.834v-3.667q2.865 2.483 6.914 2.483 2.75 0 4.126-1.643 1.414-1.642 1.414-4.622v-2.942q-2.293 2.827-5.96 2.827-3.17 0-5.348-2.215-2.178-2.216-2.178-5.387v-11.88h3.362v11.536q0 2.063 1.452 3.515 1.451 1.413 3.552 1.413 2.14 0 3.63-1.413 1.49-1.452 1.49-3.515v-11.537zm11.995 11.04v-2.368q0-1.68.497-2.827.534-1.184 1.298-1.68.765-.535 1.643-1.07.917-.535 1.681-.994.764-.458 1.26-1.451.536-.993.536-2.445 0-2.178-1.529-3.553-1.49-1.413-3.858-1.413-2.292 0-3.782 1.451-1.49 1.452-1.528 3.668h-3.056q0-3.477 2.368-5.769 2.407-2.33 5.998-2.33 3.63 0 5.998 2.292 2.407 2.254 2.407 5.654 0 2.063-.726 3.476-.688 1.414-1.681 2.101-.993.688-2.025 1.261-.993.535-1.719 1.337-.688.764-.688 1.948v2.713zm1.68 8.443q-.878 0-1.565-.649-.65-.65-.65-1.604 0-.88.65-1.529.687-.687 1.566-.687.917 0 1.566.687.688.65.688 1.529 0 .955-.688 1.604-.65.65-1.566.65z" aria-label="Who? What? Why?" style="fill:#fff;stroke-width:1.16024"/><path d="M174.787 152.788c-.586 0-1.108-.217-1.567-.65-.433-.432-.649-.967-.649-1.604 0-.586.216-1.095.65-1.528.458-.458.98-.688 1.566-.688.61 0 1.133.23 1.566.688.458.433.688.942.688 1.528 0 .637-.23 1.172-.688 1.605-.433.432-.955.649-1.566.649zM303.796 152.788c-.586 0-1.108-.217-1.567-.65-.433-.432-.649-.967-.649-1.604 0-.586.216-1.095.65-1.528.458-.458.98-.688 1.566-.688.611 0 1.133.23 1.566.688.458.433.688.942.688 1.528 0 .637-.23 1.172-.688 1.605-.433.432-.955.649-1.566.649zM421.65 152.788c-.585 0-1.107-.217-1.566-.65-.433-.432-.649-.967-.649-1.604 0-.586.216-1.095.65-1.528.458-.458.98-.688 1.566-.688.61 0 1.133.23 1.566.688.458.433.688.942.688 1.528 0 .637-.23 1.172-.688 1.605-.433.432-.955.649-1.566.649z" aria-label="?" style="fill:#7fff80;fill-opacity:1;stroke-width:1.16024"/></svg>