<?xml version="1.0" encoding="UTF-8"?>
<svg width="210mm" height="150mm" version="1.1" viewBox="0 0 210 150" xmlns="http://www.w3.org/2000/svg">
	<rect width="100%" height="100%" fill="#1E1E1E"/>
	<g transform="matrix(1.4196 0 0 1.4196 -44.062 -31.471)" stroke-width=".26458" aria-label="blog.init() ⭢ |Posts〉  + |Dormancy〉">
		<g fill="#fff" stroke-width=".26458">
			<path d="m54.036 73.316q0.4699 0 0.8509 0.2159 0.381 0.20955 0.5969 0.5969t0.2159 0.88265-0.2159 0.88265-0.5969 0.60325-0.8509 0.2159q-0.4191 0-0.75565-0.1778-0.3302-0.1778-0.5334-0.51435v0.6604h-0.4318v-4.7117h0.45085v2.0066q0.20955-0.32385 0.5334-0.48895 0.3302-0.17145 0.7366-0.17145zm-0.03175 2.9972q0.34925 0 0.635-0.15875 0.28575-0.1651 0.4445-0.46355 0.1651-0.29845 0.1651-0.67945t-0.1651-0.67945q-0.15875-0.29845-0.4445-0.4572-0.28575-0.1651-0.635-0.1651-0.3556 0-0.64135 0.1651-0.2794 0.15875-0.4445 0.4572-0.15875 0.29845-0.15875 0.67945t0.15875 0.67945q0.1651 0.29845 0.4445 0.46355 0.28575 0.15875 0.64135 0.15875z"/>
			<path d="m56.621 71.97h0.45085v4.7117h-0.45085z"/>
			<path d="m59.694 76.713q-0.4826 0-0.86995-0.2159-0.38735-0.22225-0.6096-0.6096t-0.22225-0.8763 0.22225-0.8763 0.6096-0.60325 0.86995-0.2159 0.86995 0.2159 0.60325 0.60325q0.22225 0.38735 0.22225 0.8763t-0.22225 0.8763q-0.2159 0.38735-0.60325 0.6096-0.38735 0.2159-0.86995 0.2159zm0-0.40005q0.3556 0 0.635-0.15875 0.28575-0.1651 0.4445-0.46355t0.15875-0.67945-0.15875-0.67945-0.4445-0.4572q-0.2794-0.1651-0.635-0.1651t-0.64135 0.1651q-0.2794 0.15875-0.4445 0.4572-0.15875 0.29845-0.15875 0.67945t0.15875 0.67945q0.1651 0.29845 0.4445 0.46355 0.28575 0.15875 0.64135 0.15875z"/>
			<path d="m65.403 73.341v2.9337q0 0.8509-0.4191 1.2573-0.41275 0.41275-1.251 0.41275-0.46355 0-0.88265-0.1397-0.41275-0.13335-0.6731-0.37465l0.2286-0.3429q0.2413 0.2159 0.5842 0.33655 0.34925 0.12065 0.73025 0.12065 0.635 0 0.93345-0.29845 0.29845-0.2921 0.29845-0.9144v-0.42545q-0.20955 0.3175-0.55245 0.4826-0.33655 0.1651-0.7493 0.1651-0.4699 0-0.85725-0.2032-0.381-0.20955-0.60325-0.57785-0.2159-0.37465-0.2159-0.84455t0.2159-0.8382q0.22225-0.3683 0.60325-0.5715t0.85725-0.2032q0.42545 0 0.76835 0.17145t0.55245 0.4953v-0.64135zm-1.7082 2.813q0.36195 0 0.65405-0.1524 0.2921-0.15875 0.45085-0.43815 0.1651-0.2794 0.1651-0.635t-0.1651-0.62865q-0.15875-0.2794-0.45085-0.4318-0.28575-0.15875-0.65405-0.15875-0.36195 0-0.65405 0.1524-0.28575 0.1524-0.45085 0.4318-0.15875 0.2794-0.15875 0.635t0.15875 0.635q0.1651 0.2794 0.45085 0.43815 0.2921 0.1524 0.65405 0.1524z"/>
			<path d="m66.711 76.713q-0.1397 0-0.2413-0.1016-0.09525-0.1016-0.09525-0.24765t0.09525-0.2413q0.1016-0.1016 0.2413-0.1016t0.2413 0.1016q0.1016 0.09525 0.1016 0.2413t-0.1016 0.24765-0.2413 0.1016z"/>
			<path d="m68.012 73.341h0.45085v3.3401h-0.45085zm0.2286-0.73025q-0.1397 0-0.23495-0.09525t-0.09525-0.2286q0-0.127 0.09525-0.22225t0.23495-0.09525 0.23495 0.09525q0.09525 0.0889 0.09525 0.2159 0 0.1397-0.09525 0.23495t-0.23495 0.09525z"/>
			<path d="m71.422 73.316q0.62865 0 0.99695 0.3683 0.37465 0.36195 0.37465 1.0604v1.9368h-0.45085v-1.8923q0-0.5207-0.26035-0.79375t-0.74295-0.27305q-0.53975 0-0.85725 0.32385-0.31115 0.3175-0.31115 0.88265v1.7526h-0.45085v-3.3401h0.4318v0.61595q0.18415-0.3048 0.508-0.4699 0.3302-0.17145 0.762-0.17145z"/>
			<path d="m74.019 73.341h0.45085v3.3401h-0.45085zm0.2286-0.73025q-0.1397 0-0.23495-0.09525t-0.09525-0.2286q0-0.127 0.09525-0.22225t0.23495-0.09525 0.23495 0.09525q0.09525 0.0889 0.09525 0.2159 0 0.1397-0.09525 0.23495t-0.23495 0.09525z"/>
			<path d="m77.487 76.478q-0.127 0.1143-0.3175 0.1778-0.18415 0.05715-0.38735 0.05715-0.4699 0-0.7239-0.254t-0.254-0.71755v-2.0193h-0.5969v-0.381h0.5969v-0.73025h0.45085v0.73025h1.016v0.381h-1.016v1.9939q0 0.29845 0.14605 0.4572 0.1524 0.1524 0.4318 0.1524 0.1397 0 0.2667-0.04445 0.13335-0.04445 0.2286-0.127z"/>
			<path d="m79.074 77.913q-0.3556-0.5842-0.5461-1.3398-0.1905-0.762-0.1905-1.632t0.1905-1.632q0.1905-0.76835 0.5461-1.3398h0.4318q-0.37465 0.64135-0.55245 1.378-0.17145 0.7366-0.17145 1.5938t0.17145 1.5938q0.1778 0.7366 0.55245 1.378z"/>
			<path d="m80.02 77.913q0.37465-0.64135 0.55245-1.3716 0.1778-0.7366 0.1778-1.6002t-0.1778-1.5938q-0.1778-0.7366-0.55245-1.378h0.4318q0.3556 0.5715 0.5461 1.3398 0.19685 0.762 0.19685 1.632t-0.1905 1.632-0.55245 1.3398z"/>
			<path d="m88.644 74.387-1.1472-1.1472v0.91777h-3.4416v0.45889h3.4416v0.91777z"/>
			<path d="m91.641 71.97h0.4191v5.9436h-0.4191z"/>
		</g>
		<g fill="#8dff9e">
			<path d="m95.178 72.236q0.8509 0 1.3335 0.4064t0.4826 1.1176-0.4826 1.1176q-0.4826 0.40005-1.3335 0.40005h-1.1938v1.4034h-0.4699v-4.445zm-0.0127 2.6289q0.6604 0 1.0096-0.28575 0.34925-0.2921 0.34925-0.81915 0-0.53975-0.34925-0.8255-0.34925-0.2921-1.0096-0.2921h-1.1811v2.2225z"/>
			<path d="m99.261 76.713q-0.4826 0-0.86995-0.2159-0.38735-0.22225-0.6096-0.6096t-0.22225-0.8763 0.22225-0.8763 0.6096-0.60325 0.86995-0.2159 0.86995 0.2159 0.60325 0.60325q0.22225 0.38735 0.22225 0.8763t-0.22225 0.8763q-0.2159 0.38735-0.60325 0.6096-0.38735 0.2159-0.86995 0.2159zm0-0.40005q0.3556 0 0.635-0.15875 0.28575-0.1651 0.4445-0.46355t0.15875-0.67945-0.15875-0.67945-0.4445-0.4572q-0.2794-0.1651-0.635-0.1651t-0.64135 0.1651q-0.2794 0.15875-0.4445 0.4572-0.15875 0.29845-0.15875 0.67945t0.15875 0.67945q0.1651 0.29845 0.4445 0.46355 0.28575 0.15875 0.64135 0.15875z"/>
			<path d="m102.77 76.713q-0.4064 0-0.78105-0.1143-0.3683-0.12065-0.57785-0.29845l0.2032-0.3556q0.20955 0.1651 0.52705 0.27305 0.3175 0.1016 0.6604 0.1016 0.4572 0 0.6731-0.1397 0.22225-0.14605 0.22225-0.4064 0-0.18415-0.12065-0.28575-0.12065-0.10795-0.3048-0.15875-0.18415-0.05715-0.48895-0.10795-0.4064-0.0762-0.65405-0.1524-0.24765-0.08255-0.42545-0.27305-0.17145-0.1905-0.17145-0.52705 0-0.4191 0.34925-0.6858t0.97155-0.2667q0.32385 0 0.6477 0.0889 0.32385 0.08255 0.5334 0.22225l-0.19685 0.36195q-0.41275-0.28575-0.98425-0.28575-0.4318 0-0.65405 0.1524-0.2159 0.1524-0.2159 0.40005 0 0.1905 0.12065 0.3048 0.127 0.1143 0.31115 0.17145 0.18415 0.0508 0.508 0.10795 0.40005 0.0762 0.64135 0.1524t0.41275 0.26035 0.17145 0.508q0 0.43815-0.3683 0.6985-0.36195 0.254-1.0096 0.254z"/>
			<path d="m106.74 76.478q-0.127 0.1143-0.3175 0.1778-0.18415 0.05715-0.38735 0.05715-0.4699 0-0.7239-0.254t-0.254-0.71755v-2.0193h-0.5969v-0.381h0.5969v-0.73025h0.45085v0.73025h1.016v0.381h-1.016v1.9939q0 0.29845 0.14605 0.4572 0.1524 0.1524 0.4318 0.1524 0.1397 0 0.2667-0.04445 0.13335-0.04445 0.2286-0.127z"/>
			<path d="m108.46 76.713q-0.4064 0-0.78105-0.1143-0.3683-0.12065-0.57785-0.29845l0.2032-0.3556q0.20955 0.1651 0.52705 0.27305 0.3175 0.1016 0.6604 0.1016 0.4572 0 0.6731-0.1397 0.22225-0.14605 0.22225-0.4064 0-0.18415-0.12065-0.28575-0.12065-0.10795-0.3048-0.15875-0.18415-0.05715-0.48895-0.10795-0.4064-0.0762-0.65405-0.1524-0.24765-0.08255-0.42545-0.27305-0.17145-0.1905-0.17145-0.52705 0-0.4191 0.34925-0.6858t0.97155-0.2667q0.32385 0 0.6477 0.0889 0.32385 0.08255 0.5334 0.22225l-0.19685 0.36195q-0.41275-0.28575-0.98425-0.28575-0.4318 0-0.65405 0.1524-0.2159 0.1524-0.2159 0.40005 0 0.1905 0.12065 0.3048 0.127 0.1143 0.31115 0.17145 0.18415 0.0508 0.508 0.10795 0.40005 0.0762 0.64135 0.1524t0.41275 0.26035 0.17145 0.508q0 0.43815-0.3683 0.6985-0.36195 0.254-1.0096 0.254z"/>
		</g>
		<g fill="#fff" stroke-width=".26458">
			<path d="m110.7 72.229 1.2371 2.7843v0.22944l-1.2371 2.7874-0.33176-0.11782 0.99528-2.7843-0.99528-2.7874z"/>
			<path d="m118.32 74.649h-1.1811v1.1557h-0.40005v-1.1557h-1.1811v-0.37465h1.1811v-1.162h0.40005v1.162h1.1811z"/>
			<path d="m121.15 71.97h0.4191v5.9436h-0.4191z"/>
		</g>
		<g fill="#ffaaa3">
			<path d="m123.03 72.236h1.8098q0.70485 0 1.2446 0.28575 0.53975 0.2794 0.8382 0.7874 0.29845 0.50165 0.29845 1.1494t-0.29845 1.1557q-0.29845 0.50165-0.8382 0.7874-0.53975 0.2794-1.2446 0.2794h-1.8098zm1.7844 4.0386q0.5842 0 1.0224-0.2286 0.43815-0.23495 0.67945-0.64135 0.2413-0.41275 0.2413-0.94615t-0.2413-0.9398q-0.2413-0.41275-0.67945-0.64135-0.43815-0.23495-1.0224-0.23495h-1.3144v3.6322z"/>
			<path d="m129.54 76.713q-0.4826 0-0.86995-0.2159-0.38735-0.22225-0.6096-0.6096t-0.22225-0.8763 0.22225-0.8763 0.6096-0.60325 0.86995-0.2159 0.86995 0.2159 0.60325 0.60325q0.22225 0.38735 0.22225 0.8763t-0.22225 0.8763q-0.2159 0.38735-0.60325 0.6096-0.38735 0.2159-0.86995 0.2159zm0-0.40005q0.3556 0 0.635-0.15875 0.28575-0.1651 0.4445-0.46355t0.15875-0.67945-0.15875-0.67945-0.4445-0.4572q-0.2794-0.1651-0.635-0.1651t-0.64135 0.1651q-0.2794 0.15875-0.4445 0.4572-0.15875 0.29845-0.15875 0.67945t0.15875 0.67945q0.1651 0.29845 0.4445 0.46355 0.28575 0.15875 0.64135 0.15875z"/>
			<path d="m132.59 73.995q0.15875-0.33655 0.4699-0.508 0.3175-0.17145 0.78105-0.17145v0.43815l-0.10795-0.0064q-0.52705 0-0.8255 0.32385t-0.29845 0.90805v1.7018h-0.45085v-3.3401h0.4318z"/>
			<path d="m138.82 73.316q0.62865 0 0.98425 0.36195 0.36195 0.36195 0.36195 1.0668v1.9368h-0.45085v-1.8923q0-0.5207-0.254-0.79375-0.24765-0.27305-0.70485-0.27305-0.5207 0-0.81915 0.32385-0.29845 0.3175-0.29845 0.88265v1.7526h-0.45085v-1.8923q0-0.5207-0.254-0.79375-0.24765-0.27305-0.7112-0.27305-0.51435 0-0.81915 0.32385-0.29845 0.3175-0.29845 0.88265v1.7526h-0.45085v-3.3401h0.4318v0.6096q0.1778-0.3048 0.4953-0.4699t0.73025-0.1651q0.4191 0 0.7239 0.1778 0.31115 0.1778 0.46355 0.52705 0.18415-0.3302 0.52705-0.51435 0.34925-0.1905 0.79375-0.1905z"/>
			<path d="m142.56 73.316q0.65405 0 1.0033 0.3302 0.34925 0.32385 0.34925 0.9652v2.0701h-0.4318v-0.5207q-0.1524 0.26035-0.45085 0.4064-0.2921 0.14605-0.6985 0.14605-0.5588 0-0.889-0.2667t-0.3302-0.70485q0-0.42545 0.3048-0.6858 0.31115-0.26035 0.98425-0.26035h1.0604v-0.2032q0-0.4318-0.2413-0.65405-0.2413-0.2286-0.70485-0.2286-0.3175 0-0.6096 0.10795-0.2921 0.1016-0.50165 0.28575l-0.2032-0.33655q0.254-0.2159 0.6096-0.3302 0.3556-0.12065 0.7493-0.12065zm-0.15875 3.0416q0.381 0 0.65405-0.17145 0.27305-0.1778 0.4064-0.508v-0.5461h-1.0478q-0.85725 0-0.85725 0.5969 0 0.2921 0.22225 0.46355 0.22225 0.1651 0.6223 0.1651z"/>
			<path d="m146.84 73.316q0.62865 0 0.99695 0.3683 0.37465 0.36195 0.37465 1.0604v1.9368h-0.45085v-1.8923q0-0.5207-0.26035-0.79375t-0.74295-0.27305q-0.53975 0-0.85725 0.32385-0.31115 0.3175-0.31115 0.88265v1.7526h-0.45085v-3.3401h0.4318v0.61595q0.18415-0.3048 0.508-0.4699 0.3302-0.17145 0.762-0.17145z"/>
			<path d="m150.83 76.713q-0.4953 0-0.889-0.2159-0.38735-0.2159-0.6096-0.60325-0.22225-0.3937-0.22225-0.88265t0.22225-0.8763 0.6096-0.60325q0.3937-0.2159 0.889-0.2159 0.4318 0 0.76835 0.17145 0.3429 0.1651 0.53975 0.48895l-0.33655 0.2286q-0.1651-0.24765-0.4191-0.3683-0.254-0.127-0.55245-0.127-0.36195 0-0.65405 0.1651-0.28575 0.15875-0.45085 0.4572-0.15875 0.29845-0.15875 0.67945 0 0.38735 0.15875 0.6858 0.1651 0.2921 0.45085 0.4572 0.2921 0.15875 0.65405 0.15875 0.29845 0 0.55245-0.12065t0.4191-0.3683l0.33655 0.2286q-0.19685 0.32385-0.53975 0.4953-0.3429 0.1651-0.76835 0.1651z"/>
			<path d="m155.78 73.341-1.67 3.7402q-0.2032 0.4699-0.4699 0.66675t-0.64135 0.19685q-0.2413 0-0.45085-0.0762t-0.36195-0.2286l0.20955-0.33655q0.254 0.254 0.6096 0.254 0.2286 0 0.38735-0.127 0.1651-0.127 0.3048-0.4318l0.14605-0.32385-1.4922-3.3338h0.4699l1.2573 2.8384 1.2573-2.8384z"/>
		</g>
		<path d="m156.45 72.229 1.2371 2.7843v0.22944l-1.2371 2.7874-0.33176-0.11782 0.99528-2.7843-0.99528-2.7874z" fill="#fff" stroke-width=".26458"/>
	</g>
</svg>
