<svg xmlns="http://www.w3.org/2000/svg" width="1920mm" height="1080mm" viewBox="0 0 1920 1080"><path d="M0 0h1920v1080H0z" style="fill:#191919;fill-opacity:1;stroke-width:.727439"/><path d="M478.492 681.92c541.875-854.278 582.375-687.95 654.339-564.75M479.573 663.63c597.449-813.316 623.282-650.68 683.277-528.984m-682.89 507.5c654.576-765.205 665.603-606.904 713.572-486.974M480.007 617.009c712.465-708.91 708.617-555.683 744.532-437.819M480.247 587.803c769.923-643.504 751.239-496.171 775.115-380.708M481.414 554.253c825.304-568.37 791.97-427.809 803.885-315.102M484.437 516.336c876.53-483.455 828.92-350.547 829.026-240.957M490.358 474.397c921.263-389.535 859.965-265.091 848.5-158.947M500.194 429.242c957.228-288.41 883.03-173.08 860.315-70.648m-845.769 23.522c982.647-182.874 896.5-77.056 862.923 21.504m-843.286-69.04c996.665-76.418 899.597 19.806 855.575 114.46M558.976 288.26c999.574 27.315 892.586 114.19 838.527 205.037M587.927 244.583c992.733 125.129 876.704 203.188 812.967 290.445M620.3 204.584c978.23 214.705 853.849 284.691 780.715 368.661M655.043 168.833c958.418 294.769 826.165 357.54 743.828 438.571M691.156 137.477c935.538 364.99 795.69 421.432 704.262 499.887M727.805 110.35c911.46 425.74 764.122 476.706 663.65 552.932M764.353 87.096c887.603 477.816 732.758 524.09 623.231 598.404M800.366 67.268c864.95 522.221 702.488 564.493 583.863 637.178M826.855 59.135c834.625 569.432 670.068 602.62 547.59 668.607M846.684 59.835c790.22 625.86 629.665 644.303 508.817 698.29M869.938 59.999c738.143 683.49 582.28 687.081 463.344 729.024M897.064 60.062c677.394 741.34 527.007 730.06 410.3 759.95M928.42 60.66c607.173 797.995 463.115 771.951 348.984 789.833M964.171 62.63c527.11 851.579 390.267 811.048 279.074 817.033M1004.17 66.97c437.533 899.856 308.764 845.316 200.858 839.6M1047.847 74.73c339.72 940.471 219.766 872.613 115.45 855.477m-69.13-843.362c235.986 971.335 125.381 891.037 24.872 862.84m22.665-845.765c129.53 991.09 28.519 899.354-68.084 860.502m115.209-838.336c23.994 999.445-67.505 897.298-160.235 848.209m205.39-821.334c-77.13 997.254-159.516 885.646-248.534 826.708m290.473-795.917c-171.05 986.293-244.972 866.015-330.544 797.55m368.461-763.86c-255.966 968.84-322.234 840.477-404.69 762.722m438.24-727.178c-331.1 947.234-390.596 811.16-470.295 724.27m499.5-687.797c-396.505 923.549-450.106 779.952-527.405 684m552.544-647.335c-452.802 899.433-501.33 748.351-576.562 643.355m598.045-607.03c-500.912 876.08-545.104 717.444-618.571 603.375m636.862-567.744c-541.875 854.279-582.375 687.95-654.339 564.752m653.258-546.46C842.978 1229.685 817.145 1067.05 757.15 945.353m682.89-507.5c-654.576 765.205-665.603 606.904-713.572 486.974m713.525-461.837c-712.465 708.91-708.617 555.683-744.532 437.819m744.293-408.613c-769.925 643.504-751.24 496.171-775.116 380.708m773.948-347.158c-825.304 568.37-791.97 427.809-803.885 315.102m800.862-277.185c-876.53 483.455-828.92 350.547-829.026 240.957m823.105-199.018c-921.263 389.535-859.965 265.091-848.5 158.947m838.663-113.792c-957.228 288.41-883.03 173.08-860.315 70.648m845.769-23.522c-982.647 182.874-896.5 77.056-862.923-21.504m843.286 69.04c-996.665 76.418-899.597-19.806-855.575-114.46m830.977 160.78C361.45 764.425 468.438 677.55 522.497 586.703m809.576 248.714C339.34 710.288 455.369 632.23 519.106 544.972M1299.7 875.416C321.47 660.71 445.85 590.725 518.985 506.755m745.972 404.412c-958.418-294.769-826.165-357.54-743.828-438.571m707.715 469.927c-935.538-364.99-795.69-421.432-704.262-499.887m667.614 527.014c-911.46-425.74-764.123-476.706-663.65-552.932m627.1 576.186C268.043 515.088 422.888 468.814 532.415 394.5m587.219 618.232C254.684 490.511 417.146 448.24 535.77 375.554m557.374 645.311c-834.625-569.432-670.068-602.62-547.59-668.607m527.761 667.907c-790.22-625.86-629.664-644.303-508.816-698.29m485.562 698.127c-738.142-683.49-582.28-687.081-463.344-729.024m436.218 728.96c-677.394-741.34-527.007-730.06-410.3-759.95M991.58 1019.34C384.407 221.345 528.465 247.389 642.596 229.507m313.233 787.863c-527.11-851.579-390.267-811.048-279.074-817.033M915.83 1013.03c-437.533-899.856-308.764-845.316-200.858-839.6m157.181 831.84C532.433 64.8 652.387 132.657 756.703 149.793m69.13 843.362C589.847 21.82 700.452 102.119 800.96 130.316m-22.665 845.765C648.766-15.01 749.777 76.727 846.38 115.579M731.17 953.915C707.177-45.53 798.676 56.617 891.406 105.706M686.016 927.04C763.145-70.214 845.531 41.394 934.55 100.332M644.077 896.25C815.127-90.044 889.05 30.234 974.621 98.699M606.16 862.56C862.126-106.28 928.394 22.082 1010.85 99.837M572.61 827.015c331.1-947.234 390.596-811.16 470.295-724.27m-499.5 687.797c396.505-923.549 450.106-779.952 527.405-684M518.266 753.877c452.802-899.433 501.33-748.351 576.562-643.355m-598.045 607.03C997.695-158.528 1041.887.108 1115.354 114.177M478.492 681.92c541.874-854.279 582.375-687.95 654.339-564.752" style="fill:none;stroke:#81ad86;stroke-width:2.8"/></svg>