<svg xmlns="http://www.w3.org/2000/svg" xml:space="preserve" width="1920mm" height="1080mm" viewBox="0 0 1920 1080">
    <path d="M0 0h1920v1080H0z" style="fill:#191919;fill-opacity:1;stroke-width:.727439"/>
        <g transform="translate(398.044 263.822)scale(.67502)">
            <path fill="none" stroke="#000" stroke-linecap="round" stroke-linejoin="round" stroke-width="32" d="M448 341.37V170.61A32 32 0 0 0 432.11 143l-152-88.46a47.94 47.94 0 0 0-48.24 0L79.89 143A32 32 0 0 0 64 170.61v170.76A32 32 0 0 0 79.89 369l152 88.46a48 48 0 0 0 48.24 0l152-88.46A32 32 0 0 0 448 341.37" style="stroke:#aeaeae;stroke-width:17.4862;stroke-dasharray:none;stroke-opacity:1"/>
            <path fill="none" stroke="#000" stroke-linecap="round" stroke-linejoin="round" stroke-width="32" d="m69 153.99 187 110 187-110m-187 310v-200" style="stroke:#aeaeae;stroke-width:17.4862;stroke-dasharray:none;stroke-opacity:1"/>
            <ellipse cx="256" cy="152" stroke="none" rx="24" ry="16" style="fill:#dfdfdf;fill-opacity:1;stroke:none;stroke-opacity:1"/>
            <ellipse cx="208" cy="296" stroke="none" rx="16" ry="24" style="fill:#dfdfdf;fill-opacity:1;stroke:none;stroke-opacity:1"/>
            <ellipse cx="112" cy="328" stroke="none" rx="16" ry="24" style="fill:#dfdfdf;fill-opacity:1;stroke:none;stroke-opacity:1"/>
            <ellipse cx="304" cy="296" stroke="none" rx="16" ry="24" style="fill:#dfdfdf;fill-opacity:1;stroke:none;stroke-opacity:1"/>
            <ellipse cx="400" cy="240" stroke="none" rx="16" ry="24" style="fill:#dfdfdf;fill-opacity:1;stroke:none;stroke-opacity:1"/>
            <ellipse cx="304" cy="384" stroke="none" rx="16" ry="24" style="fill:#dfdfdf;fill-opacity:1;stroke:none;stroke-opacity:1"/>
            <ellipse cx="400" cy="328" stroke="none" rx="16" ry="24" style="fill:#dfdfdf;fill-opacity:1;stroke:none;stroke-opacity:1"/>
        </g>
        <g style="fill:#dfdfdf;fill-opacity:1;stroke:none">
            <g fill="none" stroke="#000" stroke-linecap="round" stroke-linejoin="round" stroke-width="32" style="stroke:#aeaeae;stroke-opacity:1">
                <path d="M448 341.37V170.61A32 32 0 0 0 432.11 143l-152-88.46a47.94 47.94 0 0 0-48.24 0L79.89 143A32 32 0 0 0 64 170.61v170.76A32 32 0 0 0 79.89 369l152 88.46a48 48 0 0 0 48.24 0l152-88.46A32 32 0 0 0 448 341.37" style="stroke:#aeaeae;stroke-width:17.4862;stroke-dasharray:none;stroke-opacity:1" transform="translate(1176.348 263.822)scale(.67502)"/>
                <path d="m69 153.99 187 110 187-110m-187 310v-200" style="stroke:#aeaeae;stroke-width:17.4862;stroke-dasharray:none;stroke-opacity:1" transform="translate(1176.348 263.822)scale(.67502)"/>
            </g>
            <path fill="#000" d="M3.328-3.016c.063-.25.297-1.171.985-1.171.046 0 .296 0 .5.125a.578.578 0 0 0-.47.546c0 .157.11.344.376.344a.546.546 0 0 0 .531-.578c0-.516-.578-.656-.922-.656-.578 0-.922.531-1.047.75-.25-.656-.781-.75-1.078-.75-1.031 0-1.61 1.281-1.61 1.531 0 .11.11.11.126.11.078 0 .11-.032.125-.11.344-1.062 1-1.312 1.344-1.312.187 0 .53.093.53.671 0 .313-.171.97-.53 2.375-.157.61-.516 1.032-.954 1.032-.062 0-.28 0-.5-.125.25-.063.47-.266.47-.547 0-.266-.22-.344-.36-.344-.313 0-.547.25-.547.578 0 .453.484.656.922.656.672 0 1.031-.703 1.047-.75.125.36.484.75 1.078.75 1.031 0 1.594-1.28 1.594-1.53 0-.11-.079-.11-.11-.11-.094 0-.11.047-.14.11-.329 1.077-1 1.312-1.313 1.312-.39 0-.547-.313-.547-.657 0-.218.047-.437.156-.875zm0 0" style="fill:#dfdfdf;fill-opacity:1;stroke:none" transform="translate(1326.546 383.056)scale(7.96512)"/>
            <g fill="#000" style="fill:#dfdfdf;fill-opacity:1;stroke:none">
                <g style="fill:#dfdfdf;fill-opacity:1;stroke:none;stroke-opacity:1">
                    <path fill="#000" d="M3.328-3.016c.063-.25.297-1.171.985-1.171.046 0 .296 0 .5.125a.578.578 0 0 0-.47.546c0 .157.11.344.376.344a.546.546 0 0 0 .531-.578c0-.516-.578-.656-.922-.656-.578 0-.922.531-1.047.75-.25-.656-.781-.75-1.078-.75-1.031 0-1.61 1.281-1.61 1.531 0 .11.11.11.126.11.078 0 .11-.032.125-.11.344-1.062 1-1.312 1.344-1.312.187 0 .53.093.53.671 0 .313-.171.97-.53 2.375-.157.61-.516 1.032-.954 1.032-.062 0-.28 0-.5-.125.25-.063.47-.266.47-.547 0-.266-.22-.344-.36-.344-.313 0-.547.25-.547.578 0 .453.484.656.922.656.672 0 1.031-.703 1.047-.75.125.36.484.75 1.078.75 1.031 0 1.594-1.28 1.594-1.53 0-.11-.079-.11-.11-.11-.094 0-.11.047-.14.11-.329 1.077-1 1.312-1.313 1.312-.39 0-.547-.313-.547-.657 0-.218.047-.437.156-.875zm0 0" style="fill:#dfdfdf;fill-opacity:1;stroke:none" transform="rotate(21.408 -671.523 3539.253)scale(7.96512)"/>
                </g>
                <path d="M3.516-1.266H3.28c-.015.157-.094.563-.187.625-.047.047-.578.047-.688.047h-1.28c.734-.64.984-.843 1.39-1.172.516-.406 1-.843 1-1.5 0-.843-.734-1.359-1.624-1.359-.86 0-1.453.61-1.453 1.25 0 .344.296.39.375.39a.365.365 0 0 0 .359-.374c0-.125-.047-.375-.406-.375.218-.485.687-.641 1.015-.641.703 0 1.063.547 1.063 1.11 0 .609-.438 1.078-.656 1.328L.516-.266C.437-.203.437-.187.437 0h2.876zm0 0" style="fill:#dfdfdf;fill-opacity:1;stroke:none" transform="rotate(21.408 -618.03 3673.712)scale(7.96512)"/>
            </g>
            <g fill="#000">
                <path d="M3.328-3.016c.063-.25.297-1.171.985-1.171.046 0 .296 0 .5.125a.578.578 0 0 0-.47.546c0 .157.11.344.376.344a.546.546 0 0 0 .531-.578c0-.516-.578-.656-.922-.656-.578 0-.922.531-1.047.75-.25-.656-.781-.75-1.078-.75-1.031 0-1.61 1.281-1.61 1.531 0 .11.11.11.126.11.078 0 .11-.032.125-.11.344-1.062 1-1.312 1.344-1.312.187 0 .53.093.53.671 0 .313-.171.97-.53 2.375-.157.61-.516 1.032-.954 1.032-.062 0-.28 0-.5-.125.25-.063.47-.266.47-.547 0-.266-.22-.344-.36-.344-.313 0-.547.25-.547.578 0 .453.484.656.922.656.672 0 1.031-.703 1.047-.75.125.36.484.75 1.078.75 1.031 0 1.594-1.28 1.594-1.53 0-.11-.079-.11-.11-.11-.094 0-.11.047-.14.11-.329 1.077-1 1.312-1.313 1.312-.39 0-.547-.313-.547-.657 0-.218.047-.437.156-.875zm0 0" style="fill:#dfdfdf;fill-opacity:1;stroke:none" transform="rotate(-17.911 2311.207 -4152.982)scale(7.96512)"/>
                <path d="M3.688-1.14v-.25h-.782V-4.5c0-.14 0-.203-.14-.203-.094 0-.125 0-.188.11L.266-1.392v.25h2.062v.563c0 .25 0 .328-.578.328h-.187V0c.359-.016.796-.031 1.046-.031.266 0 .704.015 1.063.031v-.25h-.188c-.578 0-.578-.078-.578-.328v-.563zM2.375-3.939v2.547H.531Zm0 0" style="fill:#dfdfdf;fill-opacity:1;stroke:none" transform="rotate(-17.911 2197.139 -4282.479)scale(7.96512)"/>
            </g>
        </g>
        <path stroke="none" d="M6.844-4.234c.172 0 .36 0 .36-.188 0-.203-.188-.203-.36-.203H.89c-.157 0-.344 0-.344.203 0 .188.203.188.36.188zm0 3.875c.172 0 .36 0 .36-.203 0-.188-.188-.188-.36-.188H.906c-.156 0-.36 0-.36.188 0 .203.188.203.345.203zm0-1.938c.172 0 .36 0 .36-.203 0-.187-.188-.187-.36-.187H.89c-.157 0-.344 0-.344.187 0 .203.187.203.344.203zm0 0" style="fill:#fff09f;fill-opacity:1;stroke:none;stroke-width:.0940377;stroke-dasharray:none;stroke-opacity:1" transform="translate(845.967 531.596)scale(29.42792)"/>
        <g stroke="none" transform="translate(693.184 627.856)scale(.41341)">
            <rect width="1549.045" height="359.447" x="-129.122" y="31.928" rx="66.448" ry="92.714" style="fill:#202020;fill-opacity:1;stroke:none;stroke-width:0;stroke-linecap:round;stroke-linejoin:round;stroke-dasharray:none;stroke-opacity:1;paint-order:normal"/>
            <path d="M-63.064 269.178V134.999h16.28v119.688h49.2v14.491zm157.795-44.726q0 3.399-.18 5.188H26.927q1.252 12.702 8.408 20.216 7.156 7.335 19.322 7.335 8.23 0 13.776-3.22 5.546-3.4 10.913-11.629l11.092 7.693q-11.629 20.932-36.318 20.932-19.5 0-31.13-12.881-11.45-13.06-11.45-33.455 0-20.395 11.63-33.456 11.628-13.239 30.95-13.239 18.785 0 29.698 12.882 10.914 12.88 10.914 33.634zm-40.254-32.919q-11.45 0-18.427 6.978-6.978 6.977-8.767 18.785h53.135q-1.252-11.987-8.05-18.785-6.62-6.978-17.891-6.978m100.008 61.723 8.766 10.734q-6.62 6.977-18.785 6.977-12.344 0-19.858-7.335-7.514-7.514-7.514-19.5V192.07h-11.63v-12.344h11.63v-30.414h15.743v30.414h24.331v12.344h-24.152v52.061q0 13.24 11.808 13.24 5.725 0 9.66-4.116zm27.194-67.448L179.889 135h15.029l-1.79 50.81zm72.635 85.16q-10.913 0-21.29-3.937-10.376-3.936-15.386-9.84l8.23-10.734q3.22 4.652 11.271 8.05 8.23 3.221 16.28 3.4 8.409.358 13.955-3.22 5.725-3.578 5.725-9.661 0-2.684-1.431-4.83-1.253-2.147-2.863-3.4-1.431-1.431-5.188-2.862-3.578-1.61-5.546-2.147-1.968-.716-6.798-2.147l-6.978-2.326q-2.147-.715-6.44-2.325-4.294-1.79-6.44-3.4-2.148-1.789-4.652-4.293-2.505-2.684-3.579-5.904-1.073-3.4-1.073-7.335 0-11.63 9.66-18.785 9.84-7.336 23.259-7.336 8.408 0 16.817 2.863 8.587 2.684 14.133 7.156l-8.766 10.734q-7.693-7.156-19.5-8.05-7.515-.537-13.598 2.504-5.904 3.042-5.904 8.946 0 3.22 1.432 5.725 1.61 2.504 5.01 4.293 3.577 1.79 6.26 2.863 2.863.894 8.23 2.504 5.725 1.61 8.588 2.684 3.041.895 7.693 3.22 4.83 2.147 7.156 4.652 2.505 2.326 4.473 6.44 1.968 4.115 1.968 9.304 0 11.807-10.02 19.5-9.839 7.693-24.688 7.693zm166.919-91.242h14.312v88.379q0 20.037-11.629 32.918-11.45 12.881-30.593 12.881-15.385 0-27.551-8.408V288.32q12.166 11.629 28.625 11.629 11.45 0 18.427-8.767 7.156-8.587 7.156-23.078v-11.271q-11.45 14.133-29.34 14.133-18.606 0-29.877-13.239-11.271-13.418-11.271-33.276 0-20.038 11.27-33.277 11.272-13.239 29.878-13.239 18.248 0 29.877 14.85zm-28.089 77.108q9.303 0 16.639-6.441 7.514-6.44 10.197-16.46V214.97q-2.683-10.198-10.197-16.638-7.336-6.44-16.639-6.44-12.88 0-20.574 9.302-7.514 9.303-7.514 23.258 0 13.775 7.514 23.079 7.693 9.303 20.574 9.303m146.166-32.382q0 3.399-.179 5.188h-67.626q1.252 12.702 8.408 20.216 7.157 7.335 19.322 7.335 8.23 0 13.776-3.22 5.546-3.4 10.913-11.629l11.092 7.693q-11.629 20.932-36.318 20.932-19.5 0-31.129-12.881-11.45-13.06-11.45-33.455 0-20.395 11.629-33.456 11.629-13.239 30.95-13.239 18.785 0 29.699 12.882 10.913 12.88 10.913 33.634m-40.254-32.919q-11.45 0-18.427 6.978-6.977 6.977-8.766 18.785h53.134q-1.252-11.987-8.05-18.785-6.62-6.978-17.89-6.978zm100.008 61.723 8.766 10.734q-6.619 6.977-18.785 6.977-12.344 0-19.858-7.335-7.514-7.514-7.514-19.5V192.07h-11.629v-12.344h11.629v-30.414h15.744v30.414h24.33v12.344h-24.151v52.061q0 13.24 11.807 13.24 5.725 0 9.661-4.116zm105.197 17.711q-19.322 0-30.772-13.06t-11.45-33.455q0-20.395 11.45-33.455 11.45-13.06 30.772-13.06 13.775 0 23.078 7.156v15.922q-8.766-9.66-21.468-9.66-13.06 0-20.753 9.302-7.514 9.303-7.514 23.795 0 14.491 7.514 23.794 7.693 9.303 20.753 9.303t21.468-9.66v15.743q-9.303 7.335-23.078 7.335m79.791 0q-19.322 0-31.487-13.418-12.166-13.418-12.166-33.097 0-19.859 12.166-33.098 12.165-13.418 31.487-13.418 19.143 0 31.308 13.418 12.345 13.418 12.345 33.098t-12.345 33.097q-12.165 13.418-31.308 13.418m0-14.133q12.702 0 20.395-9.303 7.693-9.304 7.693-23.08 0-13.954-7.872-23.257-7.693-9.303-20.216-9.303-12.881 0-20.574 9.303-7.514 9.303-7.514 23.258 0 13.954 7.514 23.257 7.693 9.125 20.574 9.125zm127.56-77.108h15.922v89.452h-14.491l-.895-11.987q-10.913 13.776-28.446 13.776-14.849 0-25.047-10.376-10.197-10.377-10.197-25.226v-55.64H864.2v54.03q0 9.66 6.799 16.46 6.798 6.619 16.638 6.619 10.019 0 16.996-6.62 6.977-6.798 6.977-16.46zm86.947-1.79q15.028 0 24.868 9.84 10.018 9.84 10.018 24.868v56.534h-15.922v-54.745q0-9.66-6.62-16.101-6.619-6.44-16.638-6.44-10.018 0-17.175 6.797-6.977 6.799-6.977 16.46v54.029H954.37v-89.452h14.49l.716 11.807q11.271-13.597 28.983-13.597zm98.756 75.32 8.766 10.734q-6.62 6.977-18.785 6.977-12.345 0-19.859-7.335-7.514-7.514-7.514-19.5V192.07h-11.628v-12.344h11.628v-30.414h15.744v30.414h24.331v12.344h-24.152v52.061q0 13.24 11.808 13.24 5.725 0 9.66-4.116zm41.148-93.031q-3.041 2.862-7.335 2.862-4.294 0-7.514-2.862-3.042-3.041-3.042-7.335 0-4.473 3.042-7.514 3.22-3.042 7.514-3.042 4.115 0 7.156 3.22 3.22 3.042 3.22 7.336 0 4.294-3.041 7.335m-15.386 108.953v-89.452h15.744v89.452zm89.99-91.242q15.027 0 24.867 9.84 10.019 9.84 10.019 24.868v56.534h-15.923v-54.745q0-9.66-6.62-16.101-6.619-6.44-16.637-6.44-10.02 0-17.175 6.797-6.978 6.799-6.978 16.46v54.029h-15.743v-89.452h14.491l.716 11.807q11.27-13.597 28.982-13.597zm126.485 1.79h14.312v88.379q0 20.037-11.628 32.918-11.45 12.881-30.593 12.881-15.386 0-27.551-8.408V288.32q12.165 11.629 28.624 11.629 11.45 0 18.428-8.767 7.156-8.587 7.156-23.078v-11.271q-11.45 14.133-29.34 14.133-18.607 0-29.878-13.239-11.27-13.418-11.27-33.276 0-20.038 11.27-33.277 11.271-13.239 29.877-13.239 18.249 0 29.877 14.85zm-28.088 77.108q9.303 0 16.638-6.441 7.514-6.44 10.198-16.46V214.97q-2.684-10.198-10.198-16.638-7.335-6.44-16.638-6.44-12.881 0-20.574 9.302-7.514 9.303-7.514 23.258 0 13.775 7.514 23.079 7.693 9.303 20.574 9.303" aria-label="Let's get counting" style="fill:#aaffb1;fill-opacity:1;stroke:none;stroke-width:0;stroke-linecap:round;stroke-linejoin:round"/>
        </g>
</svg>
