<svg xmlns="http://www.w3.org/2000/svg" xmlns:ns4="http://www.iki.fi/pav/software/textext/" width="1920" height="1080" viewBox="0 0 508 285.75"><defs><filter id="a" width="1" height="1" x="0" y="0" style="color-interpolation-filters:sRGB"><feGaussianBlur/></filter></defs><path d="M0 0h508v285.75H0z" style="fill:#191919;fill-opacity:1;stroke-width:.819888"/><g style="opacity:.642361;fill:#baffc2;fill-opacity:1;stroke:none;stroke-opacity:1;filter:url(#a)"><g ns4:alignment="middle center" ns4:jacobian_sqrt=".353" ns4:pdfconverter="inkscape" ns4:preamble="C:\Users\Sid\AppData\Roaming\inkscape\extensions\textext\default_packages.tex" ns4:scale="1" ns4:stroke-to-path="0" ns4:texconverter="pdflatex" ns4:text="$\\mathbb{GAIA}$" ns4:version="1.9.0" fill="#000" style="fill:#baffc2;fill-opacity:1;stroke:none;stroke-opacity:1" transform="matrix(9.97962 0 0 9.97962 126.966 106.929)"><path d="M6.547-2.547c-.25.328-.25.656-.25.813V-.72c-.14.078-.5.235-.89.344.046-.156.046-.547.046-.828 0-.734 0-1.047-.328-1.344zM3.937.188c.876 0 1.75-.22 2.438-.563.25-.14.266-.14.266-.422v-.922c0-.531.265-.781.625-.812.187-.016.187-.156.187-.188 0-.172-.172-.172-.344-.172H4.453c-.203 0-.36 0-.36.172 0 .094.048.172.188.188.828.062.828.672.828.953v.766c0 .28 0 .437-.296.546-.313.11-.766.11-.86.11-.406 0-1.11-.078-1.515-1.125-.22-.578-.313-1.344-.313-2.11 0-2 .719-3.28 1.781-3.28.906 0 2.016.937 2.25 1.702.047.188.078.282.219.282.172 0 .172-.172.172-.344v-1.657c0-.171 0-.328-.172-.328-.016 0-.172 0-.188.172-.015.172-.109.282-.312.282-.36 0-.703-.141-.844-.204a2.561 2.561 0 0 0-1.156-.25c-1.656 0-3.5 1.047-3.5 3.594C.375-1 2.031.188 3.938.188Zm2.25-5.844a3.028 3.028 0 0 0-.5-.563c.063.016.141.016.188.016a.66.66 0 0 0 .313-.078zM2.547-.422C1.219-.969.719-2.14.719-3.406c0-1.844 1-2.719 1.937-3.047v.016c-.25.25-.875 1.125-.875 3.046 0 .782.078 2.141.766 2.97zm0 0" style="fill:#baffc2;fill-opacity:1;stroke:none;stroke-opacity:1" transform="translate(-.375 7.016)"/><path d="M3.656-6.797c-.062-.172-.094-.219-.203-.219-.11 0-.156.094-.203.204L.984-.845c-.125.313-.343.469-.609.5-.047 0-.203.016-.203.172C.172 0 .328 0 .516 0h1.593c.172 0 .329 0 .329-.172 0-.156-.141-.172-.22-.172-.14-.015-.39-.062-.39-.656 0-.328.078-.64.14-.969h2.204c.344.985.36 1.14.36 1.344-.235.25-.516.266-.626.281a.173.173 0 0 0-.172.172c0 .172.157.172.329.172h2.609c.172 0 .344 0 .344-.172 0-.14-.141-.172-.235-.172C6.563-.39 6.406-.563 6.203-1ZM2.078-2.313c.219-.874.547-1.718.875-2.562.313.672.906 2.11 1.078 2.563zm-.594 1.11.016.016v.093c-.016.032-.016.032-.016.094 0 .047 0 .422.141.656h-.531c.125-.14.156-.265.218-.422Zm1.61-4.203.36-.969 2.421 5.5c.047.11.156.344.297.531H4.75c.11-.062.14-.203.14-.328 0-.61-.874-2.625-1.296-3.625zm0 0" style="fill:#baffc2;fill-opacity:1;stroke:none;stroke-opacity:1" transform="translate(7.374 7.016)"/><path d="M2.75-5.906c0-.469.031-.578.625-.578.14 0 .297 0 .297-.172s-.14-.172-.328-.172H.53c-.172 0-.328 0-.328.172s.172.172.328.172c.563 0 .594.109.594.578v4.984c0 .485-.031.578-.61.578-.14 0-.312 0-.312.172S.36 0 .531 0h2.813c.187 0 .328 0 .328-.172s-.156-.172-.266-.172c-.61 0-.656-.078-.656-.578Zm-1.281-.032c0-.14 0-.359-.078-.546H2.5c-.094.187-.094.406-.094.546V-.89c0 .141 0 .36.094.547H1.39C1.47-.53 1.47-.75 1.47-.89Zm0 0" style="fill:#baffc2;fill-opacity:1;stroke:none;stroke-opacity:1" transform="translate(14.569 7.016)"/><path d="M3.656-6.797c-.062-.172-.094-.219-.203-.219-.11 0-.156.094-.203.204L.984-.845c-.125.313-.343.469-.609.5-.047 0-.203.016-.203.172C.172 0 .328 0 .516 0h1.593c.172 0 .329 0 .329-.172 0-.156-.141-.172-.22-.172-.14-.015-.39-.062-.39-.656 0-.328.078-.64.14-.969h2.204c.344.985.36 1.14.36 1.344-.235.25-.516.266-.626.281a.173.173 0 0 0-.172.172c0 .172.157.172.329.172h2.609c.172 0 .344 0 .344-.172 0-.14-.141-.172-.235-.172C6.563-.39 6.406-.563 6.203-1ZM2.078-2.313c.219-.874.547-1.718.875-2.562.313.672.906 2.11 1.078 2.563zm-.594 1.11.016.016v.093c-.016.032-.016.032-.016.094 0 .047 0 .422.141.656h-.531c.125-.14.156-.265.218-.422Zm1.61-4.203.36-.969 2.421 5.5c.047.11.156.344.297.531H4.75c.11-.062.14-.203.14-.328 0-.61-.874-2.625-1.296-3.625zm0 0" style="fill:#baffc2;fill-opacity:1;stroke:none;stroke-opacity:1" transform="translate(18.443 7.016)"/></g></g></svg>